G75*
%MOIN*%
%OFA0B0*%
%FSLAX25Y25*%
%IPPOS*%
%LPD*%
%AMOC8*
5,1,8,0,0,1.08239X$1,22.5*
%
%ADD10C,0.15800*%
%ADD11C,0.05950*%
%ADD12C,0.07100*%
%ADD13C,0.07300*%
%ADD14C,0.08200*%
%ADD15R,0.07099X0.07887*%
%ADD16C,0.06619*%
%ADD17C,0.07800*%
%ADD18R,0.06201X0.01969*%
%ADD19R,0.06312X0.04737*%
%ADD20C,0.13300*%
D10*
X0016500Y0016833D03*
X0016500Y0276833D03*
X0331500Y0276833D03*
X0331500Y0016833D03*
D11*
X0281500Y0131833D03*
X0281500Y0141833D03*
X0281500Y0151833D03*
X0281500Y0161833D03*
X0281500Y0171833D03*
X0281500Y0181833D03*
X0281500Y0191833D03*
X0281500Y0201833D03*
X0281500Y0211833D03*
X0281500Y0221833D03*
X0281500Y0231833D03*
X0281500Y0241833D03*
X0281500Y0251833D03*
X0281500Y0261833D03*
X0281500Y0271833D03*
X0221500Y0271833D03*
X0221500Y0261833D03*
X0221500Y0251833D03*
X0221500Y0241833D03*
X0221500Y0231833D03*
X0221500Y0221833D03*
X0221500Y0211833D03*
X0221500Y0201833D03*
X0221500Y0191833D03*
X0221500Y0181833D03*
X0221500Y0171833D03*
X0221500Y0161833D03*
X0221500Y0151833D03*
X0221500Y0141833D03*
X0221500Y0131833D03*
D12*
X0201500Y0151833D03*
X0181500Y0151833D03*
X0181500Y0181833D03*
X0201500Y0181833D03*
X0196500Y0246833D03*
X0176500Y0246833D03*
X0206500Y0101833D03*
X0206500Y0081833D03*
X0231500Y0081833D03*
X0231500Y0101833D03*
X0261500Y0101833D03*
X0261500Y0081833D03*
X0106500Y0026833D03*
X0086500Y0026833D03*
D13*
X0136579Y0021833D03*
X0146421Y0021833D03*
D14*
X0166500Y0016833D03*
X0176500Y0016833D03*
X0191500Y0031833D03*
X0201500Y0031833D03*
X0211500Y0031833D03*
X0221500Y0031833D03*
X0231500Y0031833D03*
X0241500Y0031833D03*
X0251500Y0031833D03*
X0261500Y0031833D03*
X0271500Y0031833D03*
X0281500Y0031833D03*
X0281500Y0041833D03*
X0271500Y0041833D03*
X0261500Y0041833D03*
X0251500Y0041833D03*
X0241500Y0041833D03*
X0231500Y0041833D03*
X0221500Y0041833D03*
X0211500Y0041833D03*
X0201500Y0041833D03*
X0191500Y0041833D03*
X0191500Y0051833D03*
X0201500Y0051833D03*
X0211500Y0051833D03*
X0221500Y0051833D03*
X0231500Y0051833D03*
X0241500Y0051833D03*
X0251500Y0051833D03*
X0261500Y0051833D03*
X0271500Y0051833D03*
X0281500Y0051833D03*
X0281500Y0061833D03*
X0271500Y0061833D03*
X0261500Y0061833D03*
X0251500Y0061833D03*
X0241500Y0061833D03*
X0231500Y0061833D03*
X0221500Y0061833D03*
X0211500Y0061833D03*
X0201500Y0061833D03*
X0191500Y0061833D03*
X0273500Y0091833D03*
X0303500Y0091833D03*
X0321500Y0091833D03*
X0331500Y0091833D03*
X0331500Y0101833D03*
X0321500Y0101833D03*
X0321500Y0111833D03*
X0331500Y0111833D03*
X0331500Y0121833D03*
X0321500Y0121833D03*
X0321500Y0131833D03*
X0331500Y0131833D03*
X0331500Y0051833D03*
X0321500Y0051833D03*
X0066500Y0026833D03*
X0056500Y0026833D03*
X0026500Y0051833D03*
X0016500Y0051833D03*
X0016500Y0061833D03*
X0026500Y0061833D03*
X0026500Y0071833D03*
X0016500Y0071833D03*
X0016500Y0081833D03*
X0026500Y0081833D03*
X0026500Y0091833D03*
X0016500Y0091833D03*
X0016500Y0101833D03*
X0026500Y0101833D03*
X0026500Y0111833D03*
X0016500Y0111833D03*
X0016500Y0121833D03*
X0026500Y0121833D03*
X0026500Y0131833D03*
X0016500Y0131833D03*
X0016500Y0141833D03*
X0026500Y0141833D03*
X0026500Y0151833D03*
X0016500Y0151833D03*
X0016500Y0161833D03*
X0026500Y0161833D03*
X0026500Y0171833D03*
X0016500Y0171833D03*
X0016500Y0181833D03*
X0026500Y0181833D03*
X0026500Y0191833D03*
X0016500Y0191833D03*
X0016500Y0201833D03*
X0026500Y0201833D03*
X0026500Y0211833D03*
X0016500Y0211833D03*
X0016500Y0221833D03*
X0026500Y0221833D03*
X0026500Y0231833D03*
X0016500Y0231833D03*
X0016500Y0241833D03*
X0026500Y0241833D03*
D15*
X0050988Y0241833D03*
X0050988Y0231833D03*
X0062012Y0231833D03*
X0062012Y0241833D03*
X0075988Y0241833D03*
X0075988Y0231833D03*
X0075988Y0221833D03*
X0075988Y0211833D03*
X0075988Y0201833D03*
X0075988Y0191833D03*
X0075988Y0181833D03*
X0075988Y0171833D03*
X0075988Y0161833D03*
X0075988Y0151833D03*
X0075988Y0141833D03*
X0075988Y0131833D03*
X0075988Y0121833D03*
X0075988Y0111833D03*
X0075988Y0101833D03*
X0075988Y0091833D03*
X0087012Y0091833D03*
X0087012Y0101833D03*
X0087012Y0111833D03*
X0087012Y0121833D03*
X0087012Y0131833D03*
X0087012Y0141833D03*
X0087012Y0151833D03*
X0087012Y0161833D03*
X0087012Y0171833D03*
X0087012Y0181833D03*
X0087012Y0191833D03*
X0087012Y0201833D03*
X0087012Y0211833D03*
X0087012Y0221833D03*
X0087012Y0231833D03*
X0087012Y0241833D03*
X0105988Y0241833D03*
X0105988Y0231833D03*
X0117012Y0231833D03*
X0117012Y0241833D03*
X0130988Y0241833D03*
X0130988Y0231833D03*
X0142012Y0231833D03*
X0142012Y0241833D03*
X0142012Y0221833D03*
X0142012Y0211833D03*
X0130988Y0211833D03*
X0130988Y0221833D03*
X0117012Y0221833D03*
X0117012Y0211833D03*
X0105988Y0211833D03*
X0105988Y0221833D03*
X0105988Y0201833D03*
X0105988Y0191833D03*
X0117012Y0191833D03*
X0117012Y0201833D03*
X0130988Y0201833D03*
X0130988Y0191833D03*
X0142012Y0191833D03*
X0142012Y0201833D03*
X0142012Y0181833D03*
X0142012Y0171833D03*
X0142012Y0161833D03*
X0130988Y0161833D03*
X0130988Y0171833D03*
X0130988Y0181833D03*
X0117012Y0181833D03*
X0117012Y0171833D03*
X0117012Y0161833D03*
X0105988Y0161833D03*
X0105988Y0171833D03*
X0105988Y0181833D03*
X0105988Y0151833D03*
X0105988Y0141833D03*
X0117012Y0141833D03*
X0117012Y0151833D03*
X0130988Y0151833D03*
X0130988Y0141833D03*
X0142012Y0141833D03*
X0142012Y0151833D03*
X0142012Y0131833D03*
X0142012Y0121833D03*
X0142012Y0111833D03*
X0130988Y0111833D03*
X0130988Y0121833D03*
X0130988Y0131833D03*
X0117012Y0131833D03*
X0117012Y0121833D03*
X0117012Y0111833D03*
X0105988Y0111833D03*
X0105988Y0121833D03*
X0105988Y0131833D03*
X0105988Y0101833D03*
X0105988Y0091833D03*
X0117012Y0091833D03*
X0117012Y0101833D03*
X0130988Y0101833D03*
X0130988Y0091833D03*
X0142012Y0091833D03*
X0142012Y0101833D03*
X0062012Y0101833D03*
X0062012Y0091833D03*
X0050988Y0091833D03*
X0050988Y0101833D03*
X0050988Y0111833D03*
X0050988Y0121833D03*
X0050988Y0131833D03*
X0062012Y0131833D03*
X0062012Y0121833D03*
X0062012Y0111833D03*
X0062012Y0141833D03*
X0062012Y0151833D03*
X0050988Y0151833D03*
X0050988Y0141833D03*
X0050988Y0161833D03*
X0050988Y0171833D03*
X0050988Y0181833D03*
X0062012Y0181833D03*
X0062012Y0171833D03*
X0062012Y0161833D03*
X0062012Y0191833D03*
X0062012Y0201833D03*
X0050988Y0201833D03*
X0050988Y0191833D03*
X0050988Y0211833D03*
X0050988Y0221833D03*
X0062012Y0221833D03*
X0062012Y0211833D03*
D16*
X0306500Y0211833D03*
X0306500Y0221833D03*
X0306500Y0231833D03*
X0306500Y0241833D03*
X0336500Y0241833D03*
X0336500Y0231833D03*
X0336500Y0221833D03*
X0336500Y0211833D03*
X0336500Y0201833D03*
X0336500Y0191833D03*
X0336500Y0181833D03*
X0336500Y0171833D03*
X0306500Y0171833D03*
X0306500Y0181833D03*
X0306500Y0191833D03*
X0306500Y0201833D03*
D17*
X0166500Y0071833D03*
X0156500Y0071833D03*
X0146500Y0071833D03*
X0136500Y0071833D03*
X0126500Y0071833D03*
X0116500Y0071833D03*
X0106500Y0071833D03*
X0096500Y0071833D03*
X0086500Y0071833D03*
X0076500Y0071833D03*
X0066500Y0071833D03*
X0056500Y0071833D03*
D18*
X0176919Y0109073D03*
X0176919Y0111573D03*
X0176919Y0114073D03*
X0176919Y0116573D03*
X0176919Y0119073D03*
X0176919Y0121573D03*
X0176919Y0124073D03*
X0176919Y0126573D03*
X0176919Y0129073D03*
X0176919Y0131573D03*
X0176919Y0134073D03*
X0176919Y0136573D03*
X0198081Y0136593D03*
X0198081Y0134093D03*
X0198081Y0131593D03*
X0198081Y0129093D03*
X0198081Y0126593D03*
X0198081Y0124093D03*
X0198081Y0121593D03*
X0198081Y0119093D03*
X0198081Y0116593D03*
X0198081Y0114093D03*
X0198081Y0111593D03*
X0198081Y0109093D03*
X0198081Y0199093D03*
X0198081Y0201593D03*
X0198081Y0204093D03*
X0198081Y0206593D03*
X0198081Y0209093D03*
X0198081Y0211593D03*
X0198081Y0214093D03*
X0198081Y0216593D03*
X0198081Y0219093D03*
X0198081Y0221593D03*
X0198081Y0224093D03*
X0198081Y0226593D03*
X0176919Y0226573D03*
X0176919Y0224073D03*
X0176919Y0221573D03*
X0176919Y0219073D03*
X0176919Y0216573D03*
X0176919Y0214073D03*
X0176919Y0211573D03*
X0176919Y0209073D03*
X0176919Y0206573D03*
X0176919Y0204073D03*
X0176919Y0201573D03*
X0176919Y0199073D03*
D19*
X0242169Y0095573D03*
X0242169Y0088093D03*
X0250831Y0091833D03*
D20*
X0076500Y0011833D03*
X0056500Y0011833D03*
M02*
