G75*
%MOIN*%
%OFA0B0*%
%FSLAX25Y25*%
%IPPOS*%
%LPD*%
%AMOC8*
5,1,8,0,0,1.08239X$1,22.5*
%
%ADD10C,0.00800*%
%ADD11C,0.01000*%
%ADD12C,0.01100*%
%ADD13C,0.00600*%
%ADD14C,0.00400*%
D10*
X0097580Y0010635D02*
X0097580Y0013437D01*
X0100382Y0013437D02*
X0100382Y0010635D01*
X0098981Y0009233D01*
X0097580Y0010635D01*
X0102184Y0010635D02*
X0102184Y0009934D01*
X0102884Y0009233D01*
X0104286Y0009233D01*
X0104986Y0009934D01*
X0104986Y0010635D01*
X0104286Y0011335D01*
X0102884Y0011335D01*
X0102184Y0010635D01*
X0102884Y0011335D02*
X0102184Y0012036D01*
X0102184Y0012736D01*
X0102884Y0013437D01*
X0104286Y0013437D01*
X0104986Y0012736D01*
X0104986Y0012036D01*
X0104286Y0011335D01*
X0106788Y0009233D02*
X0109590Y0009233D01*
X0108189Y0009233D02*
X0108189Y0013437D01*
X0109590Y0012036D01*
X0111192Y0009934D02*
X0111192Y0009233D01*
X0111892Y0009233D01*
X0111892Y0009934D01*
X0111192Y0009934D01*
X0113494Y0009934D02*
X0113494Y0009233D01*
X0114194Y0009233D01*
X0114194Y0009934D01*
X0113494Y0009934D01*
X0115795Y0009934D02*
X0115795Y0009233D01*
X0116496Y0009233D01*
X0116496Y0009934D01*
X0115795Y0009934D01*
X0118298Y0012736D02*
X0121100Y0009934D01*
X0121100Y0009233D01*
X0121100Y0013437D02*
X0118298Y0013437D01*
X0118298Y0012736D01*
X0315425Y0129333D02*
X0315425Y0134333D01*
X0010425Y0239333D02*
X0010425Y0244333D01*
D11*
X0004000Y0016833D02*
X0004004Y0017140D01*
X0004015Y0017446D01*
X0004034Y0017753D01*
X0004060Y0018058D01*
X0004094Y0018363D01*
X0004135Y0018667D01*
X0004184Y0018970D01*
X0004240Y0019272D01*
X0004304Y0019572D01*
X0004375Y0019870D01*
X0004453Y0020167D01*
X0004538Y0020462D01*
X0004631Y0020754D01*
X0004731Y0021044D01*
X0004838Y0021332D01*
X0004952Y0021617D01*
X0005072Y0021899D01*
X0005200Y0022177D01*
X0005335Y0022453D01*
X0005476Y0022725D01*
X0005624Y0022994D01*
X0005778Y0023259D01*
X0005939Y0023520D01*
X0006107Y0023778D01*
X0006280Y0024031D01*
X0006460Y0024279D01*
X0006646Y0024523D01*
X0006837Y0024763D01*
X0007035Y0024998D01*
X0007238Y0025227D01*
X0007447Y0025452D01*
X0007661Y0025672D01*
X0007881Y0025886D01*
X0008106Y0026095D01*
X0008335Y0026298D01*
X0008570Y0026496D01*
X0008810Y0026687D01*
X0009054Y0026873D01*
X0009302Y0027053D01*
X0009555Y0027226D01*
X0009813Y0027394D01*
X0010074Y0027555D01*
X0010339Y0027709D01*
X0010608Y0027857D01*
X0010880Y0027998D01*
X0011156Y0028133D01*
X0011434Y0028261D01*
X0011716Y0028381D01*
X0012001Y0028495D01*
X0012289Y0028602D01*
X0012579Y0028702D01*
X0012871Y0028795D01*
X0013166Y0028880D01*
X0013463Y0028958D01*
X0013761Y0029029D01*
X0014061Y0029093D01*
X0014363Y0029149D01*
X0014666Y0029198D01*
X0014970Y0029239D01*
X0015275Y0029273D01*
X0015580Y0029299D01*
X0015887Y0029318D01*
X0016193Y0029329D01*
X0016500Y0029333D01*
X0016807Y0029329D01*
X0017113Y0029318D01*
X0017420Y0029299D01*
X0017725Y0029273D01*
X0018030Y0029239D01*
X0018334Y0029198D01*
X0018637Y0029149D01*
X0018939Y0029093D01*
X0019239Y0029029D01*
X0019537Y0028958D01*
X0019834Y0028880D01*
X0020129Y0028795D01*
X0020421Y0028702D01*
X0020711Y0028602D01*
X0020999Y0028495D01*
X0021284Y0028381D01*
X0021566Y0028261D01*
X0021844Y0028133D01*
X0022120Y0027998D01*
X0022392Y0027857D01*
X0022661Y0027709D01*
X0022926Y0027555D01*
X0023187Y0027394D01*
X0023445Y0027226D01*
X0023698Y0027053D01*
X0023946Y0026873D01*
X0024190Y0026687D01*
X0024430Y0026496D01*
X0024665Y0026298D01*
X0024894Y0026095D01*
X0025119Y0025886D01*
X0025339Y0025672D01*
X0025553Y0025452D01*
X0025762Y0025227D01*
X0025965Y0024998D01*
X0026163Y0024763D01*
X0026354Y0024523D01*
X0026540Y0024279D01*
X0026720Y0024031D01*
X0026893Y0023778D01*
X0027061Y0023520D01*
X0027222Y0023259D01*
X0027376Y0022994D01*
X0027524Y0022725D01*
X0027665Y0022453D01*
X0027800Y0022177D01*
X0027928Y0021899D01*
X0028048Y0021617D01*
X0028162Y0021332D01*
X0028269Y0021044D01*
X0028369Y0020754D01*
X0028462Y0020462D01*
X0028547Y0020167D01*
X0028625Y0019870D01*
X0028696Y0019572D01*
X0028760Y0019272D01*
X0028816Y0018970D01*
X0028865Y0018667D01*
X0028906Y0018363D01*
X0028940Y0018058D01*
X0028966Y0017753D01*
X0028985Y0017446D01*
X0028996Y0017140D01*
X0029000Y0016833D01*
X0028996Y0016526D01*
X0028985Y0016220D01*
X0028966Y0015913D01*
X0028940Y0015608D01*
X0028906Y0015303D01*
X0028865Y0014999D01*
X0028816Y0014696D01*
X0028760Y0014394D01*
X0028696Y0014094D01*
X0028625Y0013796D01*
X0028547Y0013499D01*
X0028462Y0013204D01*
X0028369Y0012912D01*
X0028269Y0012622D01*
X0028162Y0012334D01*
X0028048Y0012049D01*
X0027928Y0011767D01*
X0027800Y0011489D01*
X0027665Y0011213D01*
X0027524Y0010941D01*
X0027376Y0010672D01*
X0027222Y0010407D01*
X0027061Y0010146D01*
X0026893Y0009888D01*
X0026720Y0009635D01*
X0026540Y0009387D01*
X0026354Y0009143D01*
X0026163Y0008903D01*
X0025965Y0008668D01*
X0025762Y0008439D01*
X0025553Y0008214D01*
X0025339Y0007994D01*
X0025119Y0007780D01*
X0024894Y0007571D01*
X0024665Y0007368D01*
X0024430Y0007170D01*
X0024190Y0006979D01*
X0023946Y0006793D01*
X0023698Y0006613D01*
X0023445Y0006440D01*
X0023187Y0006272D01*
X0022926Y0006111D01*
X0022661Y0005957D01*
X0022392Y0005809D01*
X0022120Y0005668D01*
X0021844Y0005533D01*
X0021566Y0005405D01*
X0021284Y0005285D01*
X0020999Y0005171D01*
X0020711Y0005064D01*
X0020421Y0004964D01*
X0020129Y0004871D01*
X0019834Y0004786D01*
X0019537Y0004708D01*
X0019239Y0004637D01*
X0018939Y0004573D01*
X0018637Y0004517D01*
X0018334Y0004468D01*
X0018030Y0004427D01*
X0017725Y0004393D01*
X0017420Y0004367D01*
X0017113Y0004348D01*
X0016807Y0004337D01*
X0016500Y0004333D01*
X0016193Y0004337D01*
X0015887Y0004348D01*
X0015580Y0004367D01*
X0015275Y0004393D01*
X0014970Y0004427D01*
X0014666Y0004468D01*
X0014363Y0004517D01*
X0014061Y0004573D01*
X0013761Y0004637D01*
X0013463Y0004708D01*
X0013166Y0004786D01*
X0012871Y0004871D01*
X0012579Y0004964D01*
X0012289Y0005064D01*
X0012001Y0005171D01*
X0011716Y0005285D01*
X0011434Y0005405D01*
X0011156Y0005533D01*
X0010880Y0005668D01*
X0010608Y0005809D01*
X0010339Y0005957D01*
X0010074Y0006111D01*
X0009813Y0006272D01*
X0009555Y0006440D01*
X0009302Y0006613D01*
X0009054Y0006793D01*
X0008810Y0006979D01*
X0008570Y0007170D01*
X0008335Y0007368D01*
X0008106Y0007571D01*
X0007881Y0007780D01*
X0007661Y0007994D01*
X0007447Y0008214D01*
X0007238Y0008439D01*
X0007035Y0008668D01*
X0006837Y0008903D01*
X0006646Y0009143D01*
X0006460Y0009387D01*
X0006280Y0009635D01*
X0006107Y0009888D01*
X0005939Y0010146D01*
X0005778Y0010407D01*
X0005624Y0010672D01*
X0005476Y0010941D01*
X0005335Y0011213D01*
X0005200Y0011489D01*
X0005072Y0011767D01*
X0004952Y0012049D01*
X0004838Y0012334D01*
X0004731Y0012622D01*
X0004631Y0012912D01*
X0004538Y0013204D01*
X0004453Y0013499D01*
X0004375Y0013796D01*
X0004304Y0014094D01*
X0004240Y0014394D01*
X0004184Y0014696D01*
X0004135Y0014999D01*
X0004094Y0015303D01*
X0004060Y0015608D01*
X0004034Y0015913D01*
X0004015Y0016220D01*
X0004004Y0016526D01*
X0004000Y0016833D01*
X0041500Y0259333D02*
X0201500Y0259333D01*
X0199066Y0279333D02*
X0197198Y0279333D01*
X0196263Y0280267D01*
X0196263Y0284004D01*
X0197198Y0284938D01*
X0199066Y0284938D01*
X0200000Y0284004D01*
X0200000Y0280267D01*
X0199066Y0279333D01*
X0193923Y0279333D02*
X0193923Y0284938D01*
X0192989Y0282136D02*
X0190186Y0279333D01*
X0187846Y0279333D02*
X0187846Y0283070D01*
X0185977Y0284938D01*
X0184109Y0283070D01*
X0184109Y0279333D01*
X0184109Y0282136D02*
X0187846Y0282136D01*
X0190186Y0284938D02*
X0193923Y0281202D01*
X0175691Y0282136D02*
X0172889Y0282136D01*
X0171955Y0281202D01*
X0171955Y0280267D01*
X0172889Y0279333D01*
X0175691Y0279333D01*
X0175691Y0284938D01*
X0172889Y0284938D01*
X0171955Y0284004D01*
X0171955Y0283070D01*
X0172889Y0282136D01*
X0169614Y0280267D02*
X0168680Y0281202D01*
X0165878Y0281202D01*
X0165878Y0282136D02*
X0165878Y0279333D01*
X0168680Y0279333D01*
X0169614Y0280267D01*
X0168680Y0283070D02*
X0166812Y0283070D01*
X0165878Y0282136D01*
X0163537Y0283070D02*
X0161669Y0283070D01*
X0162603Y0284004D02*
X0162603Y0280267D01*
X0161669Y0279333D01*
X0158551Y0280267D02*
X0158551Y0284004D01*
X0159485Y0283070D02*
X0157617Y0283070D01*
X0155434Y0282136D02*
X0155434Y0280267D01*
X0154500Y0279333D01*
X0152632Y0279333D01*
X0151697Y0281202D02*
X0155434Y0281202D01*
X0155434Y0282136D02*
X0154500Y0283070D01*
X0152632Y0283070D01*
X0151697Y0282136D01*
X0151697Y0281202D01*
X0149357Y0281202D02*
X0147489Y0283070D01*
X0146554Y0283070D01*
X0144292Y0283070D02*
X0144292Y0280267D01*
X0143358Y0279333D01*
X0140556Y0279333D01*
X0140556Y0278399D02*
X0141490Y0277465D01*
X0142424Y0277465D01*
X0140556Y0278399D02*
X0140556Y0283070D01*
X0149357Y0283070D02*
X0149357Y0279333D01*
X0157617Y0279333D02*
X0158551Y0280267D01*
X0132138Y0279333D02*
X0132138Y0284938D01*
X0130270Y0283070D01*
X0128402Y0284938D01*
X0128402Y0279333D01*
X0126061Y0280267D02*
X0126061Y0282136D01*
X0125127Y0283070D01*
X0123258Y0283070D01*
X0122324Y0282136D01*
X0122324Y0281202D01*
X0126061Y0281202D01*
X0126061Y0280267D02*
X0125127Y0279333D01*
X0123258Y0279333D01*
X0119050Y0280267D02*
X0119050Y0284004D01*
X0119984Y0283070D02*
X0118115Y0283070D01*
X0115932Y0282136D02*
X0114998Y0283070D01*
X0113130Y0283070D01*
X0112196Y0282136D01*
X0112196Y0281202D01*
X0115932Y0281202D01*
X0115932Y0282136D02*
X0115932Y0280267D01*
X0114998Y0279333D01*
X0113130Y0279333D01*
X0109855Y0279333D02*
X0109855Y0283070D01*
X0107987Y0283070D02*
X0107053Y0283070D01*
X0107987Y0283070D02*
X0109855Y0281202D01*
X0118115Y0279333D02*
X0119050Y0280267D01*
X0004000Y0276833D02*
X0004004Y0277140D01*
X0004015Y0277446D01*
X0004034Y0277753D01*
X0004060Y0278058D01*
X0004094Y0278363D01*
X0004135Y0278667D01*
X0004184Y0278970D01*
X0004240Y0279272D01*
X0004304Y0279572D01*
X0004375Y0279870D01*
X0004453Y0280167D01*
X0004538Y0280462D01*
X0004631Y0280754D01*
X0004731Y0281044D01*
X0004838Y0281332D01*
X0004952Y0281617D01*
X0005072Y0281899D01*
X0005200Y0282177D01*
X0005335Y0282453D01*
X0005476Y0282725D01*
X0005624Y0282994D01*
X0005778Y0283259D01*
X0005939Y0283520D01*
X0006107Y0283778D01*
X0006280Y0284031D01*
X0006460Y0284279D01*
X0006646Y0284523D01*
X0006837Y0284763D01*
X0007035Y0284998D01*
X0007238Y0285227D01*
X0007447Y0285452D01*
X0007661Y0285672D01*
X0007881Y0285886D01*
X0008106Y0286095D01*
X0008335Y0286298D01*
X0008570Y0286496D01*
X0008810Y0286687D01*
X0009054Y0286873D01*
X0009302Y0287053D01*
X0009555Y0287226D01*
X0009813Y0287394D01*
X0010074Y0287555D01*
X0010339Y0287709D01*
X0010608Y0287857D01*
X0010880Y0287998D01*
X0011156Y0288133D01*
X0011434Y0288261D01*
X0011716Y0288381D01*
X0012001Y0288495D01*
X0012289Y0288602D01*
X0012579Y0288702D01*
X0012871Y0288795D01*
X0013166Y0288880D01*
X0013463Y0288958D01*
X0013761Y0289029D01*
X0014061Y0289093D01*
X0014363Y0289149D01*
X0014666Y0289198D01*
X0014970Y0289239D01*
X0015275Y0289273D01*
X0015580Y0289299D01*
X0015887Y0289318D01*
X0016193Y0289329D01*
X0016500Y0289333D01*
X0016807Y0289329D01*
X0017113Y0289318D01*
X0017420Y0289299D01*
X0017725Y0289273D01*
X0018030Y0289239D01*
X0018334Y0289198D01*
X0018637Y0289149D01*
X0018939Y0289093D01*
X0019239Y0289029D01*
X0019537Y0288958D01*
X0019834Y0288880D01*
X0020129Y0288795D01*
X0020421Y0288702D01*
X0020711Y0288602D01*
X0020999Y0288495D01*
X0021284Y0288381D01*
X0021566Y0288261D01*
X0021844Y0288133D01*
X0022120Y0287998D01*
X0022392Y0287857D01*
X0022661Y0287709D01*
X0022926Y0287555D01*
X0023187Y0287394D01*
X0023445Y0287226D01*
X0023698Y0287053D01*
X0023946Y0286873D01*
X0024190Y0286687D01*
X0024430Y0286496D01*
X0024665Y0286298D01*
X0024894Y0286095D01*
X0025119Y0285886D01*
X0025339Y0285672D01*
X0025553Y0285452D01*
X0025762Y0285227D01*
X0025965Y0284998D01*
X0026163Y0284763D01*
X0026354Y0284523D01*
X0026540Y0284279D01*
X0026720Y0284031D01*
X0026893Y0283778D01*
X0027061Y0283520D01*
X0027222Y0283259D01*
X0027376Y0282994D01*
X0027524Y0282725D01*
X0027665Y0282453D01*
X0027800Y0282177D01*
X0027928Y0281899D01*
X0028048Y0281617D01*
X0028162Y0281332D01*
X0028269Y0281044D01*
X0028369Y0280754D01*
X0028462Y0280462D01*
X0028547Y0280167D01*
X0028625Y0279870D01*
X0028696Y0279572D01*
X0028760Y0279272D01*
X0028816Y0278970D01*
X0028865Y0278667D01*
X0028906Y0278363D01*
X0028940Y0278058D01*
X0028966Y0277753D01*
X0028985Y0277446D01*
X0028996Y0277140D01*
X0029000Y0276833D01*
X0028996Y0276526D01*
X0028985Y0276220D01*
X0028966Y0275913D01*
X0028940Y0275608D01*
X0028906Y0275303D01*
X0028865Y0274999D01*
X0028816Y0274696D01*
X0028760Y0274394D01*
X0028696Y0274094D01*
X0028625Y0273796D01*
X0028547Y0273499D01*
X0028462Y0273204D01*
X0028369Y0272912D01*
X0028269Y0272622D01*
X0028162Y0272334D01*
X0028048Y0272049D01*
X0027928Y0271767D01*
X0027800Y0271489D01*
X0027665Y0271213D01*
X0027524Y0270941D01*
X0027376Y0270672D01*
X0027222Y0270407D01*
X0027061Y0270146D01*
X0026893Y0269888D01*
X0026720Y0269635D01*
X0026540Y0269387D01*
X0026354Y0269143D01*
X0026163Y0268903D01*
X0025965Y0268668D01*
X0025762Y0268439D01*
X0025553Y0268214D01*
X0025339Y0267994D01*
X0025119Y0267780D01*
X0024894Y0267571D01*
X0024665Y0267368D01*
X0024430Y0267170D01*
X0024190Y0266979D01*
X0023946Y0266793D01*
X0023698Y0266613D01*
X0023445Y0266440D01*
X0023187Y0266272D01*
X0022926Y0266111D01*
X0022661Y0265957D01*
X0022392Y0265809D01*
X0022120Y0265668D01*
X0021844Y0265533D01*
X0021566Y0265405D01*
X0021284Y0265285D01*
X0020999Y0265171D01*
X0020711Y0265064D01*
X0020421Y0264964D01*
X0020129Y0264871D01*
X0019834Y0264786D01*
X0019537Y0264708D01*
X0019239Y0264637D01*
X0018939Y0264573D01*
X0018637Y0264517D01*
X0018334Y0264468D01*
X0018030Y0264427D01*
X0017725Y0264393D01*
X0017420Y0264367D01*
X0017113Y0264348D01*
X0016807Y0264337D01*
X0016500Y0264333D01*
X0016193Y0264337D01*
X0015887Y0264348D01*
X0015580Y0264367D01*
X0015275Y0264393D01*
X0014970Y0264427D01*
X0014666Y0264468D01*
X0014363Y0264517D01*
X0014061Y0264573D01*
X0013761Y0264637D01*
X0013463Y0264708D01*
X0013166Y0264786D01*
X0012871Y0264871D01*
X0012579Y0264964D01*
X0012289Y0265064D01*
X0012001Y0265171D01*
X0011716Y0265285D01*
X0011434Y0265405D01*
X0011156Y0265533D01*
X0010880Y0265668D01*
X0010608Y0265809D01*
X0010339Y0265957D01*
X0010074Y0266111D01*
X0009813Y0266272D01*
X0009555Y0266440D01*
X0009302Y0266613D01*
X0009054Y0266793D01*
X0008810Y0266979D01*
X0008570Y0267170D01*
X0008335Y0267368D01*
X0008106Y0267571D01*
X0007881Y0267780D01*
X0007661Y0267994D01*
X0007447Y0268214D01*
X0007238Y0268439D01*
X0007035Y0268668D01*
X0006837Y0268903D01*
X0006646Y0269143D01*
X0006460Y0269387D01*
X0006280Y0269635D01*
X0006107Y0269888D01*
X0005939Y0270146D01*
X0005778Y0270407D01*
X0005624Y0270672D01*
X0005476Y0270941D01*
X0005335Y0271213D01*
X0005200Y0271489D01*
X0005072Y0271767D01*
X0004952Y0272049D01*
X0004838Y0272334D01*
X0004731Y0272622D01*
X0004631Y0272912D01*
X0004538Y0273204D01*
X0004453Y0273499D01*
X0004375Y0273796D01*
X0004304Y0274094D01*
X0004240Y0274394D01*
X0004184Y0274696D01*
X0004135Y0274999D01*
X0004094Y0275303D01*
X0004060Y0275608D01*
X0004034Y0275913D01*
X0004015Y0276220D01*
X0004004Y0276526D01*
X0004000Y0276833D01*
X0319000Y0276833D02*
X0319004Y0277140D01*
X0319015Y0277446D01*
X0319034Y0277753D01*
X0319060Y0278058D01*
X0319094Y0278363D01*
X0319135Y0278667D01*
X0319184Y0278970D01*
X0319240Y0279272D01*
X0319304Y0279572D01*
X0319375Y0279870D01*
X0319453Y0280167D01*
X0319538Y0280462D01*
X0319631Y0280754D01*
X0319731Y0281044D01*
X0319838Y0281332D01*
X0319952Y0281617D01*
X0320072Y0281899D01*
X0320200Y0282177D01*
X0320335Y0282453D01*
X0320476Y0282725D01*
X0320624Y0282994D01*
X0320778Y0283259D01*
X0320939Y0283520D01*
X0321107Y0283778D01*
X0321280Y0284031D01*
X0321460Y0284279D01*
X0321646Y0284523D01*
X0321837Y0284763D01*
X0322035Y0284998D01*
X0322238Y0285227D01*
X0322447Y0285452D01*
X0322661Y0285672D01*
X0322881Y0285886D01*
X0323106Y0286095D01*
X0323335Y0286298D01*
X0323570Y0286496D01*
X0323810Y0286687D01*
X0324054Y0286873D01*
X0324302Y0287053D01*
X0324555Y0287226D01*
X0324813Y0287394D01*
X0325074Y0287555D01*
X0325339Y0287709D01*
X0325608Y0287857D01*
X0325880Y0287998D01*
X0326156Y0288133D01*
X0326434Y0288261D01*
X0326716Y0288381D01*
X0327001Y0288495D01*
X0327289Y0288602D01*
X0327579Y0288702D01*
X0327871Y0288795D01*
X0328166Y0288880D01*
X0328463Y0288958D01*
X0328761Y0289029D01*
X0329061Y0289093D01*
X0329363Y0289149D01*
X0329666Y0289198D01*
X0329970Y0289239D01*
X0330275Y0289273D01*
X0330580Y0289299D01*
X0330887Y0289318D01*
X0331193Y0289329D01*
X0331500Y0289333D01*
X0331807Y0289329D01*
X0332113Y0289318D01*
X0332420Y0289299D01*
X0332725Y0289273D01*
X0333030Y0289239D01*
X0333334Y0289198D01*
X0333637Y0289149D01*
X0333939Y0289093D01*
X0334239Y0289029D01*
X0334537Y0288958D01*
X0334834Y0288880D01*
X0335129Y0288795D01*
X0335421Y0288702D01*
X0335711Y0288602D01*
X0335999Y0288495D01*
X0336284Y0288381D01*
X0336566Y0288261D01*
X0336844Y0288133D01*
X0337120Y0287998D01*
X0337392Y0287857D01*
X0337661Y0287709D01*
X0337926Y0287555D01*
X0338187Y0287394D01*
X0338445Y0287226D01*
X0338698Y0287053D01*
X0338946Y0286873D01*
X0339190Y0286687D01*
X0339430Y0286496D01*
X0339665Y0286298D01*
X0339894Y0286095D01*
X0340119Y0285886D01*
X0340339Y0285672D01*
X0340553Y0285452D01*
X0340762Y0285227D01*
X0340965Y0284998D01*
X0341163Y0284763D01*
X0341354Y0284523D01*
X0341540Y0284279D01*
X0341720Y0284031D01*
X0341893Y0283778D01*
X0342061Y0283520D01*
X0342222Y0283259D01*
X0342376Y0282994D01*
X0342524Y0282725D01*
X0342665Y0282453D01*
X0342800Y0282177D01*
X0342928Y0281899D01*
X0343048Y0281617D01*
X0343162Y0281332D01*
X0343269Y0281044D01*
X0343369Y0280754D01*
X0343462Y0280462D01*
X0343547Y0280167D01*
X0343625Y0279870D01*
X0343696Y0279572D01*
X0343760Y0279272D01*
X0343816Y0278970D01*
X0343865Y0278667D01*
X0343906Y0278363D01*
X0343940Y0278058D01*
X0343966Y0277753D01*
X0343985Y0277446D01*
X0343996Y0277140D01*
X0344000Y0276833D01*
X0343996Y0276526D01*
X0343985Y0276220D01*
X0343966Y0275913D01*
X0343940Y0275608D01*
X0343906Y0275303D01*
X0343865Y0274999D01*
X0343816Y0274696D01*
X0343760Y0274394D01*
X0343696Y0274094D01*
X0343625Y0273796D01*
X0343547Y0273499D01*
X0343462Y0273204D01*
X0343369Y0272912D01*
X0343269Y0272622D01*
X0343162Y0272334D01*
X0343048Y0272049D01*
X0342928Y0271767D01*
X0342800Y0271489D01*
X0342665Y0271213D01*
X0342524Y0270941D01*
X0342376Y0270672D01*
X0342222Y0270407D01*
X0342061Y0270146D01*
X0341893Y0269888D01*
X0341720Y0269635D01*
X0341540Y0269387D01*
X0341354Y0269143D01*
X0341163Y0268903D01*
X0340965Y0268668D01*
X0340762Y0268439D01*
X0340553Y0268214D01*
X0340339Y0267994D01*
X0340119Y0267780D01*
X0339894Y0267571D01*
X0339665Y0267368D01*
X0339430Y0267170D01*
X0339190Y0266979D01*
X0338946Y0266793D01*
X0338698Y0266613D01*
X0338445Y0266440D01*
X0338187Y0266272D01*
X0337926Y0266111D01*
X0337661Y0265957D01*
X0337392Y0265809D01*
X0337120Y0265668D01*
X0336844Y0265533D01*
X0336566Y0265405D01*
X0336284Y0265285D01*
X0335999Y0265171D01*
X0335711Y0265064D01*
X0335421Y0264964D01*
X0335129Y0264871D01*
X0334834Y0264786D01*
X0334537Y0264708D01*
X0334239Y0264637D01*
X0333939Y0264573D01*
X0333637Y0264517D01*
X0333334Y0264468D01*
X0333030Y0264427D01*
X0332725Y0264393D01*
X0332420Y0264367D01*
X0332113Y0264348D01*
X0331807Y0264337D01*
X0331500Y0264333D01*
X0331193Y0264337D01*
X0330887Y0264348D01*
X0330580Y0264367D01*
X0330275Y0264393D01*
X0329970Y0264427D01*
X0329666Y0264468D01*
X0329363Y0264517D01*
X0329061Y0264573D01*
X0328761Y0264637D01*
X0328463Y0264708D01*
X0328166Y0264786D01*
X0327871Y0264871D01*
X0327579Y0264964D01*
X0327289Y0265064D01*
X0327001Y0265171D01*
X0326716Y0265285D01*
X0326434Y0265405D01*
X0326156Y0265533D01*
X0325880Y0265668D01*
X0325608Y0265809D01*
X0325339Y0265957D01*
X0325074Y0266111D01*
X0324813Y0266272D01*
X0324555Y0266440D01*
X0324302Y0266613D01*
X0324054Y0266793D01*
X0323810Y0266979D01*
X0323570Y0267170D01*
X0323335Y0267368D01*
X0323106Y0267571D01*
X0322881Y0267780D01*
X0322661Y0267994D01*
X0322447Y0268214D01*
X0322238Y0268439D01*
X0322035Y0268668D01*
X0321837Y0268903D01*
X0321646Y0269143D01*
X0321460Y0269387D01*
X0321280Y0269635D01*
X0321107Y0269888D01*
X0320939Y0270146D01*
X0320778Y0270407D01*
X0320624Y0270672D01*
X0320476Y0270941D01*
X0320335Y0271213D01*
X0320200Y0271489D01*
X0320072Y0271767D01*
X0319952Y0272049D01*
X0319838Y0272334D01*
X0319731Y0272622D01*
X0319631Y0272912D01*
X0319538Y0273204D01*
X0319453Y0273499D01*
X0319375Y0273796D01*
X0319304Y0274094D01*
X0319240Y0274394D01*
X0319184Y0274696D01*
X0319135Y0274999D01*
X0319094Y0275303D01*
X0319060Y0275608D01*
X0319034Y0275913D01*
X0319015Y0276220D01*
X0319004Y0276526D01*
X0319000Y0276833D01*
X0319000Y0016833D02*
X0319004Y0017140D01*
X0319015Y0017446D01*
X0319034Y0017753D01*
X0319060Y0018058D01*
X0319094Y0018363D01*
X0319135Y0018667D01*
X0319184Y0018970D01*
X0319240Y0019272D01*
X0319304Y0019572D01*
X0319375Y0019870D01*
X0319453Y0020167D01*
X0319538Y0020462D01*
X0319631Y0020754D01*
X0319731Y0021044D01*
X0319838Y0021332D01*
X0319952Y0021617D01*
X0320072Y0021899D01*
X0320200Y0022177D01*
X0320335Y0022453D01*
X0320476Y0022725D01*
X0320624Y0022994D01*
X0320778Y0023259D01*
X0320939Y0023520D01*
X0321107Y0023778D01*
X0321280Y0024031D01*
X0321460Y0024279D01*
X0321646Y0024523D01*
X0321837Y0024763D01*
X0322035Y0024998D01*
X0322238Y0025227D01*
X0322447Y0025452D01*
X0322661Y0025672D01*
X0322881Y0025886D01*
X0323106Y0026095D01*
X0323335Y0026298D01*
X0323570Y0026496D01*
X0323810Y0026687D01*
X0324054Y0026873D01*
X0324302Y0027053D01*
X0324555Y0027226D01*
X0324813Y0027394D01*
X0325074Y0027555D01*
X0325339Y0027709D01*
X0325608Y0027857D01*
X0325880Y0027998D01*
X0326156Y0028133D01*
X0326434Y0028261D01*
X0326716Y0028381D01*
X0327001Y0028495D01*
X0327289Y0028602D01*
X0327579Y0028702D01*
X0327871Y0028795D01*
X0328166Y0028880D01*
X0328463Y0028958D01*
X0328761Y0029029D01*
X0329061Y0029093D01*
X0329363Y0029149D01*
X0329666Y0029198D01*
X0329970Y0029239D01*
X0330275Y0029273D01*
X0330580Y0029299D01*
X0330887Y0029318D01*
X0331193Y0029329D01*
X0331500Y0029333D01*
X0331807Y0029329D01*
X0332113Y0029318D01*
X0332420Y0029299D01*
X0332725Y0029273D01*
X0333030Y0029239D01*
X0333334Y0029198D01*
X0333637Y0029149D01*
X0333939Y0029093D01*
X0334239Y0029029D01*
X0334537Y0028958D01*
X0334834Y0028880D01*
X0335129Y0028795D01*
X0335421Y0028702D01*
X0335711Y0028602D01*
X0335999Y0028495D01*
X0336284Y0028381D01*
X0336566Y0028261D01*
X0336844Y0028133D01*
X0337120Y0027998D01*
X0337392Y0027857D01*
X0337661Y0027709D01*
X0337926Y0027555D01*
X0338187Y0027394D01*
X0338445Y0027226D01*
X0338698Y0027053D01*
X0338946Y0026873D01*
X0339190Y0026687D01*
X0339430Y0026496D01*
X0339665Y0026298D01*
X0339894Y0026095D01*
X0340119Y0025886D01*
X0340339Y0025672D01*
X0340553Y0025452D01*
X0340762Y0025227D01*
X0340965Y0024998D01*
X0341163Y0024763D01*
X0341354Y0024523D01*
X0341540Y0024279D01*
X0341720Y0024031D01*
X0341893Y0023778D01*
X0342061Y0023520D01*
X0342222Y0023259D01*
X0342376Y0022994D01*
X0342524Y0022725D01*
X0342665Y0022453D01*
X0342800Y0022177D01*
X0342928Y0021899D01*
X0343048Y0021617D01*
X0343162Y0021332D01*
X0343269Y0021044D01*
X0343369Y0020754D01*
X0343462Y0020462D01*
X0343547Y0020167D01*
X0343625Y0019870D01*
X0343696Y0019572D01*
X0343760Y0019272D01*
X0343816Y0018970D01*
X0343865Y0018667D01*
X0343906Y0018363D01*
X0343940Y0018058D01*
X0343966Y0017753D01*
X0343985Y0017446D01*
X0343996Y0017140D01*
X0344000Y0016833D01*
X0343996Y0016526D01*
X0343985Y0016220D01*
X0343966Y0015913D01*
X0343940Y0015608D01*
X0343906Y0015303D01*
X0343865Y0014999D01*
X0343816Y0014696D01*
X0343760Y0014394D01*
X0343696Y0014094D01*
X0343625Y0013796D01*
X0343547Y0013499D01*
X0343462Y0013204D01*
X0343369Y0012912D01*
X0343269Y0012622D01*
X0343162Y0012334D01*
X0343048Y0012049D01*
X0342928Y0011767D01*
X0342800Y0011489D01*
X0342665Y0011213D01*
X0342524Y0010941D01*
X0342376Y0010672D01*
X0342222Y0010407D01*
X0342061Y0010146D01*
X0341893Y0009888D01*
X0341720Y0009635D01*
X0341540Y0009387D01*
X0341354Y0009143D01*
X0341163Y0008903D01*
X0340965Y0008668D01*
X0340762Y0008439D01*
X0340553Y0008214D01*
X0340339Y0007994D01*
X0340119Y0007780D01*
X0339894Y0007571D01*
X0339665Y0007368D01*
X0339430Y0007170D01*
X0339190Y0006979D01*
X0338946Y0006793D01*
X0338698Y0006613D01*
X0338445Y0006440D01*
X0338187Y0006272D01*
X0337926Y0006111D01*
X0337661Y0005957D01*
X0337392Y0005809D01*
X0337120Y0005668D01*
X0336844Y0005533D01*
X0336566Y0005405D01*
X0336284Y0005285D01*
X0335999Y0005171D01*
X0335711Y0005064D01*
X0335421Y0004964D01*
X0335129Y0004871D01*
X0334834Y0004786D01*
X0334537Y0004708D01*
X0334239Y0004637D01*
X0333939Y0004573D01*
X0333637Y0004517D01*
X0333334Y0004468D01*
X0333030Y0004427D01*
X0332725Y0004393D01*
X0332420Y0004367D01*
X0332113Y0004348D01*
X0331807Y0004337D01*
X0331500Y0004333D01*
X0331193Y0004337D01*
X0330887Y0004348D01*
X0330580Y0004367D01*
X0330275Y0004393D01*
X0329970Y0004427D01*
X0329666Y0004468D01*
X0329363Y0004517D01*
X0329061Y0004573D01*
X0328761Y0004637D01*
X0328463Y0004708D01*
X0328166Y0004786D01*
X0327871Y0004871D01*
X0327579Y0004964D01*
X0327289Y0005064D01*
X0327001Y0005171D01*
X0326716Y0005285D01*
X0326434Y0005405D01*
X0326156Y0005533D01*
X0325880Y0005668D01*
X0325608Y0005809D01*
X0325339Y0005957D01*
X0325074Y0006111D01*
X0324813Y0006272D01*
X0324555Y0006440D01*
X0324302Y0006613D01*
X0324054Y0006793D01*
X0323810Y0006979D01*
X0323570Y0007170D01*
X0323335Y0007368D01*
X0323106Y0007571D01*
X0322881Y0007780D01*
X0322661Y0007994D01*
X0322447Y0008214D01*
X0322238Y0008439D01*
X0322035Y0008668D01*
X0321837Y0008903D01*
X0321646Y0009143D01*
X0321460Y0009387D01*
X0321280Y0009635D01*
X0321107Y0009888D01*
X0320939Y0010146D01*
X0320778Y0010407D01*
X0320624Y0010672D01*
X0320476Y0010941D01*
X0320335Y0011213D01*
X0320200Y0011489D01*
X0320072Y0011767D01*
X0319952Y0012049D01*
X0319838Y0012334D01*
X0319731Y0012622D01*
X0319631Y0012912D01*
X0319538Y0013204D01*
X0319453Y0013499D01*
X0319375Y0013796D01*
X0319304Y0014094D01*
X0319240Y0014394D01*
X0319184Y0014696D01*
X0319135Y0014999D01*
X0319094Y0015303D01*
X0319060Y0015608D01*
X0319034Y0015913D01*
X0319015Y0016220D01*
X0319004Y0016526D01*
X0319000Y0016833D01*
D12*
X0092173Y0006836D02*
X0088236Y0006836D01*
X0090204Y0008804D02*
X0090204Y0004867D01*
X0046173Y0011836D02*
X0042236Y0011836D01*
X0041503Y0129453D02*
X0041503Y0132405D01*
X0040518Y0133389D01*
X0039534Y0133389D01*
X0038550Y0132405D01*
X0038550Y0129453D01*
X0044455Y0129453D01*
X0044455Y0132405D01*
X0043471Y0133389D01*
X0042487Y0133389D01*
X0041503Y0132405D01*
X0041503Y0135898D02*
X0041503Y0139835D01*
X0042487Y0139835D02*
X0038550Y0139835D01*
X0042487Y0139835D02*
X0044455Y0137867D01*
X0042487Y0135898D01*
X0038550Y0135898D01*
X0044455Y0142344D02*
X0044455Y0146280D01*
X0044455Y0144312D02*
X0038550Y0144312D01*
X0044455Y0148789D02*
X0044455Y0152726D01*
X0044455Y0150758D02*
X0038550Y0150758D01*
X0038550Y0155235D02*
X0038550Y0159171D01*
X0038550Y0161680D02*
X0044455Y0161680D01*
X0044455Y0164633D01*
X0043471Y0165617D01*
X0041503Y0165617D01*
X0040518Y0164633D01*
X0040518Y0161680D01*
X0040518Y0163649D02*
X0038550Y0165617D01*
X0038550Y0168126D02*
X0038550Y0170094D01*
X0038550Y0169110D02*
X0044455Y0169110D01*
X0044455Y0168126D02*
X0044455Y0170094D01*
X0044455Y0172423D02*
X0038550Y0172423D01*
X0038550Y0176359D01*
X0039534Y0178868D02*
X0038550Y0179852D01*
X0038550Y0181821D01*
X0039534Y0182805D01*
X0040518Y0182805D01*
X0041503Y0181821D01*
X0041503Y0179852D01*
X0042487Y0178868D01*
X0043471Y0178868D01*
X0044455Y0179852D01*
X0044455Y0181821D01*
X0043471Y0182805D01*
X0044455Y0176359D02*
X0044455Y0172423D01*
X0041503Y0172423D02*
X0041503Y0174391D01*
X0044455Y0159171D02*
X0044455Y0155235D01*
X0038550Y0155235D01*
X0041503Y0155235D02*
X0041503Y0157203D01*
D13*
X0074855Y0260999D02*
X0075422Y0260999D01*
X0074855Y0260999D02*
X0074288Y0261566D01*
X0074288Y0264402D01*
X0076557Y0264402D02*
X0076557Y0262700D01*
X0075989Y0262133D01*
X0074288Y0262133D01*
X0077878Y0262133D02*
X0079012Y0262133D01*
X0078445Y0262133D02*
X0078445Y0265536D01*
X0079012Y0265536D01*
X0080427Y0263835D02*
X0080994Y0264402D01*
X0082128Y0264402D01*
X0082695Y0263835D01*
X0082695Y0262700D01*
X0082128Y0262133D01*
X0080994Y0262133D01*
X0080427Y0262700D01*
X0080427Y0263835D01*
X0084016Y0264402D02*
X0085151Y0264402D01*
X0084583Y0264969D02*
X0084583Y0262700D01*
X0084016Y0262133D01*
X0086565Y0262133D02*
X0088267Y0262133D01*
X0088834Y0262700D01*
X0088267Y0263268D01*
X0086565Y0263268D01*
X0086565Y0263835D02*
X0086565Y0262133D01*
X0086565Y0263835D02*
X0087132Y0264402D01*
X0088267Y0264402D01*
X0090248Y0263835D02*
X0090248Y0262133D01*
X0090248Y0263835D02*
X0090815Y0264402D01*
X0092517Y0264402D01*
X0092517Y0262133D01*
X0093931Y0262133D02*
X0093931Y0264402D01*
X0095066Y0265536D01*
X0096200Y0264402D01*
X0096200Y0262133D01*
X0096200Y0263835D02*
X0093931Y0263835D01*
X0093931Y0268133D02*
X0093931Y0270402D01*
X0095066Y0271536D01*
X0096200Y0270402D01*
X0096200Y0268133D01*
X0096200Y0269835D02*
X0093931Y0269835D01*
X0092517Y0270402D02*
X0092517Y0268133D01*
X0090248Y0268133D02*
X0090248Y0269835D01*
X0090815Y0270402D01*
X0092517Y0270402D01*
X0088834Y0269835D02*
X0088267Y0270402D01*
X0086565Y0270402D01*
X0086565Y0271536D02*
X0086565Y0268133D01*
X0088267Y0268133D01*
X0088834Y0268700D01*
X0088834Y0269835D01*
X0085151Y0270402D02*
X0085151Y0268133D01*
X0085151Y0269268D02*
X0084016Y0270402D01*
X0083449Y0270402D01*
X0082081Y0269835D02*
X0081514Y0270402D01*
X0080380Y0270402D01*
X0079813Y0269835D01*
X0079813Y0269268D01*
X0082081Y0269268D01*
X0082081Y0269835D02*
X0082081Y0268700D01*
X0081514Y0268133D01*
X0080380Y0268133D01*
X0078398Y0268700D02*
X0078398Y0270402D01*
X0078398Y0268700D02*
X0077831Y0268133D01*
X0077264Y0268700D01*
X0076697Y0268133D01*
X0076130Y0268700D01*
X0076130Y0270402D01*
X0071032Y0271536D02*
X0071032Y0268133D01*
X0068763Y0268133D02*
X0068763Y0271536D01*
X0069898Y0270402D01*
X0071032Y0271536D01*
X0066782Y0270402D02*
X0065647Y0270402D01*
X0065080Y0269835D01*
X0065080Y0268133D01*
X0066782Y0268133D01*
X0067349Y0268700D01*
X0066782Y0269268D01*
X0065080Y0269268D01*
X0063666Y0268133D02*
X0062531Y0268133D01*
X0063098Y0268133D02*
X0063098Y0271536D01*
X0063666Y0271536D01*
X0061210Y0270402D02*
X0060076Y0270402D01*
X0060643Y0270969D02*
X0060643Y0268700D01*
X0060076Y0268133D01*
X0058755Y0268133D02*
X0057053Y0268133D01*
X0056486Y0268700D01*
X0057053Y0269268D01*
X0058188Y0269268D01*
X0058755Y0269835D01*
X0058188Y0270402D01*
X0056486Y0270402D01*
X0055072Y0269835D02*
X0054504Y0270402D01*
X0053370Y0270402D01*
X0052803Y0269835D01*
X0052803Y0269268D01*
X0055072Y0269268D01*
X0055072Y0269835D02*
X0055072Y0268700D01*
X0054504Y0268133D01*
X0053370Y0268133D01*
X0051388Y0270402D02*
X0050254Y0268133D01*
X0049120Y0270402D01*
X0049547Y0264402D02*
X0048413Y0262133D01*
X0047278Y0264402D01*
X0050961Y0263835D02*
X0050961Y0263268D01*
X0053230Y0263268D01*
X0053230Y0263835D02*
X0052663Y0264402D01*
X0051529Y0264402D01*
X0050961Y0263835D01*
X0051529Y0262133D02*
X0052663Y0262133D01*
X0053230Y0262700D01*
X0053230Y0263835D01*
X0054645Y0264402D02*
X0056346Y0264402D01*
X0056913Y0263835D01*
X0056346Y0263268D01*
X0055212Y0263268D01*
X0054645Y0262700D01*
X0055212Y0262133D01*
X0056913Y0262133D01*
X0058234Y0262133D02*
X0058801Y0262700D01*
X0058801Y0264969D01*
X0058234Y0264402D02*
X0059369Y0264402D01*
X0061257Y0265536D02*
X0061257Y0262133D01*
X0061824Y0262133D02*
X0060690Y0262133D01*
X0063239Y0262133D02*
X0064940Y0262133D01*
X0065507Y0262700D01*
X0064940Y0263268D01*
X0063239Y0263268D01*
X0063239Y0263835D02*
X0063239Y0262133D01*
X0063239Y0263835D02*
X0063806Y0264402D01*
X0064940Y0264402D01*
X0066922Y0265536D02*
X0066922Y0262133D01*
X0069190Y0262133D02*
X0069190Y0265536D01*
X0068056Y0264402D01*
X0066922Y0265536D01*
X0061824Y0265536D02*
X0061257Y0265536D01*
X0100197Y0264402D02*
X0100197Y0263835D01*
X0100764Y0263835D01*
X0100764Y0264402D01*
X0100197Y0264402D01*
X0100197Y0262700D02*
X0100197Y0262133D01*
X0100764Y0262133D01*
X0100764Y0262700D01*
X0100197Y0262700D01*
X0102132Y0264402D02*
X0102699Y0264402D01*
X0103834Y0263268D01*
X0103834Y0264402D02*
X0103834Y0262133D01*
X0105248Y0262700D02*
X0105248Y0263835D01*
X0105815Y0264402D01*
X0106950Y0264402D01*
X0107517Y0263835D01*
X0107517Y0262700D01*
X0106950Y0262133D01*
X0105815Y0262133D01*
X0105248Y0262700D01*
X0108931Y0265536D02*
X0111200Y0265536D01*
X0111200Y0262133D01*
X0111200Y0263835D02*
X0110066Y0263835D01*
X0109499Y0268133D02*
X0111200Y0268133D01*
X0111200Y0271536D01*
X0109499Y0271536D01*
X0108931Y0270969D01*
X0108931Y0270402D01*
X0109499Y0269835D01*
X0111200Y0269835D01*
X0109499Y0269835D02*
X0108931Y0269268D01*
X0108931Y0268700D01*
X0109499Y0268133D01*
X0107517Y0268700D02*
X0107517Y0270402D01*
X0107517Y0268700D02*
X0106950Y0268133D01*
X0105248Y0268133D01*
X0105248Y0267566D02*
X0105815Y0266999D01*
X0106383Y0266999D01*
X0105248Y0267566D02*
X0105248Y0270402D01*
X0103834Y0270402D02*
X0103834Y0269835D01*
X0103267Y0269835D01*
X0103267Y0270402D01*
X0103834Y0270402D01*
X0103834Y0268700D02*
X0103834Y0268133D01*
X0103267Y0268133D01*
X0103267Y0268700D01*
X0103834Y0268700D01*
X0125269Y0268133D02*
X0127537Y0270402D01*
X0127537Y0270969D01*
X0126970Y0271536D01*
X0126403Y0270969D01*
X0126403Y0270402D01*
X0127537Y0269268D01*
X0127537Y0268700D01*
X0126970Y0268133D01*
X0126403Y0268133D01*
X0125269Y0269268D01*
X0132635Y0270402D02*
X0134336Y0270402D01*
X0134903Y0269835D01*
X0134903Y0268700D01*
X0134336Y0268133D01*
X0132635Y0268133D01*
X0132635Y0271536D01*
X0136318Y0269835D02*
X0136318Y0269268D01*
X0138587Y0269268D01*
X0138587Y0269835D02*
X0138019Y0270402D01*
X0136885Y0270402D01*
X0136318Y0269835D01*
X0136885Y0268133D02*
X0138019Y0268133D01*
X0138587Y0268700D01*
X0138587Y0269835D01*
X0140001Y0269835D02*
X0140568Y0270402D01*
X0142270Y0270402D01*
X0142270Y0268133D01*
X0143684Y0268133D02*
X0145386Y0268133D01*
X0145953Y0268700D01*
X0145953Y0269835D01*
X0145386Y0270402D01*
X0143684Y0270402D01*
X0143684Y0267566D01*
X0144251Y0266999D01*
X0144819Y0266999D01*
X0144298Y0265536D02*
X0144298Y0262700D01*
X0144865Y0262133D01*
X0146000Y0262133D01*
X0146567Y0262700D01*
X0146567Y0265536D01*
X0147274Y0268133D02*
X0148408Y0268133D01*
X0147841Y0268133D02*
X0147841Y0270402D01*
X0148408Y0270402D01*
X0147841Y0271536D02*
X0147841Y0272103D01*
X0149823Y0270402D02*
X0151524Y0270402D01*
X0152091Y0269835D01*
X0151524Y0269268D01*
X0150390Y0269268D01*
X0149823Y0268700D01*
X0150390Y0268133D01*
X0152091Y0268133D01*
X0153506Y0269268D02*
X0155775Y0269268D01*
X0155775Y0269835D02*
X0155207Y0270402D01*
X0154073Y0270402D01*
X0153506Y0269835D01*
X0153506Y0269268D01*
X0154073Y0268133D02*
X0155207Y0268133D01*
X0155775Y0268700D01*
X0155775Y0269835D01*
X0157189Y0270969D02*
X0157756Y0271536D01*
X0159458Y0271536D01*
X0159458Y0268133D01*
X0157756Y0268133D01*
X0157189Y0268700D01*
X0157189Y0270969D01*
X0155821Y0266103D02*
X0155821Y0265536D01*
X0155821Y0264402D02*
X0155821Y0262133D01*
X0156388Y0262133D02*
X0155254Y0262133D01*
X0153933Y0262133D02*
X0153933Y0264402D01*
X0152232Y0264402D01*
X0151664Y0263835D01*
X0151664Y0262133D01*
X0155821Y0264402D02*
X0156388Y0264402D01*
X0161486Y0264402D02*
X0163188Y0264402D01*
X0163755Y0263835D01*
X0163755Y0262700D01*
X0163188Y0262133D01*
X0161486Y0262133D01*
X0161486Y0265536D01*
X0164462Y0268133D02*
X0165029Y0268133D01*
X0165029Y0268700D01*
X0164462Y0268700D01*
X0164462Y0268133D01*
X0165596Y0266999D01*
X0167011Y0268700D02*
X0167578Y0268133D01*
X0169279Y0268133D01*
X0169279Y0266999D02*
X0169279Y0270402D01*
X0167578Y0270402D01*
X0167011Y0269835D01*
X0167011Y0268700D01*
X0166871Y0264402D02*
X0165736Y0264402D01*
X0165169Y0263835D01*
X0165169Y0263268D01*
X0167438Y0263268D01*
X0167438Y0263835D02*
X0166871Y0264402D01*
X0167438Y0263835D02*
X0167438Y0262700D01*
X0166871Y0262133D01*
X0165736Y0262133D01*
X0168806Y0264402D02*
X0169373Y0264402D01*
X0170507Y0263268D01*
X0170507Y0264402D02*
X0170507Y0262133D01*
X0171922Y0262133D02*
X0171922Y0264402D01*
X0174190Y0264402D02*
X0174190Y0262700D01*
X0173623Y0262133D01*
X0171922Y0262133D01*
X0175511Y0262133D02*
X0176079Y0262700D01*
X0176079Y0264969D01*
X0176646Y0264402D02*
X0175511Y0264402D01*
X0178060Y0264402D02*
X0179762Y0264402D01*
X0180329Y0263835D01*
X0180329Y0262700D01*
X0179762Y0262133D01*
X0178060Y0262133D01*
X0181743Y0262133D02*
X0183445Y0262133D01*
X0184012Y0262700D01*
X0183445Y0263268D01*
X0181743Y0263268D01*
X0181743Y0263835D02*
X0181743Y0262133D01*
X0181743Y0263835D02*
X0182311Y0264402D01*
X0183445Y0264402D01*
X0185333Y0263835D02*
X0186467Y0263835D01*
X0185900Y0264969D02*
X0185900Y0262133D01*
X0187882Y0262133D02*
X0187882Y0264402D01*
X0185900Y0264969D02*
X0185333Y0265536D01*
X0185333Y0266999D02*
X0184766Y0266999D01*
X0184199Y0267566D01*
X0184199Y0270402D01*
X0185900Y0270402D01*
X0186467Y0269835D01*
X0186467Y0268700D01*
X0185900Y0268133D01*
X0184199Y0268133D01*
X0182784Y0268133D02*
X0182784Y0271536D01*
X0182217Y0270402D02*
X0181083Y0270402D01*
X0180516Y0269835D01*
X0180516Y0268133D01*
X0178534Y0268700D02*
X0177967Y0268133D01*
X0178534Y0268700D02*
X0178534Y0270969D01*
X0179101Y0270402D02*
X0177967Y0270402D01*
X0182217Y0270402D02*
X0182784Y0269835D01*
X0187882Y0270402D02*
X0187882Y0268133D01*
X0189583Y0268133D01*
X0190151Y0268700D01*
X0190151Y0270402D01*
X0191565Y0269835D02*
X0192132Y0270402D01*
X0193267Y0270402D01*
X0193834Y0269835D01*
X0193834Y0268700D01*
X0193267Y0268133D01*
X0192132Y0268133D01*
X0191565Y0268700D01*
X0191565Y0269835D01*
X0195248Y0269835D02*
X0195815Y0270402D01*
X0196950Y0270402D01*
X0197517Y0269835D01*
X0197517Y0271536D02*
X0197517Y0268133D01*
X0195248Y0268133D02*
X0195248Y0269835D01*
X0198931Y0271536D02*
X0201200Y0271536D01*
X0200066Y0271536D02*
X0200066Y0268133D01*
X0201200Y0265536D02*
X0200066Y0264402D01*
X0198931Y0265536D01*
X0198931Y0262133D01*
X0197517Y0262700D02*
X0196950Y0263268D01*
X0195248Y0263268D01*
X0195248Y0263835D02*
X0195248Y0262133D01*
X0196950Y0262133D01*
X0197517Y0262700D01*
X0196950Y0264402D02*
X0195815Y0264402D01*
X0195248Y0263835D01*
X0193834Y0264402D02*
X0192132Y0264402D01*
X0191565Y0263835D01*
X0191565Y0262133D01*
X0190151Y0262700D02*
X0190151Y0264402D01*
X0190151Y0262700D02*
X0189583Y0262133D01*
X0187882Y0262133D01*
X0193834Y0262133D02*
X0193834Y0264402D01*
X0201200Y0265536D02*
X0201200Y0262133D01*
X0172963Y0268700D02*
X0172395Y0268133D01*
X0171261Y0268133D01*
X0170694Y0268700D01*
X0170694Y0271536D01*
X0172963Y0271536D02*
X0172963Y0268700D01*
X0142884Y0264969D02*
X0142884Y0264402D01*
X0142316Y0263835D01*
X0141182Y0263835D01*
X0140615Y0263268D01*
X0140615Y0262700D01*
X0141182Y0262133D01*
X0142316Y0262133D01*
X0142884Y0262700D01*
X0142884Y0264969D02*
X0142316Y0265536D01*
X0141182Y0265536D01*
X0140615Y0264969D01*
X0139200Y0264402D02*
X0138066Y0265536D01*
X0136932Y0264402D01*
X0136932Y0262133D01*
X0136932Y0263835D02*
X0139200Y0263835D01*
X0139200Y0264402D02*
X0139200Y0262133D01*
X0140001Y0268133D02*
X0140001Y0269835D01*
X0328931Y0242969D02*
X0328931Y0242402D01*
X0329499Y0241835D01*
X0330633Y0241835D01*
X0331200Y0242402D01*
X0331200Y0242969D01*
X0330633Y0243536D01*
X0329499Y0243536D01*
X0328931Y0242969D01*
X0329499Y0241835D02*
X0328931Y0241268D01*
X0328931Y0240700D01*
X0329499Y0240133D01*
X0330633Y0240133D01*
X0331200Y0240700D01*
X0331200Y0241268D01*
X0330633Y0241835D01*
X0331200Y0233536D02*
X0328931Y0233536D01*
X0328931Y0232969D01*
X0331200Y0230700D01*
X0331200Y0230133D01*
X0328931Y0223536D02*
X0330066Y0222969D01*
X0331200Y0221835D01*
X0329499Y0221835D01*
X0328931Y0221268D01*
X0328931Y0220700D01*
X0329499Y0220133D01*
X0330633Y0220133D01*
X0331200Y0220700D01*
X0331200Y0221835D01*
X0331200Y0213536D02*
X0328931Y0213536D01*
X0329499Y0212402D02*
X0328931Y0211835D01*
X0328931Y0210700D01*
X0329499Y0210133D01*
X0330633Y0210133D01*
X0331200Y0210700D01*
X0331200Y0211835D02*
X0330066Y0212402D01*
X0329499Y0212402D01*
X0331200Y0211835D02*
X0331200Y0213536D01*
X0329499Y0203536D02*
X0331200Y0201835D01*
X0328931Y0201835D01*
X0329499Y0203536D02*
X0329499Y0200133D01*
D14*
X0329498Y0193636D02*
X0328898Y0193036D01*
X0328898Y0192435D01*
X0329498Y0191835D01*
X0328898Y0191234D01*
X0328898Y0190634D01*
X0329498Y0190033D01*
X0330699Y0190033D01*
X0331300Y0190634D01*
X0330099Y0191835D02*
X0329498Y0191835D01*
X0329498Y0193636D02*
X0330699Y0193636D01*
X0331300Y0193036D01*
X0327617Y0191835D02*
X0325215Y0191835D01*
X0323934Y0191835D02*
X0322733Y0191835D01*
X0323934Y0193636D02*
X0321532Y0193636D01*
X0320251Y0193636D02*
X0319050Y0193636D01*
X0319650Y0193636D02*
X0319650Y0190033D01*
X0319050Y0190033D02*
X0320251Y0190033D01*
X0317795Y0190033D02*
X0315393Y0190033D01*
X0317795Y0190033D02*
X0317795Y0193636D01*
X0323934Y0193636D02*
X0323934Y0190033D01*
X0323333Y0183636D02*
X0323934Y0183036D01*
X0323934Y0180634D01*
X0323333Y0180033D01*
X0322132Y0180033D01*
X0321532Y0180634D01*
X0321532Y0181835D01*
X0322733Y0181835D01*
X0321532Y0183036D02*
X0322132Y0183636D01*
X0323333Y0183636D01*
X0325215Y0181835D02*
X0327617Y0181835D01*
X0328898Y0182435D02*
X0328898Y0183036D01*
X0329498Y0183636D01*
X0330699Y0183636D01*
X0331300Y0183036D01*
X0328898Y0182435D02*
X0331300Y0180033D01*
X0328898Y0180033D01*
X0330099Y0173636D02*
X0330099Y0170033D01*
X0331300Y0170033D02*
X0328898Y0170033D01*
X0327617Y0171835D02*
X0325215Y0171835D01*
X0323934Y0173636D02*
X0322132Y0173636D01*
X0321532Y0173036D01*
X0321532Y0170634D01*
X0322132Y0170033D01*
X0323934Y0170033D01*
X0323934Y0173636D01*
X0320251Y0173636D02*
X0320251Y0170033D01*
X0317849Y0170033D01*
X0316567Y0170033D02*
X0316567Y0173636D01*
X0315366Y0172435D01*
X0314165Y0173636D01*
X0314165Y0170033D01*
X0319050Y0171835D02*
X0320251Y0171835D01*
X0320251Y0173636D02*
X0317849Y0173636D01*
X0317849Y0180033D02*
X0319050Y0181234D01*
X0318449Y0181234D02*
X0320251Y0181234D01*
X0320251Y0180033D02*
X0320251Y0183636D01*
X0318449Y0183636D01*
X0317849Y0183036D01*
X0317849Y0181835D01*
X0318449Y0181234D01*
X0316567Y0183636D02*
X0314165Y0183636D01*
X0315366Y0183636D02*
X0315366Y0180033D01*
X0330099Y0173636D02*
X0331300Y0172435D01*
M02*
