G75*
%MOIN*%
%OFA0B0*%
%FSLAX25Y25*%
%IPPOS*%
%LPD*%
%AMOC8*
5,1,8,0,0,1.08239X$1,22.5*
%
%ADD10C,0.01600*%
%ADD11C,0.00400*%
%ADD12C,0.00600*%
%ADD13C,0.01100*%
%ADD14C,0.01000*%
%ADD15C,0.00500*%
%ADD16C,0.00300*%
%ADD17C,0.00200*%
%ADD18C,0.00000*%
%ADD19C,0.00063*%
%ADD20C,0.01200*%
%ADD21C,0.00800*%
%ADD22R,0.01500X0.04000*%
%ADD23C,0.02362*%
D10*
X0004000Y0016833D02*
X0004004Y0017140D01*
X0004015Y0017446D01*
X0004034Y0017753D01*
X0004060Y0018058D01*
X0004094Y0018363D01*
X0004135Y0018667D01*
X0004184Y0018970D01*
X0004240Y0019272D01*
X0004304Y0019572D01*
X0004375Y0019870D01*
X0004453Y0020167D01*
X0004538Y0020462D01*
X0004631Y0020754D01*
X0004731Y0021044D01*
X0004838Y0021332D01*
X0004952Y0021617D01*
X0005072Y0021899D01*
X0005200Y0022177D01*
X0005335Y0022453D01*
X0005476Y0022725D01*
X0005624Y0022994D01*
X0005778Y0023259D01*
X0005939Y0023520D01*
X0006107Y0023778D01*
X0006280Y0024031D01*
X0006460Y0024279D01*
X0006646Y0024523D01*
X0006837Y0024763D01*
X0007035Y0024998D01*
X0007238Y0025227D01*
X0007447Y0025452D01*
X0007661Y0025672D01*
X0007881Y0025886D01*
X0008106Y0026095D01*
X0008335Y0026298D01*
X0008570Y0026496D01*
X0008810Y0026687D01*
X0009054Y0026873D01*
X0009302Y0027053D01*
X0009555Y0027226D01*
X0009813Y0027394D01*
X0010074Y0027555D01*
X0010339Y0027709D01*
X0010608Y0027857D01*
X0010880Y0027998D01*
X0011156Y0028133D01*
X0011434Y0028261D01*
X0011716Y0028381D01*
X0012001Y0028495D01*
X0012289Y0028602D01*
X0012579Y0028702D01*
X0012871Y0028795D01*
X0013166Y0028880D01*
X0013463Y0028958D01*
X0013761Y0029029D01*
X0014061Y0029093D01*
X0014363Y0029149D01*
X0014666Y0029198D01*
X0014970Y0029239D01*
X0015275Y0029273D01*
X0015580Y0029299D01*
X0015887Y0029318D01*
X0016193Y0029329D01*
X0016500Y0029333D01*
X0016807Y0029329D01*
X0017113Y0029318D01*
X0017420Y0029299D01*
X0017725Y0029273D01*
X0018030Y0029239D01*
X0018334Y0029198D01*
X0018637Y0029149D01*
X0018939Y0029093D01*
X0019239Y0029029D01*
X0019537Y0028958D01*
X0019834Y0028880D01*
X0020129Y0028795D01*
X0020421Y0028702D01*
X0020711Y0028602D01*
X0020999Y0028495D01*
X0021284Y0028381D01*
X0021566Y0028261D01*
X0021844Y0028133D01*
X0022120Y0027998D01*
X0022392Y0027857D01*
X0022661Y0027709D01*
X0022926Y0027555D01*
X0023187Y0027394D01*
X0023445Y0027226D01*
X0023698Y0027053D01*
X0023946Y0026873D01*
X0024190Y0026687D01*
X0024430Y0026496D01*
X0024665Y0026298D01*
X0024894Y0026095D01*
X0025119Y0025886D01*
X0025339Y0025672D01*
X0025553Y0025452D01*
X0025762Y0025227D01*
X0025965Y0024998D01*
X0026163Y0024763D01*
X0026354Y0024523D01*
X0026540Y0024279D01*
X0026720Y0024031D01*
X0026893Y0023778D01*
X0027061Y0023520D01*
X0027222Y0023259D01*
X0027376Y0022994D01*
X0027524Y0022725D01*
X0027665Y0022453D01*
X0027800Y0022177D01*
X0027928Y0021899D01*
X0028048Y0021617D01*
X0028162Y0021332D01*
X0028269Y0021044D01*
X0028369Y0020754D01*
X0028462Y0020462D01*
X0028547Y0020167D01*
X0028625Y0019870D01*
X0028696Y0019572D01*
X0028760Y0019272D01*
X0028816Y0018970D01*
X0028865Y0018667D01*
X0028906Y0018363D01*
X0028940Y0018058D01*
X0028966Y0017753D01*
X0028985Y0017446D01*
X0028996Y0017140D01*
X0029000Y0016833D01*
X0028996Y0016526D01*
X0028985Y0016220D01*
X0028966Y0015913D01*
X0028940Y0015608D01*
X0028906Y0015303D01*
X0028865Y0014999D01*
X0028816Y0014696D01*
X0028760Y0014394D01*
X0028696Y0014094D01*
X0028625Y0013796D01*
X0028547Y0013499D01*
X0028462Y0013204D01*
X0028369Y0012912D01*
X0028269Y0012622D01*
X0028162Y0012334D01*
X0028048Y0012049D01*
X0027928Y0011767D01*
X0027800Y0011489D01*
X0027665Y0011213D01*
X0027524Y0010941D01*
X0027376Y0010672D01*
X0027222Y0010407D01*
X0027061Y0010146D01*
X0026893Y0009888D01*
X0026720Y0009635D01*
X0026540Y0009387D01*
X0026354Y0009143D01*
X0026163Y0008903D01*
X0025965Y0008668D01*
X0025762Y0008439D01*
X0025553Y0008214D01*
X0025339Y0007994D01*
X0025119Y0007780D01*
X0024894Y0007571D01*
X0024665Y0007368D01*
X0024430Y0007170D01*
X0024190Y0006979D01*
X0023946Y0006793D01*
X0023698Y0006613D01*
X0023445Y0006440D01*
X0023187Y0006272D01*
X0022926Y0006111D01*
X0022661Y0005957D01*
X0022392Y0005809D01*
X0022120Y0005668D01*
X0021844Y0005533D01*
X0021566Y0005405D01*
X0021284Y0005285D01*
X0020999Y0005171D01*
X0020711Y0005064D01*
X0020421Y0004964D01*
X0020129Y0004871D01*
X0019834Y0004786D01*
X0019537Y0004708D01*
X0019239Y0004637D01*
X0018939Y0004573D01*
X0018637Y0004517D01*
X0018334Y0004468D01*
X0018030Y0004427D01*
X0017725Y0004393D01*
X0017420Y0004367D01*
X0017113Y0004348D01*
X0016807Y0004337D01*
X0016500Y0004333D01*
X0016193Y0004337D01*
X0015887Y0004348D01*
X0015580Y0004367D01*
X0015275Y0004393D01*
X0014970Y0004427D01*
X0014666Y0004468D01*
X0014363Y0004517D01*
X0014061Y0004573D01*
X0013761Y0004637D01*
X0013463Y0004708D01*
X0013166Y0004786D01*
X0012871Y0004871D01*
X0012579Y0004964D01*
X0012289Y0005064D01*
X0012001Y0005171D01*
X0011716Y0005285D01*
X0011434Y0005405D01*
X0011156Y0005533D01*
X0010880Y0005668D01*
X0010608Y0005809D01*
X0010339Y0005957D01*
X0010074Y0006111D01*
X0009813Y0006272D01*
X0009555Y0006440D01*
X0009302Y0006613D01*
X0009054Y0006793D01*
X0008810Y0006979D01*
X0008570Y0007170D01*
X0008335Y0007368D01*
X0008106Y0007571D01*
X0007881Y0007780D01*
X0007661Y0007994D01*
X0007447Y0008214D01*
X0007238Y0008439D01*
X0007035Y0008668D01*
X0006837Y0008903D01*
X0006646Y0009143D01*
X0006460Y0009387D01*
X0006280Y0009635D01*
X0006107Y0009888D01*
X0005939Y0010146D01*
X0005778Y0010407D01*
X0005624Y0010672D01*
X0005476Y0010941D01*
X0005335Y0011213D01*
X0005200Y0011489D01*
X0005072Y0011767D01*
X0004952Y0012049D01*
X0004838Y0012334D01*
X0004731Y0012622D01*
X0004631Y0012912D01*
X0004538Y0013204D01*
X0004453Y0013499D01*
X0004375Y0013796D01*
X0004304Y0014094D01*
X0004240Y0014394D01*
X0004184Y0014696D01*
X0004135Y0014999D01*
X0004094Y0015303D01*
X0004060Y0015608D01*
X0004034Y0015913D01*
X0004015Y0016220D01*
X0004004Y0016526D01*
X0004000Y0016833D01*
X0004000Y0276833D02*
X0004004Y0277140D01*
X0004015Y0277446D01*
X0004034Y0277753D01*
X0004060Y0278058D01*
X0004094Y0278363D01*
X0004135Y0278667D01*
X0004184Y0278970D01*
X0004240Y0279272D01*
X0004304Y0279572D01*
X0004375Y0279870D01*
X0004453Y0280167D01*
X0004538Y0280462D01*
X0004631Y0280754D01*
X0004731Y0281044D01*
X0004838Y0281332D01*
X0004952Y0281617D01*
X0005072Y0281899D01*
X0005200Y0282177D01*
X0005335Y0282453D01*
X0005476Y0282725D01*
X0005624Y0282994D01*
X0005778Y0283259D01*
X0005939Y0283520D01*
X0006107Y0283778D01*
X0006280Y0284031D01*
X0006460Y0284279D01*
X0006646Y0284523D01*
X0006837Y0284763D01*
X0007035Y0284998D01*
X0007238Y0285227D01*
X0007447Y0285452D01*
X0007661Y0285672D01*
X0007881Y0285886D01*
X0008106Y0286095D01*
X0008335Y0286298D01*
X0008570Y0286496D01*
X0008810Y0286687D01*
X0009054Y0286873D01*
X0009302Y0287053D01*
X0009555Y0287226D01*
X0009813Y0287394D01*
X0010074Y0287555D01*
X0010339Y0287709D01*
X0010608Y0287857D01*
X0010880Y0287998D01*
X0011156Y0288133D01*
X0011434Y0288261D01*
X0011716Y0288381D01*
X0012001Y0288495D01*
X0012289Y0288602D01*
X0012579Y0288702D01*
X0012871Y0288795D01*
X0013166Y0288880D01*
X0013463Y0288958D01*
X0013761Y0289029D01*
X0014061Y0289093D01*
X0014363Y0289149D01*
X0014666Y0289198D01*
X0014970Y0289239D01*
X0015275Y0289273D01*
X0015580Y0289299D01*
X0015887Y0289318D01*
X0016193Y0289329D01*
X0016500Y0289333D01*
X0016807Y0289329D01*
X0017113Y0289318D01*
X0017420Y0289299D01*
X0017725Y0289273D01*
X0018030Y0289239D01*
X0018334Y0289198D01*
X0018637Y0289149D01*
X0018939Y0289093D01*
X0019239Y0289029D01*
X0019537Y0288958D01*
X0019834Y0288880D01*
X0020129Y0288795D01*
X0020421Y0288702D01*
X0020711Y0288602D01*
X0020999Y0288495D01*
X0021284Y0288381D01*
X0021566Y0288261D01*
X0021844Y0288133D01*
X0022120Y0287998D01*
X0022392Y0287857D01*
X0022661Y0287709D01*
X0022926Y0287555D01*
X0023187Y0287394D01*
X0023445Y0287226D01*
X0023698Y0287053D01*
X0023946Y0286873D01*
X0024190Y0286687D01*
X0024430Y0286496D01*
X0024665Y0286298D01*
X0024894Y0286095D01*
X0025119Y0285886D01*
X0025339Y0285672D01*
X0025553Y0285452D01*
X0025762Y0285227D01*
X0025965Y0284998D01*
X0026163Y0284763D01*
X0026354Y0284523D01*
X0026540Y0284279D01*
X0026720Y0284031D01*
X0026893Y0283778D01*
X0027061Y0283520D01*
X0027222Y0283259D01*
X0027376Y0282994D01*
X0027524Y0282725D01*
X0027665Y0282453D01*
X0027800Y0282177D01*
X0027928Y0281899D01*
X0028048Y0281617D01*
X0028162Y0281332D01*
X0028269Y0281044D01*
X0028369Y0280754D01*
X0028462Y0280462D01*
X0028547Y0280167D01*
X0028625Y0279870D01*
X0028696Y0279572D01*
X0028760Y0279272D01*
X0028816Y0278970D01*
X0028865Y0278667D01*
X0028906Y0278363D01*
X0028940Y0278058D01*
X0028966Y0277753D01*
X0028985Y0277446D01*
X0028996Y0277140D01*
X0029000Y0276833D01*
X0028996Y0276526D01*
X0028985Y0276220D01*
X0028966Y0275913D01*
X0028940Y0275608D01*
X0028906Y0275303D01*
X0028865Y0274999D01*
X0028816Y0274696D01*
X0028760Y0274394D01*
X0028696Y0274094D01*
X0028625Y0273796D01*
X0028547Y0273499D01*
X0028462Y0273204D01*
X0028369Y0272912D01*
X0028269Y0272622D01*
X0028162Y0272334D01*
X0028048Y0272049D01*
X0027928Y0271767D01*
X0027800Y0271489D01*
X0027665Y0271213D01*
X0027524Y0270941D01*
X0027376Y0270672D01*
X0027222Y0270407D01*
X0027061Y0270146D01*
X0026893Y0269888D01*
X0026720Y0269635D01*
X0026540Y0269387D01*
X0026354Y0269143D01*
X0026163Y0268903D01*
X0025965Y0268668D01*
X0025762Y0268439D01*
X0025553Y0268214D01*
X0025339Y0267994D01*
X0025119Y0267780D01*
X0024894Y0267571D01*
X0024665Y0267368D01*
X0024430Y0267170D01*
X0024190Y0266979D01*
X0023946Y0266793D01*
X0023698Y0266613D01*
X0023445Y0266440D01*
X0023187Y0266272D01*
X0022926Y0266111D01*
X0022661Y0265957D01*
X0022392Y0265809D01*
X0022120Y0265668D01*
X0021844Y0265533D01*
X0021566Y0265405D01*
X0021284Y0265285D01*
X0020999Y0265171D01*
X0020711Y0265064D01*
X0020421Y0264964D01*
X0020129Y0264871D01*
X0019834Y0264786D01*
X0019537Y0264708D01*
X0019239Y0264637D01*
X0018939Y0264573D01*
X0018637Y0264517D01*
X0018334Y0264468D01*
X0018030Y0264427D01*
X0017725Y0264393D01*
X0017420Y0264367D01*
X0017113Y0264348D01*
X0016807Y0264337D01*
X0016500Y0264333D01*
X0016193Y0264337D01*
X0015887Y0264348D01*
X0015580Y0264367D01*
X0015275Y0264393D01*
X0014970Y0264427D01*
X0014666Y0264468D01*
X0014363Y0264517D01*
X0014061Y0264573D01*
X0013761Y0264637D01*
X0013463Y0264708D01*
X0013166Y0264786D01*
X0012871Y0264871D01*
X0012579Y0264964D01*
X0012289Y0265064D01*
X0012001Y0265171D01*
X0011716Y0265285D01*
X0011434Y0265405D01*
X0011156Y0265533D01*
X0010880Y0265668D01*
X0010608Y0265809D01*
X0010339Y0265957D01*
X0010074Y0266111D01*
X0009813Y0266272D01*
X0009555Y0266440D01*
X0009302Y0266613D01*
X0009054Y0266793D01*
X0008810Y0266979D01*
X0008570Y0267170D01*
X0008335Y0267368D01*
X0008106Y0267571D01*
X0007881Y0267780D01*
X0007661Y0267994D01*
X0007447Y0268214D01*
X0007238Y0268439D01*
X0007035Y0268668D01*
X0006837Y0268903D01*
X0006646Y0269143D01*
X0006460Y0269387D01*
X0006280Y0269635D01*
X0006107Y0269888D01*
X0005939Y0270146D01*
X0005778Y0270407D01*
X0005624Y0270672D01*
X0005476Y0270941D01*
X0005335Y0271213D01*
X0005200Y0271489D01*
X0005072Y0271767D01*
X0004952Y0272049D01*
X0004838Y0272334D01*
X0004731Y0272622D01*
X0004631Y0272912D01*
X0004538Y0273204D01*
X0004453Y0273499D01*
X0004375Y0273796D01*
X0004304Y0274094D01*
X0004240Y0274394D01*
X0004184Y0274696D01*
X0004135Y0274999D01*
X0004094Y0275303D01*
X0004060Y0275608D01*
X0004034Y0275913D01*
X0004015Y0276220D01*
X0004004Y0276526D01*
X0004000Y0276833D01*
X0319000Y0276833D02*
X0319004Y0277140D01*
X0319015Y0277446D01*
X0319034Y0277753D01*
X0319060Y0278058D01*
X0319094Y0278363D01*
X0319135Y0278667D01*
X0319184Y0278970D01*
X0319240Y0279272D01*
X0319304Y0279572D01*
X0319375Y0279870D01*
X0319453Y0280167D01*
X0319538Y0280462D01*
X0319631Y0280754D01*
X0319731Y0281044D01*
X0319838Y0281332D01*
X0319952Y0281617D01*
X0320072Y0281899D01*
X0320200Y0282177D01*
X0320335Y0282453D01*
X0320476Y0282725D01*
X0320624Y0282994D01*
X0320778Y0283259D01*
X0320939Y0283520D01*
X0321107Y0283778D01*
X0321280Y0284031D01*
X0321460Y0284279D01*
X0321646Y0284523D01*
X0321837Y0284763D01*
X0322035Y0284998D01*
X0322238Y0285227D01*
X0322447Y0285452D01*
X0322661Y0285672D01*
X0322881Y0285886D01*
X0323106Y0286095D01*
X0323335Y0286298D01*
X0323570Y0286496D01*
X0323810Y0286687D01*
X0324054Y0286873D01*
X0324302Y0287053D01*
X0324555Y0287226D01*
X0324813Y0287394D01*
X0325074Y0287555D01*
X0325339Y0287709D01*
X0325608Y0287857D01*
X0325880Y0287998D01*
X0326156Y0288133D01*
X0326434Y0288261D01*
X0326716Y0288381D01*
X0327001Y0288495D01*
X0327289Y0288602D01*
X0327579Y0288702D01*
X0327871Y0288795D01*
X0328166Y0288880D01*
X0328463Y0288958D01*
X0328761Y0289029D01*
X0329061Y0289093D01*
X0329363Y0289149D01*
X0329666Y0289198D01*
X0329970Y0289239D01*
X0330275Y0289273D01*
X0330580Y0289299D01*
X0330887Y0289318D01*
X0331193Y0289329D01*
X0331500Y0289333D01*
X0331807Y0289329D01*
X0332113Y0289318D01*
X0332420Y0289299D01*
X0332725Y0289273D01*
X0333030Y0289239D01*
X0333334Y0289198D01*
X0333637Y0289149D01*
X0333939Y0289093D01*
X0334239Y0289029D01*
X0334537Y0288958D01*
X0334834Y0288880D01*
X0335129Y0288795D01*
X0335421Y0288702D01*
X0335711Y0288602D01*
X0335999Y0288495D01*
X0336284Y0288381D01*
X0336566Y0288261D01*
X0336844Y0288133D01*
X0337120Y0287998D01*
X0337392Y0287857D01*
X0337661Y0287709D01*
X0337926Y0287555D01*
X0338187Y0287394D01*
X0338445Y0287226D01*
X0338698Y0287053D01*
X0338946Y0286873D01*
X0339190Y0286687D01*
X0339430Y0286496D01*
X0339665Y0286298D01*
X0339894Y0286095D01*
X0340119Y0285886D01*
X0340339Y0285672D01*
X0340553Y0285452D01*
X0340762Y0285227D01*
X0340965Y0284998D01*
X0341163Y0284763D01*
X0341354Y0284523D01*
X0341540Y0284279D01*
X0341720Y0284031D01*
X0341893Y0283778D01*
X0342061Y0283520D01*
X0342222Y0283259D01*
X0342376Y0282994D01*
X0342524Y0282725D01*
X0342665Y0282453D01*
X0342800Y0282177D01*
X0342928Y0281899D01*
X0343048Y0281617D01*
X0343162Y0281332D01*
X0343269Y0281044D01*
X0343369Y0280754D01*
X0343462Y0280462D01*
X0343547Y0280167D01*
X0343625Y0279870D01*
X0343696Y0279572D01*
X0343760Y0279272D01*
X0343816Y0278970D01*
X0343865Y0278667D01*
X0343906Y0278363D01*
X0343940Y0278058D01*
X0343966Y0277753D01*
X0343985Y0277446D01*
X0343996Y0277140D01*
X0344000Y0276833D01*
X0343996Y0276526D01*
X0343985Y0276220D01*
X0343966Y0275913D01*
X0343940Y0275608D01*
X0343906Y0275303D01*
X0343865Y0274999D01*
X0343816Y0274696D01*
X0343760Y0274394D01*
X0343696Y0274094D01*
X0343625Y0273796D01*
X0343547Y0273499D01*
X0343462Y0273204D01*
X0343369Y0272912D01*
X0343269Y0272622D01*
X0343162Y0272334D01*
X0343048Y0272049D01*
X0342928Y0271767D01*
X0342800Y0271489D01*
X0342665Y0271213D01*
X0342524Y0270941D01*
X0342376Y0270672D01*
X0342222Y0270407D01*
X0342061Y0270146D01*
X0341893Y0269888D01*
X0341720Y0269635D01*
X0341540Y0269387D01*
X0341354Y0269143D01*
X0341163Y0268903D01*
X0340965Y0268668D01*
X0340762Y0268439D01*
X0340553Y0268214D01*
X0340339Y0267994D01*
X0340119Y0267780D01*
X0339894Y0267571D01*
X0339665Y0267368D01*
X0339430Y0267170D01*
X0339190Y0266979D01*
X0338946Y0266793D01*
X0338698Y0266613D01*
X0338445Y0266440D01*
X0338187Y0266272D01*
X0337926Y0266111D01*
X0337661Y0265957D01*
X0337392Y0265809D01*
X0337120Y0265668D01*
X0336844Y0265533D01*
X0336566Y0265405D01*
X0336284Y0265285D01*
X0335999Y0265171D01*
X0335711Y0265064D01*
X0335421Y0264964D01*
X0335129Y0264871D01*
X0334834Y0264786D01*
X0334537Y0264708D01*
X0334239Y0264637D01*
X0333939Y0264573D01*
X0333637Y0264517D01*
X0333334Y0264468D01*
X0333030Y0264427D01*
X0332725Y0264393D01*
X0332420Y0264367D01*
X0332113Y0264348D01*
X0331807Y0264337D01*
X0331500Y0264333D01*
X0331193Y0264337D01*
X0330887Y0264348D01*
X0330580Y0264367D01*
X0330275Y0264393D01*
X0329970Y0264427D01*
X0329666Y0264468D01*
X0329363Y0264517D01*
X0329061Y0264573D01*
X0328761Y0264637D01*
X0328463Y0264708D01*
X0328166Y0264786D01*
X0327871Y0264871D01*
X0327579Y0264964D01*
X0327289Y0265064D01*
X0327001Y0265171D01*
X0326716Y0265285D01*
X0326434Y0265405D01*
X0326156Y0265533D01*
X0325880Y0265668D01*
X0325608Y0265809D01*
X0325339Y0265957D01*
X0325074Y0266111D01*
X0324813Y0266272D01*
X0324555Y0266440D01*
X0324302Y0266613D01*
X0324054Y0266793D01*
X0323810Y0266979D01*
X0323570Y0267170D01*
X0323335Y0267368D01*
X0323106Y0267571D01*
X0322881Y0267780D01*
X0322661Y0267994D01*
X0322447Y0268214D01*
X0322238Y0268439D01*
X0322035Y0268668D01*
X0321837Y0268903D01*
X0321646Y0269143D01*
X0321460Y0269387D01*
X0321280Y0269635D01*
X0321107Y0269888D01*
X0320939Y0270146D01*
X0320778Y0270407D01*
X0320624Y0270672D01*
X0320476Y0270941D01*
X0320335Y0271213D01*
X0320200Y0271489D01*
X0320072Y0271767D01*
X0319952Y0272049D01*
X0319838Y0272334D01*
X0319731Y0272622D01*
X0319631Y0272912D01*
X0319538Y0273204D01*
X0319453Y0273499D01*
X0319375Y0273796D01*
X0319304Y0274094D01*
X0319240Y0274394D01*
X0319184Y0274696D01*
X0319135Y0274999D01*
X0319094Y0275303D01*
X0319060Y0275608D01*
X0319034Y0275913D01*
X0319015Y0276220D01*
X0319004Y0276526D01*
X0319000Y0276833D01*
X0319000Y0016833D02*
X0319004Y0017140D01*
X0319015Y0017446D01*
X0319034Y0017753D01*
X0319060Y0018058D01*
X0319094Y0018363D01*
X0319135Y0018667D01*
X0319184Y0018970D01*
X0319240Y0019272D01*
X0319304Y0019572D01*
X0319375Y0019870D01*
X0319453Y0020167D01*
X0319538Y0020462D01*
X0319631Y0020754D01*
X0319731Y0021044D01*
X0319838Y0021332D01*
X0319952Y0021617D01*
X0320072Y0021899D01*
X0320200Y0022177D01*
X0320335Y0022453D01*
X0320476Y0022725D01*
X0320624Y0022994D01*
X0320778Y0023259D01*
X0320939Y0023520D01*
X0321107Y0023778D01*
X0321280Y0024031D01*
X0321460Y0024279D01*
X0321646Y0024523D01*
X0321837Y0024763D01*
X0322035Y0024998D01*
X0322238Y0025227D01*
X0322447Y0025452D01*
X0322661Y0025672D01*
X0322881Y0025886D01*
X0323106Y0026095D01*
X0323335Y0026298D01*
X0323570Y0026496D01*
X0323810Y0026687D01*
X0324054Y0026873D01*
X0324302Y0027053D01*
X0324555Y0027226D01*
X0324813Y0027394D01*
X0325074Y0027555D01*
X0325339Y0027709D01*
X0325608Y0027857D01*
X0325880Y0027998D01*
X0326156Y0028133D01*
X0326434Y0028261D01*
X0326716Y0028381D01*
X0327001Y0028495D01*
X0327289Y0028602D01*
X0327579Y0028702D01*
X0327871Y0028795D01*
X0328166Y0028880D01*
X0328463Y0028958D01*
X0328761Y0029029D01*
X0329061Y0029093D01*
X0329363Y0029149D01*
X0329666Y0029198D01*
X0329970Y0029239D01*
X0330275Y0029273D01*
X0330580Y0029299D01*
X0330887Y0029318D01*
X0331193Y0029329D01*
X0331500Y0029333D01*
X0331807Y0029329D01*
X0332113Y0029318D01*
X0332420Y0029299D01*
X0332725Y0029273D01*
X0333030Y0029239D01*
X0333334Y0029198D01*
X0333637Y0029149D01*
X0333939Y0029093D01*
X0334239Y0029029D01*
X0334537Y0028958D01*
X0334834Y0028880D01*
X0335129Y0028795D01*
X0335421Y0028702D01*
X0335711Y0028602D01*
X0335999Y0028495D01*
X0336284Y0028381D01*
X0336566Y0028261D01*
X0336844Y0028133D01*
X0337120Y0027998D01*
X0337392Y0027857D01*
X0337661Y0027709D01*
X0337926Y0027555D01*
X0338187Y0027394D01*
X0338445Y0027226D01*
X0338698Y0027053D01*
X0338946Y0026873D01*
X0339190Y0026687D01*
X0339430Y0026496D01*
X0339665Y0026298D01*
X0339894Y0026095D01*
X0340119Y0025886D01*
X0340339Y0025672D01*
X0340553Y0025452D01*
X0340762Y0025227D01*
X0340965Y0024998D01*
X0341163Y0024763D01*
X0341354Y0024523D01*
X0341540Y0024279D01*
X0341720Y0024031D01*
X0341893Y0023778D01*
X0342061Y0023520D01*
X0342222Y0023259D01*
X0342376Y0022994D01*
X0342524Y0022725D01*
X0342665Y0022453D01*
X0342800Y0022177D01*
X0342928Y0021899D01*
X0343048Y0021617D01*
X0343162Y0021332D01*
X0343269Y0021044D01*
X0343369Y0020754D01*
X0343462Y0020462D01*
X0343547Y0020167D01*
X0343625Y0019870D01*
X0343696Y0019572D01*
X0343760Y0019272D01*
X0343816Y0018970D01*
X0343865Y0018667D01*
X0343906Y0018363D01*
X0343940Y0018058D01*
X0343966Y0017753D01*
X0343985Y0017446D01*
X0343996Y0017140D01*
X0344000Y0016833D01*
X0343996Y0016526D01*
X0343985Y0016220D01*
X0343966Y0015913D01*
X0343940Y0015608D01*
X0343906Y0015303D01*
X0343865Y0014999D01*
X0343816Y0014696D01*
X0343760Y0014394D01*
X0343696Y0014094D01*
X0343625Y0013796D01*
X0343547Y0013499D01*
X0343462Y0013204D01*
X0343369Y0012912D01*
X0343269Y0012622D01*
X0343162Y0012334D01*
X0343048Y0012049D01*
X0342928Y0011767D01*
X0342800Y0011489D01*
X0342665Y0011213D01*
X0342524Y0010941D01*
X0342376Y0010672D01*
X0342222Y0010407D01*
X0342061Y0010146D01*
X0341893Y0009888D01*
X0341720Y0009635D01*
X0341540Y0009387D01*
X0341354Y0009143D01*
X0341163Y0008903D01*
X0340965Y0008668D01*
X0340762Y0008439D01*
X0340553Y0008214D01*
X0340339Y0007994D01*
X0340119Y0007780D01*
X0339894Y0007571D01*
X0339665Y0007368D01*
X0339430Y0007170D01*
X0339190Y0006979D01*
X0338946Y0006793D01*
X0338698Y0006613D01*
X0338445Y0006440D01*
X0338187Y0006272D01*
X0337926Y0006111D01*
X0337661Y0005957D01*
X0337392Y0005809D01*
X0337120Y0005668D01*
X0336844Y0005533D01*
X0336566Y0005405D01*
X0336284Y0005285D01*
X0335999Y0005171D01*
X0335711Y0005064D01*
X0335421Y0004964D01*
X0335129Y0004871D01*
X0334834Y0004786D01*
X0334537Y0004708D01*
X0334239Y0004637D01*
X0333939Y0004573D01*
X0333637Y0004517D01*
X0333334Y0004468D01*
X0333030Y0004427D01*
X0332725Y0004393D01*
X0332420Y0004367D01*
X0332113Y0004348D01*
X0331807Y0004337D01*
X0331500Y0004333D01*
X0331193Y0004337D01*
X0330887Y0004348D01*
X0330580Y0004367D01*
X0330275Y0004393D01*
X0329970Y0004427D01*
X0329666Y0004468D01*
X0329363Y0004517D01*
X0329061Y0004573D01*
X0328761Y0004637D01*
X0328463Y0004708D01*
X0328166Y0004786D01*
X0327871Y0004871D01*
X0327579Y0004964D01*
X0327289Y0005064D01*
X0327001Y0005171D01*
X0326716Y0005285D01*
X0326434Y0005405D01*
X0326156Y0005533D01*
X0325880Y0005668D01*
X0325608Y0005809D01*
X0325339Y0005957D01*
X0325074Y0006111D01*
X0324813Y0006272D01*
X0324555Y0006440D01*
X0324302Y0006613D01*
X0324054Y0006793D01*
X0323810Y0006979D01*
X0323570Y0007170D01*
X0323335Y0007368D01*
X0323106Y0007571D01*
X0322881Y0007780D01*
X0322661Y0007994D01*
X0322447Y0008214D01*
X0322238Y0008439D01*
X0322035Y0008668D01*
X0321837Y0008903D01*
X0321646Y0009143D01*
X0321460Y0009387D01*
X0321280Y0009635D01*
X0321107Y0009888D01*
X0320939Y0010146D01*
X0320778Y0010407D01*
X0320624Y0010672D01*
X0320476Y0010941D01*
X0320335Y0011213D01*
X0320200Y0011489D01*
X0320072Y0011767D01*
X0319952Y0012049D01*
X0319838Y0012334D01*
X0319731Y0012622D01*
X0319631Y0012912D01*
X0319538Y0013204D01*
X0319453Y0013499D01*
X0319375Y0013796D01*
X0319304Y0014094D01*
X0319240Y0014394D01*
X0319184Y0014696D01*
X0319135Y0014999D01*
X0319094Y0015303D01*
X0319060Y0015608D01*
X0319034Y0015913D01*
X0319015Y0016220D01*
X0319004Y0016526D01*
X0319000Y0016833D01*
D11*
X0267591Y0072033D02*
X0267591Y0075636D01*
X0269993Y0075636D01*
X0268792Y0073835D02*
X0267591Y0073835D01*
X0266310Y0074435D02*
X0266310Y0072033D01*
X0264508Y0072033D01*
X0263908Y0072634D01*
X0263908Y0074435D01*
X0262627Y0075036D02*
X0260225Y0072634D01*
X0260225Y0072033D01*
X0258984Y0072033D02*
X0258383Y0072033D01*
X0258383Y0072634D01*
X0258984Y0072634D01*
X0258984Y0072033D01*
X0256502Y0072033D02*
X0256502Y0075636D01*
X0254700Y0073835D01*
X0257102Y0073835D01*
X0260225Y0075636D02*
X0262627Y0075636D01*
X0262627Y0075036D01*
X0284175Y0083033D02*
X0286577Y0083033D01*
X0285376Y0083033D02*
X0285376Y0086636D01*
X0284175Y0085435D01*
X0287858Y0086036D02*
X0287858Y0083634D01*
X0290260Y0086036D01*
X0290260Y0083634D01*
X0289660Y0083033D01*
X0288459Y0083033D01*
X0287858Y0083634D01*
X0287858Y0086036D02*
X0288459Y0086636D01*
X0289660Y0086636D01*
X0290260Y0086036D01*
X0291542Y0086636D02*
X0291542Y0083033D01*
X0291542Y0084234D02*
X0293944Y0086636D01*
X0292142Y0084835D02*
X0293944Y0083033D01*
X0292343Y0097033D02*
X0291142Y0097033D01*
X0290542Y0097634D01*
X0290542Y0098835D02*
X0291743Y0099435D01*
X0292343Y0099435D01*
X0292944Y0098835D01*
X0292944Y0097634D01*
X0292343Y0097033D01*
X0290542Y0098835D02*
X0290542Y0100636D01*
X0292944Y0100636D01*
X0289260Y0100636D02*
X0288059Y0100036D01*
X0286858Y0098835D01*
X0288660Y0098835D01*
X0289260Y0098234D01*
X0289260Y0097634D01*
X0288660Y0097033D01*
X0287459Y0097033D01*
X0286858Y0097634D01*
X0286858Y0098835D01*
X0285577Y0098835D02*
X0284977Y0098234D01*
X0283175Y0098234D01*
X0283175Y0097033D02*
X0283175Y0100636D01*
X0284977Y0100636D01*
X0285577Y0100036D01*
X0285577Y0098835D01*
X0284376Y0098234D02*
X0285577Y0097033D01*
X0271785Y0108634D02*
X0271185Y0108033D01*
X0269984Y0108033D01*
X0269383Y0108634D01*
X0268102Y0108634D02*
X0267502Y0108033D01*
X0266301Y0108033D01*
X0265700Y0108634D01*
X0265700Y0111036D01*
X0266301Y0111636D01*
X0267502Y0111636D01*
X0268102Y0111036D01*
X0269383Y0111036D02*
X0269984Y0111636D01*
X0271185Y0111636D01*
X0271785Y0111036D01*
X0271785Y0110435D01*
X0271185Y0109835D01*
X0271785Y0109234D01*
X0271785Y0108634D01*
X0271185Y0109835D02*
X0270584Y0109835D01*
X0234785Y0109835D02*
X0232383Y0109835D01*
X0234185Y0111636D01*
X0234185Y0108033D01*
X0231102Y0108634D02*
X0230502Y0108033D01*
X0229301Y0108033D01*
X0228700Y0108634D01*
X0228700Y0111036D01*
X0229301Y0111636D01*
X0230502Y0111636D01*
X0231102Y0111036D01*
X0215468Y0111036D02*
X0214868Y0111636D01*
X0213667Y0111636D01*
X0213066Y0111036D01*
X0211785Y0111036D02*
X0211185Y0111636D01*
X0209984Y0111636D01*
X0209383Y0111036D01*
X0208102Y0111036D02*
X0207502Y0111636D01*
X0206301Y0111636D01*
X0205700Y0111036D01*
X0205700Y0108634D01*
X0206301Y0108033D01*
X0207502Y0108033D01*
X0208102Y0108634D01*
X0209383Y0108634D02*
X0209984Y0108033D01*
X0211185Y0108033D01*
X0211785Y0108634D01*
X0211785Y0109234D01*
X0211185Y0109835D01*
X0210584Y0109835D01*
X0211185Y0109835D02*
X0211785Y0110435D01*
X0211785Y0111036D01*
X0213066Y0108033D02*
X0215468Y0110435D01*
X0215468Y0111036D01*
X0215468Y0108033D02*
X0213066Y0108033D01*
X0212419Y0075636D02*
X0210017Y0075636D01*
X0210017Y0072033D01*
X0208736Y0072033D02*
X0208736Y0074435D01*
X0210017Y0073835D02*
X0211218Y0073835D01*
X0208736Y0072033D02*
X0206934Y0072033D01*
X0206334Y0072634D01*
X0206334Y0074435D01*
X0205053Y0072033D02*
X0202651Y0072033D01*
X0203852Y0072033D02*
X0203852Y0075636D01*
X0202651Y0074435D01*
X0201409Y0072634D02*
X0201409Y0072033D01*
X0200809Y0072033D01*
X0200809Y0072634D01*
X0201409Y0072634D01*
X0199528Y0072634D02*
X0198927Y0072033D01*
X0197726Y0072033D01*
X0197126Y0072634D01*
X0199528Y0075036D01*
X0199528Y0072634D01*
X0199528Y0075036D02*
X0198927Y0075636D01*
X0197726Y0075636D01*
X0197126Y0075036D01*
X0197126Y0072634D01*
X0224651Y0072033D02*
X0227053Y0072033D01*
X0225852Y0072033D02*
X0225852Y0075636D01*
X0224651Y0074435D01*
X0228334Y0074435D02*
X0228334Y0072634D01*
X0228934Y0072033D01*
X0230736Y0072033D01*
X0230736Y0074435D01*
X0232017Y0073835D02*
X0233218Y0073835D01*
X0232017Y0075636D02*
X0234419Y0075636D01*
X0232017Y0075636D02*
X0232017Y0072033D01*
X0171835Y0034136D02*
X0169433Y0034136D01*
X0169433Y0030533D01*
X0168151Y0030533D02*
X0168151Y0032935D01*
X0169433Y0032335D02*
X0170634Y0032335D01*
X0168151Y0030533D02*
X0166350Y0030533D01*
X0165749Y0031134D01*
X0165749Y0032935D01*
X0164468Y0033536D02*
X0162066Y0031134D01*
X0162667Y0030533D01*
X0163868Y0030533D01*
X0164468Y0031134D01*
X0164468Y0033536D01*
X0163868Y0034136D01*
X0162667Y0034136D01*
X0162066Y0033536D01*
X0162066Y0031134D01*
X0160785Y0031134D02*
X0160185Y0030533D01*
X0158984Y0030533D01*
X0158383Y0031134D01*
X0160785Y0033536D01*
X0160785Y0031134D01*
X0158383Y0031134D02*
X0158383Y0033536D01*
X0158984Y0034136D01*
X0160185Y0034136D01*
X0160785Y0033536D01*
X0157102Y0030533D02*
X0154700Y0030533D01*
X0155901Y0030533D02*
X0155901Y0034136D01*
X0154700Y0032935D01*
X0131785Y0032935D02*
X0129383Y0030533D01*
X0131785Y0030533D01*
X0131785Y0032935D02*
X0131785Y0033536D01*
X0131185Y0034136D01*
X0129984Y0034136D01*
X0129383Y0033536D01*
X0128102Y0033536D02*
X0127502Y0034136D01*
X0126301Y0034136D01*
X0125700Y0033536D01*
X0125700Y0031134D01*
X0126301Y0030533D01*
X0127502Y0030533D01*
X0128102Y0031134D01*
X0123468Y0034636D02*
X0121066Y0034636D01*
X0121066Y0031033D01*
X0119785Y0031033D02*
X0119785Y0033435D01*
X0121066Y0032835D02*
X0122267Y0032835D01*
X0119785Y0031033D02*
X0117984Y0031033D01*
X0117383Y0031634D01*
X0117383Y0033435D01*
X0116102Y0031033D02*
X0113700Y0031033D01*
X0114901Y0031033D02*
X0114901Y0034636D01*
X0113700Y0033435D01*
X0081785Y0032033D02*
X0079383Y0032033D01*
X0080584Y0032033D02*
X0080584Y0035636D01*
X0079383Y0034435D01*
X0078102Y0035036D02*
X0077502Y0035636D01*
X0076301Y0035636D01*
X0075700Y0035036D01*
X0075700Y0032634D01*
X0076301Y0032033D01*
X0077502Y0032033D01*
X0078102Y0032634D01*
X0088301Y0079033D02*
X0089502Y0079033D01*
X0090102Y0079634D01*
X0090102Y0082636D01*
X0091383Y0081435D02*
X0092584Y0082636D01*
X0092584Y0079033D01*
X0091383Y0079033D02*
X0093785Y0079033D01*
X0088301Y0079033D02*
X0087700Y0079634D01*
X0087700Y0082636D01*
X0100700Y0082636D02*
X0100700Y0079033D01*
X0100700Y0080234D02*
X0102502Y0080234D01*
X0103102Y0080835D01*
X0103102Y0082036D01*
X0102502Y0082636D01*
X0100700Y0082636D01*
X0101901Y0080234D02*
X0103102Y0079033D01*
X0104383Y0080835D02*
X0106785Y0080835D01*
X0108066Y0079634D02*
X0108066Y0079033D01*
X0108066Y0079634D02*
X0110468Y0082036D01*
X0110468Y0082636D01*
X0108066Y0082636D01*
X0111749Y0082036D02*
X0112350Y0082636D01*
X0113551Y0082636D01*
X0114151Y0082036D01*
X0114151Y0081435D01*
X0113551Y0080835D01*
X0114151Y0080234D01*
X0114151Y0079634D01*
X0113551Y0079033D01*
X0112350Y0079033D01*
X0111749Y0079634D01*
X0112950Y0080835D02*
X0113551Y0080835D01*
X0115433Y0080835D02*
X0115433Y0082636D01*
X0117835Y0082636D01*
X0117234Y0081435D02*
X0117835Y0080835D01*
X0117835Y0079634D01*
X0117234Y0079033D01*
X0116033Y0079033D01*
X0115433Y0079634D01*
X0115433Y0080835D02*
X0116634Y0081435D01*
X0117234Y0081435D01*
X0119116Y0079634D02*
X0119116Y0079033D01*
X0119716Y0079033D01*
X0119716Y0079634D01*
X0119116Y0079634D01*
X0120957Y0079634D02*
X0123359Y0082036D01*
X0123359Y0079634D01*
X0122759Y0079033D01*
X0121558Y0079033D01*
X0120957Y0079634D01*
X0120957Y0082036D01*
X0121558Y0082636D01*
X0122759Y0082636D01*
X0123359Y0082036D01*
X0124640Y0082636D02*
X0124640Y0079033D01*
X0124640Y0080234D02*
X0126442Y0080234D01*
X0127042Y0080835D01*
X0127042Y0082036D01*
X0126442Y0082636D01*
X0124640Y0082636D01*
X0166251Y0150033D02*
X0167452Y0150033D01*
X0168053Y0150634D01*
X0169334Y0150634D02*
X0169934Y0150033D01*
X0171135Y0150033D01*
X0171736Y0150634D01*
X0171736Y0151234D01*
X0171135Y0151835D01*
X0170535Y0151835D01*
X0171135Y0151835D02*
X0171736Y0152435D01*
X0171736Y0153036D01*
X0171135Y0153636D01*
X0169934Y0153636D01*
X0169334Y0153036D01*
X0168053Y0153036D02*
X0167452Y0153636D01*
X0166251Y0153636D01*
X0165651Y0153036D01*
X0165651Y0150634D01*
X0166251Y0150033D01*
X0173017Y0150033D02*
X0175419Y0150033D01*
X0174218Y0150033D02*
X0174218Y0153636D01*
X0173017Y0152435D01*
X0175726Y0160033D02*
X0175126Y0160634D01*
X0177528Y0163036D01*
X0177528Y0160634D01*
X0176927Y0160033D01*
X0175726Y0160033D01*
X0175126Y0160634D02*
X0175126Y0163036D01*
X0175726Y0163636D01*
X0176927Y0163636D01*
X0177528Y0163036D01*
X0178809Y0160634D02*
X0179409Y0160634D01*
X0179409Y0160033D01*
X0178809Y0160033D01*
X0178809Y0160634D01*
X0180651Y0160033D02*
X0183053Y0160033D01*
X0181852Y0160033D02*
X0181852Y0163636D01*
X0180651Y0162435D01*
X0184334Y0162435D02*
X0184334Y0160634D01*
X0184934Y0160033D01*
X0186736Y0160033D01*
X0186736Y0162435D01*
X0188017Y0161835D02*
X0189218Y0161835D01*
X0188017Y0163636D02*
X0190419Y0163636D01*
X0188017Y0163636D02*
X0188017Y0160033D01*
X0175468Y0181533D02*
X0173066Y0181533D01*
X0175468Y0183935D01*
X0175468Y0184536D01*
X0174868Y0185136D01*
X0173667Y0185136D01*
X0173066Y0184536D01*
X0171785Y0184536D02*
X0171185Y0185136D01*
X0169984Y0185136D01*
X0169383Y0184536D01*
X0168102Y0184536D02*
X0167502Y0185136D01*
X0166301Y0185136D01*
X0165700Y0184536D01*
X0165700Y0182134D01*
X0166301Y0181533D01*
X0167502Y0181533D01*
X0168102Y0182134D01*
X0169383Y0181533D02*
X0171785Y0183935D01*
X0171785Y0184536D01*
X0171785Y0181533D02*
X0169383Y0181533D01*
X0179700Y0190134D02*
X0182102Y0192536D01*
X0182102Y0190134D01*
X0181502Y0189533D01*
X0180301Y0189533D01*
X0179700Y0190134D01*
X0179700Y0192536D01*
X0180301Y0193136D01*
X0181502Y0193136D01*
X0182102Y0192536D01*
X0183383Y0190134D02*
X0183984Y0190134D01*
X0183984Y0189533D01*
X0183383Y0189533D01*
X0183383Y0190134D01*
X0185225Y0189533D02*
X0187627Y0189533D01*
X0186426Y0189533D02*
X0186426Y0193136D01*
X0185225Y0191935D01*
X0188908Y0191935D02*
X0188908Y0190134D01*
X0189508Y0189533D01*
X0191310Y0189533D01*
X0191310Y0191935D01*
X0192591Y0191335D02*
X0193792Y0191335D01*
X0192591Y0193136D02*
X0194993Y0193136D01*
X0192591Y0193136D02*
X0192591Y0189533D01*
X0203297Y0239459D02*
X0202697Y0240060D01*
X0202697Y0241261D01*
X0203297Y0241861D01*
X0205699Y0239459D01*
X0206300Y0240060D01*
X0206300Y0241261D01*
X0205699Y0241861D01*
X0203297Y0241861D01*
X0203297Y0239459D02*
X0205699Y0239459D01*
X0205699Y0243142D02*
X0205699Y0243743D01*
X0206300Y0243743D01*
X0206300Y0243142D01*
X0205699Y0243142D01*
X0206300Y0244984D02*
X0206300Y0247386D01*
X0206300Y0246185D02*
X0202697Y0246185D01*
X0203898Y0244984D01*
X0203898Y0248667D02*
X0205699Y0248667D01*
X0206300Y0249268D01*
X0206300Y0251069D01*
X0203898Y0251069D01*
X0204498Y0252350D02*
X0204498Y0253551D01*
X0202697Y0252350D02*
X0202697Y0254752D01*
X0202697Y0252350D02*
X0206300Y0252350D01*
X0169919Y0246033D02*
X0167517Y0246033D01*
X0168718Y0246033D02*
X0168718Y0249636D01*
X0167517Y0248435D01*
X0166236Y0248435D02*
X0163834Y0246033D01*
X0166236Y0246033D01*
X0166236Y0248435D02*
X0166236Y0249036D01*
X0165635Y0249636D01*
X0164434Y0249636D01*
X0163834Y0249036D01*
X0162553Y0249036D02*
X0161952Y0249636D01*
X0160751Y0249636D01*
X0160151Y0249036D01*
X0160151Y0246634D01*
X0160751Y0246033D01*
X0161952Y0246033D01*
X0162553Y0246634D01*
X0141864Y0247033D02*
X0140063Y0248835D01*
X0139462Y0248234D02*
X0141864Y0250636D01*
X0139462Y0250636D02*
X0139462Y0247033D01*
X0138181Y0247634D02*
X0137581Y0247033D01*
X0136380Y0247033D01*
X0135779Y0247634D01*
X0135779Y0248835D02*
X0136980Y0249435D01*
X0137581Y0249435D01*
X0138181Y0248835D01*
X0138181Y0247634D01*
X0135779Y0248835D02*
X0135779Y0250636D01*
X0138181Y0250636D01*
X0134538Y0247634D02*
X0134538Y0247033D01*
X0133938Y0247033D01*
X0133938Y0247634D01*
X0134538Y0247634D01*
X0132657Y0247033D02*
X0130255Y0247033D01*
X0131456Y0247033D02*
X0131456Y0250636D01*
X0130255Y0249435D01*
X0115944Y0250636D02*
X0113542Y0248234D01*
X0114142Y0248835D02*
X0115944Y0247033D01*
X0113542Y0247033D02*
X0113542Y0250636D01*
X0112260Y0250636D02*
X0112260Y0250036D01*
X0109858Y0247634D01*
X0109858Y0247033D01*
X0107977Y0247033D02*
X0107977Y0250636D01*
X0106175Y0248835D01*
X0108577Y0248835D01*
X0109858Y0250636D02*
X0112260Y0250636D01*
X0086864Y0250636D02*
X0084462Y0248234D01*
X0085063Y0248835D02*
X0086864Y0247033D01*
X0084462Y0247033D02*
X0084462Y0250636D01*
X0083181Y0250636D02*
X0080779Y0250636D01*
X0080779Y0248835D01*
X0081980Y0249435D01*
X0082581Y0249435D01*
X0083181Y0248835D01*
X0083181Y0247634D01*
X0082581Y0247033D01*
X0081380Y0247033D01*
X0080779Y0247634D01*
X0079538Y0247634D02*
X0079538Y0247033D01*
X0078938Y0247033D01*
X0078938Y0247634D01*
X0079538Y0247634D01*
X0077657Y0247033D02*
X0075255Y0247033D01*
X0076456Y0247033D02*
X0076456Y0250636D01*
X0075255Y0249435D01*
X0060944Y0250636D02*
X0058542Y0248234D01*
X0059142Y0248835D02*
X0060944Y0247033D01*
X0058542Y0247033D02*
X0058542Y0250636D01*
X0057260Y0250636D02*
X0057260Y0250036D01*
X0054858Y0247634D01*
X0054858Y0247033D01*
X0052977Y0247033D02*
X0052977Y0250636D01*
X0051175Y0248835D01*
X0053577Y0248835D01*
X0054858Y0250636D02*
X0057260Y0250636D01*
D12*
X0057417Y0260133D02*
X0059118Y0260133D01*
X0059118Y0262402D01*
X0060533Y0261835D02*
X0061667Y0261835D01*
X0061100Y0262969D02*
X0061667Y0263536D01*
X0061100Y0262969D02*
X0061100Y0260133D01*
X0062988Y0260700D02*
X0063555Y0261268D01*
X0065257Y0261268D01*
X0065257Y0261835D02*
X0065257Y0260133D01*
X0063555Y0260133D01*
X0062988Y0260700D01*
X0063555Y0262402D02*
X0064689Y0262402D01*
X0065257Y0261835D01*
X0066671Y0261835D02*
X0066671Y0260700D01*
X0067238Y0260133D01*
X0068940Y0260133D01*
X0070921Y0260700D02*
X0070921Y0262969D01*
X0070354Y0262402D02*
X0071489Y0262402D01*
X0072810Y0262402D02*
X0072810Y0260700D01*
X0073377Y0260133D01*
X0075078Y0260133D01*
X0075078Y0262402D01*
X0076493Y0262402D02*
X0076493Y0260133D01*
X0076493Y0261268D02*
X0077627Y0262402D01*
X0078194Y0262402D01*
X0079562Y0261835D02*
X0080129Y0262402D01*
X0081264Y0262402D01*
X0081831Y0261835D01*
X0081831Y0261268D01*
X0079562Y0261268D01*
X0079562Y0261835D02*
X0079562Y0260700D01*
X0080129Y0260133D01*
X0081264Y0260133D01*
X0083245Y0260700D02*
X0083245Y0261835D01*
X0083812Y0262402D01*
X0085514Y0262402D01*
X0085514Y0263536D02*
X0085514Y0260133D01*
X0083812Y0260133D01*
X0083245Y0260700D01*
X0081404Y0264999D02*
X0082538Y0266133D01*
X0081971Y0266133D01*
X0081971Y0266700D01*
X0082538Y0266700D01*
X0082538Y0266133D01*
X0079989Y0266700D02*
X0079989Y0267835D01*
X0079422Y0268402D01*
X0077721Y0268402D01*
X0077721Y0264999D01*
X0077721Y0266133D02*
X0079422Y0266133D01*
X0079989Y0266700D01*
X0076306Y0266700D02*
X0076306Y0269536D01*
X0074037Y0269536D02*
X0074037Y0266700D01*
X0074605Y0266133D01*
X0075739Y0266133D01*
X0076306Y0266700D01*
X0069033Y0266133D02*
X0068466Y0266700D01*
X0068466Y0268969D01*
X0067899Y0268402D02*
X0069033Y0268402D01*
X0066484Y0267835D02*
X0066484Y0266133D01*
X0066484Y0267835D02*
X0065917Y0268402D01*
X0064783Y0268402D01*
X0064216Y0267835D01*
X0062801Y0268402D02*
X0061100Y0268402D01*
X0060533Y0267835D01*
X0060533Y0266700D01*
X0061100Y0266133D01*
X0062801Y0266133D01*
X0062801Y0265566D02*
X0062801Y0268402D01*
X0064216Y0269536D02*
X0064216Y0266133D01*
X0062801Y0265566D02*
X0062234Y0264999D01*
X0061667Y0264999D01*
X0059118Y0266133D02*
X0059118Y0268402D01*
X0056849Y0268402D02*
X0056849Y0266700D01*
X0057417Y0266133D01*
X0059118Y0266133D01*
X0055435Y0266700D02*
X0055435Y0267835D01*
X0054868Y0268402D01*
X0053733Y0268402D01*
X0053166Y0267835D01*
X0053166Y0266700D01*
X0053733Y0266133D01*
X0054868Y0266133D01*
X0055435Y0266700D01*
X0051752Y0266133D02*
X0051752Y0267835D01*
X0051185Y0268402D01*
X0050050Y0268402D01*
X0049483Y0267835D01*
X0049483Y0269536D02*
X0049483Y0266133D01*
X0046934Y0266133D02*
X0046934Y0269536D01*
X0045800Y0269536D02*
X0048069Y0269536D01*
X0048069Y0263536D02*
X0048069Y0260133D01*
X0049483Y0260700D02*
X0050050Y0261268D01*
X0051752Y0261268D01*
X0051752Y0261835D02*
X0051752Y0260133D01*
X0050050Y0260133D01*
X0049483Y0260700D01*
X0050050Y0262402D02*
X0051185Y0262402D01*
X0051752Y0261835D01*
X0053166Y0262402D02*
X0053166Y0260133D01*
X0055435Y0260133D02*
X0055435Y0261835D01*
X0054868Y0262402D01*
X0053166Y0262402D01*
X0056849Y0262402D02*
X0056849Y0260700D01*
X0057417Y0260133D01*
X0066671Y0261835D02*
X0067238Y0262402D01*
X0068940Y0262402D01*
X0070921Y0260700D02*
X0071489Y0260133D01*
X0087542Y0266133D02*
X0089244Y0266133D01*
X0089811Y0266700D01*
X0089811Y0268969D01*
X0089244Y0269536D01*
X0087542Y0269536D01*
X0087542Y0266133D01*
X0091225Y0266700D02*
X0091225Y0267835D01*
X0091793Y0268402D01*
X0092927Y0268402D01*
X0093494Y0267835D01*
X0093494Y0267268D01*
X0091225Y0267268D01*
X0091225Y0266700D02*
X0091793Y0266133D01*
X0092927Y0266133D01*
X0094909Y0266133D02*
X0096610Y0266133D01*
X0097177Y0266700D01*
X0096610Y0267268D01*
X0095476Y0267268D01*
X0094909Y0267835D01*
X0095476Y0268402D01*
X0097177Y0268402D01*
X0098592Y0268402D02*
X0099159Y0268402D01*
X0099159Y0266133D01*
X0098592Y0266133D02*
X0099726Y0266133D01*
X0101047Y0266700D02*
X0101047Y0267835D01*
X0101614Y0268402D01*
X0103316Y0268402D01*
X0103316Y0265566D01*
X0102749Y0264999D01*
X0102181Y0264999D01*
X0101614Y0266133D02*
X0103316Y0266133D01*
X0104730Y0266133D02*
X0104730Y0268402D01*
X0106432Y0268402D01*
X0106999Y0267835D01*
X0106999Y0266133D01*
X0108413Y0266700D02*
X0108413Y0267835D01*
X0108981Y0268402D01*
X0110115Y0268402D01*
X0110682Y0267835D01*
X0110682Y0267268D01*
X0108413Y0267268D01*
X0108413Y0266700D02*
X0108981Y0266133D01*
X0110115Y0266133D01*
X0112097Y0266700D02*
X0112097Y0267835D01*
X0112664Y0268402D01*
X0114365Y0268402D01*
X0114365Y0269536D02*
X0114365Y0266133D01*
X0112664Y0266133D01*
X0112097Y0266700D01*
X0108934Y0263536D02*
X0110068Y0262402D01*
X0110068Y0260133D01*
X0110068Y0261835D02*
X0107800Y0261835D01*
X0107800Y0262402D02*
X0108934Y0263536D01*
X0107800Y0262402D02*
X0107800Y0260133D01*
X0106385Y0260700D02*
X0105818Y0260133D01*
X0104684Y0260133D01*
X0104116Y0260700D01*
X0104684Y0261835D02*
X0104116Y0262402D01*
X0104116Y0262969D01*
X0104684Y0263536D01*
X0105818Y0263536D01*
X0106385Y0262969D01*
X0105818Y0261835D02*
X0106385Y0261268D01*
X0106385Y0260700D01*
X0105818Y0261835D02*
X0104684Y0261835D01*
X0102702Y0260700D02*
X0102702Y0263536D01*
X0100433Y0263536D02*
X0100433Y0260700D01*
X0101000Y0260133D01*
X0102135Y0260133D01*
X0102702Y0260700D01*
X0101614Y0266133D02*
X0101047Y0266700D01*
X0099159Y0269536D02*
X0099159Y0270103D01*
X0091179Y0264103D02*
X0091179Y0263536D01*
X0091179Y0262402D02*
X0091179Y0260133D01*
X0090612Y0260133D02*
X0091746Y0260133D01*
X0093067Y0260133D02*
X0093067Y0262402D01*
X0094768Y0262402D01*
X0095336Y0261835D01*
X0095336Y0260133D01*
X0091179Y0262402D02*
X0090612Y0262402D01*
X0119463Y0266700D02*
X0119463Y0267268D01*
X0120597Y0268402D01*
X0120597Y0268969D01*
X0120030Y0269536D01*
X0119463Y0268969D01*
X0119463Y0268402D01*
X0121731Y0266133D01*
X0120597Y0266133D02*
X0120030Y0266133D01*
X0119463Y0266700D01*
X0120597Y0266133D02*
X0121731Y0267268D01*
X0138800Y0267835D02*
X0140501Y0267835D01*
X0141069Y0267268D01*
X0141069Y0266700D01*
X0140501Y0266133D01*
X0138800Y0266133D01*
X0138800Y0269536D01*
X0140501Y0269536D01*
X0141069Y0268969D01*
X0141069Y0268402D01*
X0140501Y0267835D01*
X0142483Y0268402D02*
X0142483Y0266700D01*
X0143050Y0266133D01*
X0144752Y0266133D01*
X0144752Y0265566D02*
X0144185Y0264999D01*
X0143617Y0264999D01*
X0144752Y0265566D02*
X0144752Y0268402D01*
X0146166Y0268402D02*
X0146166Y0267835D01*
X0146733Y0267835D01*
X0146733Y0268402D01*
X0146166Y0268402D01*
X0146166Y0266700D02*
X0146166Y0266133D01*
X0146733Y0266133D01*
X0146733Y0266700D01*
X0146166Y0266700D01*
X0146166Y0262402D02*
X0146166Y0260133D01*
X0146166Y0261268D02*
X0147301Y0262402D01*
X0147868Y0262402D01*
X0149236Y0262402D02*
X0149236Y0261835D01*
X0149803Y0261835D01*
X0149803Y0262402D01*
X0149236Y0262402D01*
X0149236Y0260700D02*
X0149236Y0260133D01*
X0149803Y0260133D01*
X0149803Y0260700D01*
X0149236Y0260700D01*
X0144752Y0260700D02*
X0144752Y0261835D01*
X0144185Y0262402D01*
X0143050Y0262402D01*
X0142483Y0261835D01*
X0142483Y0260700D01*
X0143050Y0260133D01*
X0144185Y0260133D01*
X0144752Y0260700D01*
X0141069Y0263536D02*
X0138800Y0263536D01*
X0138800Y0260133D01*
X0138800Y0261835D02*
X0139934Y0261835D01*
X0154800Y0261835D02*
X0157069Y0261835D01*
X0157069Y0262402D02*
X0157069Y0260133D01*
X0158483Y0260133D02*
X0158483Y0262402D01*
X0160185Y0262402D01*
X0160752Y0261835D01*
X0160752Y0260133D01*
X0162166Y0260700D02*
X0162733Y0261268D01*
X0164435Y0261268D01*
X0164435Y0261835D02*
X0164435Y0260133D01*
X0162733Y0260133D01*
X0162166Y0260700D01*
X0162733Y0262402D02*
X0163868Y0262402D01*
X0164435Y0261835D01*
X0165849Y0262402D02*
X0166984Y0262402D01*
X0166417Y0262969D02*
X0166417Y0260700D01*
X0166984Y0260133D01*
X0168305Y0260700D02*
X0168305Y0261835D01*
X0168872Y0262402D01*
X0170006Y0262402D01*
X0170573Y0261835D01*
X0170573Y0260700D01*
X0170006Y0260133D01*
X0168872Y0260133D01*
X0168305Y0260700D01*
X0171988Y0260133D02*
X0173122Y0260133D01*
X0172555Y0260133D02*
X0172555Y0263536D01*
X0171988Y0263536D01*
X0174443Y0262402D02*
X0174443Y0260700D01*
X0175011Y0260133D01*
X0176712Y0260133D01*
X0176712Y0259566D02*
X0176145Y0258999D01*
X0175578Y0258999D01*
X0176712Y0259566D02*
X0176712Y0262402D01*
X0174303Y0266133D02*
X0173736Y0266700D01*
X0173169Y0266133D01*
X0172602Y0266700D01*
X0172602Y0268402D01*
X0171187Y0267835D02*
X0171187Y0267268D01*
X0168919Y0267268D01*
X0168919Y0267835D02*
X0169486Y0268402D01*
X0170620Y0268402D01*
X0171187Y0267835D01*
X0170620Y0266133D02*
X0169486Y0266133D01*
X0168919Y0266700D01*
X0168919Y0267835D01*
X0167551Y0268402D02*
X0166984Y0268402D01*
X0165849Y0267268D01*
X0165849Y0268402D02*
X0165849Y0266133D01*
X0164435Y0266133D02*
X0162733Y0266133D01*
X0162166Y0266700D01*
X0162166Y0267835D01*
X0162733Y0268402D01*
X0164435Y0268402D01*
X0164435Y0269536D02*
X0164435Y0266133D01*
X0160752Y0266133D02*
X0160752Y0267835D01*
X0160185Y0268402D01*
X0158483Y0268402D01*
X0158483Y0266133D01*
X0157069Y0266133D02*
X0157069Y0268402D01*
X0155934Y0269536D01*
X0154800Y0268402D01*
X0154800Y0266133D01*
X0154800Y0267835D02*
X0157069Y0267835D01*
X0155934Y0263536D02*
X0157069Y0262402D01*
X0155934Y0263536D02*
X0154800Y0262402D01*
X0154800Y0260133D01*
X0172000Y0251833D02*
X0172000Y0241833D01*
X0172002Y0241773D01*
X0172007Y0241712D01*
X0172016Y0241653D01*
X0172029Y0241594D01*
X0172045Y0241535D01*
X0172065Y0241478D01*
X0172088Y0241423D01*
X0172115Y0241368D01*
X0172144Y0241316D01*
X0172177Y0241265D01*
X0172213Y0241216D01*
X0172251Y0241170D01*
X0172293Y0241126D01*
X0172337Y0241084D01*
X0172383Y0241046D01*
X0172432Y0241010D01*
X0172483Y0240977D01*
X0172535Y0240948D01*
X0172590Y0240921D01*
X0172645Y0240898D01*
X0172702Y0240878D01*
X0172761Y0240862D01*
X0172820Y0240849D01*
X0172879Y0240840D01*
X0172940Y0240835D01*
X0173000Y0240833D01*
X0200000Y0240833D01*
X0200060Y0240835D01*
X0200121Y0240840D01*
X0200180Y0240849D01*
X0200239Y0240862D01*
X0200298Y0240878D01*
X0200355Y0240898D01*
X0200410Y0240921D01*
X0200465Y0240948D01*
X0200517Y0240977D01*
X0200568Y0241010D01*
X0200617Y0241046D01*
X0200663Y0241084D01*
X0200707Y0241126D01*
X0200749Y0241170D01*
X0200787Y0241216D01*
X0200823Y0241265D01*
X0200856Y0241316D01*
X0200885Y0241368D01*
X0200912Y0241423D01*
X0200935Y0241478D01*
X0200955Y0241535D01*
X0200971Y0241594D01*
X0200984Y0241653D01*
X0200993Y0241712D01*
X0200998Y0241773D01*
X0201000Y0241833D01*
X0201000Y0251833D01*
X0200998Y0251893D01*
X0200993Y0251954D01*
X0200984Y0252013D01*
X0200971Y0252072D01*
X0200955Y0252131D01*
X0200935Y0252188D01*
X0200912Y0252243D01*
X0200885Y0252298D01*
X0200856Y0252350D01*
X0200823Y0252401D01*
X0200787Y0252450D01*
X0200749Y0252496D01*
X0200707Y0252540D01*
X0200663Y0252582D01*
X0200617Y0252620D01*
X0200568Y0252656D01*
X0200517Y0252689D01*
X0200465Y0252718D01*
X0200410Y0252745D01*
X0200355Y0252768D01*
X0200298Y0252788D01*
X0200239Y0252804D01*
X0200180Y0252817D01*
X0200121Y0252826D01*
X0200060Y0252831D01*
X0200000Y0252833D01*
X0173000Y0252833D01*
X0172940Y0252831D01*
X0172879Y0252826D01*
X0172820Y0252817D01*
X0172761Y0252804D01*
X0172702Y0252788D01*
X0172645Y0252768D01*
X0172590Y0252745D01*
X0172535Y0252718D01*
X0172483Y0252689D01*
X0172432Y0252656D01*
X0172383Y0252620D01*
X0172337Y0252582D01*
X0172293Y0252540D01*
X0172251Y0252496D01*
X0172213Y0252450D01*
X0172177Y0252401D01*
X0172144Y0252350D01*
X0172115Y0252298D01*
X0172088Y0252243D01*
X0172065Y0252188D01*
X0172045Y0252131D01*
X0172029Y0252072D01*
X0172016Y0252013D01*
X0172007Y0251954D01*
X0172002Y0251893D01*
X0172000Y0251833D01*
X0180500Y0246833D02*
X0185200Y0246833D01*
X0187700Y0246833D02*
X0192500Y0246833D01*
X0192766Y0260133D02*
X0192199Y0260700D01*
X0192199Y0262969D01*
X0192766Y0262402D02*
X0191631Y0262402D01*
X0189743Y0263536D02*
X0189743Y0260133D01*
X0189176Y0260133D02*
X0190310Y0260133D01*
X0187761Y0260133D02*
X0187761Y0261835D01*
X0187194Y0262402D01*
X0186060Y0262402D01*
X0186060Y0261268D02*
X0187761Y0261268D01*
X0187761Y0260133D02*
X0186060Y0260133D01*
X0185493Y0260700D01*
X0186060Y0261268D01*
X0184078Y0260133D02*
X0184078Y0263536D01*
X0182944Y0262402D01*
X0181810Y0263536D01*
X0181810Y0260133D01*
X0182237Y0266133D02*
X0182237Y0269536D01*
X0181102Y0268402D01*
X0179968Y0269536D01*
X0179968Y0266133D01*
X0183651Y0266700D02*
X0184218Y0267268D01*
X0185920Y0267268D01*
X0185920Y0267835D02*
X0185920Y0266133D01*
X0184218Y0266133D01*
X0183651Y0266700D01*
X0184218Y0268402D02*
X0185353Y0268402D01*
X0185920Y0267835D01*
X0187334Y0269536D02*
X0187902Y0269536D01*
X0187902Y0266133D01*
X0188469Y0266133D02*
X0187334Y0266133D01*
X0190357Y0266700D02*
X0190357Y0268969D01*
X0189790Y0268402D02*
X0190924Y0268402D01*
X0192245Y0267835D02*
X0192812Y0268402D01*
X0194514Y0268402D01*
X0193947Y0267268D02*
X0192812Y0267268D01*
X0192245Y0267835D01*
X0192245Y0266133D02*
X0193947Y0266133D01*
X0194514Y0266700D01*
X0193947Y0267268D01*
X0195928Y0267268D02*
X0198197Y0267268D01*
X0198197Y0267835D01*
X0197630Y0268402D01*
X0196496Y0268402D01*
X0195928Y0267835D01*
X0195928Y0266700D01*
X0196496Y0266133D01*
X0197630Y0266133D01*
X0199612Y0268402D02*
X0200746Y0266133D01*
X0201880Y0268402D01*
X0201453Y0262402D02*
X0202587Y0260133D01*
X0203722Y0262402D01*
X0200039Y0261835D02*
X0200039Y0261268D01*
X0197770Y0261268D01*
X0197770Y0261835D02*
X0198337Y0262402D01*
X0199471Y0262402D01*
X0200039Y0261835D01*
X0199471Y0260133D02*
X0198337Y0260133D01*
X0197770Y0260700D01*
X0197770Y0261835D01*
X0196355Y0262402D02*
X0194654Y0262402D01*
X0194087Y0261835D01*
X0194654Y0261268D01*
X0195788Y0261268D01*
X0196355Y0260700D01*
X0195788Y0260133D01*
X0194087Y0260133D01*
X0189743Y0263536D02*
X0189176Y0263536D01*
X0190924Y0266133D02*
X0190357Y0266700D01*
X0174870Y0266700D02*
X0174870Y0268402D01*
X0174870Y0266700D02*
X0174303Y0266133D01*
X0178000Y0187833D02*
X0205000Y0187833D01*
X0205060Y0187831D01*
X0205121Y0187826D01*
X0205180Y0187817D01*
X0205239Y0187804D01*
X0205298Y0187788D01*
X0205355Y0187768D01*
X0205410Y0187745D01*
X0205465Y0187718D01*
X0205517Y0187689D01*
X0205568Y0187656D01*
X0205617Y0187620D01*
X0205663Y0187582D01*
X0205707Y0187540D01*
X0205749Y0187496D01*
X0205787Y0187450D01*
X0205823Y0187401D01*
X0205856Y0187350D01*
X0205885Y0187298D01*
X0205912Y0187243D01*
X0205935Y0187188D01*
X0205955Y0187131D01*
X0205971Y0187072D01*
X0205984Y0187013D01*
X0205993Y0186954D01*
X0205998Y0186893D01*
X0206000Y0186833D01*
X0206000Y0176833D01*
X0205998Y0176773D01*
X0205993Y0176712D01*
X0205984Y0176653D01*
X0205971Y0176594D01*
X0205955Y0176535D01*
X0205935Y0176478D01*
X0205912Y0176423D01*
X0205885Y0176368D01*
X0205856Y0176316D01*
X0205823Y0176265D01*
X0205787Y0176216D01*
X0205749Y0176170D01*
X0205707Y0176126D01*
X0205663Y0176084D01*
X0205617Y0176046D01*
X0205568Y0176010D01*
X0205517Y0175977D01*
X0205465Y0175948D01*
X0205410Y0175921D01*
X0205355Y0175898D01*
X0205298Y0175878D01*
X0205239Y0175862D01*
X0205180Y0175849D01*
X0205121Y0175840D01*
X0205060Y0175835D01*
X0205000Y0175833D01*
X0178000Y0175833D01*
X0177940Y0175835D01*
X0177879Y0175840D01*
X0177820Y0175849D01*
X0177761Y0175862D01*
X0177702Y0175878D01*
X0177645Y0175898D01*
X0177590Y0175921D01*
X0177535Y0175948D01*
X0177483Y0175977D01*
X0177432Y0176010D01*
X0177383Y0176046D01*
X0177337Y0176084D01*
X0177293Y0176126D01*
X0177251Y0176170D01*
X0177213Y0176216D01*
X0177177Y0176265D01*
X0177144Y0176316D01*
X0177115Y0176368D01*
X0177088Y0176423D01*
X0177065Y0176478D01*
X0177045Y0176535D01*
X0177029Y0176594D01*
X0177016Y0176653D01*
X0177007Y0176712D01*
X0177002Y0176773D01*
X0177000Y0176833D01*
X0177000Y0186833D01*
X0177002Y0186893D01*
X0177007Y0186954D01*
X0177016Y0187013D01*
X0177029Y0187072D01*
X0177045Y0187131D01*
X0177065Y0187188D01*
X0177088Y0187243D01*
X0177115Y0187298D01*
X0177144Y0187350D01*
X0177177Y0187401D01*
X0177213Y0187450D01*
X0177251Y0187496D01*
X0177293Y0187540D01*
X0177337Y0187582D01*
X0177383Y0187620D01*
X0177432Y0187656D01*
X0177483Y0187689D01*
X0177535Y0187718D01*
X0177590Y0187745D01*
X0177645Y0187768D01*
X0177702Y0187788D01*
X0177761Y0187804D01*
X0177820Y0187817D01*
X0177879Y0187826D01*
X0177940Y0187831D01*
X0178000Y0187833D01*
X0185500Y0181833D02*
X0190300Y0181833D01*
X0192800Y0181833D02*
X0197500Y0181833D01*
X0205000Y0157833D02*
X0178000Y0157833D01*
X0177940Y0157831D01*
X0177879Y0157826D01*
X0177820Y0157817D01*
X0177761Y0157804D01*
X0177702Y0157788D01*
X0177645Y0157768D01*
X0177590Y0157745D01*
X0177535Y0157718D01*
X0177483Y0157689D01*
X0177432Y0157656D01*
X0177383Y0157620D01*
X0177337Y0157582D01*
X0177293Y0157540D01*
X0177251Y0157496D01*
X0177213Y0157450D01*
X0177177Y0157401D01*
X0177144Y0157350D01*
X0177115Y0157298D01*
X0177088Y0157243D01*
X0177065Y0157188D01*
X0177045Y0157131D01*
X0177029Y0157072D01*
X0177016Y0157013D01*
X0177007Y0156954D01*
X0177002Y0156893D01*
X0177000Y0156833D01*
X0177000Y0146833D01*
X0177002Y0146773D01*
X0177007Y0146712D01*
X0177016Y0146653D01*
X0177029Y0146594D01*
X0177045Y0146535D01*
X0177065Y0146478D01*
X0177088Y0146423D01*
X0177115Y0146368D01*
X0177144Y0146316D01*
X0177177Y0146265D01*
X0177213Y0146216D01*
X0177251Y0146170D01*
X0177293Y0146126D01*
X0177337Y0146084D01*
X0177383Y0146046D01*
X0177432Y0146010D01*
X0177483Y0145977D01*
X0177535Y0145948D01*
X0177590Y0145921D01*
X0177645Y0145898D01*
X0177702Y0145878D01*
X0177761Y0145862D01*
X0177820Y0145849D01*
X0177879Y0145840D01*
X0177940Y0145835D01*
X0178000Y0145833D01*
X0205000Y0145833D01*
X0205060Y0145835D01*
X0205121Y0145840D01*
X0205180Y0145849D01*
X0205239Y0145862D01*
X0205298Y0145878D01*
X0205355Y0145898D01*
X0205410Y0145921D01*
X0205465Y0145948D01*
X0205517Y0145977D01*
X0205568Y0146010D01*
X0205617Y0146046D01*
X0205663Y0146084D01*
X0205707Y0146126D01*
X0205749Y0146170D01*
X0205787Y0146216D01*
X0205823Y0146265D01*
X0205856Y0146316D01*
X0205885Y0146368D01*
X0205912Y0146423D01*
X0205935Y0146478D01*
X0205955Y0146535D01*
X0205971Y0146594D01*
X0205984Y0146653D01*
X0205993Y0146712D01*
X0205998Y0146773D01*
X0206000Y0146833D01*
X0206000Y0156833D01*
X0205998Y0156893D01*
X0205993Y0156954D01*
X0205984Y0157013D01*
X0205971Y0157072D01*
X0205955Y0157131D01*
X0205935Y0157188D01*
X0205912Y0157243D01*
X0205885Y0157298D01*
X0205856Y0157350D01*
X0205823Y0157401D01*
X0205787Y0157450D01*
X0205749Y0157496D01*
X0205707Y0157540D01*
X0205663Y0157582D01*
X0205617Y0157620D01*
X0205568Y0157656D01*
X0205517Y0157689D01*
X0205465Y0157718D01*
X0205410Y0157745D01*
X0205355Y0157768D01*
X0205298Y0157788D01*
X0205239Y0157804D01*
X0205180Y0157817D01*
X0205121Y0157826D01*
X0205060Y0157831D01*
X0205000Y0157833D01*
X0197500Y0151833D02*
X0192700Y0151833D01*
X0190200Y0151833D02*
X0185500Y0151833D01*
X0201500Y0106333D02*
X0211500Y0106333D01*
X0211560Y0106331D01*
X0211621Y0106326D01*
X0211680Y0106317D01*
X0211739Y0106304D01*
X0211798Y0106288D01*
X0211855Y0106268D01*
X0211910Y0106245D01*
X0211965Y0106218D01*
X0212017Y0106189D01*
X0212068Y0106156D01*
X0212117Y0106120D01*
X0212163Y0106082D01*
X0212207Y0106040D01*
X0212249Y0105996D01*
X0212287Y0105950D01*
X0212323Y0105901D01*
X0212356Y0105850D01*
X0212385Y0105798D01*
X0212412Y0105743D01*
X0212435Y0105688D01*
X0212455Y0105631D01*
X0212471Y0105572D01*
X0212484Y0105513D01*
X0212493Y0105454D01*
X0212498Y0105393D01*
X0212500Y0105333D01*
X0212500Y0078333D01*
X0212498Y0078273D01*
X0212493Y0078212D01*
X0212484Y0078153D01*
X0212471Y0078094D01*
X0212455Y0078035D01*
X0212435Y0077978D01*
X0212412Y0077923D01*
X0212385Y0077868D01*
X0212356Y0077816D01*
X0212323Y0077765D01*
X0212287Y0077716D01*
X0212249Y0077670D01*
X0212207Y0077626D01*
X0212163Y0077584D01*
X0212117Y0077546D01*
X0212068Y0077510D01*
X0212017Y0077477D01*
X0211965Y0077448D01*
X0211910Y0077421D01*
X0211855Y0077398D01*
X0211798Y0077378D01*
X0211739Y0077362D01*
X0211680Y0077349D01*
X0211621Y0077340D01*
X0211560Y0077335D01*
X0211500Y0077333D01*
X0201500Y0077333D01*
X0201440Y0077335D01*
X0201379Y0077340D01*
X0201320Y0077349D01*
X0201261Y0077362D01*
X0201202Y0077378D01*
X0201145Y0077398D01*
X0201090Y0077421D01*
X0201035Y0077448D01*
X0200983Y0077477D01*
X0200932Y0077510D01*
X0200883Y0077546D01*
X0200837Y0077584D01*
X0200793Y0077626D01*
X0200751Y0077670D01*
X0200713Y0077716D01*
X0200677Y0077765D01*
X0200644Y0077816D01*
X0200615Y0077868D01*
X0200588Y0077923D01*
X0200565Y0077978D01*
X0200545Y0078035D01*
X0200529Y0078094D01*
X0200516Y0078153D01*
X0200507Y0078212D01*
X0200502Y0078273D01*
X0200500Y0078333D01*
X0200500Y0105333D01*
X0200502Y0105393D01*
X0200507Y0105454D01*
X0200516Y0105513D01*
X0200529Y0105572D01*
X0200545Y0105631D01*
X0200565Y0105688D01*
X0200588Y0105743D01*
X0200615Y0105798D01*
X0200644Y0105850D01*
X0200677Y0105901D01*
X0200713Y0105950D01*
X0200751Y0105996D01*
X0200793Y0106040D01*
X0200837Y0106082D01*
X0200883Y0106120D01*
X0200932Y0106156D01*
X0200983Y0106189D01*
X0201035Y0106218D01*
X0201090Y0106245D01*
X0201145Y0106268D01*
X0201202Y0106288D01*
X0201261Y0106304D01*
X0201320Y0106317D01*
X0201379Y0106326D01*
X0201440Y0106331D01*
X0201500Y0106333D01*
X0206500Y0097833D02*
X0206500Y0093033D01*
X0206500Y0090533D02*
X0206500Y0085833D01*
X0225500Y0078333D02*
X0225500Y0105333D01*
X0225502Y0105393D01*
X0225507Y0105454D01*
X0225516Y0105513D01*
X0225529Y0105572D01*
X0225545Y0105631D01*
X0225565Y0105688D01*
X0225588Y0105743D01*
X0225615Y0105798D01*
X0225644Y0105850D01*
X0225677Y0105901D01*
X0225713Y0105950D01*
X0225751Y0105996D01*
X0225793Y0106040D01*
X0225837Y0106082D01*
X0225883Y0106120D01*
X0225932Y0106156D01*
X0225983Y0106189D01*
X0226035Y0106218D01*
X0226090Y0106245D01*
X0226145Y0106268D01*
X0226202Y0106288D01*
X0226261Y0106304D01*
X0226320Y0106317D01*
X0226379Y0106326D01*
X0226440Y0106331D01*
X0226500Y0106333D01*
X0236500Y0106333D01*
X0236560Y0106331D01*
X0236621Y0106326D01*
X0236680Y0106317D01*
X0236739Y0106304D01*
X0236798Y0106288D01*
X0236855Y0106268D01*
X0236910Y0106245D01*
X0236965Y0106218D01*
X0237017Y0106189D01*
X0237068Y0106156D01*
X0237117Y0106120D01*
X0237163Y0106082D01*
X0237207Y0106040D01*
X0237249Y0105996D01*
X0237287Y0105950D01*
X0237323Y0105901D01*
X0237356Y0105850D01*
X0237385Y0105798D01*
X0237412Y0105743D01*
X0237435Y0105688D01*
X0237455Y0105631D01*
X0237471Y0105572D01*
X0237484Y0105513D01*
X0237493Y0105454D01*
X0237498Y0105393D01*
X0237500Y0105333D01*
X0237500Y0078333D01*
X0237498Y0078273D01*
X0237493Y0078212D01*
X0237484Y0078153D01*
X0237471Y0078094D01*
X0237455Y0078035D01*
X0237435Y0077978D01*
X0237412Y0077923D01*
X0237385Y0077868D01*
X0237356Y0077816D01*
X0237323Y0077765D01*
X0237287Y0077716D01*
X0237249Y0077670D01*
X0237207Y0077626D01*
X0237163Y0077584D01*
X0237117Y0077546D01*
X0237068Y0077510D01*
X0237017Y0077477D01*
X0236965Y0077448D01*
X0236910Y0077421D01*
X0236855Y0077398D01*
X0236798Y0077378D01*
X0236739Y0077362D01*
X0236680Y0077349D01*
X0236621Y0077340D01*
X0236560Y0077335D01*
X0236500Y0077333D01*
X0226500Y0077333D01*
X0226440Y0077335D01*
X0226379Y0077340D01*
X0226320Y0077349D01*
X0226261Y0077362D01*
X0226202Y0077378D01*
X0226145Y0077398D01*
X0226090Y0077421D01*
X0226035Y0077448D01*
X0225983Y0077477D01*
X0225932Y0077510D01*
X0225883Y0077546D01*
X0225837Y0077584D01*
X0225793Y0077626D01*
X0225751Y0077670D01*
X0225713Y0077716D01*
X0225677Y0077765D01*
X0225644Y0077816D01*
X0225615Y0077868D01*
X0225588Y0077923D01*
X0225565Y0077978D01*
X0225545Y0078035D01*
X0225529Y0078094D01*
X0225516Y0078153D01*
X0225507Y0078212D01*
X0225502Y0078273D01*
X0225500Y0078333D01*
X0231500Y0085833D02*
X0231500Y0090533D01*
X0231500Y0093033D02*
X0231500Y0097833D01*
X0245900Y0097433D02*
X0249100Y0097433D01*
X0249100Y0095233D01*
X0249100Y0088433D02*
X0249100Y0086233D01*
X0245900Y0086233D01*
X0255500Y0078333D02*
X0255500Y0105333D01*
X0255502Y0105393D01*
X0255507Y0105454D01*
X0255516Y0105513D01*
X0255529Y0105572D01*
X0255545Y0105631D01*
X0255565Y0105688D01*
X0255588Y0105743D01*
X0255615Y0105798D01*
X0255644Y0105850D01*
X0255677Y0105901D01*
X0255713Y0105950D01*
X0255751Y0105996D01*
X0255793Y0106040D01*
X0255837Y0106082D01*
X0255883Y0106120D01*
X0255932Y0106156D01*
X0255983Y0106189D01*
X0256035Y0106218D01*
X0256090Y0106245D01*
X0256145Y0106268D01*
X0256202Y0106288D01*
X0256261Y0106304D01*
X0256320Y0106317D01*
X0256379Y0106326D01*
X0256440Y0106331D01*
X0256500Y0106333D01*
X0266500Y0106333D01*
X0266560Y0106331D01*
X0266621Y0106326D01*
X0266680Y0106317D01*
X0266739Y0106304D01*
X0266798Y0106288D01*
X0266855Y0106268D01*
X0266910Y0106245D01*
X0266965Y0106218D01*
X0267017Y0106189D01*
X0267068Y0106156D01*
X0267117Y0106120D01*
X0267163Y0106082D01*
X0267207Y0106040D01*
X0267249Y0105996D01*
X0267287Y0105950D01*
X0267323Y0105901D01*
X0267356Y0105850D01*
X0267385Y0105798D01*
X0267412Y0105743D01*
X0267435Y0105688D01*
X0267455Y0105631D01*
X0267471Y0105572D01*
X0267484Y0105513D01*
X0267493Y0105454D01*
X0267498Y0105393D01*
X0267500Y0105333D01*
X0267500Y0078333D01*
X0267498Y0078273D01*
X0267493Y0078212D01*
X0267484Y0078153D01*
X0267471Y0078094D01*
X0267455Y0078035D01*
X0267435Y0077978D01*
X0267412Y0077923D01*
X0267385Y0077868D01*
X0267356Y0077816D01*
X0267323Y0077765D01*
X0267287Y0077716D01*
X0267249Y0077670D01*
X0267207Y0077626D01*
X0267163Y0077584D01*
X0267117Y0077546D01*
X0267068Y0077510D01*
X0267017Y0077477D01*
X0266965Y0077448D01*
X0266910Y0077421D01*
X0266855Y0077398D01*
X0266798Y0077378D01*
X0266739Y0077362D01*
X0266680Y0077349D01*
X0266621Y0077340D01*
X0266560Y0077335D01*
X0266500Y0077333D01*
X0256500Y0077333D01*
X0256440Y0077335D01*
X0256379Y0077340D01*
X0256320Y0077349D01*
X0256261Y0077362D01*
X0256202Y0077378D01*
X0256145Y0077398D01*
X0256090Y0077421D01*
X0256035Y0077448D01*
X0255983Y0077477D01*
X0255932Y0077510D01*
X0255883Y0077546D01*
X0255837Y0077584D01*
X0255793Y0077626D01*
X0255751Y0077670D01*
X0255713Y0077716D01*
X0255677Y0077765D01*
X0255644Y0077816D01*
X0255615Y0077868D01*
X0255588Y0077923D01*
X0255565Y0077978D01*
X0255545Y0078035D01*
X0255529Y0078094D01*
X0255516Y0078153D01*
X0255507Y0078212D01*
X0255502Y0078273D01*
X0255500Y0078333D01*
X0261500Y0085833D02*
X0261500Y0090533D01*
X0261500Y0093033D02*
X0261500Y0097833D01*
X0317592Y0062536D02*
X0317592Y0059133D01*
X0317592Y0060268D02*
X0319294Y0060268D01*
X0319861Y0060835D01*
X0319861Y0061969D01*
X0319294Y0062536D01*
X0317592Y0062536D01*
X0321275Y0062536D02*
X0321275Y0059133D01*
X0321275Y0060835D02*
X0323544Y0060835D01*
X0323544Y0062536D02*
X0323544Y0059133D01*
X0324958Y0059700D02*
X0324958Y0061969D01*
X0325526Y0062536D01*
X0326660Y0062536D01*
X0327227Y0061969D01*
X0327227Y0059700D01*
X0326660Y0059133D01*
X0325526Y0059133D01*
X0324958Y0059700D01*
X0328642Y0062536D02*
X0330910Y0062536D01*
X0329776Y0062536D02*
X0329776Y0059133D01*
X0332325Y0059700D02*
X0332325Y0061969D01*
X0332892Y0062536D01*
X0334026Y0062536D01*
X0334593Y0061969D01*
X0334593Y0059700D01*
X0334026Y0059133D01*
X0332892Y0059133D01*
X0332325Y0059700D01*
X0333582Y0154633D02*
X0333582Y0158036D01*
X0335283Y0158036D01*
X0335851Y0157469D01*
X0335851Y0156335D01*
X0335283Y0155768D01*
X0333582Y0155768D01*
X0334716Y0155768D02*
X0335851Y0154633D01*
X0337265Y0154633D02*
X0338399Y0154633D01*
X0337832Y0154633D02*
X0337832Y0158036D01*
X0337265Y0158036D02*
X0338399Y0158036D01*
X0339721Y0158036D02*
X0341989Y0154633D01*
X0339721Y0154633D02*
X0341989Y0158036D01*
X0332167Y0158036D02*
X0329899Y0158036D01*
X0331033Y0158036D02*
X0331033Y0154633D01*
X0328484Y0154633D02*
X0328484Y0156902D01*
X0327350Y0158036D01*
X0326216Y0156902D01*
X0326216Y0154633D01*
X0324801Y0154633D02*
X0324801Y0158036D01*
X0323667Y0156902D01*
X0322533Y0158036D01*
X0322533Y0154633D01*
X0326216Y0156335D02*
X0328484Y0156335D01*
X0317435Y0155200D02*
X0317435Y0157469D01*
X0316868Y0158036D01*
X0315166Y0158036D01*
X0315166Y0154633D01*
X0316868Y0154633D01*
X0317435Y0155200D01*
X0313752Y0154633D02*
X0311483Y0154633D01*
X0311483Y0158036D01*
X0313752Y0158036D01*
X0312617Y0156335D02*
X0311483Y0156335D01*
X0310069Y0154633D02*
X0307800Y0154633D01*
X0307800Y0158036D01*
X0310090Y0253133D02*
X0309523Y0253700D01*
X0309523Y0255969D01*
X0310090Y0256536D01*
X0311224Y0256536D01*
X0311791Y0255969D01*
X0311791Y0253700D01*
X0311224Y0253133D01*
X0310090Y0253133D01*
X0313206Y0253133D02*
X0313206Y0256536D01*
X0314907Y0256536D01*
X0315475Y0255969D01*
X0315475Y0254835D01*
X0314907Y0254268D01*
X0313206Y0254268D01*
X0316889Y0256536D02*
X0319158Y0256536D01*
X0318023Y0256536D02*
X0318023Y0253133D01*
X0320572Y0253133D02*
X0321707Y0253133D01*
X0321139Y0253133D02*
X0321139Y0256536D01*
X0320572Y0256536D02*
X0321707Y0256536D01*
X0323028Y0255969D02*
X0323028Y0253700D01*
X0323595Y0253133D01*
X0324729Y0253133D01*
X0325296Y0253700D01*
X0325296Y0255969D01*
X0324729Y0256536D01*
X0323595Y0256536D01*
X0323028Y0255969D01*
X0326711Y0256536D02*
X0326711Y0253133D01*
X0328979Y0253133D02*
X0326711Y0256536D01*
X0328979Y0256536D02*
X0328979Y0253133D01*
X0330394Y0253700D02*
X0330961Y0253133D01*
X0332095Y0253133D01*
X0332663Y0253700D01*
X0332663Y0254268D01*
X0332095Y0254835D01*
X0330961Y0254835D01*
X0330394Y0255402D01*
X0330394Y0255969D01*
X0330961Y0256536D01*
X0332095Y0256536D01*
X0332663Y0255969D01*
X0110000Y0032833D02*
X0083000Y0032833D01*
X0082940Y0032831D01*
X0082879Y0032826D01*
X0082820Y0032817D01*
X0082761Y0032804D01*
X0082702Y0032788D01*
X0082645Y0032768D01*
X0082590Y0032745D01*
X0082535Y0032718D01*
X0082483Y0032689D01*
X0082432Y0032656D01*
X0082383Y0032620D01*
X0082337Y0032582D01*
X0082293Y0032540D01*
X0082251Y0032496D01*
X0082213Y0032450D01*
X0082177Y0032401D01*
X0082144Y0032350D01*
X0082115Y0032298D01*
X0082088Y0032243D01*
X0082065Y0032188D01*
X0082045Y0032131D01*
X0082029Y0032072D01*
X0082016Y0032013D01*
X0082007Y0031954D01*
X0082002Y0031893D01*
X0082000Y0031833D01*
X0082000Y0021833D01*
X0082002Y0021773D01*
X0082007Y0021712D01*
X0082016Y0021653D01*
X0082029Y0021594D01*
X0082045Y0021535D01*
X0082065Y0021478D01*
X0082088Y0021423D01*
X0082115Y0021368D01*
X0082144Y0021316D01*
X0082177Y0021265D01*
X0082213Y0021216D01*
X0082251Y0021170D01*
X0082293Y0021126D01*
X0082337Y0021084D01*
X0082383Y0021046D01*
X0082432Y0021010D01*
X0082483Y0020977D01*
X0082535Y0020948D01*
X0082590Y0020921D01*
X0082645Y0020898D01*
X0082702Y0020878D01*
X0082761Y0020862D01*
X0082820Y0020849D01*
X0082879Y0020840D01*
X0082940Y0020835D01*
X0083000Y0020833D01*
X0110000Y0020833D01*
X0110060Y0020835D01*
X0110121Y0020840D01*
X0110180Y0020849D01*
X0110239Y0020862D01*
X0110298Y0020878D01*
X0110355Y0020898D01*
X0110410Y0020921D01*
X0110465Y0020948D01*
X0110517Y0020977D01*
X0110568Y0021010D01*
X0110617Y0021046D01*
X0110663Y0021084D01*
X0110707Y0021126D01*
X0110749Y0021170D01*
X0110787Y0021216D01*
X0110823Y0021265D01*
X0110856Y0021316D01*
X0110885Y0021368D01*
X0110912Y0021423D01*
X0110935Y0021478D01*
X0110955Y0021535D01*
X0110971Y0021594D01*
X0110984Y0021653D01*
X0110993Y0021712D01*
X0110998Y0021773D01*
X0111000Y0021833D01*
X0111000Y0031833D01*
X0110998Y0031893D01*
X0110993Y0031954D01*
X0110984Y0032013D01*
X0110971Y0032072D01*
X0110955Y0032131D01*
X0110935Y0032188D01*
X0110912Y0032243D01*
X0110885Y0032298D01*
X0110856Y0032350D01*
X0110823Y0032401D01*
X0110787Y0032450D01*
X0110749Y0032496D01*
X0110707Y0032540D01*
X0110663Y0032582D01*
X0110617Y0032620D01*
X0110568Y0032656D01*
X0110517Y0032689D01*
X0110465Y0032718D01*
X0110410Y0032745D01*
X0110355Y0032768D01*
X0110298Y0032788D01*
X0110239Y0032804D01*
X0110180Y0032817D01*
X0110121Y0032826D01*
X0110060Y0032831D01*
X0110000Y0032833D01*
X0102500Y0026833D02*
X0097800Y0026833D01*
X0095300Y0026833D02*
X0090500Y0026833D01*
X0082500Y0017833D02*
X0082500Y0015833D01*
X0082500Y0017833D02*
X0080500Y0017833D01*
X0072500Y0017833D02*
X0070500Y0017833D01*
X0070500Y0015833D01*
X0070500Y0007833D02*
X0070500Y0005833D01*
X0072500Y0005833D01*
X0080500Y0005833D02*
X0082500Y0005833D01*
X0082500Y0007833D01*
X0062500Y0007833D02*
X0062500Y0005833D01*
X0060500Y0005833D01*
X0052500Y0005833D02*
X0050500Y0005833D01*
X0050500Y0007833D01*
X0050500Y0015833D02*
X0050500Y0017833D01*
X0052500Y0017833D01*
X0060500Y0017833D02*
X0062500Y0017833D01*
X0062500Y0015833D01*
X0044700Y0139133D02*
X0041297Y0139133D01*
X0041297Y0140835D01*
X0041864Y0141402D01*
X0042431Y0141402D01*
X0042999Y0140835D01*
X0042999Y0139133D01*
X0044700Y0139133D02*
X0044700Y0140835D01*
X0044133Y0141402D01*
X0043566Y0141402D01*
X0042999Y0140835D01*
X0042999Y0142816D02*
X0042999Y0145085D01*
X0042431Y0145085D02*
X0044700Y0145085D01*
X0044700Y0142816D02*
X0042431Y0142816D01*
X0041297Y0143951D01*
X0042431Y0145085D01*
X0041297Y0146500D02*
X0041297Y0148768D01*
X0041297Y0147634D02*
X0044700Y0147634D01*
X0044700Y0151317D02*
X0041297Y0151317D01*
X0041297Y0150183D02*
X0041297Y0152451D01*
X0041297Y0153866D02*
X0044700Y0153866D01*
X0044700Y0156135D01*
X0044700Y0157549D02*
X0041297Y0157549D01*
X0041297Y0159251D01*
X0041864Y0159818D01*
X0042999Y0159818D01*
X0043566Y0159251D01*
X0043566Y0157549D01*
X0043566Y0158683D02*
X0044700Y0159818D01*
X0044700Y0161232D02*
X0044700Y0162366D01*
X0044700Y0161799D02*
X0041297Y0161799D01*
X0041297Y0161232D02*
X0041297Y0162366D01*
X0041297Y0163688D02*
X0044700Y0163688D01*
X0044700Y0165956D01*
X0044133Y0167371D02*
X0044700Y0167938D01*
X0044700Y0169072D01*
X0044133Y0169639D01*
X0043566Y0169639D01*
X0042999Y0169072D01*
X0042999Y0167938D01*
X0042431Y0167371D01*
X0041864Y0167371D01*
X0041297Y0167938D01*
X0041297Y0169072D01*
X0041864Y0169639D01*
X0041297Y0165956D02*
X0041297Y0163688D01*
X0042999Y0163688D02*
X0042999Y0164822D01*
X0041297Y0156135D02*
X0041297Y0153866D01*
X0042999Y0153866D02*
X0042999Y0155000D01*
X0045800Y0260133D02*
X0045800Y0263536D01*
X0046934Y0262402D01*
X0048069Y0263536D01*
D13*
X0049003Y0279383D02*
X0047034Y0279383D01*
X0046050Y0280367D01*
X0046050Y0284304D01*
X0047034Y0285288D01*
X0049003Y0285288D01*
X0049987Y0284304D01*
X0049987Y0280367D01*
X0049003Y0279383D01*
X0052495Y0279383D02*
X0052495Y0285288D01*
X0053480Y0282336D02*
X0056432Y0279383D01*
X0058941Y0279383D02*
X0058941Y0283320D01*
X0060909Y0285288D01*
X0062878Y0283320D01*
X0062878Y0279383D01*
X0062878Y0282336D02*
X0058941Y0282336D01*
X0056432Y0285288D02*
X0052495Y0281352D01*
X0071832Y0282336D02*
X0074785Y0282336D01*
X0075769Y0281352D01*
X0075769Y0280367D01*
X0074785Y0279383D01*
X0071832Y0279383D01*
X0071832Y0285288D01*
X0074785Y0285288D01*
X0075769Y0284304D01*
X0075769Y0283320D01*
X0074785Y0282336D01*
X0078277Y0280367D02*
X0079262Y0281352D01*
X0082214Y0281352D01*
X0082214Y0282336D02*
X0082214Y0279383D01*
X0079262Y0279383D01*
X0078277Y0280367D01*
X0079262Y0283320D02*
X0081230Y0283320D01*
X0082214Y0282336D01*
X0084723Y0283320D02*
X0086691Y0283320D01*
X0085707Y0284304D02*
X0085707Y0280367D01*
X0086691Y0279383D01*
X0090004Y0280367D02*
X0090004Y0284304D01*
X0089020Y0283320D02*
X0090988Y0283320D01*
X0093317Y0282336D02*
X0094301Y0283320D01*
X0096270Y0283320D01*
X0097254Y0282336D01*
X0097254Y0281352D01*
X0093317Y0281352D01*
X0093317Y0282336D02*
X0093317Y0280367D01*
X0094301Y0279383D01*
X0096270Y0279383D01*
X0099762Y0279383D02*
X0099762Y0283320D01*
X0099762Y0281352D02*
X0101731Y0283320D01*
X0102715Y0283320D01*
X0105134Y0283320D02*
X0105134Y0280367D01*
X0106118Y0279383D01*
X0109070Y0279383D01*
X0109070Y0278399D02*
X0108086Y0277415D01*
X0107102Y0277415D01*
X0109070Y0278399D02*
X0109070Y0283320D01*
X0118025Y0285288D02*
X0118025Y0279383D01*
X0119993Y0283320D02*
X0121961Y0285288D01*
X0121961Y0279383D01*
X0124470Y0280367D02*
X0124470Y0282336D01*
X0125454Y0283320D01*
X0127423Y0283320D01*
X0128407Y0282336D01*
X0128407Y0281352D01*
X0124470Y0281352D01*
X0124470Y0280367D02*
X0125454Y0279383D01*
X0127423Y0279383D01*
X0131900Y0280367D02*
X0131900Y0284304D01*
X0130916Y0283320D02*
X0132884Y0283320D01*
X0135213Y0282336D02*
X0136197Y0283320D01*
X0138165Y0283320D01*
X0139149Y0282336D01*
X0139149Y0281352D01*
X0135213Y0281352D01*
X0135213Y0282336D02*
X0135213Y0280367D01*
X0136197Y0279383D01*
X0138165Y0279383D01*
X0141658Y0279383D02*
X0141658Y0283320D01*
X0141658Y0281352D02*
X0143627Y0283320D01*
X0144611Y0283320D01*
X0132884Y0279383D02*
X0131900Y0280367D01*
X0119993Y0283320D02*
X0118025Y0285288D01*
X0090988Y0279383D02*
X0090004Y0280367D01*
X0089796Y0013804D02*
X0089796Y0009867D01*
X0091764Y0011836D02*
X0087827Y0011836D01*
X0045764Y0011836D02*
X0041827Y0011836D01*
D14*
X0045500Y0035833D02*
X0045500Y0075333D01*
X0051000Y0075333D01*
X0049500Y0064333D02*
X0049502Y0064422D01*
X0049508Y0064511D01*
X0049518Y0064600D01*
X0049532Y0064688D01*
X0049549Y0064775D01*
X0049571Y0064861D01*
X0049597Y0064947D01*
X0049626Y0065031D01*
X0049659Y0065114D01*
X0049695Y0065195D01*
X0049736Y0065275D01*
X0049779Y0065352D01*
X0049826Y0065428D01*
X0049877Y0065501D01*
X0049930Y0065572D01*
X0049987Y0065641D01*
X0050047Y0065707D01*
X0050110Y0065771D01*
X0050175Y0065831D01*
X0050243Y0065889D01*
X0050314Y0065943D01*
X0050387Y0065994D01*
X0050462Y0066042D01*
X0050539Y0066087D01*
X0050618Y0066128D01*
X0050699Y0066165D01*
X0050781Y0066199D01*
X0050865Y0066230D01*
X0050950Y0066256D01*
X0051036Y0066279D01*
X0051123Y0066297D01*
X0051211Y0066312D01*
X0051300Y0066323D01*
X0051389Y0066330D01*
X0051478Y0066333D01*
X0051567Y0066332D01*
X0051656Y0066327D01*
X0051744Y0066318D01*
X0051833Y0066305D01*
X0051920Y0066288D01*
X0052007Y0066268D01*
X0052093Y0066243D01*
X0052177Y0066215D01*
X0052260Y0066183D01*
X0052342Y0066147D01*
X0052422Y0066108D01*
X0052500Y0066065D01*
X0052576Y0066019D01*
X0052650Y0065969D01*
X0052722Y0065916D01*
X0052791Y0065860D01*
X0052858Y0065801D01*
X0052922Y0065739D01*
X0052983Y0065675D01*
X0053042Y0065607D01*
X0053097Y0065537D01*
X0053149Y0065465D01*
X0053198Y0065390D01*
X0053243Y0065314D01*
X0053285Y0065235D01*
X0053323Y0065155D01*
X0053358Y0065073D01*
X0053389Y0064989D01*
X0053417Y0064904D01*
X0053440Y0064818D01*
X0053460Y0064731D01*
X0053476Y0064644D01*
X0053488Y0064555D01*
X0053496Y0064467D01*
X0053500Y0064378D01*
X0053500Y0064288D01*
X0053496Y0064199D01*
X0053488Y0064111D01*
X0053476Y0064022D01*
X0053460Y0063935D01*
X0053440Y0063848D01*
X0053417Y0063762D01*
X0053389Y0063677D01*
X0053358Y0063593D01*
X0053323Y0063511D01*
X0053285Y0063431D01*
X0053243Y0063352D01*
X0053198Y0063276D01*
X0053149Y0063201D01*
X0053097Y0063129D01*
X0053042Y0063059D01*
X0052983Y0062991D01*
X0052922Y0062927D01*
X0052858Y0062865D01*
X0052791Y0062806D01*
X0052722Y0062750D01*
X0052650Y0062697D01*
X0052576Y0062647D01*
X0052500Y0062601D01*
X0052422Y0062558D01*
X0052342Y0062519D01*
X0052260Y0062483D01*
X0052177Y0062451D01*
X0052093Y0062423D01*
X0052007Y0062398D01*
X0051920Y0062378D01*
X0051833Y0062361D01*
X0051744Y0062348D01*
X0051656Y0062339D01*
X0051567Y0062334D01*
X0051478Y0062333D01*
X0051389Y0062336D01*
X0051300Y0062343D01*
X0051211Y0062354D01*
X0051123Y0062369D01*
X0051036Y0062387D01*
X0050950Y0062410D01*
X0050865Y0062436D01*
X0050781Y0062467D01*
X0050699Y0062501D01*
X0050618Y0062538D01*
X0050539Y0062579D01*
X0050462Y0062624D01*
X0050387Y0062672D01*
X0050314Y0062723D01*
X0050243Y0062777D01*
X0050175Y0062835D01*
X0050110Y0062895D01*
X0050047Y0062959D01*
X0049987Y0063025D01*
X0049930Y0063094D01*
X0049877Y0063165D01*
X0049826Y0063238D01*
X0049779Y0063314D01*
X0049736Y0063391D01*
X0049695Y0063471D01*
X0049659Y0063552D01*
X0049626Y0063635D01*
X0049597Y0063719D01*
X0049571Y0063805D01*
X0049549Y0063891D01*
X0049532Y0063978D01*
X0049518Y0064066D01*
X0049508Y0064155D01*
X0049502Y0064244D01*
X0049500Y0064333D01*
X0045500Y0035833D02*
X0177500Y0035833D01*
X0177500Y0075333D01*
X0172000Y0075333D01*
X0200500Y0257833D02*
X0042500Y0257833D01*
D15*
X0216500Y0281833D02*
X0216500Y0121833D01*
X0216500Y0116833D01*
X0221500Y0116833D01*
X0236500Y0116833D01*
X0236500Y0136833D01*
X0266500Y0136833D01*
X0266500Y0116833D01*
X0236500Y0116833D01*
X0238350Y0121833D02*
X0238352Y0121945D01*
X0238358Y0122056D01*
X0238368Y0122168D01*
X0238382Y0122279D01*
X0238399Y0122389D01*
X0238421Y0122499D01*
X0238447Y0122608D01*
X0238476Y0122716D01*
X0238509Y0122822D01*
X0238546Y0122928D01*
X0238587Y0123032D01*
X0238632Y0123135D01*
X0238680Y0123236D01*
X0238731Y0123335D01*
X0238786Y0123432D01*
X0238845Y0123527D01*
X0238906Y0123621D01*
X0238971Y0123712D01*
X0239040Y0123800D01*
X0239111Y0123886D01*
X0239185Y0123970D01*
X0239263Y0124050D01*
X0239343Y0124128D01*
X0239426Y0124204D01*
X0239511Y0124276D01*
X0239599Y0124345D01*
X0239689Y0124411D01*
X0239782Y0124473D01*
X0239877Y0124533D01*
X0239974Y0124589D01*
X0240072Y0124641D01*
X0240173Y0124690D01*
X0240275Y0124735D01*
X0240379Y0124777D01*
X0240484Y0124815D01*
X0240591Y0124849D01*
X0240698Y0124879D01*
X0240807Y0124906D01*
X0240916Y0124928D01*
X0241027Y0124947D01*
X0241137Y0124962D01*
X0241249Y0124973D01*
X0241360Y0124980D01*
X0241472Y0124983D01*
X0241584Y0124982D01*
X0241696Y0124977D01*
X0241807Y0124968D01*
X0241918Y0124955D01*
X0242029Y0124938D01*
X0242139Y0124918D01*
X0242248Y0124893D01*
X0242356Y0124865D01*
X0242463Y0124832D01*
X0242569Y0124796D01*
X0242673Y0124756D01*
X0242776Y0124713D01*
X0242878Y0124666D01*
X0242977Y0124615D01*
X0243075Y0124561D01*
X0243171Y0124503D01*
X0243265Y0124442D01*
X0243356Y0124378D01*
X0243445Y0124311D01*
X0243532Y0124240D01*
X0243616Y0124166D01*
X0243698Y0124090D01*
X0243776Y0124010D01*
X0243852Y0123928D01*
X0243925Y0123843D01*
X0243995Y0123756D01*
X0244061Y0123666D01*
X0244125Y0123574D01*
X0244185Y0123480D01*
X0244242Y0123384D01*
X0244295Y0123285D01*
X0244345Y0123185D01*
X0244391Y0123084D01*
X0244434Y0122980D01*
X0244473Y0122875D01*
X0244508Y0122769D01*
X0244539Y0122662D01*
X0244567Y0122553D01*
X0244590Y0122444D01*
X0244610Y0122334D01*
X0244626Y0122223D01*
X0244638Y0122112D01*
X0244646Y0122001D01*
X0244650Y0121889D01*
X0244650Y0121777D01*
X0244646Y0121665D01*
X0244638Y0121554D01*
X0244626Y0121443D01*
X0244610Y0121332D01*
X0244590Y0121222D01*
X0244567Y0121113D01*
X0244539Y0121004D01*
X0244508Y0120897D01*
X0244473Y0120791D01*
X0244434Y0120686D01*
X0244391Y0120582D01*
X0244345Y0120481D01*
X0244295Y0120381D01*
X0244242Y0120282D01*
X0244185Y0120186D01*
X0244125Y0120092D01*
X0244061Y0120000D01*
X0243995Y0119910D01*
X0243925Y0119823D01*
X0243852Y0119738D01*
X0243776Y0119656D01*
X0243698Y0119576D01*
X0243616Y0119500D01*
X0243532Y0119426D01*
X0243445Y0119355D01*
X0243356Y0119288D01*
X0243265Y0119224D01*
X0243171Y0119163D01*
X0243075Y0119105D01*
X0242977Y0119051D01*
X0242878Y0119000D01*
X0242776Y0118953D01*
X0242673Y0118910D01*
X0242569Y0118870D01*
X0242463Y0118834D01*
X0242356Y0118801D01*
X0242248Y0118773D01*
X0242139Y0118748D01*
X0242029Y0118728D01*
X0241918Y0118711D01*
X0241807Y0118698D01*
X0241696Y0118689D01*
X0241584Y0118684D01*
X0241472Y0118683D01*
X0241360Y0118686D01*
X0241249Y0118693D01*
X0241137Y0118704D01*
X0241027Y0118719D01*
X0240916Y0118738D01*
X0240807Y0118760D01*
X0240698Y0118787D01*
X0240591Y0118817D01*
X0240484Y0118851D01*
X0240379Y0118889D01*
X0240275Y0118931D01*
X0240173Y0118976D01*
X0240072Y0119025D01*
X0239974Y0119077D01*
X0239877Y0119133D01*
X0239782Y0119193D01*
X0239689Y0119255D01*
X0239599Y0119321D01*
X0239511Y0119390D01*
X0239426Y0119462D01*
X0239343Y0119538D01*
X0239263Y0119616D01*
X0239185Y0119696D01*
X0239111Y0119780D01*
X0239040Y0119866D01*
X0238971Y0119954D01*
X0238906Y0120045D01*
X0238845Y0120139D01*
X0238786Y0120234D01*
X0238731Y0120331D01*
X0238680Y0120430D01*
X0238632Y0120531D01*
X0238587Y0120634D01*
X0238546Y0120738D01*
X0238509Y0120844D01*
X0238476Y0120950D01*
X0238447Y0121058D01*
X0238421Y0121167D01*
X0238399Y0121277D01*
X0238382Y0121387D01*
X0238368Y0121498D01*
X0238358Y0121610D01*
X0238352Y0121721D01*
X0238350Y0121833D01*
X0238350Y0131833D02*
X0238352Y0131945D01*
X0238358Y0132056D01*
X0238368Y0132168D01*
X0238382Y0132279D01*
X0238399Y0132389D01*
X0238421Y0132499D01*
X0238447Y0132608D01*
X0238476Y0132716D01*
X0238509Y0132822D01*
X0238546Y0132928D01*
X0238587Y0133032D01*
X0238632Y0133135D01*
X0238680Y0133236D01*
X0238731Y0133335D01*
X0238786Y0133432D01*
X0238845Y0133527D01*
X0238906Y0133621D01*
X0238971Y0133712D01*
X0239040Y0133800D01*
X0239111Y0133886D01*
X0239185Y0133970D01*
X0239263Y0134050D01*
X0239343Y0134128D01*
X0239426Y0134204D01*
X0239511Y0134276D01*
X0239599Y0134345D01*
X0239689Y0134411D01*
X0239782Y0134473D01*
X0239877Y0134533D01*
X0239974Y0134589D01*
X0240072Y0134641D01*
X0240173Y0134690D01*
X0240275Y0134735D01*
X0240379Y0134777D01*
X0240484Y0134815D01*
X0240591Y0134849D01*
X0240698Y0134879D01*
X0240807Y0134906D01*
X0240916Y0134928D01*
X0241027Y0134947D01*
X0241137Y0134962D01*
X0241249Y0134973D01*
X0241360Y0134980D01*
X0241472Y0134983D01*
X0241584Y0134982D01*
X0241696Y0134977D01*
X0241807Y0134968D01*
X0241918Y0134955D01*
X0242029Y0134938D01*
X0242139Y0134918D01*
X0242248Y0134893D01*
X0242356Y0134865D01*
X0242463Y0134832D01*
X0242569Y0134796D01*
X0242673Y0134756D01*
X0242776Y0134713D01*
X0242878Y0134666D01*
X0242977Y0134615D01*
X0243075Y0134561D01*
X0243171Y0134503D01*
X0243265Y0134442D01*
X0243356Y0134378D01*
X0243445Y0134311D01*
X0243532Y0134240D01*
X0243616Y0134166D01*
X0243698Y0134090D01*
X0243776Y0134010D01*
X0243852Y0133928D01*
X0243925Y0133843D01*
X0243995Y0133756D01*
X0244061Y0133666D01*
X0244125Y0133574D01*
X0244185Y0133480D01*
X0244242Y0133384D01*
X0244295Y0133285D01*
X0244345Y0133185D01*
X0244391Y0133084D01*
X0244434Y0132980D01*
X0244473Y0132875D01*
X0244508Y0132769D01*
X0244539Y0132662D01*
X0244567Y0132553D01*
X0244590Y0132444D01*
X0244610Y0132334D01*
X0244626Y0132223D01*
X0244638Y0132112D01*
X0244646Y0132001D01*
X0244650Y0131889D01*
X0244650Y0131777D01*
X0244646Y0131665D01*
X0244638Y0131554D01*
X0244626Y0131443D01*
X0244610Y0131332D01*
X0244590Y0131222D01*
X0244567Y0131113D01*
X0244539Y0131004D01*
X0244508Y0130897D01*
X0244473Y0130791D01*
X0244434Y0130686D01*
X0244391Y0130582D01*
X0244345Y0130481D01*
X0244295Y0130381D01*
X0244242Y0130282D01*
X0244185Y0130186D01*
X0244125Y0130092D01*
X0244061Y0130000D01*
X0243995Y0129910D01*
X0243925Y0129823D01*
X0243852Y0129738D01*
X0243776Y0129656D01*
X0243698Y0129576D01*
X0243616Y0129500D01*
X0243532Y0129426D01*
X0243445Y0129355D01*
X0243356Y0129288D01*
X0243265Y0129224D01*
X0243171Y0129163D01*
X0243075Y0129105D01*
X0242977Y0129051D01*
X0242878Y0129000D01*
X0242776Y0128953D01*
X0242673Y0128910D01*
X0242569Y0128870D01*
X0242463Y0128834D01*
X0242356Y0128801D01*
X0242248Y0128773D01*
X0242139Y0128748D01*
X0242029Y0128728D01*
X0241918Y0128711D01*
X0241807Y0128698D01*
X0241696Y0128689D01*
X0241584Y0128684D01*
X0241472Y0128683D01*
X0241360Y0128686D01*
X0241249Y0128693D01*
X0241137Y0128704D01*
X0241027Y0128719D01*
X0240916Y0128738D01*
X0240807Y0128760D01*
X0240698Y0128787D01*
X0240591Y0128817D01*
X0240484Y0128851D01*
X0240379Y0128889D01*
X0240275Y0128931D01*
X0240173Y0128976D01*
X0240072Y0129025D01*
X0239974Y0129077D01*
X0239877Y0129133D01*
X0239782Y0129193D01*
X0239689Y0129255D01*
X0239599Y0129321D01*
X0239511Y0129390D01*
X0239426Y0129462D01*
X0239343Y0129538D01*
X0239263Y0129616D01*
X0239185Y0129696D01*
X0239111Y0129780D01*
X0239040Y0129866D01*
X0238971Y0129954D01*
X0238906Y0130045D01*
X0238845Y0130139D01*
X0238786Y0130234D01*
X0238731Y0130331D01*
X0238680Y0130430D01*
X0238632Y0130531D01*
X0238587Y0130634D01*
X0238546Y0130738D01*
X0238509Y0130844D01*
X0238476Y0130950D01*
X0238447Y0131058D01*
X0238421Y0131167D01*
X0238399Y0131277D01*
X0238382Y0131387D01*
X0238368Y0131498D01*
X0238358Y0131610D01*
X0238352Y0131721D01*
X0238350Y0131833D01*
X0248350Y0131833D02*
X0248352Y0131945D01*
X0248358Y0132056D01*
X0248368Y0132168D01*
X0248382Y0132279D01*
X0248399Y0132389D01*
X0248421Y0132499D01*
X0248447Y0132608D01*
X0248476Y0132716D01*
X0248509Y0132822D01*
X0248546Y0132928D01*
X0248587Y0133032D01*
X0248632Y0133135D01*
X0248680Y0133236D01*
X0248731Y0133335D01*
X0248786Y0133432D01*
X0248845Y0133527D01*
X0248906Y0133621D01*
X0248971Y0133712D01*
X0249040Y0133800D01*
X0249111Y0133886D01*
X0249185Y0133970D01*
X0249263Y0134050D01*
X0249343Y0134128D01*
X0249426Y0134204D01*
X0249511Y0134276D01*
X0249599Y0134345D01*
X0249689Y0134411D01*
X0249782Y0134473D01*
X0249877Y0134533D01*
X0249974Y0134589D01*
X0250072Y0134641D01*
X0250173Y0134690D01*
X0250275Y0134735D01*
X0250379Y0134777D01*
X0250484Y0134815D01*
X0250591Y0134849D01*
X0250698Y0134879D01*
X0250807Y0134906D01*
X0250916Y0134928D01*
X0251027Y0134947D01*
X0251137Y0134962D01*
X0251249Y0134973D01*
X0251360Y0134980D01*
X0251472Y0134983D01*
X0251584Y0134982D01*
X0251696Y0134977D01*
X0251807Y0134968D01*
X0251918Y0134955D01*
X0252029Y0134938D01*
X0252139Y0134918D01*
X0252248Y0134893D01*
X0252356Y0134865D01*
X0252463Y0134832D01*
X0252569Y0134796D01*
X0252673Y0134756D01*
X0252776Y0134713D01*
X0252878Y0134666D01*
X0252977Y0134615D01*
X0253075Y0134561D01*
X0253171Y0134503D01*
X0253265Y0134442D01*
X0253356Y0134378D01*
X0253445Y0134311D01*
X0253532Y0134240D01*
X0253616Y0134166D01*
X0253698Y0134090D01*
X0253776Y0134010D01*
X0253852Y0133928D01*
X0253925Y0133843D01*
X0253995Y0133756D01*
X0254061Y0133666D01*
X0254125Y0133574D01*
X0254185Y0133480D01*
X0254242Y0133384D01*
X0254295Y0133285D01*
X0254345Y0133185D01*
X0254391Y0133084D01*
X0254434Y0132980D01*
X0254473Y0132875D01*
X0254508Y0132769D01*
X0254539Y0132662D01*
X0254567Y0132553D01*
X0254590Y0132444D01*
X0254610Y0132334D01*
X0254626Y0132223D01*
X0254638Y0132112D01*
X0254646Y0132001D01*
X0254650Y0131889D01*
X0254650Y0131777D01*
X0254646Y0131665D01*
X0254638Y0131554D01*
X0254626Y0131443D01*
X0254610Y0131332D01*
X0254590Y0131222D01*
X0254567Y0131113D01*
X0254539Y0131004D01*
X0254508Y0130897D01*
X0254473Y0130791D01*
X0254434Y0130686D01*
X0254391Y0130582D01*
X0254345Y0130481D01*
X0254295Y0130381D01*
X0254242Y0130282D01*
X0254185Y0130186D01*
X0254125Y0130092D01*
X0254061Y0130000D01*
X0253995Y0129910D01*
X0253925Y0129823D01*
X0253852Y0129738D01*
X0253776Y0129656D01*
X0253698Y0129576D01*
X0253616Y0129500D01*
X0253532Y0129426D01*
X0253445Y0129355D01*
X0253356Y0129288D01*
X0253265Y0129224D01*
X0253171Y0129163D01*
X0253075Y0129105D01*
X0252977Y0129051D01*
X0252878Y0129000D01*
X0252776Y0128953D01*
X0252673Y0128910D01*
X0252569Y0128870D01*
X0252463Y0128834D01*
X0252356Y0128801D01*
X0252248Y0128773D01*
X0252139Y0128748D01*
X0252029Y0128728D01*
X0251918Y0128711D01*
X0251807Y0128698D01*
X0251696Y0128689D01*
X0251584Y0128684D01*
X0251472Y0128683D01*
X0251360Y0128686D01*
X0251249Y0128693D01*
X0251137Y0128704D01*
X0251027Y0128719D01*
X0250916Y0128738D01*
X0250807Y0128760D01*
X0250698Y0128787D01*
X0250591Y0128817D01*
X0250484Y0128851D01*
X0250379Y0128889D01*
X0250275Y0128931D01*
X0250173Y0128976D01*
X0250072Y0129025D01*
X0249974Y0129077D01*
X0249877Y0129133D01*
X0249782Y0129193D01*
X0249689Y0129255D01*
X0249599Y0129321D01*
X0249511Y0129390D01*
X0249426Y0129462D01*
X0249343Y0129538D01*
X0249263Y0129616D01*
X0249185Y0129696D01*
X0249111Y0129780D01*
X0249040Y0129866D01*
X0248971Y0129954D01*
X0248906Y0130045D01*
X0248845Y0130139D01*
X0248786Y0130234D01*
X0248731Y0130331D01*
X0248680Y0130430D01*
X0248632Y0130531D01*
X0248587Y0130634D01*
X0248546Y0130738D01*
X0248509Y0130844D01*
X0248476Y0130950D01*
X0248447Y0131058D01*
X0248421Y0131167D01*
X0248399Y0131277D01*
X0248382Y0131387D01*
X0248368Y0131498D01*
X0248358Y0131610D01*
X0248352Y0131721D01*
X0248350Y0131833D01*
X0248350Y0121833D02*
X0248352Y0121945D01*
X0248358Y0122056D01*
X0248368Y0122168D01*
X0248382Y0122279D01*
X0248399Y0122389D01*
X0248421Y0122499D01*
X0248447Y0122608D01*
X0248476Y0122716D01*
X0248509Y0122822D01*
X0248546Y0122928D01*
X0248587Y0123032D01*
X0248632Y0123135D01*
X0248680Y0123236D01*
X0248731Y0123335D01*
X0248786Y0123432D01*
X0248845Y0123527D01*
X0248906Y0123621D01*
X0248971Y0123712D01*
X0249040Y0123800D01*
X0249111Y0123886D01*
X0249185Y0123970D01*
X0249263Y0124050D01*
X0249343Y0124128D01*
X0249426Y0124204D01*
X0249511Y0124276D01*
X0249599Y0124345D01*
X0249689Y0124411D01*
X0249782Y0124473D01*
X0249877Y0124533D01*
X0249974Y0124589D01*
X0250072Y0124641D01*
X0250173Y0124690D01*
X0250275Y0124735D01*
X0250379Y0124777D01*
X0250484Y0124815D01*
X0250591Y0124849D01*
X0250698Y0124879D01*
X0250807Y0124906D01*
X0250916Y0124928D01*
X0251027Y0124947D01*
X0251137Y0124962D01*
X0251249Y0124973D01*
X0251360Y0124980D01*
X0251472Y0124983D01*
X0251584Y0124982D01*
X0251696Y0124977D01*
X0251807Y0124968D01*
X0251918Y0124955D01*
X0252029Y0124938D01*
X0252139Y0124918D01*
X0252248Y0124893D01*
X0252356Y0124865D01*
X0252463Y0124832D01*
X0252569Y0124796D01*
X0252673Y0124756D01*
X0252776Y0124713D01*
X0252878Y0124666D01*
X0252977Y0124615D01*
X0253075Y0124561D01*
X0253171Y0124503D01*
X0253265Y0124442D01*
X0253356Y0124378D01*
X0253445Y0124311D01*
X0253532Y0124240D01*
X0253616Y0124166D01*
X0253698Y0124090D01*
X0253776Y0124010D01*
X0253852Y0123928D01*
X0253925Y0123843D01*
X0253995Y0123756D01*
X0254061Y0123666D01*
X0254125Y0123574D01*
X0254185Y0123480D01*
X0254242Y0123384D01*
X0254295Y0123285D01*
X0254345Y0123185D01*
X0254391Y0123084D01*
X0254434Y0122980D01*
X0254473Y0122875D01*
X0254508Y0122769D01*
X0254539Y0122662D01*
X0254567Y0122553D01*
X0254590Y0122444D01*
X0254610Y0122334D01*
X0254626Y0122223D01*
X0254638Y0122112D01*
X0254646Y0122001D01*
X0254650Y0121889D01*
X0254650Y0121777D01*
X0254646Y0121665D01*
X0254638Y0121554D01*
X0254626Y0121443D01*
X0254610Y0121332D01*
X0254590Y0121222D01*
X0254567Y0121113D01*
X0254539Y0121004D01*
X0254508Y0120897D01*
X0254473Y0120791D01*
X0254434Y0120686D01*
X0254391Y0120582D01*
X0254345Y0120481D01*
X0254295Y0120381D01*
X0254242Y0120282D01*
X0254185Y0120186D01*
X0254125Y0120092D01*
X0254061Y0120000D01*
X0253995Y0119910D01*
X0253925Y0119823D01*
X0253852Y0119738D01*
X0253776Y0119656D01*
X0253698Y0119576D01*
X0253616Y0119500D01*
X0253532Y0119426D01*
X0253445Y0119355D01*
X0253356Y0119288D01*
X0253265Y0119224D01*
X0253171Y0119163D01*
X0253075Y0119105D01*
X0252977Y0119051D01*
X0252878Y0119000D01*
X0252776Y0118953D01*
X0252673Y0118910D01*
X0252569Y0118870D01*
X0252463Y0118834D01*
X0252356Y0118801D01*
X0252248Y0118773D01*
X0252139Y0118748D01*
X0252029Y0118728D01*
X0251918Y0118711D01*
X0251807Y0118698D01*
X0251696Y0118689D01*
X0251584Y0118684D01*
X0251472Y0118683D01*
X0251360Y0118686D01*
X0251249Y0118693D01*
X0251137Y0118704D01*
X0251027Y0118719D01*
X0250916Y0118738D01*
X0250807Y0118760D01*
X0250698Y0118787D01*
X0250591Y0118817D01*
X0250484Y0118851D01*
X0250379Y0118889D01*
X0250275Y0118931D01*
X0250173Y0118976D01*
X0250072Y0119025D01*
X0249974Y0119077D01*
X0249877Y0119133D01*
X0249782Y0119193D01*
X0249689Y0119255D01*
X0249599Y0119321D01*
X0249511Y0119390D01*
X0249426Y0119462D01*
X0249343Y0119538D01*
X0249263Y0119616D01*
X0249185Y0119696D01*
X0249111Y0119780D01*
X0249040Y0119866D01*
X0248971Y0119954D01*
X0248906Y0120045D01*
X0248845Y0120139D01*
X0248786Y0120234D01*
X0248731Y0120331D01*
X0248680Y0120430D01*
X0248632Y0120531D01*
X0248587Y0120634D01*
X0248546Y0120738D01*
X0248509Y0120844D01*
X0248476Y0120950D01*
X0248447Y0121058D01*
X0248421Y0121167D01*
X0248399Y0121277D01*
X0248382Y0121387D01*
X0248368Y0121498D01*
X0248358Y0121610D01*
X0248352Y0121721D01*
X0248350Y0121833D01*
X0248352Y0121945D01*
X0248358Y0122056D01*
X0248368Y0122168D01*
X0248382Y0122279D01*
X0248399Y0122389D01*
X0248421Y0122499D01*
X0248447Y0122608D01*
X0248476Y0122716D01*
X0248509Y0122822D01*
X0248546Y0122928D01*
X0248587Y0123032D01*
X0248632Y0123135D01*
X0248680Y0123236D01*
X0248731Y0123335D01*
X0248786Y0123432D01*
X0248845Y0123527D01*
X0248906Y0123621D01*
X0248971Y0123712D01*
X0249040Y0123800D01*
X0249111Y0123886D01*
X0249185Y0123970D01*
X0249263Y0124050D01*
X0249343Y0124128D01*
X0249426Y0124204D01*
X0249511Y0124276D01*
X0249599Y0124345D01*
X0249689Y0124411D01*
X0249782Y0124473D01*
X0249877Y0124533D01*
X0249974Y0124589D01*
X0250072Y0124641D01*
X0250173Y0124690D01*
X0250275Y0124735D01*
X0250379Y0124777D01*
X0250484Y0124815D01*
X0250591Y0124849D01*
X0250698Y0124879D01*
X0250807Y0124906D01*
X0250916Y0124928D01*
X0251027Y0124947D01*
X0251137Y0124962D01*
X0251249Y0124973D01*
X0251360Y0124980D01*
X0251472Y0124983D01*
X0251584Y0124982D01*
X0251696Y0124977D01*
X0251807Y0124968D01*
X0251918Y0124955D01*
X0252029Y0124938D01*
X0252139Y0124918D01*
X0252248Y0124893D01*
X0252356Y0124865D01*
X0252463Y0124832D01*
X0252569Y0124796D01*
X0252673Y0124756D01*
X0252776Y0124713D01*
X0252878Y0124666D01*
X0252977Y0124615D01*
X0253075Y0124561D01*
X0253171Y0124503D01*
X0253265Y0124442D01*
X0253356Y0124378D01*
X0253445Y0124311D01*
X0253532Y0124240D01*
X0253616Y0124166D01*
X0253698Y0124090D01*
X0253776Y0124010D01*
X0253852Y0123928D01*
X0253925Y0123843D01*
X0253995Y0123756D01*
X0254061Y0123666D01*
X0254125Y0123574D01*
X0254185Y0123480D01*
X0254242Y0123384D01*
X0254295Y0123285D01*
X0254345Y0123185D01*
X0254391Y0123084D01*
X0254434Y0122980D01*
X0254473Y0122875D01*
X0254508Y0122769D01*
X0254539Y0122662D01*
X0254567Y0122553D01*
X0254590Y0122444D01*
X0254610Y0122334D01*
X0254626Y0122223D01*
X0254638Y0122112D01*
X0254646Y0122001D01*
X0254650Y0121889D01*
X0254650Y0121777D01*
X0254646Y0121665D01*
X0254638Y0121554D01*
X0254626Y0121443D01*
X0254610Y0121332D01*
X0254590Y0121222D01*
X0254567Y0121113D01*
X0254539Y0121004D01*
X0254508Y0120897D01*
X0254473Y0120791D01*
X0254434Y0120686D01*
X0254391Y0120582D01*
X0254345Y0120481D01*
X0254295Y0120381D01*
X0254242Y0120282D01*
X0254185Y0120186D01*
X0254125Y0120092D01*
X0254061Y0120000D01*
X0253995Y0119910D01*
X0253925Y0119823D01*
X0253852Y0119738D01*
X0253776Y0119656D01*
X0253698Y0119576D01*
X0253616Y0119500D01*
X0253532Y0119426D01*
X0253445Y0119355D01*
X0253356Y0119288D01*
X0253265Y0119224D01*
X0253171Y0119163D01*
X0253075Y0119105D01*
X0252977Y0119051D01*
X0252878Y0119000D01*
X0252776Y0118953D01*
X0252673Y0118910D01*
X0252569Y0118870D01*
X0252463Y0118834D01*
X0252356Y0118801D01*
X0252248Y0118773D01*
X0252139Y0118748D01*
X0252029Y0118728D01*
X0251918Y0118711D01*
X0251807Y0118698D01*
X0251696Y0118689D01*
X0251584Y0118684D01*
X0251472Y0118683D01*
X0251360Y0118686D01*
X0251249Y0118693D01*
X0251137Y0118704D01*
X0251027Y0118719D01*
X0250916Y0118738D01*
X0250807Y0118760D01*
X0250698Y0118787D01*
X0250591Y0118817D01*
X0250484Y0118851D01*
X0250379Y0118889D01*
X0250275Y0118931D01*
X0250173Y0118976D01*
X0250072Y0119025D01*
X0249974Y0119077D01*
X0249877Y0119133D01*
X0249782Y0119193D01*
X0249689Y0119255D01*
X0249599Y0119321D01*
X0249511Y0119390D01*
X0249426Y0119462D01*
X0249343Y0119538D01*
X0249263Y0119616D01*
X0249185Y0119696D01*
X0249111Y0119780D01*
X0249040Y0119866D01*
X0248971Y0119954D01*
X0248906Y0120045D01*
X0248845Y0120139D01*
X0248786Y0120234D01*
X0248731Y0120331D01*
X0248680Y0120430D01*
X0248632Y0120531D01*
X0248587Y0120634D01*
X0248546Y0120738D01*
X0248509Y0120844D01*
X0248476Y0120950D01*
X0248447Y0121058D01*
X0248421Y0121167D01*
X0248399Y0121277D01*
X0248382Y0121387D01*
X0248368Y0121498D01*
X0248358Y0121610D01*
X0248352Y0121721D01*
X0248350Y0121833D01*
X0258350Y0121833D02*
X0258352Y0121945D01*
X0258358Y0122056D01*
X0258368Y0122168D01*
X0258382Y0122279D01*
X0258399Y0122389D01*
X0258421Y0122499D01*
X0258447Y0122608D01*
X0258476Y0122716D01*
X0258509Y0122822D01*
X0258546Y0122928D01*
X0258587Y0123032D01*
X0258632Y0123135D01*
X0258680Y0123236D01*
X0258731Y0123335D01*
X0258786Y0123432D01*
X0258845Y0123527D01*
X0258906Y0123621D01*
X0258971Y0123712D01*
X0259040Y0123800D01*
X0259111Y0123886D01*
X0259185Y0123970D01*
X0259263Y0124050D01*
X0259343Y0124128D01*
X0259426Y0124204D01*
X0259511Y0124276D01*
X0259599Y0124345D01*
X0259689Y0124411D01*
X0259782Y0124473D01*
X0259877Y0124533D01*
X0259974Y0124589D01*
X0260072Y0124641D01*
X0260173Y0124690D01*
X0260275Y0124735D01*
X0260379Y0124777D01*
X0260484Y0124815D01*
X0260591Y0124849D01*
X0260698Y0124879D01*
X0260807Y0124906D01*
X0260916Y0124928D01*
X0261027Y0124947D01*
X0261137Y0124962D01*
X0261249Y0124973D01*
X0261360Y0124980D01*
X0261472Y0124983D01*
X0261584Y0124982D01*
X0261696Y0124977D01*
X0261807Y0124968D01*
X0261918Y0124955D01*
X0262029Y0124938D01*
X0262139Y0124918D01*
X0262248Y0124893D01*
X0262356Y0124865D01*
X0262463Y0124832D01*
X0262569Y0124796D01*
X0262673Y0124756D01*
X0262776Y0124713D01*
X0262878Y0124666D01*
X0262977Y0124615D01*
X0263075Y0124561D01*
X0263171Y0124503D01*
X0263265Y0124442D01*
X0263356Y0124378D01*
X0263445Y0124311D01*
X0263532Y0124240D01*
X0263616Y0124166D01*
X0263698Y0124090D01*
X0263776Y0124010D01*
X0263852Y0123928D01*
X0263925Y0123843D01*
X0263995Y0123756D01*
X0264061Y0123666D01*
X0264125Y0123574D01*
X0264185Y0123480D01*
X0264242Y0123384D01*
X0264295Y0123285D01*
X0264345Y0123185D01*
X0264391Y0123084D01*
X0264434Y0122980D01*
X0264473Y0122875D01*
X0264508Y0122769D01*
X0264539Y0122662D01*
X0264567Y0122553D01*
X0264590Y0122444D01*
X0264610Y0122334D01*
X0264626Y0122223D01*
X0264638Y0122112D01*
X0264646Y0122001D01*
X0264650Y0121889D01*
X0264650Y0121777D01*
X0264646Y0121665D01*
X0264638Y0121554D01*
X0264626Y0121443D01*
X0264610Y0121332D01*
X0264590Y0121222D01*
X0264567Y0121113D01*
X0264539Y0121004D01*
X0264508Y0120897D01*
X0264473Y0120791D01*
X0264434Y0120686D01*
X0264391Y0120582D01*
X0264345Y0120481D01*
X0264295Y0120381D01*
X0264242Y0120282D01*
X0264185Y0120186D01*
X0264125Y0120092D01*
X0264061Y0120000D01*
X0263995Y0119910D01*
X0263925Y0119823D01*
X0263852Y0119738D01*
X0263776Y0119656D01*
X0263698Y0119576D01*
X0263616Y0119500D01*
X0263532Y0119426D01*
X0263445Y0119355D01*
X0263356Y0119288D01*
X0263265Y0119224D01*
X0263171Y0119163D01*
X0263075Y0119105D01*
X0262977Y0119051D01*
X0262878Y0119000D01*
X0262776Y0118953D01*
X0262673Y0118910D01*
X0262569Y0118870D01*
X0262463Y0118834D01*
X0262356Y0118801D01*
X0262248Y0118773D01*
X0262139Y0118748D01*
X0262029Y0118728D01*
X0261918Y0118711D01*
X0261807Y0118698D01*
X0261696Y0118689D01*
X0261584Y0118684D01*
X0261472Y0118683D01*
X0261360Y0118686D01*
X0261249Y0118693D01*
X0261137Y0118704D01*
X0261027Y0118719D01*
X0260916Y0118738D01*
X0260807Y0118760D01*
X0260698Y0118787D01*
X0260591Y0118817D01*
X0260484Y0118851D01*
X0260379Y0118889D01*
X0260275Y0118931D01*
X0260173Y0118976D01*
X0260072Y0119025D01*
X0259974Y0119077D01*
X0259877Y0119133D01*
X0259782Y0119193D01*
X0259689Y0119255D01*
X0259599Y0119321D01*
X0259511Y0119390D01*
X0259426Y0119462D01*
X0259343Y0119538D01*
X0259263Y0119616D01*
X0259185Y0119696D01*
X0259111Y0119780D01*
X0259040Y0119866D01*
X0258971Y0119954D01*
X0258906Y0120045D01*
X0258845Y0120139D01*
X0258786Y0120234D01*
X0258731Y0120331D01*
X0258680Y0120430D01*
X0258632Y0120531D01*
X0258587Y0120634D01*
X0258546Y0120738D01*
X0258509Y0120844D01*
X0258476Y0120950D01*
X0258447Y0121058D01*
X0258421Y0121167D01*
X0258399Y0121277D01*
X0258382Y0121387D01*
X0258368Y0121498D01*
X0258358Y0121610D01*
X0258352Y0121721D01*
X0258350Y0121833D01*
X0266500Y0116833D02*
X0281500Y0116833D01*
X0286500Y0116833D01*
X0286500Y0121833D01*
X0286500Y0286833D01*
X0261500Y0286833D01*
X0261500Y0266833D01*
X0241500Y0266833D01*
X0241500Y0291833D01*
X0261500Y0291833D01*
X0261500Y0286833D01*
X0221500Y0286833D01*
X0216500Y0286833D01*
X0216500Y0281833D01*
X0219000Y0281833D02*
X0219002Y0281932D01*
X0219008Y0282032D01*
X0219018Y0282131D01*
X0219032Y0282229D01*
X0219049Y0282327D01*
X0219071Y0282424D01*
X0219096Y0282520D01*
X0219125Y0282615D01*
X0219158Y0282709D01*
X0219195Y0282801D01*
X0219235Y0282892D01*
X0219279Y0282981D01*
X0219327Y0283069D01*
X0219378Y0283154D01*
X0219432Y0283237D01*
X0219489Y0283319D01*
X0219550Y0283397D01*
X0219614Y0283474D01*
X0219680Y0283547D01*
X0219750Y0283618D01*
X0219822Y0283686D01*
X0219897Y0283752D01*
X0219975Y0283814D01*
X0220055Y0283873D01*
X0220137Y0283929D01*
X0220221Y0283981D01*
X0220308Y0284030D01*
X0220396Y0284076D01*
X0220486Y0284118D01*
X0220578Y0284157D01*
X0220671Y0284192D01*
X0220765Y0284223D01*
X0220861Y0284250D01*
X0220958Y0284273D01*
X0221055Y0284293D01*
X0221153Y0284309D01*
X0221252Y0284321D01*
X0221351Y0284329D01*
X0221450Y0284333D01*
X0221550Y0284333D01*
X0221649Y0284329D01*
X0221748Y0284321D01*
X0221847Y0284309D01*
X0221945Y0284293D01*
X0222042Y0284273D01*
X0222139Y0284250D01*
X0222235Y0284223D01*
X0222329Y0284192D01*
X0222422Y0284157D01*
X0222514Y0284118D01*
X0222604Y0284076D01*
X0222692Y0284030D01*
X0222779Y0283981D01*
X0222863Y0283929D01*
X0222945Y0283873D01*
X0223025Y0283814D01*
X0223103Y0283752D01*
X0223178Y0283686D01*
X0223250Y0283618D01*
X0223320Y0283547D01*
X0223386Y0283474D01*
X0223450Y0283397D01*
X0223511Y0283319D01*
X0223568Y0283237D01*
X0223622Y0283154D01*
X0223673Y0283069D01*
X0223721Y0282981D01*
X0223765Y0282892D01*
X0223805Y0282801D01*
X0223842Y0282709D01*
X0223875Y0282615D01*
X0223904Y0282520D01*
X0223929Y0282424D01*
X0223951Y0282327D01*
X0223968Y0282229D01*
X0223982Y0282131D01*
X0223992Y0282032D01*
X0223998Y0281932D01*
X0224000Y0281833D01*
X0223998Y0281734D01*
X0223992Y0281634D01*
X0223982Y0281535D01*
X0223968Y0281437D01*
X0223951Y0281339D01*
X0223929Y0281242D01*
X0223904Y0281146D01*
X0223875Y0281051D01*
X0223842Y0280957D01*
X0223805Y0280865D01*
X0223765Y0280774D01*
X0223721Y0280685D01*
X0223673Y0280597D01*
X0223622Y0280512D01*
X0223568Y0280429D01*
X0223511Y0280347D01*
X0223450Y0280269D01*
X0223386Y0280192D01*
X0223320Y0280119D01*
X0223250Y0280048D01*
X0223178Y0279980D01*
X0223103Y0279914D01*
X0223025Y0279852D01*
X0222945Y0279793D01*
X0222863Y0279737D01*
X0222779Y0279685D01*
X0222692Y0279636D01*
X0222604Y0279590D01*
X0222514Y0279548D01*
X0222422Y0279509D01*
X0222329Y0279474D01*
X0222235Y0279443D01*
X0222139Y0279416D01*
X0222042Y0279393D01*
X0221945Y0279373D01*
X0221847Y0279357D01*
X0221748Y0279345D01*
X0221649Y0279337D01*
X0221550Y0279333D01*
X0221450Y0279333D01*
X0221351Y0279337D01*
X0221252Y0279345D01*
X0221153Y0279357D01*
X0221055Y0279373D01*
X0220958Y0279393D01*
X0220861Y0279416D01*
X0220765Y0279443D01*
X0220671Y0279474D01*
X0220578Y0279509D01*
X0220486Y0279548D01*
X0220396Y0279590D01*
X0220308Y0279636D01*
X0220221Y0279685D01*
X0220137Y0279737D01*
X0220055Y0279793D01*
X0219975Y0279852D01*
X0219897Y0279914D01*
X0219822Y0279980D01*
X0219750Y0280048D01*
X0219680Y0280119D01*
X0219614Y0280192D01*
X0219550Y0280269D01*
X0219489Y0280347D01*
X0219432Y0280429D01*
X0219378Y0280512D01*
X0219327Y0280597D01*
X0219279Y0280685D01*
X0219235Y0280774D01*
X0219195Y0280865D01*
X0219158Y0280957D01*
X0219125Y0281051D01*
X0219096Y0281146D01*
X0219071Y0281242D01*
X0219049Y0281339D01*
X0219032Y0281437D01*
X0219018Y0281535D01*
X0219008Y0281634D01*
X0219002Y0281734D01*
X0219000Y0281833D01*
X0240251Y0252587D02*
X0241753Y0251086D01*
X0241753Y0248083D01*
X0243354Y0248083D02*
X0243354Y0252587D01*
X0245606Y0252587D01*
X0246356Y0251837D01*
X0246356Y0250335D01*
X0245606Y0249585D01*
X0243354Y0249585D01*
X0244855Y0249585D02*
X0246356Y0248083D01*
X0247958Y0248083D02*
X0250210Y0248083D01*
X0250960Y0248834D01*
X0250960Y0251837D01*
X0250210Y0252587D01*
X0247958Y0252587D01*
X0247958Y0248083D01*
X0252562Y0248834D02*
X0253312Y0248083D01*
X0254814Y0248083D01*
X0255564Y0248834D01*
X0255564Y0252587D01*
X0257166Y0252587D02*
X0258667Y0252587D01*
X0257916Y0252587D02*
X0257916Y0248083D01*
X0257166Y0248083D02*
X0258667Y0248083D01*
X0260235Y0248083D02*
X0260235Y0252587D01*
X0263238Y0248083D01*
X0263238Y0252587D01*
X0264839Y0251837D02*
X0264839Y0248834D01*
X0265590Y0248083D01*
X0267091Y0248083D01*
X0267841Y0248834D01*
X0267841Y0251837D01*
X0267091Y0252587D01*
X0265590Y0252587D01*
X0264839Y0251837D01*
X0252562Y0252587D02*
X0252562Y0248834D01*
X0241753Y0250335D02*
X0238750Y0250335D01*
X0238750Y0251086D02*
X0240251Y0252587D01*
X0238750Y0251086D02*
X0238750Y0248083D01*
X0279000Y0281833D02*
X0279002Y0281932D01*
X0279008Y0282032D01*
X0279018Y0282131D01*
X0279032Y0282229D01*
X0279049Y0282327D01*
X0279071Y0282424D01*
X0279096Y0282520D01*
X0279125Y0282615D01*
X0279158Y0282709D01*
X0279195Y0282801D01*
X0279235Y0282892D01*
X0279279Y0282981D01*
X0279327Y0283069D01*
X0279378Y0283154D01*
X0279432Y0283237D01*
X0279489Y0283319D01*
X0279550Y0283397D01*
X0279614Y0283474D01*
X0279680Y0283547D01*
X0279750Y0283618D01*
X0279822Y0283686D01*
X0279897Y0283752D01*
X0279975Y0283814D01*
X0280055Y0283873D01*
X0280137Y0283929D01*
X0280221Y0283981D01*
X0280308Y0284030D01*
X0280396Y0284076D01*
X0280486Y0284118D01*
X0280578Y0284157D01*
X0280671Y0284192D01*
X0280765Y0284223D01*
X0280861Y0284250D01*
X0280958Y0284273D01*
X0281055Y0284293D01*
X0281153Y0284309D01*
X0281252Y0284321D01*
X0281351Y0284329D01*
X0281450Y0284333D01*
X0281550Y0284333D01*
X0281649Y0284329D01*
X0281748Y0284321D01*
X0281847Y0284309D01*
X0281945Y0284293D01*
X0282042Y0284273D01*
X0282139Y0284250D01*
X0282235Y0284223D01*
X0282329Y0284192D01*
X0282422Y0284157D01*
X0282514Y0284118D01*
X0282604Y0284076D01*
X0282692Y0284030D01*
X0282779Y0283981D01*
X0282863Y0283929D01*
X0282945Y0283873D01*
X0283025Y0283814D01*
X0283103Y0283752D01*
X0283178Y0283686D01*
X0283250Y0283618D01*
X0283320Y0283547D01*
X0283386Y0283474D01*
X0283450Y0283397D01*
X0283511Y0283319D01*
X0283568Y0283237D01*
X0283622Y0283154D01*
X0283673Y0283069D01*
X0283721Y0282981D01*
X0283765Y0282892D01*
X0283805Y0282801D01*
X0283842Y0282709D01*
X0283875Y0282615D01*
X0283904Y0282520D01*
X0283929Y0282424D01*
X0283951Y0282327D01*
X0283968Y0282229D01*
X0283982Y0282131D01*
X0283992Y0282032D01*
X0283998Y0281932D01*
X0284000Y0281833D01*
X0283998Y0281734D01*
X0283992Y0281634D01*
X0283982Y0281535D01*
X0283968Y0281437D01*
X0283951Y0281339D01*
X0283929Y0281242D01*
X0283904Y0281146D01*
X0283875Y0281051D01*
X0283842Y0280957D01*
X0283805Y0280865D01*
X0283765Y0280774D01*
X0283721Y0280685D01*
X0283673Y0280597D01*
X0283622Y0280512D01*
X0283568Y0280429D01*
X0283511Y0280347D01*
X0283450Y0280269D01*
X0283386Y0280192D01*
X0283320Y0280119D01*
X0283250Y0280048D01*
X0283178Y0279980D01*
X0283103Y0279914D01*
X0283025Y0279852D01*
X0282945Y0279793D01*
X0282863Y0279737D01*
X0282779Y0279685D01*
X0282692Y0279636D01*
X0282604Y0279590D01*
X0282514Y0279548D01*
X0282422Y0279509D01*
X0282329Y0279474D01*
X0282235Y0279443D01*
X0282139Y0279416D01*
X0282042Y0279393D01*
X0281945Y0279373D01*
X0281847Y0279357D01*
X0281748Y0279345D01*
X0281649Y0279337D01*
X0281550Y0279333D01*
X0281450Y0279333D01*
X0281351Y0279337D01*
X0281252Y0279345D01*
X0281153Y0279357D01*
X0281055Y0279373D01*
X0280958Y0279393D01*
X0280861Y0279416D01*
X0280765Y0279443D01*
X0280671Y0279474D01*
X0280578Y0279509D01*
X0280486Y0279548D01*
X0280396Y0279590D01*
X0280308Y0279636D01*
X0280221Y0279685D01*
X0280137Y0279737D01*
X0280055Y0279793D01*
X0279975Y0279852D01*
X0279897Y0279914D01*
X0279822Y0279980D01*
X0279750Y0280048D01*
X0279680Y0280119D01*
X0279614Y0280192D01*
X0279550Y0280269D01*
X0279489Y0280347D01*
X0279432Y0280429D01*
X0279378Y0280512D01*
X0279327Y0280597D01*
X0279279Y0280685D01*
X0279235Y0280774D01*
X0279195Y0280865D01*
X0279158Y0280957D01*
X0279125Y0281051D01*
X0279096Y0281146D01*
X0279071Y0281242D01*
X0279049Y0281339D01*
X0279032Y0281437D01*
X0279018Y0281535D01*
X0279008Y0281634D01*
X0279002Y0281734D01*
X0279000Y0281833D01*
X0276500Y0146833D02*
X0271500Y0141833D01*
X0276500Y0136833D01*
X0276500Y0146833D01*
X0276500Y0146402D02*
X0276068Y0146402D01*
X0276500Y0145903D02*
X0275570Y0145903D01*
X0275071Y0145405D02*
X0276500Y0145405D01*
X0276500Y0144906D02*
X0274573Y0144906D01*
X0274074Y0144408D02*
X0276500Y0144408D01*
X0276500Y0143909D02*
X0273576Y0143909D01*
X0273077Y0143411D02*
X0276500Y0143411D01*
X0276500Y0142912D02*
X0272579Y0142912D01*
X0272080Y0142414D02*
X0276500Y0142414D01*
X0276500Y0141915D02*
X0271582Y0141915D01*
X0271917Y0141416D02*
X0276500Y0141416D01*
X0276500Y0140918D02*
X0272415Y0140918D01*
X0272914Y0140419D02*
X0276500Y0140419D01*
X0276500Y0139921D02*
X0273412Y0139921D01*
X0273911Y0139422D02*
X0276500Y0139422D01*
X0276500Y0138924D02*
X0274409Y0138924D01*
X0274908Y0138425D02*
X0276500Y0138425D01*
X0276500Y0137927D02*
X0275406Y0137927D01*
X0275905Y0137428D02*
X0276500Y0137428D01*
X0276500Y0136930D02*
X0276403Y0136930D01*
X0273896Y0134437D02*
X0271500Y0134437D01*
X0271500Y0133939D02*
X0274395Y0133939D01*
X0274893Y0133440D02*
X0271500Y0133440D01*
X0271500Y0132942D02*
X0275392Y0132942D01*
X0275890Y0132443D02*
X0271500Y0132443D01*
X0271500Y0131945D02*
X0276389Y0131945D01*
X0276500Y0131833D02*
X0271500Y0126833D01*
X0271500Y0136833D01*
X0276500Y0131833D01*
X0276113Y0131446D02*
X0271500Y0131446D01*
X0271500Y0130948D02*
X0275614Y0130948D01*
X0275116Y0130449D02*
X0271500Y0130449D01*
X0271500Y0129951D02*
X0274617Y0129951D01*
X0274119Y0129452D02*
X0271500Y0129452D01*
X0271500Y0128954D02*
X0273620Y0128954D01*
X0273122Y0128455D02*
X0271500Y0128455D01*
X0271500Y0127957D02*
X0272623Y0127957D01*
X0272125Y0127458D02*
X0271500Y0127458D01*
X0271500Y0126960D02*
X0271626Y0126960D01*
X0279000Y0121833D02*
X0279002Y0121932D01*
X0279008Y0122032D01*
X0279018Y0122131D01*
X0279032Y0122229D01*
X0279049Y0122327D01*
X0279071Y0122424D01*
X0279096Y0122520D01*
X0279125Y0122615D01*
X0279158Y0122709D01*
X0279195Y0122801D01*
X0279235Y0122892D01*
X0279279Y0122981D01*
X0279327Y0123069D01*
X0279378Y0123154D01*
X0279432Y0123237D01*
X0279489Y0123319D01*
X0279550Y0123397D01*
X0279614Y0123474D01*
X0279680Y0123547D01*
X0279750Y0123618D01*
X0279822Y0123686D01*
X0279897Y0123752D01*
X0279975Y0123814D01*
X0280055Y0123873D01*
X0280137Y0123929D01*
X0280221Y0123981D01*
X0280308Y0124030D01*
X0280396Y0124076D01*
X0280486Y0124118D01*
X0280578Y0124157D01*
X0280671Y0124192D01*
X0280765Y0124223D01*
X0280861Y0124250D01*
X0280958Y0124273D01*
X0281055Y0124293D01*
X0281153Y0124309D01*
X0281252Y0124321D01*
X0281351Y0124329D01*
X0281450Y0124333D01*
X0281550Y0124333D01*
X0281649Y0124329D01*
X0281748Y0124321D01*
X0281847Y0124309D01*
X0281945Y0124293D01*
X0282042Y0124273D01*
X0282139Y0124250D01*
X0282235Y0124223D01*
X0282329Y0124192D01*
X0282422Y0124157D01*
X0282514Y0124118D01*
X0282604Y0124076D01*
X0282692Y0124030D01*
X0282779Y0123981D01*
X0282863Y0123929D01*
X0282945Y0123873D01*
X0283025Y0123814D01*
X0283103Y0123752D01*
X0283178Y0123686D01*
X0283250Y0123618D01*
X0283320Y0123547D01*
X0283386Y0123474D01*
X0283450Y0123397D01*
X0283511Y0123319D01*
X0283568Y0123237D01*
X0283622Y0123154D01*
X0283673Y0123069D01*
X0283721Y0122981D01*
X0283765Y0122892D01*
X0283805Y0122801D01*
X0283842Y0122709D01*
X0283875Y0122615D01*
X0283904Y0122520D01*
X0283929Y0122424D01*
X0283951Y0122327D01*
X0283968Y0122229D01*
X0283982Y0122131D01*
X0283992Y0122032D01*
X0283998Y0121932D01*
X0284000Y0121833D01*
X0283998Y0121734D01*
X0283992Y0121634D01*
X0283982Y0121535D01*
X0283968Y0121437D01*
X0283951Y0121339D01*
X0283929Y0121242D01*
X0283904Y0121146D01*
X0283875Y0121051D01*
X0283842Y0120957D01*
X0283805Y0120865D01*
X0283765Y0120774D01*
X0283721Y0120685D01*
X0283673Y0120597D01*
X0283622Y0120512D01*
X0283568Y0120429D01*
X0283511Y0120347D01*
X0283450Y0120269D01*
X0283386Y0120192D01*
X0283320Y0120119D01*
X0283250Y0120048D01*
X0283178Y0119980D01*
X0283103Y0119914D01*
X0283025Y0119852D01*
X0282945Y0119793D01*
X0282863Y0119737D01*
X0282779Y0119685D01*
X0282692Y0119636D01*
X0282604Y0119590D01*
X0282514Y0119548D01*
X0282422Y0119509D01*
X0282329Y0119474D01*
X0282235Y0119443D01*
X0282139Y0119416D01*
X0282042Y0119393D01*
X0281945Y0119373D01*
X0281847Y0119357D01*
X0281748Y0119345D01*
X0281649Y0119337D01*
X0281550Y0119333D01*
X0281450Y0119333D01*
X0281351Y0119337D01*
X0281252Y0119345D01*
X0281153Y0119357D01*
X0281055Y0119373D01*
X0280958Y0119393D01*
X0280861Y0119416D01*
X0280765Y0119443D01*
X0280671Y0119474D01*
X0280578Y0119509D01*
X0280486Y0119548D01*
X0280396Y0119590D01*
X0280308Y0119636D01*
X0280221Y0119685D01*
X0280137Y0119737D01*
X0280055Y0119793D01*
X0279975Y0119852D01*
X0279897Y0119914D01*
X0279822Y0119980D01*
X0279750Y0120048D01*
X0279680Y0120119D01*
X0279614Y0120192D01*
X0279550Y0120269D01*
X0279489Y0120347D01*
X0279432Y0120429D01*
X0279378Y0120512D01*
X0279327Y0120597D01*
X0279279Y0120685D01*
X0279235Y0120774D01*
X0279195Y0120865D01*
X0279158Y0120957D01*
X0279125Y0121051D01*
X0279096Y0121146D01*
X0279071Y0121242D01*
X0279049Y0121339D01*
X0279032Y0121437D01*
X0279018Y0121535D01*
X0279008Y0121634D01*
X0279002Y0121734D01*
X0279000Y0121833D01*
X0273397Y0134936D02*
X0271500Y0134936D01*
X0271500Y0135434D02*
X0272899Y0135434D01*
X0272400Y0135933D02*
X0271500Y0135933D01*
X0271500Y0136431D02*
X0271902Y0136431D01*
X0258350Y0131833D02*
X0258352Y0131945D01*
X0258358Y0132056D01*
X0258368Y0132168D01*
X0258382Y0132279D01*
X0258399Y0132389D01*
X0258421Y0132499D01*
X0258447Y0132608D01*
X0258476Y0132716D01*
X0258509Y0132822D01*
X0258546Y0132928D01*
X0258587Y0133032D01*
X0258632Y0133135D01*
X0258680Y0133236D01*
X0258731Y0133335D01*
X0258786Y0133432D01*
X0258845Y0133527D01*
X0258906Y0133621D01*
X0258971Y0133712D01*
X0259040Y0133800D01*
X0259111Y0133886D01*
X0259185Y0133970D01*
X0259263Y0134050D01*
X0259343Y0134128D01*
X0259426Y0134204D01*
X0259511Y0134276D01*
X0259599Y0134345D01*
X0259689Y0134411D01*
X0259782Y0134473D01*
X0259877Y0134533D01*
X0259974Y0134589D01*
X0260072Y0134641D01*
X0260173Y0134690D01*
X0260275Y0134735D01*
X0260379Y0134777D01*
X0260484Y0134815D01*
X0260591Y0134849D01*
X0260698Y0134879D01*
X0260807Y0134906D01*
X0260916Y0134928D01*
X0261027Y0134947D01*
X0261137Y0134962D01*
X0261249Y0134973D01*
X0261360Y0134980D01*
X0261472Y0134983D01*
X0261584Y0134982D01*
X0261696Y0134977D01*
X0261807Y0134968D01*
X0261918Y0134955D01*
X0262029Y0134938D01*
X0262139Y0134918D01*
X0262248Y0134893D01*
X0262356Y0134865D01*
X0262463Y0134832D01*
X0262569Y0134796D01*
X0262673Y0134756D01*
X0262776Y0134713D01*
X0262878Y0134666D01*
X0262977Y0134615D01*
X0263075Y0134561D01*
X0263171Y0134503D01*
X0263265Y0134442D01*
X0263356Y0134378D01*
X0263445Y0134311D01*
X0263532Y0134240D01*
X0263616Y0134166D01*
X0263698Y0134090D01*
X0263776Y0134010D01*
X0263852Y0133928D01*
X0263925Y0133843D01*
X0263995Y0133756D01*
X0264061Y0133666D01*
X0264125Y0133574D01*
X0264185Y0133480D01*
X0264242Y0133384D01*
X0264295Y0133285D01*
X0264345Y0133185D01*
X0264391Y0133084D01*
X0264434Y0132980D01*
X0264473Y0132875D01*
X0264508Y0132769D01*
X0264539Y0132662D01*
X0264567Y0132553D01*
X0264590Y0132444D01*
X0264610Y0132334D01*
X0264626Y0132223D01*
X0264638Y0132112D01*
X0264646Y0132001D01*
X0264650Y0131889D01*
X0264650Y0131777D01*
X0264646Y0131665D01*
X0264638Y0131554D01*
X0264626Y0131443D01*
X0264610Y0131332D01*
X0264590Y0131222D01*
X0264567Y0131113D01*
X0264539Y0131004D01*
X0264508Y0130897D01*
X0264473Y0130791D01*
X0264434Y0130686D01*
X0264391Y0130582D01*
X0264345Y0130481D01*
X0264295Y0130381D01*
X0264242Y0130282D01*
X0264185Y0130186D01*
X0264125Y0130092D01*
X0264061Y0130000D01*
X0263995Y0129910D01*
X0263925Y0129823D01*
X0263852Y0129738D01*
X0263776Y0129656D01*
X0263698Y0129576D01*
X0263616Y0129500D01*
X0263532Y0129426D01*
X0263445Y0129355D01*
X0263356Y0129288D01*
X0263265Y0129224D01*
X0263171Y0129163D01*
X0263075Y0129105D01*
X0262977Y0129051D01*
X0262878Y0129000D01*
X0262776Y0128953D01*
X0262673Y0128910D01*
X0262569Y0128870D01*
X0262463Y0128834D01*
X0262356Y0128801D01*
X0262248Y0128773D01*
X0262139Y0128748D01*
X0262029Y0128728D01*
X0261918Y0128711D01*
X0261807Y0128698D01*
X0261696Y0128689D01*
X0261584Y0128684D01*
X0261472Y0128683D01*
X0261360Y0128686D01*
X0261249Y0128693D01*
X0261137Y0128704D01*
X0261027Y0128719D01*
X0260916Y0128738D01*
X0260807Y0128760D01*
X0260698Y0128787D01*
X0260591Y0128817D01*
X0260484Y0128851D01*
X0260379Y0128889D01*
X0260275Y0128931D01*
X0260173Y0128976D01*
X0260072Y0129025D01*
X0259974Y0129077D01*
X0259877Y0129133D01*
X0259782Y0129193D01*
X0259689Y0129255D01*
X0259599Y0129321D01*
X0259511Y0129390D01*
X0259426Y0129462D01*
X0259343Y0129538D01*
X0259263Y0129616D01*
X0259185Y0129696D01*
X0259111Y0129780D01*
X0259040Y0129866D01*
X0258971Y0129954D01*
X0258906Y0130045D01*
X0258845Y0130139D01*
X0258786Y0130234D01*
X0258731Y0130331D01*
X0258680Y0130430D01*
X0258632Y0130531D01*
X0258587Y0130634D01*
X0258546Y0130738D01*
X0258509Y0130844D01*
X0258476Y0130950D01*
X0258447Y0131058D01*
X0258421Y0131167D01*
X0258399Y0131277D01*
X0258382Y0131387D01*
X0258368Y0131498D01*
X0258358Y0131610D01*
X0258352Y0131721D01*
X0258350Y0131833D01*
X0219000Y0121833D02*
X0219002Y0121932D01*
X0219008Y0122032D01*
X0219018Y0122131D01*
X0219032Y0122229D01*
X0219049Y0122327D01*
X0219071Y0122424D01*
X0219096Y0122520D01*
X0219125Y0122615D01*
X0219158Y0122709D01*
X0219195Y0122801D01*
X0219235Y0122892D01*
X0219279Y0122981D01*
X0219327Y0123069D01*
X0219378Y0123154D01*
X0219432Y0123237D01*
X0219489Y0123319D01*
X0219550Y0123397D01*
X0219614Y0123474D01*
X0219680Y0123547D01*
X0219750Y0123618D01*
X0219822Y0123686D01*
X0219897Y0123752D01*
X0219975Y0123814D01*
X0220055Y0123873D01*
X0220137Y0123929D01*
X0220221Y0123981D01*
X0220308Y0124030D01*
X0220396Y0124076D01*
X0220486Y0124118D01*
X0220578Y0124157D01*
X0220671Y0124192D01*
X0220765Y0124223D01*
X0220861Y0124250D01*
X0220958Y0124273D01*
X0221055Y0124293D01*
X0221153Y0124309D01*
X0221252Y0124321D01*
X0221351Y0124329D01*
X0221450Y0124333D01*
X0221550Y0124333D01*
X0221649Y0124329D01*
X0221748Y0124321D01*
X0221847Y0124309D01*
X0221945Y0124293D01*
X0222042Y0124273D01*
X0222139Y0124250D01*
X0222235Y0124223D01*
X0222329Y0124192D01*
X0222422Y0124157D01*
X0222514Y0124118D01*
X0222604Y0124076D01*
X0222692Y0124030D01*
X0222779Y0123981D01*
X0222863Y0123929D01*
X0222945Y0123873D01*
X0223025Y0123814D01*
X0223103Y0123752D01*
X0223178Y0123686D01*
X0223250Y0123618D01*
X0223320Y0123547D01*
X0223386Y0123474D01*
X0223450Y0123397D01*
X0223511Y0123319D01*
X0223568Y0123237D01*
X0223622Y0123154D01*
X0223673Y0123069D01*
X0223721Y0122981D01*
X0223765Y0122892D01*
X0223805Y0122801D01*
X0223842Y0122709D01*
X0223875Y0122615D01*
X0223904Y0122520D01*
X0223929Y0122424D01*
X0223951Y0122327D01*
X0223968Y0122229D01*
X0223982Y0122131D01*
X0223992Y0122032D01*
X0223998Y0121932D01*
X0224000Y0121833D01*
X0223998Y0121734D01*
X0223992Y0121634D01*
X0223982Y0121535D01*
X0223968Y0121437D01*
X0223951Y0121339D01*
X0223929Y0121242D01*
X0223904Y0121146D01*
X0223875Y0121051D01*
X0223842Y0120957D01*
X0223805Y0120865D01*
X0223765Y0120774D01*
X0223721Y0120685D01*
X0223673Y0120597D01*
X0223622Y0120512D01*
X0223568Y0120429D01*
X0223511Y0120347D01*
X0223450Y0120269D01*
X0223386Y0120192D01*
X0223320Y0120119D01*
X0223250Y0120048D01*
X0223178Y0119980D01*
X0223103Y0119914D01*
X0223025Y0119852D01*
X0222945Y0119793D01*
X0222863Y0119737D01*
X0222779Y0119685D01*
X0222692Y0119636D01*
X0222604Y0119590D01*
X0222514Y0119548D01*
X0222422Y0119509D01*
X0222329Y0119474D01*
X0222235Y0119443D01*
X0222139Y0119416D01*
X0222042Y0119393D01*
X0221945Y0119373D01*
X0221847Y0119357D01*
X0221748Y0119345D01*
X0221649Y0119337D01*
X0221550Y0119333D01*
X0221450Y0119333D01*
X0221351Y0119337D01*
X0221252Y0119345D01*
X0221153Y0119357D01*
X0221055Y0119373D01*
X0220958Y0119393D01*
X0220861Y0119416D01*
X0220765Y0119443D01*
X0220671Y0119474D01*
X0220578Y0119509D01*
X0220486Y0119548D01*
X0220396Y0119590D01*
X0220308Y0119636D01*
X0220221Y0119685D01*
X0220137Y0119737D01*
X0220055Y0119793D01*
X0219975Y0119852D01*
X0219897Y0119914D01*
X0219822Y0119980D01*
X0219750Y0120048D01*
X0219680Y0120119D01*
X0219614Y0120192D01*
X0219550Y0120269D01*
X0219489Y0120347D01*
X0219432Y0120429D01*
X0219378Y0120512D01*
X0219327Y0120597D01*
X0219279Y0120685D01*
X0219235Y0120774D01*
X0219195Y0120865D01*
X0219158Y0120957D01*
X0219125Y0121051D01*
X0219096Y0121146D01*
X0219071Y0121242D01*
X0219049Y0121339D01*
X0219032Y0121437D01*
X0219018Y0121535D01*
X0219008Y0121634D01*
X0219002Y0121734D01*
X0219000Y0121833D01*
D16*
X0231381Y0121683D02*
X0233850Y0121683D01*
X0232616Y0121683D02*
X0232616Y0117980D01*
X0233850Y0119215D01*
X0243150Y0104186D02*
X0243150Y0101101D01*
X0243767Y0100483D01*
X0245002Y0100483D01*
X0245619Y0101101D01*
X0245619Y0104186D01*
X0246833Y0102335D02*
X0249302Y0102335D01*
X0248685Y0104186D02*
X0248685Y0100483D01*
X0246833Y0102335D02*
X0248685Y0104186D01*
X0249098Y0139483D02*
X0250066Y0139483D01*
X0250549Y0139967D01*
X0251561Y0139967D02*
X0252045Y0139483D01*
X0253012Y0139483D01*
X0253496Y0139967D01*
X0253496Y0140451D01*
X0253012Y0140935D01*
X0252045Y0140935D01*
X0251561Y0141418D01*
X0251561Y0141902D01*
X0252045Y0142386D01*
X0253012Y0142386D01*
X0253496Y0141902D01*
X0254507Y0142386D02*
X0254507Y0139483D01*
X0254507Y0140451D02*
X0255959Y0140451D01*
X0256442Y0140935D01*
X0256442Y0141902D01*
X0255959Y0142386D01*
X0254507Y0142386D01*
X0250549Y0141902D02*
X0250066Y0142386D01*
X0249098Y0142386D01*
X0248614Y0141902D01*
X0248614Y0139967D01*
X0249098Y0139483D01*
X0247617Y0139483D02*
X0246650Y0139483D01*
X0247134Y0139483D02*
X0247134Y0142386D01*
X0247617Y0142386D02*
X0246650Y0142386D01*
X0177052Y0141819D02*
X0177052Y0141202D01*
X0176435Y0140585D01*
X0177052Y0139968D01*
X0177052Y0139351D01*
X0176435Y0138733D01*
X0175200Y0138733D01*
X0174583Y0139351D01*
X0173369Y0139351D02*
X0173369Y0142436D01*
X0174583Y0141819D02*
X0175200Y0142436D01*
X0176435Y0142436D01*
X0177052Y0141819D01*
X0176435Y0140585D02*
X0175818Y0140585D01*
X0173369Y0139351D02*
X0172752Y0138733D01*
X0171517Y0138733D01*
X0170900Y0139351D01*
X0170900Y0142436D01*
X0177517Y0231733D02*
X0176900Y0232351D01*
X0176900Y0235436D01*
X0179369Y0235436D02*
X0179369Y0232351D01*
X0178752Y0231733D01*
X0177517Y0231733D01*
X0180583Y0231733D02*
X0183052Y0234202D01*
X0183052Y0234819D01*
X0182435Y0235436D01*
X0181200Y0235436D01*
X0180583Y0234819D01*
X0180583Y0231733D02*
X0183052Y0231733D01*
X0226647Y0269535D02*
X0230350Y0269535D01*
X0230350Y0270769D02*
X0230350Y0268300D01*
X0227881Y0268300D02*
X0226647Y0269535D01*
D17*
X0245707Y0277533D02*
X0245707Y0279735D01*
X0246441Y0279001D01*
X0247175Y0279735D01*
X0247175Y0277533D01*
X0247917Y0277533D02*
X0248651Y0277533D01*
X0248284Y0277533D02*
X0248284Y0279001D01*
X0247917Y0279001D01*
X0248284Y0279735D02*
X0248284Y0280102D01*
X0249390Y0279001D02*
X0250491Y0279001D01*
X0250858Y0278634D01*
X0250858Y0277533D01*
X0251600Y0277533D02*
X0252334Y0277533D01*
X0251967Y0277533D02*
X0251967Y0279001D01*
X0251600Y0279001D01*
X0251967Y0279735D02*
X0251967Y0280102D01*
X0253073Y0278634D02*
X0254541Y0278634D01*
X0255283Y0278634D02*
X0256384Y0278634D01*
X0256751Y0278267D01*
X0256751Y0277900D01*
X0256384Y0277533D01*
X0255283Y0277533D01*
X0255283Y0279735D01*
X0256384Y0279735D01*
X0256751Y0279368D01*
X0256751Y0279001D01*
X0256384Y0278634D01*
X0253806Y0276135D02*
X0254173Y0275768D01*
X0254173Y0275401D01*
X0253806Y0275034D01*
X0252705Y0275034D01*
X0251963Y0274667D02*
X0251963Y0274300D01*
X0251596Y0273933D01*
X0250862Y0273933D01*
X0250495Y0274300D01*
X0249753Y0274300D02*
X0249753Y0276135D01*
X0250495Y0275768D02*
X0250495Y0275401D01*
X0250862Y0275034D01*
X0251596Y0275034D01*
X0251963Y0274667D01*
X0252705Y0273933D02*
X0253806Y0273933D01*
X0254173Y0274300D01*
X0254173Y0274667D01*
X0253806Y0275034D01*
X0253806Y0276135D02*
X0252705Y0276135D01*
X0252705Y0273933D01*
X0251963Y0275768D02*
X0251596Y0276135D01*
X0250862Y0276135D01*
X0250495Y0275768D01*
X0249753Y0274300D02*
X0249386Y0273933D01*
X0248652Y0273933D01*
X0248285Y0274300D01*
X0248285Y0276135D01*
X0249390Y0277533D02*
X0249390Y0279001D01*
D18*
X0248434Y0281833D02*
X0248434Y0281867D01*
X0248372Y0281867D02*
X0248372Y0281833D01*
X0248311Y0281833D02*
X0248311Y0281867D01*
X0248260Y0281833D02*
X0248260Y0281967D01*
X0248311Y0281933D02*
X0248311Y0282067D01*
X0248372Y0282067D02*
X0248372Y0281933D01*
X0248434Y0281933D02*
X0248434Y0282067D01*
X0248434Y0282133D02*
X0248434Y0282267D01*
X0248383Y0282233D02*
X0248350Y0282267D01*
X0248283Y0282267D01*
X0248249Y0282233D01*
X0248249Y0282167D01*
X0248283Y0282133D01*
X0248350Y0282133D01*
X0248383Y0282167D01*
X0248383Y0282233D01*
X0248434Y0282200D02*
X0248500Y0282267D01*
X0248534Y0282267D01*
X0248587Y0282267D02*
X0248654Y0282267D01*
X0248620Y0282300D02*
X0248620Y0282167D01*
X0248654Y0282133D01*
X0248894Y0282167D02*
X0248927Y0282200D01*
X0249027Y0282200D01*
X0249027Y0282233D02*
X0249027Y0282133D01*
X0248927Y0282133D01*
X0248894Y0282167D01*
X0248927Y0282267D02*
X0248994Y0282267D01*
X0249027Y0282233D01*
X0249078Y0282267D02*
X0249178Y0282267D01*
X0249212Y0282233D01*
X0249212Y0282133D01*
X0249262Y0282167D02*
X0249296Y0282133D01*
X0249396Y0282133D01*
X0249396Y0282100D02*
X0249362Y0282067D01*
X0249329Y0282067D01*
X0249396Y0282100D02*
X0249396Y0282267D01*
X0249262Y0282267D02*
X0249262Y0282167D01*
X0249078Y0282133D02*
X0249078Y0282267D01*
X0249117Y0282433D02*
X0249150Y0282467D01*
X0249117Y0282500D01*
X0249050Y0282500D01*
X0249017Y0282533D01*
X0249050Y0282567D01*
X0249150Y0282567D01*
X0249117Y0282433D02*
X0249017Y0282433D01*
X0248966Y0282433D02*
X0248866Y0282433D01*
X0248833Y0282467D01*
X0248866Y0282500D01*
X0248966Y0282500D01*
X0248966Y0282533D02*
X0248966Y0282433D01*
X0248966Y0282533D02*
X0248933Y0282567D01*
X0248866Y0282567D01*
X0248782Y0282567D02*
X0248782Y0282467D01*
X0248748Y0282433D01*
X0248715Y0282467D01*
X0248682Y0282433D01*
X0248648Y0282467D01*
X0248648Y0282567D01*
X0248414Y0282567D02*
X0248414Y0282400D01*
X0248380Y0282367D01*
X0248347Y0282367D01*
X0248313Y0282433D02*
X0248414Y0282433D01*
X0248313Y0282433D02*
X0248280Y0282467D01*
X0248280Y0282567D01*
X0248227Y0282567D02*
X0248193Y0282567D01*
X0248127Y0282500D01*
X0248076Y0282500D02*
X0247976Y0282500D01*
X0247943Y0282467D01*
X0247976Y0282433D01*
X0248076Y0282433D01*
X0248076Y0282533D01*
X0248043Y0282567D01*
X0247976Y0282567D01*
X0247889Y0282567D02*
X0247856Y0282567D01*
X0247789Y0282500D01*
X0247738Y0282467D02*
X0247738Y0282533D01*
X0247705Y0282567D01*
X0247605Y0282567D01*
X0247605Y0282633D02*
X0247605Y0282433D01*
X0247705Y0282433D01*
X0247738Y0282467D01*
X0247789Y0282433D02*
X0247789Y0282567D01*
X0247515Y0282567D02*
X0247515Y0282433D01*
X0247482Y0282433D02*
X0247549Y0282433D01*
X0247426Y0282433D02*
X0247359Y0282433D01*
X0247393Y0282433D02*
X0247393Y0282633D01*
X0247359Y0282633D01*
X0247482Y0282567D02*
X0247515Y0282567D01*
X0247515Y0282633D02*
X0247515Y0282667D01*
X0247125Y0282567D02*
X0247024Y0282567D01*
X0246991Y0282533D01*
X0247024Y0282500D01*
X0247091Y0282500D01*
X0247125Y0282467D01*
X0247091Y0282433D01*
X0246991Y0282433D01*
X0246935Y0282433D02*
X0246868Y0282433D01*
X0246902Y0282433D02*
X0246902Y0282567D01*
X0246868Y0282567D01*
X0246818Y0282533D02*
X0246818Y0282433D01*
X0246818Y0282533D02*
X0246784Y0282567D01*
X0246718Y0282567D01*
X0246684Y0282533D01*
X0246684Y0282633D02*
X0246684Y0282433D01*
X0246684Y0282333D02*
X0246718Y0282333D01*
X0246718Y0282133D01*
X0246751Y0282133D02*
X0246684Y0282133D01*
X0246684Y0282033D02*
X0246684Y0281833D01*
X0246684Y0281933D02*
X0246718Y0281967D01*
X0246784Y0281967D01*
X0246818Y0281933D01*
X0246818Y0281833D01*
X0246868Y0281867D02*
X0246902Y0281900D01*
X0247002Y0281900D01*
X0247002Y0281933D02*
X0247002Y0281833D01*
X0246902Y0281833D01*
X0246868Y0281867D01*
X0246902Y0281967D02*
X0246968Y0281967D01*
X0247002Y0281933D01*
X0247052Y0281967D02*
X0247153Y0281967D01*
X0247186Y0281933D01*
X0247186Y0281833D01*
X0247237Y0281833D02*
X0247237Y0282033D01*
X0247275Y0282133D02*
X0247309Y0282167D01*
X0247275Y0282200D01*
X0247209Y0282200D01*
X0247175Y0282233D01*
X0247209Y0282267D01*
X0247309Y0282267D01*
X0247359Y0282233D02*
X0247393Y0282267D01*
X0247459Y0282267D01*
X0247493Y0282233D01*
X0247493Y0282200D01*
X0247359Y0282200D01*
X0247359Y0282167D02*
X0247359Y0282233D01*
X0247359Y0282167D02*
X0247393Y0282133D01*
X0247459Y0282133D01*
X0247423Y0281967D02*
X0247524Y0281967D01*
X0247490Y0281900D02*
X0247423Y0281900D01*
X0247390Y0281933D01*
X0247423Y0281967D01*
X0247337Y0281967D02*
X0247237Y0281900D01*
X0247337Y0281833D01*
X0247390Y0281833D02*
X0247490Y0281833D01*
X0247524Y0281867D01*
X0247490Y0281900D01*
X0247758Y0281867D02*
X0247792Y0281833D01*
X0247892Y0281833D01*
X0247892Y0281800D02*
X0247858Y0281767D01*
X0247825Y0281767D01*
X0247892Y0281800D02*
X0247892Y0281967D01*
X0247943Y0281933D02*
X0247943Y0281867D01*
X0247976Y0281833D01*
X0248043Y0281833D01*
X0248076Y0281867D01*
X0248076Y0281933D01*
X0248043Y0281967D01*
X0247976Y0281967D01*
X0247943Y0281933D01*
X0248065Y0282067D02*
X0248065Y0282267D01*
X0248165Y0282267D01*
X0248199Y0282233D01*
X0248199Y0282167D01*
X0248165Y0282133D01*
X0248065Y0282133D01*
X0247981Y0282133D02*
X0247914Y0282133D01*
X0247881Y0282167D01*
X0247881Y0282233D01*
X0247914Y0282267D01*
X0247981Y0282267D01*
X0248015Y0282233D01*
X0248015Y0282200D01*
X0247881Y0282200D01*
X0247828Y0282267D02*
X0247794Y0282267D01*
X0247728Y0282200D01*
X0247728Y0282133D02*
X0247728Y0282267D01*
X0247758Y0281967D02*
X0247758Y0281867D01*
X0248127Y0281867D02*
X0248160Y0281833D01*
X0248260Y0281833D01*
X0248127Y0281867D02*
X0248127Y0281967D01*
X0248127Y0282433D02*
X0248127Y0282567D01*
X0247275Y0282133D02*
X0247175Y0282133D01*
X0247125Y0282133D02*
X0247024Y0282133D01*
X0246991Y0282167D01*
X0247024Y0282200D01*
X0247125Y0282200D01*
X0247125Y0282233D02*
X0247125Y0282133D01*
X0247125Y0282233D02*
X0247091Y0282267D01*
X0247024Y0282267D01*
X0246940Y0282233D02*
X0246940Y0282200D01*
X0246807Y0282200D01*
X0246807Y0282167D02*
X0246807Y0282233D01*
X0246840Y0282267D01*
X0246907Y0282267D01*
X0246940Y0282233D01*
X0246907Y0282133D02*
X0246840Y0282133D01*
X0246807Y0282167D01*
X0246633Y0282233D02*
X0246600Y0282200D01*
X0246500Y0282200D01*
X0246500Y0282133D02*
X0246500Y0282333D01*
X0246600Y0282333D01*
X0246633Y0282300D01*
X0246633Y0282233D01*
X0246633Y0282033D02*
X0246500Y0282033D01*
X0246567Y0282033D02*
X0246567Y0281833D01*
X0247052Y0281833D02*
X0247052Y0281967D01*
X0246567Y0282433D02*
X0246567Y0282633D01*
X0246633Y0282633D02*
X0246500Y0282633D01*
X0246902Y0282633D02*
X0246902Y0282667D01*
X0249385Y0282533D02*
X0249385Y0282467D01*
X0249418Y0282433D01*
X0249518Y0282433D01*
X0249569Y0282433D02*
X0249569Y0282567D01*
X0249518Y0282567D02*
X0249418Y0282567D01*
X0249385Y0282533D01*
X0249569Y0282500D02*
X0249636Y0282567D01*
X0249669Y0282567D01*
X0249723Y0282533D02*
X0249756Y0282567D01*
X0249823Y0282567D01*
X0249856Y0282533D01*
X0249856Y0282500D01*
X0249723Y0282500D01*
X0249723Y0282467D02*
X0249723Y0282533D01*
X0249723Y0282467D02*
X0249756Y0282433D01*
X0249823Y0282433D01*
X0249907Y0282467D02*
X0249940Y0282500D01*
X0250040Y0282500D01*
X0250040Y0282533D02*
X0250040Y0282433D01*
X0249940Y0282433D01*
X0249907Y0282467D01*
X0249940Y0282567D02*
X0250007Y0282567D01*
X0250040Y0282533D01*
X0250091Y0282567D02*
X0250158Y0282567D01*
X0250124Y0282600D02*
X0250124Y0282467D01*
X0250158Y0282433D01*
X0250214Y0282467D02*
X0250214Y0282533D01*
X0250247Y0282567D01*
X0250314Y0282567D01*
X0250347Y0282533D01*
X0250347Y0282500D01*
X0250214Y0282500D01*
X0250214Y0282467D02*
X0250247Y0282433D01*
X0250314Y0282433D01*
X0250398Y0282467D02*
X0250398Y0282533D01*
X0250431Y0282567D01*
X0250531Y0282567D01*
X0250531Y0282633D02*
X0250531Y0282433D01*
X0250431Y0282433D01*
X0250398Y0282467D01*
X0250406Y0282267D02*
X0250373Y0282267D01*
X0250306Y0282200D01*
X0250255Y0282167D02*
X0250255Y0282233D01*
X0250222Y0282267D01*
X0250155Y0282267D01*
X0250122Y0282233D01*
X0250122Y0282167D01*
X0250155Y0282133D01*
X0250222Y0282133D01*
X0250255Y0282167D01*
X0250306Y0282133D02*
X0250306Y0282267D01*
X0250459Y0282233D02*
X0250493Y0282267D01*
X0250593Y0282267D01*
X0250559Y0282200D02*
X0250593Y0282167D01*
X0250559Y0282133D01*
X0250459Y0282133D01*
X0250493Y0282200D02*
X0250459Y0282233D01*
X0250493Y0282200D02*
X0250559Y0282200D01*
X0250828Y0282167D02*
X0250861Y0282133D01*
X0250928Y0282133D01*
X0250961Y0282167D01*
X0250961Y0282233D01*
X0250928Y0282267D01*
X0250861Y0282267D01*
X0250828Y0282233D01*
X0250828Y0282167D01*
X0251012Y0282200D02*
X0251078Y0282267D01*
X0251112Y0282267D01*
X0251012Y0282267D02*
X0251012Y0282133D01*
X0251017Y0282367D02*
X0251050Y0282367D01*
X0251084Y0282400D01*
X0251084Y0282567D01*
X0251084Y0282433D02*
X0250984Y0282433D01*
X0250950Y0282467D01*
X0250950Y0282567D01*
X0250900Y0282533D02*
X0250866Y0282567D01*
X0250766Y0282567D01*
X0250766Y0282633D02*
X0250766Y0282433D01*
X0250866Y0282433D01*
X0250900Y0282467D01*
X0250900Y0282533D01*
X0251319Y0282533D02*
X0251385Y0282533D01*
X0251503Y0282533D02*
X0251536Y0282567D01*
X0251636Y0282567D01*
X0251687Y0282567D02*
X0251787Y0282567D01*
X0251820Y0282533D01*
X0251820Y0282467D01*
X0251787Y0282433D01*
X0251687Y0282433D01*
X0251636Y0282467D02*
X0251603Y0282500D01*
X0251536Y0282500D01*
X0251503Y0282533D01*
X0251503Y0282433D02*
X0251603Y0282433D01*
X0251636Y0282467D01*
X0251687Y0282367D02*
X0251687Y0282567D01*
X0251871Y0282467D02*
X0251904Y0282467D01*
X0251904Y0282433D01*
X0251871Y0282433D01*
X0251871Y0282467D01*
X0251851Y0282267D02*
X0251751Y0282267D01*
X0251718Y0282233D01*
X0251718Y0282167D01*
X0251751Y0282133D01*
X0251851Y0282133D01*
X0251851Y0282100D02*
X0251851Y0282267D01*
X0251902Y0282233D02*
X0251902Y0282167D01*
X0251935Y0282133D01*
X0252035Y0282133D01*
X0252035Y0282100D02*
X0252035Y0282267D01*
X0251935Y0282267D01*
X0251902Y0282233D01*
X0251851Y0282100D02*
X0251818Y0282067D01*
X0251784Y0282067D01*
X0251667Y0282133D02*
X0251667Y0282267D01*
X0251533Y0282267D02*
X0251533Y0282167D01*
X0251567Y0282133D01*
X0251667Y0282133D01*
X0251483Y0282167D02*
X0251449Y0282200D01*
X0251383Y0282200D01*
X0251349Y0282233D01*
X0251383Y0282267D01*
X0251483Y0282267D01*
X0251483Y0282167D02*
X0251449Y0282133D01*
X0251349Y0282133D01*
X0251319Y0282433D02*
X0251452Y0282433D01*
X0251319Y0282433D02*
X0251319Y0282633D01*
X0251452Y0282633D01*
X0252147Y0282633D02*
X0252214Y0282567D01*
X0252281Y0282633D01*
X0252281Y0282433D01*
X0252331Y0282467D02*
X0252365Y0282500D01*
X0252465Y0282500D01*
X0252465Y0282533D02*
X0252465Y0282433D01*
X0252365Y0282433D01*
X0252331Y0282467D01*
X0252365Y0282567D02*
X0252432Y0282567D01*
X0252465Y0282533D01*
X0252516Y0282500D02*
X0252582Y0282567D01*
X0252616Y0282567D01*
X0252669Y0282533D02*
X0252669Y0282467D01*
X0252702Y0282433D01*
X0252803Y0282433D01*
X0252853Y0282467D02*
X0252887Y0282433D01*
X0252953Y0282433D01*
X0252987Y0282467D01*
X0252987Y0282533D01*
X0252953Y0282567D01*
X0252887Y0282567D01*
X0252853Y0282533D01*
X0252853Y0282467D01*
X0252803Y0282567D02*
X0252702Y0282567D01*
X0252669Y0282533D01*
X0252516Y0282567D02*
X0252516Y0282433D01*
X0252610Y0282367D02*
X0252610Y0282333D01*
X0252610Y0282267D02*
X0252610Y0282133D01*
X0252577Y0282133D02*
X0252644Y0282133D01*
X0252700Y0282167D02*
X0252733Y0282133D01*
X0252800Y0282133D01*
X0252833Y0282167D01*
X0252833Y0282233D01*
X0252800Y0282267D01*
X0252733Y0282267D01*
X0252700Y0282233D01*
X0252700Y0282167D01*
X0252610Y0282267D02*
X0252577Y0282267D01*
X0252521Y0282267D02*
X0252454Y0282267D01*
X0252488Y0282300D02*
X0252488Y0282167D01*
X0252521Y0282133D01*
X0252404Y0282167D02*
X0252370Y0282200D01*
X0252303Y0282200D01*
X0252270Y0282233D01*
X0252303Y0282267D01*
X0252404Y0282267D01*
X0252404Y0282167D02*
X0252370Y0282133D01*
X0252270Y0282133D01*
X0252186Y0282133D02*
X0252119Y0282133D01*
X0252086Y0282167D01*
X0252086Y0282233D01*
X0252119Y0282267D01*
X0252186Y0282267D01*
X0252219Y0282233D01*
X0252219Y0282200D01*
X0252086Y0282200D01*
X0252035Y0282100D02*
X0252002Y0282067D01*
X0251969Y0282067D01*
X0252147Y0282433D02*
X0252147Y0282633D01*
X0252884Y0282267D02*
X0252984Y0282267D01*
X0253017Y0282233D01*
X0253017Y0282133D01*
X0253068Y0282133D02*
X0253168Y0282133D01*
X0253202Y0282167D01*
X0253168Y0282200D01*
X0253101Y0282200D01*
X0253068Y0282233D01*
X0253101Y0282267D01*
X0253202Y0282267D01*
X0253222Y0282433D02*
X0253355Y0282433D01*
X0253406Y0282467D02*
X0253439Y0282433D01*
X0253539Y0282433D01*
X0253539Y0282567D01*
X0253590Y0282567D02*
X0253623Y0282567D01*
X0253623Y0282433D01*
X0253590Y0282433D02*
X0253657Y0282433D01*
X0253713Y0282433D02*
X0253813Y0282433D01*
X0253846Y0282467D01*
X0253813Y0282500D01*
X0253746Y0282500D01*
X0253713Y0282533D01*
X0253746Y0282567D01*
X0253846Y0282567D01*
X0253623Y0282633D02*
X0253623Y0282667D01*
X0253406Y0282567D02*
X0253406Y0282467D01*
X0253470Y0282300D02*
X0253470Y0282167D01*
X0253503Y0282133D01*
X0253559Y0282167D02*
X0253593Y0282133D01*
X0253659Y0282133D01*
X0253693Y0282167D01*
X0253693Y0282233D01*
X0253659Y0282267D01*
X0253593Y0282267D01*
X0253559Y0282233D01*
X0253559Y0282167D01*
X0253503Y0282267D02*
X0253436Y0282267D01*
X0253222Y0282433D02*
X0253222Y0282633D01*
X0253171Y0282533D02*
X0253037Y0282533D01*
X0252884Y0282267D02*
X0252884Y0282133D01*
X0253743Y0282133D02*
X0253743Y0282167D01*
X0253777Y0282167D01*
X0253777Y0282133D01*
X0253743Y0282133D01*
X0253743Y0282233D02*
X0253743Y0282267D01*
X0253777Y0282267D01*
X0253777Y0282233D01*
X0253743Y0282233D01*
X0254020Y0282300D02*
X0254086Y0282233D01*
X0254086Y0282133D01*
X0254086Y0282233D02*
X0254153Y0282300D01*
X0254153Y0282333D01*
X0254204Y0282333D02*
X0254204Y0282200D01*
X0254270Y0282133D01*
X0254337Y0282200D01*
X0254337Y0282333D01*
X0254388Y0282267D02*
X0254455Y0282333D01*
X0254455Y0282133D01*
X0254521Y0282133D02*
X0254388Y0282133D01*
X0254572Y0282133D02*
X0254572Y0282333D01*
X0254572Y0282233D02*
X0254705Y0282233D01*
X0254705Y0282333D02*
X0254705Y0282133D01*
X0254756Y0282133D02*
X0254890Y0282333D01*
X0254940Y0282300D02*
X0254974Y0282333D01*
X0255040Y0282333D01*
X0255074Y0282300D01*
X0255074Y0282233D01*
X0255040Y0282200D01*
X0255040Y0282267D01*
X0254974Y0282267D01*
X0254974Y0282200D01*
X0255040Y0282200D01*
X0255074Y0282167D02*
X0255040Y0282133D01*
X0254974Y0282133D01*
X0254940Y0282167D01*
X0254940Y0282300D01*
X0254951Y0282433D02*
X0254818Y0282433D01*
X0254818Y0282633D01*
X0254951Y0282633D01*
X0255002Y0282633D02*
X0255102Y0282633D01*
X0255135Y0282600D01*
X0255135Y0282467D01*
X0255102Y0282433D01*
X0255002Y0282433D01*
X0255002Y0282633D01*
X0254884Y0282533D02*
X0254818Y0282533D01*
X0254767Y0282467D02*
X0254733Y0282433D01*
X0254667Y0282433D01*
X0254633Y0282467D01*
X0254633Y0282600D01*
X0254667Y0282633D01*
X0254733Y0282633D01*
X0254767Y0282600D01*
X0254583Y0282433D02*
X0254449Y0282433D01*
X0254449Y0282633D01*
X0254399Y0282567D02*
X0254399Y0282433D01*
X0254399Y0282533D02*
X0254265Y0282533D01*
X0254265Y0282567D02*
X0254332Y0282633D01*
X0254399Y0282567D01*
X0254265Y0282567D02*
X0254265Y0282433D01*
X0254214Y0282467D02*
X0254181Y0282433D01*
X0254114Y0282433D01*
X0254081Y0282467D01*
X0254114Y0282533D02*
X0254181Y0282533D01*
X0254214Y0282500D01*
X0254214Y0282467D01*
X0254114Y0282533D02*
X0254081Y0282567D01*
X0254081Y0282600D01*
X0254114Y0282633D01*
X0254181Y0282633D01*
X0254214Y0282600D01*
X0254020Y0282333D02*
X0254020Y0282300D01*
X0254756Y0282333D02*
X0254890Y0282133D01*
X0255124Y0282167D02*
X0255158Y0282133D01*
X0255225Y0282133D01*
X0255258Y0282167D01*
X0255309Y0282133D02*
X0255309Y0282267D01*
X0255375Y0282333D01*
X0255442Y0282267D01*
X0255442Y0282133D01*
X0255493Y0282133D02*
X0255493Y0282333D01*
X0255626Y0282133D01*
X0255626Y0282333D01*
X0255677Y0282333D02*
X0255810Y0282333D01*
X0255861Y0282333D02*
X0255861Y0282200D01*
X0255928Y0282133D01*
X0255995Y0282200D01*
X0255995Y0282333D01*
X0255989Y0282433D02*
X0256056Y0282500D01*
X0256056Y0282633D01*
X0256107Y0282567D02*
X0256173Y0282633D01*
X0256240Y0282567D01*
X0256240Y0282433D01*
X0256291Y0282433D02*
X0256291Y0282633D01*
X0256391Y0282633D01*
X0256424Y0282600D01*
X0256424Y0282533D01*
X0256391Y0282500D01*
X0256291Y0282500D01*
X0256240Y0282533D02*
X0256107Y0282533D01*
X0256107Y0282567D02*
X0256107Y0282433D01*
X0256137Y0282333D02*
X0256271Y0282133D01*
X0256271Y0282333D01*
X0256321Y0282333D02*
X0256321Y0282133D01*
X0256455Y0282133D01*
X0256572Y0282133D02*
X0256572Y0282333D01*
X0256506Y0282333D02*
X0256639Y0282333D01*
X0256508Y0282433D02*
X0256475Y0282433D01*
X0256475Y0282467D01*
X0256508Y0282467D01*
X0256508Y0282433D01*
X0256424Y0282433D02*
X0256357Y0282500D01*
X0256321Y0282333D02*
X0256455Y0282333D01*
X0256388Y0282233D02*
X0256321Y0282233D01*
X0256137Y0282133D02*
X0256137Y0282333D01*
X0256079Y0282167D02*
X0256079Y0282133D01*
X0256045Y0282133D01*
X0256045Y0282167D01*
X0256079Y0282167D01*
X0255989Y0282433D02*
X0255922Y0282500D01*
X0255922Y0282633D01*
X0255872Y0282600D02*
X0255838Y0282633D01*
X0255772Y0282633D01*
X0255738Y0282600D01*
X0255738Y0282467D01*
X0255772Y0282433D01*
X0255838Y0282433D01*
X0255872Y0282467D01*
X0255872Y0282600D01*
X0255688Y0282633D02*
X0255554Y0282633D01*
X0255621Y0282633D02*
X0255621Y0282433D01*
X0255744Y0282333D02*
X0255744Y0282133D01*
X0255442Y0282233D02*
X0255309Y0282233D01*
X0255258Y0282300D02*
X0255225Y0282333D01*
X0255158Y0282333D01*
X0255124Y0282300D01*
X0255124Y0282167D01*
X0255219Y0282433D02*
X0255286Y0282433D01*
X0255319Y0282467D01*
X0255319Y0282600D01*
X0255286Y0282633D01*
X0255219Y0282633D01*
X0255186Y0282600D01*
X0255186Y0282467D01*
X0255219Y0282433D01*
X0250068Y0282267D02*
X0250035Y0282267D01*
X0249968Y0282200D01*
X0249968Y0282133D02*
X0249968Y0282267D01*
X0249915Y0282267D02*
X0249881Y0282267D01*
X0249815Y0282200D01*
X0249764Y0282200D02*
X0249631Y0282200D01*
X0249631Y0282167D02*
X0249631Y0282233D01*
X0249664Y0282267D01*
X0249731Y0282267D01*
X0249764Y0282233D01*
X0249764Y0282200D01*
X0249731Y0282133D02*
X0249664Y0282133D01*
X0249631Y0282167D01*
X0249815Y0282133D02*
X0249815Y0282267D01*
X0077747Y0016658D02*
X0077714Y0016658D01*
X0077697Y0016641D01*
X0077747Y0016658D02*
X0077764Y0016641D01*
X0077764Y0016624D01*
X0077697Y0016558D01*
X0077764Y0016558D01*
X0077669Y0016558D02*
X0077652Y0016558D01*
X0077652Y0016574D01*
X0077669Y0016574D01*
X0077669Y0016558D01*
X0077636Y0016524D01*
X0077610Y0016558D02*
X0077544Y0016558D01*
X0077577Y0016558D02*
X0077577Y0016658D01*
X0077544Y0016624D01*
X0077518Y0016658D02*
X0077451Y0016558D01*
X0077426Y0016641D02*
X0077359Y0016574D01*
X0077359Y0016558D01*
X0077334Y0016558D02*
X0077267Y0016558D01*
X0077239Y0016558D02*
X0077223Y0016558D01*
X0077223Y0016574D01*
X0077239Y0016574D01*
X0077239Y0016558D01*
X0077206Y0016524D01*
X0077164Y0016558D02*
X0077131Y0016558D01*
X0077114Y0016574D01*
X0077088Y0016574D02*
X0077088Y0016641D01*
X0077072Y0016658D01*
X0077022Y0016658D01*
X0077022Y0016558D01*
X0077072Y0016558D01*
X0077088Y0016574D01*
X0077147Y0016608D02*
X0077164Y0016608D01*
X0077181Y0016591D01*
X0077181Y0016574D01*
X0077164Y0016558D01*
X0077164Y0016608D02*
X0077181Y0016624D01*
X0077181Y0016641D01*
X0077164Y0016658D01*
X0077131Y0016658D01*
X0077114Y0016641D01*
X0076996Y0016624D02*
X0076996Y0016558D01*
X0076996Y0016608D02*
X0076930Y0016608D01*
X0076930Y0016624D02*
X0076963Y0016658D01*
X0076996Y0016624D01*
X0076930Y0016624D02*
X0076930Y0016558D01*
X0076888Y0016591D02*
X0076838Y0016591D01*
X0076838Y0016558D02*
X0076838Y0016658D01*
X0076888Y0016658D01*
X0076904Y0016641D01*
X0076904Y0016608D01*
X0076888Y0016591D01*
X0076812Y0016558D02*
X0076746Y0016558D01*
X0076746Y0016658D01*
X0076812Y0016658D01*
X0076779Y0016608D02*
X0076746Y0016608D01*
X0076720Y0016608D02*
X0076703Y0016591D01*
X0076653Y0016591D01*
X0076653Y0016558D02*
X0076653Y0016658D01*
X0076703Y0016658D01*
X0076720Y0016641D01*
X0076720Y0016608D01*
X0076687Y0016591D02*
X0076720Y0016558D01*
X0076625Y0016558D02*
X0076592Y0016558D01*
X0076609Y0016558D02*
X0076609Y0016658D01*
X0076625Y0016658D02*
X0076592Y0016658D01*
X0076567Y0016658D02*
X0076567Y0016558D01*
X0076533Y0016591D01*
X0076500Y0016558D01*
X0076500Y0016658D01*
X0077267Y0016624D02*
X0077301Y0016658D01*
X0077301Y0016558D01*
X0077359Y0016658D02*
X0077426Y0016658D01*
X0077426Y0016641D01*
X0057764Y0016641D02*
X0057747Y0016658D01*
X0057714Y0016658D01*
X0057697Y0016641D01*
X0057764Y0016641D02*
X0057764Y0016624D01*
X0057697Y0016558D01*
X0057764Y0016558D01*
X0057669Y0016558D02*
X0057652Y0016558D01*
X0057652Y0016574D01*
X0057669Y0016574D01*
X0057669Y0016558D01*
X0057636Y0016524D01*
X0057610Y0016558D02*
X0057544Y0016558D01*
X0057577Y0016558D02*
X0057577Y0016658D01*
X0057544Y0016624D01*
X0057518Y0016658D02*
X0057451Y0016558D01*
X0057426Y0016641D02*
X0057359Y0016574D01*
X0057359Y0016558D01*
X0057334Y0016558D02*
X0057267Y0016558D01*
X0057239Y0016558D02*
X0057223Y0016558D01*
X0057223Y0016574D01*
X0057239Y0016574D01*
X0057239Y0016558D01*
X0057206Y0016524D01*
X0057164Y0016558D02*
X0057131Y0016558D01*
X0057114Y0016574D01*
X0057088Y0016574D02*
X0057088Y0016641D01*
X0057072Y0016658D01*
X0057022Y0016658D01*
X0057022Y0016558D01*
X0057072Y0016558D01*
X0057088Y0016574D01*
X0057147Y0016608D02*
X0057164Y0016608D01*
X0057181Y0016591D01*
X0057181Y0016574D01*
X0057164Y0016558D01*
X0057164Y0016608D02*
X0057181Y0016624D01*
X0057181Y0016641D01*
X0057164Y0016658D01*
X0057131Y0016658D01*
X0057114Y0016641D01*
X0056996Y0016624D02*
X0056996Y0016558D01*
X0056996Y0016608D02*
X0056930Y0016608D01*
X0056930Y0016624D02*
X0056963Y0016658D01*
X0056996Y0016624D01*
X0056930Y0016624D02*
X0056930Y0016558D01*
X0056888Y0016591D02*
X0056838Y0016591D01*
X0056838Y0016558D02*
X0056838Y0016658D01*
X0056888Y0016658D01*
X0056904Y0016641D01*
X0056904Y0016608D01*
X0056888Y0016591D01*
X0056812Y0016558D02*
X0056746Y0016558D01*
X0056746Y0016658D01*
X0056812Y0016658D01*
X0056779Y0016608D02*
X0056746Y0016608D01*
X0056720Y0016608D02*
X0056703Y0016591D01*
X0056653Y0016591D01*
X0056653Y0016558D02*
X0056653Y0016658D01*
X0056703Y0016658D01*
X0056720Y0016641D01*
X0056720Y0016608D01*
X0056687Y0016591D02*
X0056720Y0016558D01*
X0056625Y0016558D02*
X0056592Y0016558D01*
X0056609Y0016558D02*
X0056609Y0016658D01*
X0056625Y0016658D02*
X0056592Y0016658D01*
X0056567Y0016658D02*
X0056567Y0016558D01*
X0056533Y0016591D01*
X0056500Y0016558D01*
X0056500Y0016658D01*
X0057267Y0016624D02*
X0057301Y0016658D01*
X0057301Y0016558D01*
X0057359Y0016658D02*
X0057426Y0016658D01*
X0057426Y0016641D01*
D19*
X0216500Y0121833D02*
X0226500Y0121833D01*
X0221500Y0126833D02*
X0221500Y0116833D01*
X0276500Y0121833D02*
X0286500Y0121833D01*
X0281500Y0126833D02*
X0281500Y0116833D01*
X0281500Y0276833D02*
X0281500Y0286833D01*
X0226500Y0281833D02*
X0216500Y0281833D01*
X0221500Y0286833D02*
X0221500Y0276833D01*
D20*
X0187700Y0249333D02*
X0187700Y0246833D01*
X0187700Y0244333D01*
X0185200Y0244333D02*
X0185200Y0246833D01*
X0185200Y0249333D01*
X0190300Y0184333D02*
X0190300Y0181833D01*
X0190300Y0179333D01*
X0192800Y0179333D02*
X0192800Y0181833D01*
X0192800Y0184333D01*
X0192700Y0154333D02*
X0192700Y0151833D01*
X0192700Y0149333D01*
X0190200Y0149333D02*
X0190200Y0151833D01*
X0190200Y0154333D01*
X0204000Y0093033D02*
X0206500Y0093033D01*
X0209000Y0093033D01*
X0209000Y0090533D02*
X0206500Y0090533D01*
X0204000Y0090533D01*
X0229000Y0090533D02*
X0231500Y0090533D01*
X0234000Y0090533D01*
X0234000Y0093033D02*
X0231500Y0093033D01*
X0229000Y0093033D01*
X0259000Y0093033D02*
X0261500Y0093033D01*
X0264000Y0093033D01*
X0264000Y0090533D02*
X0261500Y0090533D01*
X0259000Y0090533D01*
X0097800Y0029333D02*
X0097800Y0026833D01*
X0097800Y0024333D01*
X0095300Y0024333D02*
X0095300Y0026833D01*
X0095300Y0029333D01*
D21*
X0097900Y0013437D02*
X0100702Y0013437D01*
X0100702Y0012736D01*
X0097900Y0009934D01*
X0097900Y0009233D01*
X0102504Y0009233D02*
X0103205Y0009233D01*
X0103205Y0009934D01*
X0102504Y0009934D01*
X0102504Y0009233D01*
X0104806Y0009233D02*
X0105506Y0009233D01*
X0105506Y0009934D01*
X0104806Y0009934D01*
X0104806Y0009233D01*
X0107108Y0009233D02*
X0107808Y0009233D01*
X0107808Y0009934D01*
X0107108Y0009934D01*
X0107108Y0009233D01*
X0109410Y0009233D02*
X0112212Y0009233D01*
X0110811Y0009233D02*
X0110811Y0013437D01*
X0109410Y0012036D01*
X0114014Y0012036D02*
X0114714Y0011335D01*
X0116116Y0011335D01*
X0116816Y0010635D01*
X0116816Y0009934D01*
X0116116Y0009233D01*
X0114714Y0009233D01*
X0114014Y0009934D01*
X0114014Y0010635D01*
X0114714Y0011335D01*
X0114014Y0012036D02*
X0114014Y0012736D01*
X0114714Y0013437D01*
X0116116Y0013437D01*
X0116816Y0012736D01*
X0116816Y0012036D01*
X0116116Y0011335D01*
X0118618Y0010635D02*
X0118618Y0013437D01*
X0121420Y0013437D02*
X0121420Y0010635D01*
X0120019Y0009233D01*
X0118618Y0010635D01*
X0134000Y0028833D02*
X0139000Y0028833D01*
X0144000Y0028833D02*
X0149000Y0028833D01*
X0146500Y0031333D02*
X0146500Y0026333D01*
X0128705Y0021833D02*
X0128709Y0022147D01*
X0128720Y0022461D01*
X0128740Y0022774D01*
X0128767Y0023087D01*
X0128801Y0023399D01*
X0128843Y0023710D01*
X0128893Y0024020D01*
X0128951Y0024329D01*
X0129016Y0024636D01*
X0129088Y0024942D01*
X0129168Y0025246D01*
X0129256Y0025547D01*
X0129351Y0025847D01*
X0129453Y0026144D01*
X0129562Y0026438D01*
X0129679Y0026729D01*
X0129803Y0027018D01*
X0129933Y0027304D01*
X0130071Y0027586D01*
X0130216Y0027865D01*
X0130367Y0028140D01*
X0130525Y0028411D01*
X0130690Y0028678D01*
X0130861Y0028942D01*
X0131039Y0029200D01*
X0131223Y0029455D01*
X0131413Y0029705D01*
X0131609Y0029950D01*
X0131812Y0030190D01*
X0132020Y0030426D01*
X0132233Y0030656D01*
X0132453Y0030880D01*
X0132677Y0031100D01*
X0132907Y0031313D01*
X0133143Y0031521D01*
X0133383Y0031724D01*
X0133628Y0031920D01*
X0133878Y0032110D01*
X0134133Y0032294D01*
X0134391Y0032472D01*
X0134655Y0032643D01*
X0134922Y0032808D01*
X0135193Y0032966D01*
X0135468Y0033117D01*
X0135747Y0033262D01*
X0136029Y0033400D01*
X0136315Y0033530D01*
X0136604Y0033654D01*
X0136895Y0033771D01*
X0137189Y0033880D01*
X0137486Y0033982D01*
X0137786Y0034077D01*
X0138087Y0034165D01*
X0138391Y0034245D01*
X0138697Y0034317D01*
X0139004Y0034382D01*
X0139313Y0034440D01*
X0139623Y0034490D01*
X0139934Y0034532D01*
X0140246Y0034566D01*
X0140559Y0034593D01*
X0140872Y0034613D01*
X0141186Y0034624D01*
X0141500Y0034628D01*
X0141814Y0034624D01*
X0142128Y0034613D01*
X0142441Y0034593D01*
X0142754Y0034566D01*
X0143066Y0034532D01*
X0143377Y0034490D01*
X0143687Y0034440D01*
X0143996Y0034382D01*
X0144303Y0034317D01*
X0144609Y0034245D01*
X0144913Y0034165D01*
X0145214Y0034077D01*
X0145514Y0033982D01*
X0145811Y0033880D01*
X0146105Y0033771D01*
X0146396Y0033654D01*
X0146685Y0033530D01*
X0146971Y0033400D01*
X0147253Y0033262D01*
X0147532Y0033117D01*
X0147807Y0032966D01*
X0148078Y0032808D01*
X0148345Y0032643D01*
X0148609Y0032472D01*
X0148867Y0032294D01*
X0149122Y0032110D01*
X0149372Y0031920D01*
X0149617Y0031724D01*
X0149857Y0031521D01*
X0150093Y0031313D01*
X0150323Y0031100D01*
X0150547Y0030880D01*
X0150767Y0030656D01*
X0150980Y0030426D01*
X0151188Y0030190D01*
X0151391Y0029950D01*
X0151587Y0029705D01*
X0151777Y0029455D01*
X0151961Y0029200D01*
X0152139Y0028942D01*
X0152310Y0028678D01*
X0152475Y0028411D01*
X0152633Y0028140D01*
X0152784Y0027865D01*
X0152929Y0027586D01*
X0153067Y0027304D01*
X0153197Y0027018D01*
X0153321Y0026729D01*
X0153438Y0026438D01*
X0153547Y0026144D01*
X0153649Y0025847D01*
X0153744Y0025547D01*
X0153832Y0025246D01*
X0153912Y0024942D01*
X0153984Y0024636D01*
X0154049Y0024329D01*
X0154107Y0024020D01*
X0154157Y0023710D01*
X0154199Y0023399D01*
X0154233Y0023087D01*
X0154260Y0022774D01*
X0154280Y0022461D01*
X0154291Y0022147D01*
X0154295Y0021833D01*
X0154291Y0021519D01*
X0154280Y0021205D01*
X0154260Y0020892D01*
X0154233Y0020579D01*
X0154199Y0020267D01*
X0154157Y0019956D01*
X0154107Y0019646D01*
X0154049Y0019337D01*
X0153984Y0019030D01*
X0153912Y0018724D01*
X0153832Y0018420D01*
X0153744Y0018119D01*
X0153649Y0017819D01*
X0153547Y0017522D01*
X0153438Y0017228D01*
X0153321Y0016937D01*
X0153197Y0016648D01*
X0153067Y0016362D01*
X0152929Y0016080D01*
X0152784Y0015801D01*
X0152633Y0015526D01*
X0152475Y0015255D01*
X0152310Y0014988D01*
X0152139Y0014724D01*
X0151961Y0014466D01*
X0151777Y0014211D01*
X0151587Y0013961D01*
X0151391Y0013716D01*
X0151188Y0013476D01*
X0150980Y0013240D01*
X0150767Y0013010D01*
X0150547Y0012786D01*
X0150323Y0012566D01*
X0150093Y0012353D01*
X0149857Y0012145D01*
X0149617Y0011942D01*
X0149372Y0011746D01*
X0149122Y0011556D01*
X0148867Y0011372D01*
X0148609Y0011194D01*
X0148345Y0011023D01*
X0148078Y0010858D01*
X0147807Y0010700D01*
X0147532Y0010549D01*
X0147253Y0010404D01*
X0146971Y0010266D01*
X0146685Y0010136D01*
X0146396Y0010012D01*
X0146105Y0009895D01*
X0145811Y0009786D01*
X0145514Y0009684D01*
X0145214Y0009589D01*
X0144913Y0009501D01*
X0144609Y0009421D01*
X0144303Y0009349D01*
X0143996Y0009284D01*
X0143687Y0009226D01*
X0143377Y0009176D01*
X0143066Y0009134D01*
X0142754Y0009100D01*
X0142441Y0009073D01*
X0142128Y0009053D01*
X0141814Y0009042D01*
X0141500Y0009038D01*
X0141186Y0009042D01*
X0140872Y0009053D01*
X0140559Y0009073D01*
X0140246Y0009100D01*
X0139934Y0009134D01*
X0139623Y0009176D01*
X0139313Y0009226D01*
X0139004Y0009284D01*
X0138697Y0009349D01*
X0138391Y0009421D01*
X0138087Y0009501D01*
X0137786Y0009589D01*
X0137486Y0009684D01*
X0137189Y0009786D01*
X0136895Y0009895D01*
X0136604Y0010012D01*
X0136315Y0010136D01*
X0136029Y0010266D01*
X0135747Y0010404D01*
X0135468Y0010549D01*
X0135193Y0010700D01*
X0134922Y0010858D01*
X0134655Y0011023D01*
X0134391Y0011194D01*
X0134133Y0011372D01*
X0133878Y0011556D01*
X0133628Y0011746D01*
X0133383Y0011942D01*
X0133143Y0012145D01*
X0132907Y0012353D01*
X0132677Y0012566D01*
X0132453Y0012786D01*
X0132233Y0013010D01*
X0132020Y0013240D01*
X0131812Y0013476D01*
X0131609Y0013716D01*
X0131413Y0013961D01*
X0131223Y0014211D01*
X0131039Y0014466D01*
X0130861Y0014724D01*
X0130690Y0014988D01*
X0130525Y0015255D01*
X0130367Y0015526D01*
X0130216Y0015801D01*
X0130071Y0016080D01*
X0129933Y0016362D01*
X0129803Y0016648D01*
X0129679Y0016937D01*
X0129562Y0017228D01*
X0129453Y0017522D01*
X0129351Y0017819D01*
X0129256Y0018119D01*
X0129168Y0018420D01*
X0129088Y0018724D01*
X0129016Y0019030D01*
X0128951Y0019337D01*
X0128893Y0019646D01*
X0128843Y0019956D01*
X0128801Y0020267D01*
X0128767Y0020579D01*
X0128740Y0020892D01*
X0128720Y0021205D01*
X0128709Y0021519D01*
X0128705Y0021833D01*
X0161500Y0019333D02*
X0161500Y0014333D01*
X0164000Y0011833D01*
X0169000Y0011833D01*
X0171500Y0014333D01*
X0174000Y0011833D01*
X0179000Y0011833D01*
X0181500Y0014333D01*
X0181500Y0019333D01*
X0179000Y0021833D01*
X0174000Y0021833D01*
X0171500Y0019333D01*
X0169000Y0021833D01*
X0164000Y0021833D01*
X0161500Y0019333D01*
X0071500Y0024333D02*
X0071500Y0029333D01*
X0069000Y0031833D01*
X0064000Y0031833D01*
X0061500Y0029333D01*
X0059000Y0031833D01*
X0054000Y0031833D01*
X0051500Y0029333D01*
X0051500Y0024333D01*
X0054000Y0021833D01*
X0059000Y0021833D01*
X0061500Y0024333D01*
X0064000Y0021833D01*
X0069000Y0021833D01*
X0071500Y0024333D01*
X0039217Y0032070D02*
X0003783Y0032070D01*
X0003783Y0261597D01*
X0038823Y0261597D01*
X0039217Y0261597D02*
X0039217Y0032070D01*
X0009689Y0138172D02*
X0003783Y0138172D01*
X0009689Y0138172D02*
X0009689Y0155495D01*
X0003783Y0155495D01*
X0010575Y0239333D02*
X0010575Y0244333D01*
X0180217Y0229605D02*
X0180217Y0229044D01*
X0180217Y0229605D02*
X0194783Y0229605D01*
X0194783Y0229044D01*
X0194783Y0196623D02*
X0194783Y0196062D01*
X0180217Y0196062D01*
X0180217Y0196623D01*
X0180217Y0139605D02*
X0180217Y0139044D01*
X0180217Y0139605D02*
X0194783Y0139605D01*
X0194783Y0139044D01*
X0194783Y0106623D02*
X0194783Y0106062D01*
X0180217Y0106062D01*
X0180217Y0106623D01*
X0277500Y0091833D02*
X0278500Y0091833D01*
X0278500Y0094833D01*
X0298500Y0094833D01*
X0298500Y0091833D01*
X0299500Y0091833D01*
X0298500Y0091833D02*
X0298500Y0088833D01*
X0278500Y0088833D01*
X0278500Y0091833D01*
X0308783Y0103172D02*
X0308783Y0072070D01*
X0344217Y0072070D01*
X0344217Y0151597D01*
X0343823Y0151597D02*
X0308783Y0151597D01*
X0308783Y0120495D01*
X0314689Y0120495D01*
X0314689Y0103172D01*
X0308783Y0103172D01*
X0308783Y0120495D01*
X0315575Y0129333D02*
X0315575Y0134333D01*
X0315000Y0163833D02*
X0302000Y0163833D01*
X0302000Y0249833D01*
X0315000Y0249833D01*
X0328000Y0249833D01*
X0328000Y0247833D01*
X0315000Y0247833D01*
X0315000Y0249833D01*
X0314000Y0244833D02*
X0329000Y0244833D01*
X0329000Y0238833D01*
X0314000Y0238833D01*
X0314000Y0244833D01*
X0314000Y0234833D02*
X0329000Y0234833D01*
X0329000Y0228833D01*
X0314000Y0228833D01*
X0314000Y0234833D01*
X0314000Y0224833D02*
X0329000Y0224833D01*
X0329000Y0218833D01*
X0314000Y0218833D01*
X0314000Y0224833D01*
X0314000Y0214833D02*
X0329000Y0214833D01*
X0329000Y0208833D01*
X0314000Y0208833D01*
X0314000Y0214833D01*
X0314000Y0204833D02*
X0329000Y0204833D01*
X0329000Y0198833D01*
X0314000Y0198833D01*
X0314000Y0204833D01*
X0314000Y0194833D02*
X0329000Y0194833D01*
X0329000Y0188833D01*
X0314000Y0188833D01*
X0314000Y0194833D01*
X0314000Y0184833D02*
X0329000Y0184833D01*
X0329000Y0178833D01*
X0314000Y0178833D01*
X0314000Y0184833D01*
X0314000Y0174833D02*
X0329000Y0174833D01*
X0329000Y0168833D01*
X0314000Y0168833D01*
X0314000Y0174833D01*
X0315000Y0165833D02*
X0315000Y0163833D01*
X0328000Y0163833D01*
X0341000Y0163833D01*
X0341000Y0249833D01*
X0328000Y0249833D01*
X0328000Y0165833D02*
X0315000Y0165833D01*
X0328000Y0165833D02*
X0328000Y0163833D01*
X0329000Y0056833D02*
X0334000Y0056833D01*
X0336500Y0054333D01*
X0336500Y0049333D01*
X0334000Y0046833D01*
X0329000Y0046833D01*
X0326500Y0049333D01*
X0324000Y0046833D01*
X0319000Y0046833D01*
X0316500Y0049333D01*
X0316500Y0054333D01*
X0319000Y0056833D01*
X0324000Y0056833D01*
X0326500Y0054333D01*
X0329000Y0056833D01*
D22*
X0327250Y0171833D03*
X0324750Y0171833D03*
X0322250Y0171833D03*
X0322250Y0181833D03*
X0324750Y0181833D03*
X0327250Y0181833D03*
X0327250Y0191833D03*
X0324750Y0191833D03*
X0322250Y0191833D03*
X0322250Y0201833D03*
X0324750Y0201833D03*
X0327250Y0201833D03*
X0327250Y0211833D03*
X0324750Y0211833D03*
X0322250Y0211833D03*
X0322250Y0221833D03*
X0324750Y0221833D03*
X0327250Y0221833D03*
X0327250Y0231833D03*
X0324750Y0231833D03*
X0322250Y0231833D03*
X0322250Y0241833D03*
X0324750Y0241833D03*
X0327250Y0241833D03*
D23*
X0183366Y0226377D03*
X0183366Y0136377D03*
M02*
