%
M48
M72
T01C0.0150
T02C0.0276
T03C0.0315
T04C0.0320
T05C0.0354
T06C0.0382
T07C0.0400
T08C0.0470
T09C0.1500
%
T01
X6900Y9183
X6900Y10183
X6900Y11183
X6900Y12183
X6900Y13183
X6900Y14183
X6900Y15183
X6900Y16183
X6900Y17183
X6900Y18183
X6900Y19183
X6900Y20183
X6900Y21183
X6900Y22183
X6900Y23183
X6900Y24183
X9650Y24183
X9650Y23183
X9650Y22183
X9650Y21183
X9650Y20183
X9650Y19183
X9650Y18183
X9650Y17183
X9650Y16183
X9650Y15183
X9650Y14183
X9650Y13183
X9650Y12183
X9650Y11183
X9650Y10183
X9650Y9183
X12400Y9183
X12400Y10183
X12400Y11183
X12400Y12183
X12400Y13183
X12400Y14183
X12400Y15183
X12400Y16183
X12400Y17183
X12400Y18183
X12400Y19183
X12400Y20183
X12400Y21183
X12400Y22183
X12400Y23183
X12400Y24183
X15150Y24183
X15650Y23683
X15150Y23183
X15650Y22683
X15150Y22183
X15650Y21683
X15150Y21183
X15650Y20683
X15150Y20183
X15650Y19683
X15150Y19183
X15650Y18683
X15150Y18183
X15150Y17683
X15650Y17683
X15150Y17183
X15650Y16683
X15150Y16183
X15650Y15683
X15150Y15183
X15650Y14683
X15650Y13683
X15650Y12683
X15650Y11683
X14900Y11683
X14900Y10683
X15650Y10683
X16400Y9183
X15650Y8683
X18900Y10183
X19150Y9683
X20900Y11933
X20650Y12683
X20400Y13183
X19150Y12433
X18400Y12183
X18400Y12933
X20400Y14183
X21650Y14683
X24150Y17183
X24650Y17683
X24150Y20183
X21150Y21433
X20900Y22183
X20400Y23183
X19650Y23683
X18900Y22183
X18650Y21183
X18400Y20433
X20650Y20433
X20650Y18933
X26650Y23183
X31150Y7683
T02
X14642Y2183
X13658Y2183
T03
X22150Y13183
X22150Y14183
X22150Y15183
X22150Y16183
X22150Y17183
X22150Y18183
X22150Y19183
X22150Y20183
X22150Y21183
X22150Y22183
X22150Y23183
X22150Y24183
X22150Y25183
X22150Y26183
X22150Y27183
X28150Y27183
X28150Y26183
X28150Y25183
X28150Y24183
X28150Y23183
X28150Y22183
X28150Y21183
X28150Y20183
X28150Y19183
X28150Y18183
X28150Y17183
X28150Y16183
X28150Y15183
X28150Y14183
X28150Y13183
T04
X26150Y10183
X26150Y8183
X23150Y8183
X23150Y10183
X20650Y10183
X20650Y8183
X20150Y15183
X18150Y15183
X18150Y18183
X20150Y18183
X19650Y24683
X17650Y24683
X10650Y2683
X8650Y2683
T05
X27350Y9183
X30350Y9183
T06
X30650Y17183
X30650Y18183
X30650Y19183
X30650Y20183
X30650Y21183
X30650Y22183
X30650Y23183
X30650Y24183
X33650Y24183
X33650Y23183
X33650Y22183
X33650Y21183
X33650Y20183
X33650Y19183
X33650Y18183
X33650Y17183
T07
X33150Y13183
X33150Y12183
X33150Y11183
X32150Y11183
X32150Y12183
X32150Y13183
X32150Y10183
X32150Y9183
X33150Y9183
X33150Y10183
X28150Y6183
X27150Y6183
X26150Y6183
X25150Y6183
X24150Y6183
X23150Y6183
X22150Y6183
X21150Y6183
X20150Y6183
X19150Y6183
X19150Y5183
X20150Y5183
X20150Y4183
X19150Y4183
X19150Y3183
X20150Y3183
X21150Y3183
X22150Y3183
X23150Y3183
X24150Y3183
X25150Y3183
X26150Y3183
X27150Y3183
X28150Y3183
X28150Y4183
X27150Y4183
X26150Y4183
X25150Y4183
X24150Y4183
X23150Y4183
X22150Y4183
X21150Y4183
X21150Y5183
X22150Y5183
X23150Y5183
X24150Y5183
X25150Y5183
X26150Y5183
X27150Y5183
X28150Y5183
X32150Y5183
X33150Y5183
X17650Y1683
X16650Y1683
X16650Y7183
X15650Y7183
X14650Y7183
X13650Y7183
X12650Y7183
X11650Y7183
X10650Y7183
X9650Y7183
X8650Y7183
X7650Y7183
X6650Y7183
X5650Y7183
X2650Y7183
X2650Y6183
X1650Y6183
X1650Y7183
X1650Y8183
X2650Y8183
X2650Y9183
X1650Y9183
X1650Y10183
X2650Y10183
X2650Y11183
X1650Y11183
X1650Y12183
X2650Y12183
X2650Y13183
X1650Y13183
X1650Y14183
X2650Y14183
X2650Y15183
X1650Y15183
X1650Y16183
X2650Y16183
X2650Y17183
X1650Y17183
X1650Y18183
X2650Y18183
X2650Y19183
X1650Y19183
X1650Y20183
X2650Y20183
X2650Y21183
X1650Y21183
X1650Y22183
X2650Y22183
X2650Y23183
X1650Y23183
X1650Y24183
X2650Y24183
X2650Y5183
X1650Y5183
X5650Y2683
X6650Y2683
T08
X5650Y1183
X7650Y1183
T09
X1650Y1683
X1650Y27683
X33150Y27683
X33150Y1683
M30
