G75*
%MOIN*%
%OFA0B0*%
%FSLAX25Y25*%
%IPPOS*%
%LPD*%
%AMOC8*
5,1,8,0,0,1.08239X$1,22.5*
%
%ADD10C,0.05150*%
%ADD11C,0.06300*%
%ADD12C,0.06500*%
%ADD13C,0.07400*%
%ADD14C,0.05819*%
%ADD15C,0.07000*%
%ADD16C,0.12500*%
%ADD17C,0.01000*%
%ADD18C,0.03500*%
%ADD19C,0.02000*%
D10*
X0221500Y0131833D03*
X0221500Y0141833D03*
X0221500Y0151833D03*
X0221500Y0161833D03*
X0221500Y0171833D03*
X0221500Y0181833D03*
X0221500Y0191833D03*
X0221500Y0201833D03*
X0221500Y0211833D03*
X0221500Y0221833D03*
X0221500Y0231833D03*
X0221500Y0241833D03*
X0221500Y0251833D03*
X0221500Y0261833D03*
X0221500Y0271833D03*
X0281500Y0271833D03*
X0281500Y0261833D03*
X0281500Y0251833D03*
X0281500Y0241833D03*
X0281500Y0231833D03*
X0281500Y0221833D03*
X0281500Y0211833D03*
X0281500Y0201833D03*
X0281500Y0191833D03*
X0281500Y0181833D03*
X0281500Y0171833D03*
X0281500Y0161833D03*
X0281500Y0151833D03*
X0281500Y0141833D03*
X0281500Y0131833D03*
D11*
X0261500Y0101833D03*
X0261500Y0081833D03*
X0231500Y0081833D03*
X0231500Y0101833D03*
X0206500Y0101833D03*
X0206500Y0081833D03*
X0201500Y0151833D03*
X0181500Y0151833D03*
X0181500Y0181833D03*
X0201500Y0181833D03*
X0196500Y0246833D03*
X0176500Y0246833D03*
X0106500Y0026833D03*
X0086500Y0026833D03*
D12*
X0136579Y0021833D03*
X0146421Y0021833D03*
D13*
X0166500Y0016833D03*
X0176500Y0016833D03*
X0191500Y0031833D03*
X0201500Y0031833D03*
X0211500Y0031833D03*
X0221500Y0031833D03*
X0231500Y0031833D03*
X0241500Y0031833D03*
X0251500Y0031833D03*
X0261500Y0031833D03*
X0271500Y0031833D03*
X0281500Y0031833D03*
X0281500Y0041833D03*
X0271500Y0041833D03*
X0261500Y0041833D03*
X0251500Y0041833D03*
X0241500Y0041833D03*
X0231500Y0041833D03*
X0221500Y0041833D03*
X0211500Y0041833D03*
X0201500Y0041833D03*
X0191500Y0041833D03*
X0191500Y0051833D03*
X0201500Y0051833D03*
X0211500Y0051833D03*
X0221500Y0051833D03*
X0231500Y0051833D03*
X0241500Y0051833D03*
X0251500Y0051833D03*
X0261500Y0051833D03*
X0271500Y0051833D03*
X0281500Y0051833D03*
X0281500Y0061833D03*
X0271500Y0061833D03*
X0261500Y0061833D03*
X0251500Y0061833D03*
X0241500Y0061833D03*
X0231500Y0061833D03*
X0221500Y0061833D03*
X0211500Y0061833D03*
X0201500Y0061833D03*
X0191500Y0061833D03*
X0273500Y0091833D03*
X0303500Y0091833D03*
X0321500Y0091833D03*
X0331500Y0091833D03*
X0331500Y0101833D03*
X0321500Y0101833D03*
X0321500Y0111833D03*
X0331500Y0111833D03*
X0331500Y0121833D03*
X0321500Y0121833D03*
X0321500Y0131833D03*
X0331500Y0131833D03*
X0331500Y0051833D03*
X0321500Y0051833D03*
X0066500Y0026833D03*
X0056500Y0026833D03*
X0026500Y0051833D03*
X0016500Y0051833D03*
X0016500Y0061833D03*
X0026500Y0061833D03*
X0026500Y0071833D03*
X0016500Y0071833D03*
X0016500Y0081833D03*
X0026500Y0081833D03*
X0026500Y0091833D03*
X0016500Y0091833D03*
X0016500Y0101833D03*
X0026500Y0101833D03*
X0026500Y0111833D03*
X0016500Y0111833D03*
X0016500Y0121833D03*
X0026500Y0121833D03*
X0026500Y0131833D03*
X0016500Y0131833D03*
X0016500Y0141833D03*
X0026500Y0141833D03*
X0026500Y0151833D03*
X0016500Y0151833D03*
X0016500Y0161833D03*
X0026500Y0161833D03*
X0026500Y0171833D03*
X0016500Y0171833D03*
X0016500Y0181833D03*
X0026500Y0181833D03*
X0026500Y0191833D03*
X0016500Y0191833D03*
X0016500Y0201833D03*
X0026500Y0201833D03*
X0026500Y0211833D03*
X0016500Y0211833D03*
X0016500Y0221833D03*
X0026500Y0221833D03*
X0026500Y0231833D03*
X0016500Y0231833D03*
X0016500Y0241833D03*
X0026500Y0241833D03*
D14*
X0306500Y0241833D03*
X0306500Y0231833D03*
X0306500Y0221833D03*
X0306500Y0211833D03*
X0306500Y0201833D03*
X0306500Y0191833D03*
X0306500Y0181833D03*
X0306500Y0171833D03*
X0336500Y0171833D03*
X0336500Y0181833D03*
X0336500Y0191833D03*
X0336500Y0201833D03*
X0336500Y0211833D03*
X0336500Y0221833D03*
X0336500Y0231833D03*
X0336500Y0241833D03*
D15*
X0166500Y0071833D03*
X0156500Y0071833D03*
X0146500Y0071833D03*
X0136500Y0071833D03*
X0126500Y0071833D03*
X0116500Y0071833D03*
X0106500Y0071833D03*
X0096500Y0071833D03*
X0086500Y0071833D03*
X0076500Y0071833D03*
X0066500Y0071833D03*
X0056500Y0071833D03*
D16*
X0056500Y0011833D03*
X0076500Y0011833D03*
D17*
X0051399Y0025798D02*
X0027536Y0025798D01*
X0026537Y0026796D02*
X0056000Y0026796D01*
X0056000Y0026333D02*
X0056000Y0027333D01*
X0051314Y0027333D01*
X0051428Y0028051D01*
X0051681Y0028829D01*
X0052053Y0029559D01*
X0052534Y0030221D01*
X0053112Y0030800D01*
X0053775Y0031281D01*
X0054504Y0031652D01*
X0055282Y0031905D01*
X0056000Y0032019D01*
X0056000Y0027333D01*
X0057000Y0027333D01*
X0057000Y0032019D01*
X0057718Y0031905D01*
X0058496Y0031652D01*
X0059225Y0031281D01*
X0059888Y0030800D01*
X0060466Y0030221D01*
X0060947Y0029559D01*
X0061230Y0029005D01*
X0061668Y0030062D01*
X0063271Y0031666D01*
X0065366Y0032533D01*
X0067634Y0032533D01*
X0069729Y0031666D01*
X0071332Y0030062D01*
X0072200Y0027967D01*
X0072200Y0025700D01*
X0071332Y0023605D01*
X0069729Y0022001D01*
X0067634Y0021133D01*
X0065366Y0021133D01*
X0063271Y0022001D01*
X0061668Y0023605D01*
X0061230Y0024662D01*
X0060947Y0024108D01*
X0060466Y0023446D01*
X0059888Y0022867D01*
X0059225Y0022386D01*
X0058496Y0022014D01*
X0057718Y0021761D01*
X0057000Y0021648D01*
X0057000Y0026333D01*
X0056000Y0026333D01*
X0056000Y0021648D01*
X0055282Y0021761D01*
X0054504Y0022014D01*
X0053775Y0022386D01*
X0053112Y0022867D01*
X0052534Y0023446D01*
X0052053Y0024108D01*
X0051681Y0024837D01*
X0051428Y0025616D01*
X0051314Y0026333D01*
X0056000Y0026333D01*
X0056000Y0025798D02*
X0057000Y0025798D01*
X0057000Y0024799D02*
X0056000Y0024799D01*
X0056000Y0023801D02*
X0057000Y0023801D01*
X0057000Y0022802D02*
X0056000Y0022802D01*
X0056000Y0021804D02*
X0057000Y0021804D01*
X0057848Y0021804D02*
X0063748Y0021804D01*
X0062470Y0022802D02*
X0059798Y0022802D01*
X0060724Y0023801D02*
X0061587Y0023801D01*
X0057000Y0027795D02*
X0056000Y0027795D01*
X0056000Y0028793D02*
X0057000Y0028793D01*
X0057000Y0029792D02*
X0056000Y0029792D01*
X0056000Y0030790D02*
X0057000Y0030790D01*
X0057000Y0031789D02*
X0056000Y0031789D01*
X0054923Y0031789D02*
X0021545Y0031789D01*
X0021500Y0031833D02*
X0006500Y0031833D01*
X0004000Y0034333D01*
X0004000Y0259333D01*
X0006500Y0261833D01*
X0021500Y0261833D01*
X0031500Y0271833D01*
X0031500Y0286833D01*
X0034000Y0289333D01*
X0314000Y0289333D01*
X0316500Y0286833D01*
X0316500Y0271833D01*
X0326500Y0261833D01*
X0341500Y0261833D01*
X0344000Y0259333D01*
X0344000Y0034333D01*
X0341500Y0031833D01*
X0326500Y0031833D01*
X0316500Y0021833D01*
X0316500Y0006833D01*
X0314000Y0004333D01*
X0079952Y0004333D01*
X0081173Y0004839D01*
X0083494Y0007160D01*
X0084750Y0010192D01*
X0084750Y0013474D01*
X0083494Y0016507D01*
X0081173Y0018827D01*
X0078141Y0020083D01*
X0074859Y0020083D01*
X0071827Y0018827D01*
X0069506Y0016507D01*
X0068250Y0013474D01*
X0068250Y0010192D01*
X0069506Y0007160D01*
X0071827Y0004839D01*
X0073048Y0004333D01*
X0058453Y0004333D01*
X0058996Y0004479D01*
X0059935Y0004868D01*
X0060815Y0005376D01*
X0061621Y0005994D01*
X0062339Y0006712D01*
X0062958Y0007518D01*
X0063466Y0008398D01*
X0063854Y0009337D01*
X0064117Y0010318D01*
X0064250Y0011325D01*
X0064250Y0011333D01*
X0057000Y0011333D01*
X0057000Y0012333D01*
X0064250Y0012333D01*
X0064250Y0012341D01*
X0064117Y0013349D01*
X0063854Y0014330D01*
X0063466Y0015268D01*
X0062958Y0016148D01*
X0062339Y0016954D01*
X0061621Y0017673D01*
X0060815Y0018291D01*
X0059935Y0018799D01*
X0058996Y0019188D01*
X0058015Y0019451D01*
X0057008Y0019583D01*
X0057000Y0019583D01*
X0057000Y0012333D01*
X0056000Y0012333D01*
X0056000Y0011333D01*
X0048750Y0011333D01*
X0048750Y0011325D01*
X0048883Y0010318D01*
X0049146Y0009337D01*
X0049534Y0008398D01*
X0050042Y0007518D01*
X0050661Y0006712D01*
X0051379Y0005994D01*
X0052185Y0005376D01*
X0053065Y0004868D01*
X0054003Y0004479D01*
X0054547Y0004333D01*
X0034000Y0004333D01*
X0031500Y0006833D01*
X0031500Y0021833D01*
X0021500Y0031833D01*
X0022543Y0030790D02*
X0053103Y0030790D01*
X0052222Y0029792D02*
X0023542Y0029792D01*
X0024540Y0028793D02*
X0051669Y0028793D01*
X0051387Y0027795D02*
X0025539Y0027795D01*
X0028534Y0024799D02*
X0051700Y0024799D01*
X0052276Y0023801D02*
X0029533Y0023801D01*
X0030531Y0022802D02*
X0053202Y0022802D01*
X0055152Y0021804D02*
X0031500Y0021804D01*
X0031500Y0020805D02*
X0131932Y0020805D01*
X0131946Y0020721D02*
X0132177Y0020010D01*
X0132516Y0019344D01*
X0132956Y0018739D01*
X0133484Y0018210D01*
X0134089Y0017771D01*
X0134755Y0017431D01*
X0135466Y0017200D01*
X0136205Y0017083D01*
X0136390Y0017083D01*
X0136390Y0021644D01*
X0136768Y0021644D01*
X0136768Y0017083D01*
X0136953Y0017083D01*
X0137691Y0017200D01*
X0138402Y0017431D01*
X0139068Y0017771D01*
X0139673Y0018210D01*
X0140202Y0018739D01*
X0140641Y0019344D01*
X0140981Y0020010D01*
X0141206Y0020704D01*
X0141971Y0018859D01*
X0143447Y0017383D01*
X0145377Y0016583D01*
X0147466Y0016583D01*
X0149395Y0017383D01*
X0150872Y0018859D01*
X0151671Y0020789D01*
X0151671Y0022878D01*
X0150872Y0024807D01*
X0149395Y0026284D01*
X0147466Y0027083D01*
X0145377Y0027083D01*
X0143447Y0026284D01*
X0141971Y0024807D01*
X0141206Y0022962D01*
X0140981Y0023657D01*
X0140641Y0024323D01*
X0140202Y0024928D01*
X0139673Y0025456D01*
X0139068Y0025896D01*
X0138402Y0026235D01*
X0137691Y0026466D01*
X0136953Y0026583D01*
X0136768Y0026583D01*
X0136768Y0022022D01*
X0136390Y0022022D01*
X0136390Y0021644D01*
X0131829Y0021644D01*
X0131829Y0021459D01*
X0131946Y0020721D01*
X0132280Y0019807D02*
X0078809Y0019807D01*
X0081193Y0018808D02*
X0132905Y0018808D01*
X0134036Y0017810D02*
X0082191Y0017810D01*
X0083190Y0016811D02*
X0144827Y0016811D01*
X0143020Y0017810D02*
X0139122Y0017810D01*
X0140252Y0018808D02*
X0142022Y0018808D01*
X0141578Y0019807D02*
X0140877Y0019807D01*
X0136768Y0019807D02*
X0136390Y0019807D01*
X0136390Y0020805D02*
X0136768Y0020805D01*
X0136390Y0021804D02*
X0087815Y0021804D01*
X0087524Y0021683D02*
X0089417Y0022467D01*
X0090866Y0023916D01*
X0091650Y0025809D01*
X0091650Y0027858D01*
X0090866Y0029751D01*
X0089417Y0031199D01*
X0087524Y0031983D01*
X0085476Y0031983D01*
X0083583Y0031199D01*
X0082134Y0029751D01*
X0081350Y0027858D01*
X0081350Y0025809D01*
X0082134Y0023916D01*
X0083583Y0022467D01*
X0085476Y0021683D01*
X0087524Y0021683D01*
X0085185Y0021804D02*
X0069252Y0021804D01*
X0070530Y0022802D02*
X0083248Y0022802D01*
X0082250Y0023801D02*
X0071413Y0023801D01*
X0071827Y0024799D02*
X0081768Y0024799D01*
X0081355Y0025798D02*
X0072200Y0025798D01*
X0072200Y0026796D02*
X0081350Y0026796D01*
X0081350Y0027795D02*
X0072200Y0027795D01*
X0071858Y0028793D02*
X0081737Y0028793D01*
X0082175Y0029792D02*
X0071444Y0029792D01*
X0070604Y0030790D02*
X0083174Y0030790D01*
X0085006Y0031789D02*
X0069432Y0031789D01*
X0063568Y0031789D02*
X0058077Y0031789D01*
X0059897Y0030790D02*
X0062396Y0030790D01*
X0061556Y0029792D02*
X0060778Y0029792D01*
X0059913Y0018808D02*
X0071807Y0018808D01*
X0070809Y0017810D02*
X0061442Y0017810D01*
X0062449Y0016811D02*
X0069810Y0016811D01*
X0069219Y0015812D02*
X0063152Y0015812D01*
X0063654Y0014814D02*
X0068805Y0014814D01*
X0068391Y0013815D02*
X0063992Y0013815D01*
X0064187Y0012817D02*
X0068250Y0012817D01*
X0068250Y0011818D02*
X0057000Y0011818D01*
X0057000Y0012817D02*
X0056000Y0012817D01*
X0056000Y0012333D02*
X0056000Y0019583D01*
X0055992Y0019583D01*
X0054985Y0019451D01*
X0054003Y0019188D01*
X0053065Y0018799D01*
X0052185Y0018291D01*
X0051379Y0017673D01*
X0050661Y0016954D01*
X0050042Y0016148D01*
X0049534Y0015268D01*
X0049146Y0014330D01*
X0048883Y0013349D01*
X0048750Y0012341D01*
X0048750Y0012333D01*
X0056000Y0012333D01*
X0056000Y0011818D02*
X0031500Y0011818D01*
X0031500Y0010820D02*
X0048817Y0010820D01*
X0049016Y0009821D02*
X0031500Y0009821D01*
X0031500Y0008823D02*
X0049358Y0008823D01*
X0049866Y0007824D02*
X0031500Y0007824D01*
X0031507Y0006826D02*
X0050574Y0006826D01*
X0051596Y0005827D02*
X0032506Y0005827D01*
X0033504Y0004829D02*
X0053159Y0004829D01*
X0059841Y0004829D02*
X0071852Y0004829D01*
X0070839Y0005827D02*
X0061404Y0005827D01*
X0062426Y0006826D02*
X0069840Y0006826D01*
X0069231Y0007824D02*
X0063134Y0007824D01*
X0063642Y0008823D02*
X0068817Y0008823D01*
X0068404Y0009821D02*
X0063984Y0009821D01*
X0064183Y0010820D02*
X0068250Y0010820D01*
X0074191Y0019807D02*
X0031500Y0019807D01*
X0031500Y0018808D02*
X0053087Y0018808D01*
X0051558Y0017810D02*
X0031500Y0017810D01*
X0031500Y0016811D02*
X0050551Y0016811D01*
X0049848Y0015812D02*
X0031500Y0015812D01*
X0031500Y0014814D02*
X0049346Y0014814D01*
X0049008Y0013815D02*
X0031500Y0013815D01*
X0031500Y0012817D02*
X0048813Y0012817D01*
X0056000Y0013815D02*
X0057000Y0013815D01*
X0057000Y0014814D02*
X0056000Y0014814D01*
X0056000Y0015812D02*
X0057000Y0015812D01*
X0057000Y0016811D02*
X0056000Y0016811D01*
X0056000Y0017810D02*
X0057000Y0017810D01*
X0057000Y0018808D02*
X0056000Y0018808D01*
X0081148Y0004829D02*
X0314496Y0004829D01*
X0315494Y0005827D02*
X0082161Y0005827D01*
X0083160Y0006826D02*
X0316493Y0006826D01*
X0316500Y0007824D02*
X0083769Y0007824D01*
X0084183Y0008823D02*
X0316500Y0008823D01*
X0316500Y0009821D02*
X0084596Y0009821D01*
X0084750Y0010820D02*
X0316500Y0010820D01*
X0316500Y0011818D02*
X0179288Y0011818D01*
X0179729Y0012001D02*
X0181332Y0013605D01*
X0182200Y0015700D01*
X0182200Y0017967D01*
X0181332Y0020062D01*
X0179729Y0021666D01*
X0177634Y0022533D01*
X0175366Y0022533D01*
X0173271Y0021666D01*
X0171668Y0020062D01*
X0171500Y0019657D01*
X0171332Y0020062D01*
X0169729Y0021666D01*
X0167634Y0022533D01*
X0165366Y0022533D01*
X0163271Y0021666D01*
X0161668Y0020062D01*
X0160800Y0017967D01*
X0160800Y0015700D01*
X0161668Y0013605D01*
X0163271Y0012001D01*
X0165366Y0011133D01*
X0167634Y0011133D01*
X0169729Y0012001D01*
X0171332Y0013605D01*
X0171500Y0014010D01*
X0171668Y0013605D01*
X0173271Y0012001D01*
X0175366Y0011133D01*
X0177634Y0011133D01*
X0179729Y0012001D01*
X0180545Y0012817D02*
X0316500Y0012817D01*
X0316500Y0013815D02*
X0181420Y0013815D01*
X0181833Y0014814D02*
X0316500Y0014814D01*
X0316500Y0015812D02*
X0182200Y0015812D01*
X0182200Y0016811D02*
X0316500Y0016811D01*
X0316500Y0017810D02*
X0182200Y0017810D01*
X0181852Y0018808D02*
X0316500Y0018808D01*
X0316500Y0019807D02*
X0181438Y0019807D01*
X0180589Y0020805D02*
X0316500Y0020805D01*
X0316500Y0021804D02*
X0179396Y0021804D01*
X0173604Y0021804D02*
X0169396Y0021804D01*
X0170589Y0020805D02*
X0172411Y0020805D01*
X0171562Y0019807D02*
X0171438Y0019807D01*
X0171420Y0013815D02*
X0171580Y0013815D01*
X0172455Y0012817D02*
X0170545Y0012817D01*
X0169288Y0011818D02*
X0173712Y0011818D01*
X0163712Y0011818D02*
X0084750Y0011818D01*
X0084750Y0012817D02*
X0162455Y0012817D01*
X0161580Y0013815D02*
X0084609Y0013815D01*
X0084195Y0014814D02*
X0161167Y0014814D01*
X0160800Y0015812D02*
X0083781Y0015812D01*
X0089752Y0022802D02*
X0104169Y0022802D01*
X0104063Y0022856D02*
X0104715Y0022524D01*
X0105411Y0022298D01*
X0106134Y0022183D01*
X0106200Y0022183D01*
X0106200Y0026533D01*
X0106800Y0026533D01*
X0106800Y0022183D01*
X0106866Y0022183D01*
X0107589Y0022298D01*
X0108285Y0022524D01*
X0108937Y0022856D01*
X0109529Y0023287D01*
X0110047Y0023804D01*
X0110477Y0024396D01*
X0110809Y0025048D01*
X0111035Y0025744D01*
X0111150Y0026467D01*
X0111150Y0026533D01*
X0106800Y0026533D01*
X0106800Y0027133D01*
X0111150Y0027133D01*
X0111150Y0027199D01*
X0111035Y0027922D01*
X0110809Y0028618D01*
X0110477Y0029270D01*
X0110047Y0029863D01*
X0109529Y0030380D01*
X0108937Y0030810D01*
X0108285Y0031143D01*
X0107589Y0031369D01*
X0106866Y0031483D01*
X0106800Y0031483D01*
X0106800Y0027133D01*
X0106200Y0027133D01*
X0106200Y0026533D01*
X0101850Y0026533D01*
X0101850Y0026467D01*
X0101964Y0025744D01*
X0102191Y0025048D01*
X0102523Y0024396D01*
X0102953Y0023804D01*
X0103471Y0023287D01*
X0104063Y0022856D01*
X0102957Y0023801D02*
X0090750Y0023801D01*
X0091232Y0024799D02*
X0102318Y0024799D01*
X0101956Y0025798D02*
X0091645Y0025798D01*
X0091650Y0026796D02*
X0106200Y0026796D01*
X0106200Y0027133D02*
X0101850Y0027133D01*
X0101850Y0027199D01*
X0101964Y0027922D01*
X0102191Y0028618D01*
X0102523Y0029270D01*
X0102953Y0029863D01*
X0103471Y0030380D01*
X0104063Y0030810D01*
X0104715Y0031143D01*
X0105411Y0031369D01*
X0106134Y0031483D01*
X0106200Y0031483D01*
X0106200Y0027133D01*
X0106200Y0027795D02*
X0106800Y0027795D01*
X0106800Y0028793D02*
X0106200Y0028793D01*
X0106200Y0029792D02*
X0106800Y0029792D01*
X0106800Y0030790D02*
X0106200Y0030790D01*
X0104035Y0030790D02*
X0089826Y0030790D01*
X0090825Y0029792D02*
X0102902Y0029792D01*
X0102280Y0028793D02*
X0091263Y0028793D01*
X0091650Y0027795D02*
X0101944Y0027795D01*
X0106200Y0025798D02*
X0106800Y0025798D01*
X0106800Y0026796D02*
X0144684Y0026796D01*
X0142961Y0025798D02*
X0139204Y0025798D01*
X0140295Y0024799D02*
X0141967Y0024799D01*
X0141554Y0023801D02*
X0140907Y0023801D01*
X0136768Y0023801D02*
X0136390Y0023801D01*
X0136390Y0024799D02*
X0136768Y0024799D01*
X0136768Y0025798D02*
X0136390Y0025798D01*
X0136390Y0026583D02*
X0136390Y0022022D01*
X0131829Y0022022D01*
X0131829Y0022207D01*
X0131946Y0022946D01*
X0132177Y0023657D01*
X0132516Y0024323D01*
X0132956Y0024928D01*
X0133484Y0025456D01*
X0134089Y0025896D01*
X0134755Y0026235D01*
X0135466Y0026466D01*
X0136205Y0026583D01*
X0136390Y0026583D01*
X0133954Y0025798D02*
X0111044Y0025798D01*
X0110682Y0024799D02*
X0132862Y0024799D01*
X0132250Y0023801D02*
X0110043Y0023801D01*
X0108831Y0022802D02*
X0131923Y0022802D01*
X0136390Y0022802D02*
X0136768Y0022802D01*
X0136768Y0018808D02*
X0136390Y0018808D01*
X0136390Y0017810D02*
X0136768Y0017810D01*
X0148015Y0016811D02*
X0160800Y0016811D01*
X0160800Y0017810D02*
X0149822Y0017810D01*
X0150821Y0018808D02*
X0161148Y0018808D01*
X0161562Y0019807D02*
X0151264Y0019807D01*
X0151671Y0020805D02*
X0162411Y0020805D01*
X0163604Y0021804D02*
X0151671Y0021804D01*
X0151671Y0022802D02*
X0317469Y0022802D01*
X0318467Y0023801D02*
X0284881Y0023801D01*
X0285000Y0023919D02*
X0290000Y0028919D01*
X0290000Y0064748D01*
X0289414Y0065333D01*
X0284414Y0070333D01*
X0188586Y0070333D01*
X0188000Y0069748D01*
X0183586Y0065333D01*
X0183000Y0064748D01*
X0183000Y0028919D01*
X0183586Y0028333D01*
X0188586Y0023333D01*
X0284414Y0023333D01*
X0285000Y0023919D01*
X0285880Y0024799D02*
X0319466Y0024799D01*
X0320464Y0025798D02*
X0286878Y0025798D01*
X0287877Y0026796D02*
X0321463Y0026796D01*
X0322461Y0027795D02*
X0288876Y0027795D01*
X0289874Y0028793D02*
X0323460Y0028793D01*
X0324458Y0029792D02*
X0290000Y0029792D01*
X0290000Y0030790D02*
X0325457Y0030790D01*
X0326455Y0031789D02*
X0290000Y0031789D01*
X0290000Y0032787D02*
X0342454Y0032787D01*
X0343452Y0033786D02*
X0290000Y0033786D01*
X0290000Y0034784D02*
X0344000Y0034784D01*
X0344000Y0035783D02*
X0290000Y0035783D01*
X0290000Y0036781D02*
X0344000Y0036781D01*
X0344000Y0037780D02*
X0290000Y0037780D01*
X0290000Y0038778D02*
X0344000Y0038778D01*
X0344000Y0039777D02*
X0290000Y0039777D01*
X0290000Y0040775D02*
X0344000Y0040775D01*
X0344000Y0041774D02*
X0290000Y0041774D01*
X0290000Y0042772D02*
X0344000Y0042772D01*
X0344000Y0043771D02*
X0290000Y0043771D01*
X0290000Y0044769D02*
X0344000Y0044769D01*
X0344000Y0045768D02*
X0290000Y0045768D01*
X0290000Y0046766D02*
X0318838Y0046766D01*
X0318271Y0047001D02*
X0316668Y0048605D01*
X0315800Y0050700D01*
X0315800Y0052967D01*
X0316668Y0055062D01*
X0318271Y0056666D01*
X0320366Y0057533D01*
X0322634Y0057533D01*
X0324729Y0056666D01*
X0326332Y0055062D01*
X0326500Y0054657D01*
X0326668Y0055062D01*
X0328271Y0056666D01*
X0330366Y0057533D01*
X0332634Y0057533D01*
X0334729Y0056666D01*
X0336332Y0055062D01*
X0337200Y0052967D01*
X0337200Y0050700D01*
X0336332Y0048605D01*
X0334729Y0047001D01*
X0332634Y0046133D01*
X0330366Y0046133D01*
X0328271Y0047001D01*
X0326668Y0048605D01*
X0326500Y0049010D01*
X0326332Y0048605D01*
X0324729Y0047001D01*
X0322634Y0046133D01*
X0320366Y0046133D01*
X0318271Y0047001D01*
X0317507Y0047765D02*
X0290000Y0047765D01*
X0290000Y0048763D02*
X0316602Y0048763D01*
X0316188Y0049762D02*
X0290000Y0049762D01*
X0290000Y0050760D02*
X0315800Y0050760D01*
X0315800Y0051759D02*
X0290000Y0051759D01*
X0290000Y0052757D02*
X0315800Y0052757D01*
X0316127Y0053756D02*
X0290000Y0053756D01*
X0290000Y0054754D02*
X0316540Y0054754D01*
X0317359Y0055753D02*
X0290000Y0055753D01*
X0290000Y0056751D02*
X0318479Y0056751D01*
X0324521Y0056751D02*
X0328479Y0056751D01*
X0327359Y0055753D02*
X0325641Y0055753D01*
X0326460Y0054754D02*
X0326540Y0054754D01*
X0326602Y0048763D02*
X0326398Y0048763D01*
X0325493Y0047765D02*
X0327507Y0047765D01*
X0328838Y0046766D02*
X0324162Y0046766D01*
X0334162Y0046766D02*
X0344000Y0046766D01*
X0344000Y0047765D02*
X0335493Y0047765D01*
X0336398Y0048763D02*
X0344000Y0048763D01*
X0344000Y0049762D02*
X0336812Y0049762D01*
X0337200Y0050760D02*
X0344000Y0050760D01*
X0344000Y0051759D02*
X0337200Y0051759D01*
X0337200Y0052757D02*
X0344000Y0052757D01*
X0344000Y0053756D02*
X0336873Y0053756D01*
X0336460Y0054754D02*
X0344000Y0054754D01*
X0344000Y0055753D02*
X0335641Y0055753D01*
X0334521Y0056751D02*
X0344000Y0056751D01*
X0344000Y0057750D02*
X0290000Y0057750D01*
X0290000Y0058748D02*
X0344000Y0058748D01*
X0344000Y0059747D02*
X0290000Y0059747D01*
X0290000Y0060745D02*
X0344000Y0060745D01*
X0344000Y0061744D02*
X0290000Y0061744D01*
X0290000Y0062743D02*
X0344000Y0062743D01*
X0344000Y0063741D02*
X0290000Y0063741D01*
X0290000Y0064740D02*
X0344000Y0064740D01*
X0344000Y0065738D02*
X0289009Y0065738D01*
X0288011Y0066737D02*
X0344000Y0066737D01*
X0344000Y0067735D02*
X0287012Y0067735D01*
X0286014Y0068734D02*
X0344000Y0068734D01*
X0344000Y0069732D02*
X0285015Y0069732D01*
X0265641Y0079717D02*
X0344000Y0079717D01*
X0344000Y0078719D02*
X0264961Y0078719D01*
X0265047Y0078804D02*
X0265477Y0079396D01*
X0265809Y0080048D01*
X0266035Y0080744D01*
X0266150Y0081467D01*
X0266150Y0081533D01*
X0261800Y0081533D01*
X0261800Y0077183D01*
X0261866Y0077183D01*
X0262589Y0077298D01*
X0263285Y0077524D01*
X0263937Y0077856D01*
X0264529Y0078287D01*
X0265047Y0078804D01*
X0263670Y0077720D02*
X0344000Y0077720D01*
X0344000Y0076722D02*
X0169071Y0076722D01*
X0169615Y0076496D02*
X0167594Y0077333D01*
X0165406Y0077333D01*
X0163384Y0076496D01*
X0161837Y0074949D01*
X0161500Y0074134D01*
X0161163Y0074949D01*
X0159615Y0076496D01*
X0157594Y0077333D01*
X0155406Y0077333D01*
X0153384Y0076496D01*
X0151837Y0074949D01*
X0151500Y0074134D01*
X0151163Y0074949D01*
X0149615Y0076496D01*
X0147594Y0077333D01*
X0145406Y0077333D01*
X0143384Y0076496D01*
X0141837Y0074949D01*
X0141500Y0074134D01*
X0141163Y0074949D01*
X0139615Y0076496D01*
X0137594Y0077333D01*
X0135406Y0077333D01*
X0133384Y0076496D01*
X0131837Y0074949D01*
X0131225Y0073471D01*
X0131134Y0073753D01*
X0130776Y0074454D01*
X0130314Y0075091D01*
X0129757Y0075647D01*
X0129121Y0076110D01*
X0128419Y0076467D01*
X0127671Y0076710D01*
X0127000Y0076816D01*
X0127000Y0072333D01*
X0126000Y0072333D01*
X0126000Y0071333D01*
X0127000Y0071333D01*
X0127000Y0066850D01*
X0127671Y0066956D01*
X0128419Y0067200D01*
X0129121Y0067557D01*
X0129757Y0068020D01*
X0130314Y0068576D01*
X0130776Y0069213D01*
X0131134Y0069914D01*
X0131225Y0070196D01*
X0131837Y0068718D01*
X0133384Y0067171D01*
X0135406Y0066333D01*
X0137594Y0066333D01*
X0139615Y0067171D01*
X0141163Y0068718D01*
X0141500Y0069532D01*
X0141837Y0068718D01*
X0143384Y0067171D01*
X0145406Y0066333D01*
X0147594Y0066333D01*
X0149615Y0067171D01*
X0151163Y0068718D01*
X0151500Y0069532D01*
X0151837Y0068718D01*
X0153384Y0067171D01*
X0155406Y0066333D01*
X0157594Y0066333D01*
X0159615Y0067171D01*
X0161163Y0068718D01*
X0161500Y0069532D01*
X0161837Y0068718D01*
X0163384Y0067171D01*
X0165406Y0066333D01*
X0167594Y0066333D01*
X0169615Y0067171D01*
X0171163Y0068718D01*
X0172000Y0070739D01*
X0172000Y0072927D01*
X0171163Y0074949D01*
X0169615Y0076496D01*
X0170388Y0075723D02*
X0344000Y0075723D01*
X0344000Y0074725D02*
X0171256Y0074725D01*
X0171669Y0073726D02*
X0344000Y0073726D01*
X0344000Y0072728D02*
X0172000Y0072728D01*
X0172000Y0071729D02*
X0344000Y0071729D01*
X0344000Y0070731D02*
X0171996Y0070731D01*
X0171583Y0069732D02*
X0187985Y0069732D01*
X0186986Y0068734D02*
X0171169Y0068734D01*
X0170180Y0067735D02*
X0185988Y0067735D01*
X0184989Y0066737D02*
X0168568Y0066737D01*
X0164432Y0066737D02*
X0158568Y0066737D01*
X0160180Y0067735D02*
X0162820Y0067735D01*
X0161831Y0068734D02*
X0161169Y0068734D01*
X0161256Y0074725D02*
X0161744Y0074725D01*
X0162612Y0075723D02*
X0160388Y0075723D01*
X0159071Y0076722D02*
X0163929Y0076722D01*
X0158624Y0083654D02*
X0159679Y0084709D01*
X0160250Y0086087D01*
X0160250Y0087579D01*
X0159679Y0088958D01*
X0159303Y0089333D01*
X0161197Y0089333D01*
X0161876Y0088654D01*
X0163254Y0088083D01*
X0164746Y0088083D01*
X0166124Y0088654D01*
X0167179Y0089709D01*
X0167750Y0091087D01*
X0167750Y0092579D01*
X0167179Y0093958D01*
X0166803Y0094333D01*
X0188697Y0094333D01*
X0189376Y0093654D01*
X0190754Y0093083D01*
X0192246Y0093083D01*
X0193624Y0093654D01*
X0194679Y0094709D01*
X0195250Y0096087D01*
X0195250Y0097579D01*
X0194679Y0098958D01*
X0193624Y0100012D01*
X0192498Y0100479D01*
X0192750Y0101087D01*
X0192750Y0102579D01*
X0192179Y0103958D01*
X0191124Y0105012D01*
X0189746Y0105583D01*
X0188254Y0105583D01*
X0186876Y0105012D01*
X0186197Y0104333D01*
X0159303Y0104333D01*
X0159679Y0104709D01*
X0160250Y0106087D01*
X0160250Y0107579D01*
X0159679Y0108958D01*
X0158624Y0110012D01*
X0157246Y0110583D01*
X0156286Y0110583D01*
X0152916Y0113953D01*
X0151997Y0114333D01*
X0151803Y0114333D01*
X0152179Y0114709D01*
X0152750Y0116087D01*
X0153321Y0114709D01*
X0154376Y0113654D01*
X0155754Y0113083D01*
X0157246Y0113083D01*
X0158624Y0113654D01*
X0159679Y0114709D01*
X0160250Y0116087D01*
X0160250Y0117579D01*
X0159679Y0118958D01*
X0159303Y0119333D01*
X0181197Y0119333D01*
X0181876Y0118654D01*
X0183254Y0118083D01*
X0184746Y0118083D01*
X0186124Y0118654D01*
X0187179Y0119709D01*
X0187750Y0121087D01*
X0187750Y0122579D01*
X0187179Y0123958D01*
X0186124Y0125012D01*
X0184746Y0125583D01*
X0183254Y0125583D01*
X0181876Y0125012D01*
X0181197Y0124333D01*
X0159303Y0124333D01*
X0159679Y0124709D01*
X0160250Y0126087D01*
X0160250Y0127579D01*
X0159679Y0128958D01*
X0159303Y0129333D01*
X0180250Y0129333D01*
X0180250Y0128587D01*
X0180821Y0127209D01*
X0181876Y0126154D01*
X0183254Y0125583D01*
X0184746Y0125583D01*
X0186124Y0126154D01*
X0187179Y0127209D01*
X0187750Y0128587D01*
X0187750Y0130079D01*
X0187179Y0131458D01*
X0186124Y0132512D01*
X0184746Y0133083D01*
X0183786Y0133083D01*
X0183619Y0133249D01*
X0182916Y0133953D01*
X0181997Y0134333D01*
X0159303Y0134333D01*
X0159679Y0134709D01*
X0160250Y0136087D01*
X0160250Y0137579D01*
X0159679Y0138958D01*
X0159000Y0139637D01*
X0159000Y0142331D01*
X0158619Y0143249D01*
X0158335Y0143534D01*
X0158624Y0143654D01*
X0159679Y0144709D01*
X0160250Y0146087D01*
X0160250Y0147579D01*
X0159679Y0148958D01*
X0159000Y0149637D01*
X0159000Y0152331D01*
X0158619Y0153249D01*
X0158335Y0153534D01*
X0158624Y0153654D01*
X0159679Y0154709D01*
X0160250Y0156087D01*
X0160250Y0157579D01*
X0159679Y0158958D01*
X0159000Y0159637D01*
X0159000Y0162331D01*
X0158619Y0163249D01*
X0158335Y0163534D01*
X0158624Y0163654D01*
X0159303Y0164333D01*
X0161997Y0164333D01*
X0162916Y0164714D01*
X0163619Y0165417D01*
X0168619Y0170417D01*
X0169000Y0171336D01*
X0169000Y0175798D01*
X0176555Y0183353D01*
X0176350Y0182858D01*
X0176350Y0180809D01*
X0177134Y0178916D01*
X0178583Y0177467D01*
X0180476Y0176683D01*
X0182407Y0176683D01*
X0199801Y0159290D01*
X0200903Y0158833D01*
X0218030Y0158833D01*
X0218909Y0157955D01*
X0220590Y0157259D01*
X0222410Y0157259D01*
X0224091Y0157955D01*
X0225378Y0159242D01*
X0226075Y0160923D01*
X0226075Y0162743D01*
X0225378Y0164425D01*
X0224091Y0165712D01*
X0222410Y0166408D01*
X0220590Y0166408D01*
X0218909Y0165712D01*
X0218030Y0164833D01*
X0202743Y0164833D01*
X0186650Y0180926D01*
X0186650Y0182858D01*
X0185866Y0184751D01*
X0184763Y0185854D01*
X0196500Y0197591D01*
X0196500Y0196336D01*
X0196881Y0195417D01*
X0197584Y0194714D01*
X0202750Y0189548D01*
X0202750Y0188587D01*
X0203321Y0187209D01*
X0204376Y0186154D01*
X0205754Y0185583D01*
X0207246Y0185583D01*
X0208624Y0186154D01*
X0209679Y0187209D01*
X0210250Y0188587D01*
X0210250Y0190079D01*
X0209679Y0191458D01*
X0208624Y0192512D01*
X0207246Y0193083D01*
X0206286Y0193083D01*
X0201500Y0197869D01*
X0201500Y0229030D01*
X0201876Y0228654D01*
X0203254Y0228083D01*
X0204746Y0228083D01*
X0206124Y0228654D01*
X0206803Y0229333D01*
X0211997Y0229333D01*
X0212916Y0229714D01*
X0217618Y0234416D01*
X0216925Y0232743D01*
X0216925Y0230923D01*
X0217622Y0229242D01*
X0218909Y0227955D01*
X0220590Y0227259D01*
X0222410Y0227259D01*
X0224091Y0227955D01*
X0225378Y0229242D01*
X0226075Y0230923D01*
X0226075Y0232743D01*
X0225378Y0234425D01*
X0224091Y0235712D01*
X0222410Y0236408D01*
X0220590Y0236408D01*
X0218918Y0235715D01*
X0220499Y0237296D01*
X0220590Y0237259D01*
X0222410Y0237259D01*
X0224091Y0237955D01*
X0225378Y0239242D01*
X0226075Y0240923D01*
X0226075Y0242743D01*
X0225378Y0244425D01*
X0224091Y0245712D01*
X0222410Y0246408D01*
X0220590Y0246408D01*
X0218909Y0245712D01*
X0217622Y0244425D01*
X0216925Y0242743D01*
X0216925Y0240923D01*
X0216963Y0240832D01*
X0210464Y0234333D01*
X0206803Y0234333D01*
X0206124Y0235012D01*
X0204746Y0235583D01*
X0203254Y0235583D01*
X0201876Y0235012D01*
X0201500Y0234637D01*
X0201500Y0234831D01*
X0201119Y0235749D01*
X0200416Y0236453D01*
X0200250Y0236619D01*
X0200250Y0237579D01*
X0199679Y0238958D01*
X0198624Y0240012D01*
X0197246Y0240583D01*
X0195754Y0240583D01*
X0194376Y0240012D01*
X0193321Y0238958D01*
X0192750Y0237579D01*
X0192750Y0236087D01*
X0193321Y0234709D01*
X0194376Y0233654D01*
X0195754Y0233083D01*
X0196500Y0233083D01*
X0196500Y0218576D01*
X0192750Y0222326D01*
X0192750Y0222579D01*
X0192179Y0223958D01*
X0191124Y0225012D01*
X0189746Y0225583D01*
X0188254Y0225583D01*
X0186876Y0225012D01*
X0185821Y0223958D01*
X0185250Y0222579D01*
X0185250Y0221087D01*
X0185821Y0219709D01*
X0186876Y0218654D01*
X0188254Y0218083D01*
X0188507Y0218083D01*
X0191000Y0215591D01*
X0191000Y0210869D01*
X0190416Y0211453D01*
X0190250Y0211619D01*
X0190250Y0212579D01*
X0189679Y0213958D01*
X0188624Y0215012D01*
X0187246Y0215583D01*
X0185754Y0215583D01*
X0184376Y0215012D01*
X0183321Y0213958D01*
X0182750Y0212579D01*
X0182750Y0211087D01*
X0183321Y0209709D01*
X0184376Y0208654D01*
X0185754Y0208083D01*
X0186500Y0208083D01*
X0186500Y0207137D01*
X0186124Y0207512D01*
X0184746Y0208083D01*
X0183254Y0208083D01*
X0181876Y0207512D01*
X0180821Y0206458D01*
X0180250Y0205079D01*
X0180250Y0203587D01*
X0180821Y0202209D01*
X0181500Y0201530D01*
X0181500Y0200369D01*
X0160084Y0178953D01*
X0159799Y0178668D01*
X0159679Y0178958D01*
X0159000Y0179637D01*
X0159000Y0182331D01*
X0158619Y0183249D01*
X0158335Y0183534D01*
X0158624Y0183654D01*
X0159679Y0184709D01*
X0160250Y0186087D01*
X0160250Y0187579D01*
X0159679Y0188958D01*
X0159000Y0189637D01*
X0159000Y0192331D01*
X0158619Y0193249D01*
X0158335Y0193534D01*
X0158624Y0193654D01*
X0159679Y0194709D01*
X0160250Y0196087D01*
X0160250Y0197579D01*
X0159679Y0198958D01*
X0159000Y0199637D01*
X0159000Y0202331D01*
X0158619Y0203249D01*
X0158335Y0203534D01*
X0158624Y0203654D01*
X0159679Y0204709D01*
X0160250Y0206087D01*
X0160250Y0207579D01*
X0159679Y0208958D01*
X0159000Y0209637D01*
X0159000Y0212331D01*
X0158619Y0213249D01*
X0158335Y0213534D01*
X0158624Y0213654D01*
X0159679Y0214709D01*
X0160250Y0216087D01*
X0160250Y0217579D01*
X0159679Y0218958D01*
X0159000Y0219637D01*
X0159000Y0222331D01*
X0158619Y0223249D01*
X0158335Y0223534D01*
X0158624Y0223654D01*
X0159679Y0224709D01*
X0160250Y0226087D01*
X0160250Y0227579D01*
X0159679Y0228958D01*
X0159000Y0229637D01*
X0159000Y0232331D01*
X0158619Y0233249D01*
X0158335Y0233534D01*
X0158624Y0233654D01*
X0159679Y0234709D01*
X0160250Y0236087D01*
X0160250Y0237579D01*
X0159679Y0238958D01*
X0159000Y0239637D01*
X0159000Y0244831D01*
X0158619Y0245749D01*
X0156119Y0248249D01*
X0155416Y0248953D01*
X0154497Y0249333D01*
X0128503Y0249333D01*
X0127584Y0248953D01*
X0124214Y0245583D01*
X0123254Y0245583D01*
X0121876Y0245012D01*
X0120821Y0243958D01*
X0120250Y0242579D01*
X0120250Y0241087D01*
X0120821Y0239709D01*
X0121197Y0239333D01*
X0099303Y0239333D01*
X0099679Y0239709D01*
X0100250Y0241087D01*
X0100250Y0242579D01*
X0099679Y0243958D01*
X0098624Y0245012D01*
X0097246Y0245583D01*
X0095754Y0245583D01*
X0094376Y0245012D01*
X0093697Y0244333D01*
X0077500Y0244333D01*
X0077500Y0247248D01*
X0071914Y0252833D01*
X0016086Y0252833D01*
X0011086Y0247833D01*
X0010500Y0247248D01*
X0010500Y0086419D01*
X0011762Y0085157D01*
X0011668Y0085062D01*
X0010800Y0082967D01*
X0010800Y0080700D01*
X0011668Y0078605D01*
X0013271Y0077001D01*
X0013676Y0076833D01*
X0013271Y0076666D01*
X0011668Y0075062D01*
X0010800Y0072967D01*
X0010800Y0070700D01*
X0011668Y0068605D01*
X0013271Y0067001D01*
X0013676Y0066833D01*
X0013271Y0066666D01*
X0011668Y0065062D01*
X0010800Y0062967D01*
X0010800Y0060700D01*
X0011668Y0058605D01*
X0013271Y0057001D01*
X0014329Y0056563D01*
X0013775Y0056281D01*
X0013112Y0055800D01*
X0012534Y0055221D01*
X0012053Y0054559D01*
X0011681Y0053829D01*
X0011428Y0053051D01*
X0011314Y0052333D01*
X0016000Y0052333D01*
X0016000Y0051333D01*
X0017000Y0051333D01*
X0017000Y0046648D01*
X0017718Y0046761D01*
X0018496Y0047014D01*
X0019225Y0047386D01*
X0019888Y0047867D01*
X0020466Y0048446D01*
X0020947Y0049108D01*
X0021319Y0049837D01*
X0021500Y0050394D01*
X0021681Y0049837D01*
X0022053Y0049108D01*
X0022534Y0048446D01*
X0023112Y0047867D01*
X0023775Y0047386D01*
X0024504Y0047014D01*
X0025282Y0046761D01*
X0026000Y0046648D01*
X0026000Y0051333D01*
X0027000Y0051333D01*
X0027000Y0046648D01*
X0027718Y0046761D01*
X0028496Y0047014D01*
X0029225Y0047386D01*
X0029888Y0047867D01*
X0030466Y0048446D01*
X0030947Y0049108D01*
X0031319Y0049837D01*
X0031572Y0050616D01*
X0031686Y0051333D01*
X0027000Y0051333D01*
X0027000Y0052333D01*
X0031686Y0052333D01*
X0031572Y0053051D01*
X0031319Y0053829D01*
X0030947Y0054559D01*
X0030466Y0055221D01*
X0029888Y0055800D01*
X0029225Y0056281D01*
X0028671Y0056563D01*
X0029729Y0057001D01*
X0031332Y0058605D01*
X0032200Y0060700D01*
X0032200Y0062967D01*
X0031332Y0065062D01*
X0029729Y0066666D01*
X0029324Y0066833D01*
X0029729Y0067001D01*
X0031332Y0068605D01*
X0032200Y0070700D01*
X0032200Y0072967D01*
X0031332Y0075062D01*
X0029729Y0076666D01*
X0029324Y0076833D01*
X0029729Y0077001D01*
X0031332Y0078605D01*
X0032200Y0080700D01*
X0032200Y0080833D01*
X0071914Y0080833D01*
X0075414Y0084333D01*
X0153697Y0084333D01*
X0154376Y0083654D01*
X0155754Y0083083D01*
X0157246Y0083083D01*
X0158624Y0083654D01*
X0158681Y0083711D02*
X0202238Y0083711D01*
X0202191Y0083618D02*
X0201964Y0082922D01*
X0201850Y0082199D01*
X0201850Y0082133D01*
X0206200Y0082133D01*
X0206200Y0081533D01*
X0206800Y0081533D01*
X0206800Y0077183D01*
X0206866Y0077183D01*
X0207589Y0077298D01*
X0208285Y0077524D01*
X0208937Y0077856D01*
X0209529Y0078287D01*
X0210047Y0078804D01*
X0210477Y0079396D01*
X0210809Y0080048D01*
X0211035Y0080744D01*
X0211150Y0081467D01*
X0211150Y0081533D01*
X0206800Y0081533D01*
X0206800Y0082133D01*
X0211150Y0082133D01*
X0211150Y0082199D01*
X0211035Y0082922D01*
X0210809Y0083618D01*
X0210477Y0084270D01*
X0210047Y0084863D01*
X0209529Y0085380D01*
X0208937Y0085810D01*
X0208285Y0086143D01*
X0207589Y0086369D01*
X0206866Y0086483D01*
X0206800Y0086483D01*
X0206800Y0082133D01*
X0206200Y0082133D01*
X0206200Y0086483D01*
X0206134Y0086483D01*
X0205411Y0086369D01*
X0204715Y0086143D01*
X0204063Y0085810D01*
X0203471Y0085380D01*
X0202953Y0084863D01*
X0202523Y0084270D01*
X0202191Y0083618D01*
X0201931Y0082713D02*
X0073794Y0082713D01*
X0074792Y0083711D02*
X0154319Y0083711D01*
X0156500Y0086833D02*
X0074000Y0086833D01*
X0069000Y0091833D01*
X0069000Y0096833D02*
X0074000Y0091833D01*
X0096500Y0091833D01*
X0096500Y0101833D02*
X0074000Y0101833D01*
X0069000Y0106833D01*
X0046500Y0106833D01*
X0041500Y0101833D01*
X0026500Y0101833D01*
X0026500Y0091833D02*
X0041500Y0091833D01*
X0046500Y0096833D01*
X0069000Y0096833D01*
X0069000Y0101833D02*
X0074000Y0096833D01*
X0191500Y0096833D01*
X0195250Y0096692D02*
X0205455Y0096692D01*
X0205476Y0096683D02*
X0207524Y0096683D01*
X0209417Y0097467D01*
X0210866Y0098916D01*
X0211650Y0100809D01*
X0211650Y0102858D01*
X0210866Y0104751D01*
X0209417Y0106199D01*
X0207524Y0106983D01*
X0205593Y0106983D01*
X0194500Y0118076D01*
X0194500Y0122030D01*
X0194679Y0122209D01*
X0195250Y0123587D01*
X0195250Y0125079D01*
X0194679Y0126458D01*
X0193624Y0127512D01*
X0192246Y0128083D01*
X0190754Y0128083D01*
X0189376Y0127512D01*
X0188321Y0126458D01*
X0187750Y0125079D01*
X0187750Y0123587D01*
X0188321Y0122209D01*
X0188500Y0122030D01*
X0188500Y0116237D01*
X0188957Y0115134D01*
X0201350Y0102741D01*
X0201350Y0100809D01*
X0202134Y0098916D01*
X0203583Y0097467D01*
X0205476Y0096683D01*
X0207545Y0096692D02*
X0230455Y0096692D01*
X0230476Y0096683D02*
X0232524Y0096683D01*
X0234417Y0097467D01*
X0235866Y0098916D01*
X0236650Y0100809D01*
X0236650Y0102858D01*
X0235866Y0104751D01*
X0234417Y0106199D01*
X0232524Y0106983D01*
X0230476Y0106983D01*
X0228583Y0106199D01*
X0227134Y0104751D01*
X0226350Y0102858D01*
X0226350Y0100809D01*
X0227134Y0098916D01*
X0228583Y0097467D01*
X0230476Y0096683D01*
X0232545Y0096692D02*
X0260455Y0096692D01*
X0260476Y0096683D02*
X0262524Y0096683D01*
X0264417Y0097467D01*
X0265866Y0098916D01*
X0266650Y0100809D01*
X0266650Y0102858D01*
X0265866Y0104751D01*
X0264417Y0106199D01*
X0262524Y0106983D01*
X0260476Y0106983D01*
X0258583Y0106199D01*
X0257134Y0104751D01*
X0256350Y0102858D01*
X0256350Y0100809D01*
X0257134Y0098916D01*
X0258583Y0097467D01*
X0260476Y0096683D01*
X0262545Y0096692D02*
X0271626Y0096692D01*
X0271504Y0096652D02*
X0270775Y0096281D01*
X0270112Y0095800D01*
X0269534Y0095221D01*
X0269053Y0094559D01*
X0268681Y0093829D01*
X0268428Y0093051D01*
X0268300Y0092243D01*
X0268300Y0092219D01*
X0273114Y0092219D01*
X0273114Y0091447D01*
X0273886Y0091447D01*
X0273886Y0086633D01*
X0273909Y0086633D01*
X0274718Y0086761D01*
X0275496Y0087014D01*
X0276225Y0087386D01*
X0276888Y0087867D01*
X0277466Y0088446D01*
X0277947Y0089108D01*
X0278319Y0089837D01*
X0278572Y0090616D01*
X0278700Y0091424D01*
X0278700Y0091447D01*
X0273886Y0091447D01*
X0273886Y0092219D01*
X0278700Y0092219D01*
X0278700Y0092243D01*
X0278572Y0093051D01*
X0278319Y0093829D01*
X0277947Y0094559D01*
X0277466Y0095221D01*
X0276888Y0095800D01*
X0276225Y0096281D01*
X0275496Y0096652D01*
X0274718Y0096905D01*
X0273909Y0097033D01*
X0273886Y0097033D01*
X0273886Y0092219D01*
X0273114Y0092219D01*
X0273114Y0097033D01*
X0273091Y0097033D01*
X0272282Y0096905D01*
X0271504Y0096652D01*
X0273114Y0096692D02*
X0273886Y0096692D01*
X0273886Y0095693D02*
X0273114Y0095693D01*
X0273114Y0094695D02*
X0273886Y0094695D01*
X0273886Y0093696D02*
X0273114Y0093696D01*
X0273114Y0092698D02*
X0273886Y0092698D01*
X0273886Y0091699D02*
X0297800Y0091699D01*
X0297800Y0090701D02*
X0278585Y0090701D01*
X0278250Y0089702D02*
X0298213Y0089702D01*
X0297800Y0090700D02*
X0298668Y0088605D01*
X0300271Y0087001D01*
X0302366Y0086133D01*
X0304634Y0086133D01*
X0306729Y0087001D01*
X0308332Y0088605D01*
X0309200Y0090700D01*
X0309200Y0092967D01*
X0308332Y0095062D01*
X0306729Y0096666D01*
X0304634Y0097533D01*
X0302366Y0097533D01*
X0300271Y0096666D01*
X0298668Y0095062D01*
X0297800Y0092967D01*
X0297800Y0090700D01*
X0297800Y0092698D02*
X0278628Y0092698D01*
X0278362Y0093696D02*
X0298102Y0093696D01*
X0298516Y0094695D02*
X0277849Y0094695D01*
X0276994Y0095693D02*
X0299299Y0095693D01*
X0300335Y0096692D02*
X0275374Y0096692D01*
X0273114Y0091699D02*
X0167750Y0091699D01*
X0167701Y0092698D02*
X0268372Y0092698D01*
X0268638Y0093696D02*
X0193666Y0093696D01*
X0194665Y0094695D02*
X0269151Y0094695D01*
X0270006Y0095693D02*
X0195087Y0095693D01*
X0195204Y0097690D02*
X0203360Y0097690D01*
X0202361Y0098689D02*
X0194790Y0098689D01*
X0193949Y0099687D02*
X0201815Y0099687D01*
X0201401Y0100686D02*
X0192584Y0100686D01*
X0192750Y0101684D02*
X0201350Y0101684D01*
X0201350Y0102683D02*
X0192707Y0102683D01*
X0192293Y0103681D02*
X0200409Y0103681D01*
X0199411Y0104680D02*
X0191457Y0104680D01*
X0189000Y0101833D02*
X0124000Y0101833D01*
X0124000Y0091833D02*
X0164000Y0091833D01*
X0167590Y0090701D02*
X0268415Y0090701D01*
X0268428Y0090616D02*
X0268681Y0089837D01*
X0269053Y0089108D01*
X0269534Y0088446D01*
X0270112Y0087867D01*
X0270775Y0087386D01*
X0271504Y0087014D01*
X0272282Y0086761D01*
X0273091Y0086633D01*
X0273114Y0086633D01*
X0273114Y0091447D01*
X0268300Y0091447D01*
X0268300Y0091424D01*
X0268428Y0090616D01*
X0268750Y0089702D02*
X0167172Y0089702D01*
X0166174Y0088704D02*
X0269346Y0088704D01*
X0270335Y0087705D02*
X0160198Y0087705D01*
X0160250Y0086707D02*
X0272627Y0086707D01*
X0273114Y0086707D02*
X0273886Y0086707D01*
X0274373Y0086707D02*
X0300982Y0086707D01*
X0299567Y0087705D02*
X0276665Y0087705D01*
X0277654Y0088704D02*
X0298627Y0088704D01*
X0306018Y0086707D02*
X0318982Y0086707D01*
X0318271Y0087001D02*
X0320366Y0086133D01*
X0322634Y0086133D01*
X0324729Y0087001D01*
X0326332Y0088605D01*
X0326500Y0089010D01*
X0326668Y0088605D01*
X0328271Y0087001D01*
X0330366Y0086133D01*
X0332634Y0086133D01*
X0334729Y0087001D01*
X0336332Y0088605D01*
X0337200Y0090700D01*
X0337200Y0092967D01*
X0336332Y0095062D01*
X0334729Y0096666D01*
X0334324Y0096833D01*
X0334729Y0097001D01*
X0336332Y0098605D01*
X0337200Y0100700D01*
X0337200Y0102967D01*
X0336332Y0105062D01*
X0334729Y0106666D01*
X0333671Y0107104D01*
X0334225Y0107386D01*
X0334888Y0107867D01*
X0335466Y0108446D01*
X0335947Y0109108D01*
X0336319Y0109837D01*
X0336572Y0110616D01*
X0336686Y0111333D01*
X0332000Y0111333D01*
X0332000Y0112333D01*
X0336686Y0112333D01*
X0336572Y0113051D01*
X0336319Y0113829D01*
X0335947Y0114559D01*
X0335466Y0115221D01*
X0334888Y0115800D01*
X0334225Y0116281D01*
X0333671Y0116563D01*
X0334729Y0117001D01*
X0336332Y0118605D01*
X0337200Y0120700D01*
X0337200Y0122967D01*
X0336332Y0125062D01*
X0334729Y0126666D01*
X0334324Y0126833D01*
X0334729Y0127001D01*
X0336332Y0128605D01*
X0337200Y0130700D01*
X0337200Y0132967D01*
X0336332Y0135062D01*
X0334729Y0136666D01*
X0332634Y0137533D01*
X0330366Y0137533D01*
X0328271Y0136666D01*
X0326668Y0135062D01*
X0326500Y0134657D01*
X0326332Y0135062D01*
X0324729Y0136666D01*
X0322634Y0137533D01*
X0320366Y0137533D01*
X0318271Y0136666D01*
X0316668Y0135062D01*
X0315800Y0132967D01*
X0315800Y0130700D01*
X0316668Y0128605D01*
X0318271Y0127001D01*
X0318676Y0126833D01*
X0318271Y0126666D01*
X0316668Y0125062D01*
X0315800Y0122967D01*
X0315800Y0120700D01*
X0316668Y0118605D01*
X0318271Y0117001D01*
X0319329Y0116563D01*
X0318775Y0116281D01*
X0318112Y0115800D01*
X0317534Y0115221D01*
X0317053Y0114559D01*
X0316681Y0113829D01*
X0316428Y0113051D01*
X0316314Y0112333D01*
X0321000Y0112333D01*
X0321000Y0111333D01*
X0316314Y0111333D01*
X0316428Y0110616D01*
X0316681Y0109837D01*
X0317053Y0109108D01*
X0317534Y0108446D01*
X0318112Y0107867D01*
X0318775Y0107386D01*
X0319329Y0107104D01*
X0318271Y0106666D01*
X0316668Y0105062D01*
X0315800Y0102967D01*
X0315800Y0100700D01*
X0316668Y0098605D01*
X0318271Y0097001D01*
X0318676Y0096833D01*
X0318271Y0096666D01*
X0316668Y0095062D01*
X0315800Y0092967D01*
X0315800Y0090700D01*
X0316668Y0088605D01*
X0318271Y0087001D01*
X0317567Y0087705D02*
X0307433Y0087705D01*
X0308373Y0088704D02*
X0316627Y0088704D01*
X0316213Y0089702D02*
X0308787Y0089702D01*
X0309200Y0090701D02*
X0315800Y0090701D01*
X0315800Y0091699D02*
X0309200Y0091699D01*
X0309200Y0092698D02*
X0315800Y0092698D01*
X0316102Y0093696D02*
X0308898Y0093696D01*
X0308484Y0094695D02*
X0316516Y0094695D01*
X0317299Y0095693D02*
X0307701Y0095693D01*
X0306665Y0096692D02*
X0318335Y0096692D01*
X0317582Y0097690D02*
X0264640Y0097690D01*
X0265639Y0098689D02*
X0316633Y0098689D01*
X0316219Y0099687D02*
X0266185Y0099687D01*
X0266599Y0100686D02*
X0315806Y0100686D01*
X0315800Y0101684D02*
X0266650Y0101684D01*
X0266650Y0102683D02*
X0315800Y0102683D01*
X0316096Y0103681D02*
X0266309Y0103681D01*
X0265895Y0104680D02*
X0316509Y0104680D01*
X0317284Y0105679D02*
X0264938Y0105679D01*
X0263264Y0106677D02*
X0318299Y0106677D01*
X0318376Y0107676D02*
X0204900Y0107676D01*
X0203902Y0108674D02*
X0317368Y0108674D01*
X0316765Y0109673D02*
X0202903Y0109673D01*
X0201905Y0110671D02*
X0316419Y0110671D01*
X0316367Y0112668D02*
X0199908Y0112668D01*
X0200906Y0111670D02*
X0321000Y0111670D01*
X0322000Y0111670D02*
X0331000Y0111670D01*
X0331000Y0111333D02*
X0331000Y0112333D01*
X0322000Y0112333D01*
X0322000Y0111333D01*
X0326314Y0111333D01*
X0331000Y0111333D01*
X0332000Y0111670D02*
X0344000Y0111670D01*
X0344000Y0112668D02*
X0336633Y0112668D01*
X0336372Y0113667D02*
X0344000Y0113667D01*
X0344000Y0114665D02*
X0335870Y0114665D01*
X0335024Y0115664D02*
X0344000Y0115664D01*
X0344000Y0116662D02*
X0333910Y0116662D01*
X0335388Y0117661D02*
X0344000Y0117661D01*
X0344000Y0118659D02*
X0336355Y0118659D01*
X0336768Y0119658D02*
X0344000Y0119658D01*
X0344000Y0120656D02*
X0337182Y0120656D01*
X0337200Y0121655D02*
X0344000Y0121655D01*
X0344000Y0122653D02*
X0337200Y0122653D01*
X0336916Y0123652D02*
X0344000Y0123652D01*
X0344000Y0124650D02*
X0336503Y0124650D01*
X0335746Y0125649D02*
X0344000Y0125649D01*
X0344000Y0126647D02*
X0334747Y0126647D01*
X0335373Y0127646D02*
X0344000Y0127646D01*
X0344000Y0128644D02*
X0336349Y0128644D01*
X0336762Y0129643D02*
X0344000Y0129643D01*
X0344000Y0130641D02*
X0337176Y0130641D01*
X0337200Y0131640D02*
X0344000Y0131640D01*
X0344000Y0132638D02*
X0337200Y0132638D01*
X0336923Y0133637D02*
X0344000Y0133637D01*
X0344000Y0134635D02*
X0336509Y0134635D01*
X0335760Y0135634D02*
X0344000Y0135634D01*
X0344000Y0136632D02*
X0334762Y0136632D01*
X0328238Y0136632D02*
X0324762Y0136632D01*
X0325760Y0135634D02*
X0327239Y0135634D01*
X0318238Y0136632D02*
X0239000Y0136632D01*
X0239000Y0136336D02*
X0239000Y0169030D01*
X0239376Y0168654D01*
X0240754Y0168083D01*
X0242246Y0168083D01*
X0243624Y0168654D01*
X0244303Y0169333D01*
X0261997Y0169333D01*
X0262916Y0169714D01*
X0263619Y0170417D01*
X0268619Y0175417D01*
X0269000Y0176336D01*
X0269000Y0229030D01*
X0269679Y0229709D01*
X0270250Y0231087D01*
X0270250Y0232579D01*
X0269679Y0233958D01*
X0268624Y0235012D01*
X0267246Y0235583D01*
X0265754Y0235583D01*
X0264376Y0235012D01*
X0263321Y0233958D01*
X0262750Y0232579D01*
X0262750Y0231087D01*
X0263321Y0229709D01*
X0264000Y0229030D01*
X0264000Y0177869D01*
X0260464Y0174333D01*
X0249303Y0174333D01*
X0249679Y0174709D01*
X0250250Y0176087D01*
X0250250Y0177579D01*
X0249679Y0178958D01*
X0249000Y0179637D01*
X0249000Y0197331D01*
X0248619Y0198249D01*
X0245250Y0201619D01*
X0245250Y0202579D01*
X0244679Y0203958D01*
X0243624Y0205012D01*
X0242246Y0205583D01*
X0240754Y0205583D01*
X0239376Y0205012D01*
X0239000Y0204637D01*
X0239000Y0235798D01*
X0242536Y0239333D01*
X0277584Y0239333D01*
X0277622Y0239242D01*
X0278909Y0237955D01*
X0280590Y0237259D01*
X0282410Y0237259D01*
X0284091Y0237955D01*
X0285378Y0239242D01*
X0286075Y0240923D01*
X0286075Y0242743D01*
X0285378Y0244425D01*
X0284091Y0245712D01*
X0282410Y0246408D01*
X0280590Y0246408D01*
X0278909Y0245712D01*
X0277622Y0244425D01*
X0277584Y0244333D01*
X0241003Y0244333D01*
X0240084Y0243953D01*
X0235084Y0238953D01*
X0234381Y0238249D01*
X0234000Y0237331D01*
X0234000Y0137869D01*
X0225464Y0129333D01*
X0225416Y0129333D01*
X0226075Y0130923D01*
X0226075Y0132743D01*
X0225416Y0134333D01*
X0226997Y0134333D01*
X0227916Y0134714D01*
X0232916Y0139714D01*
X0233619Y0140417D01*
X0234000Y0141336D01*
X0234000Y0255798D01*
X0237536Y0259333D01*
X0277584Y0259333D01*
X0277622Y0259242D01*
X0278909Y0257955D01*
X0280590Y0257259D01*
X0282410Y0257259D01*
X0284091Y0257955D01*
X0285378Y0259242D01*
X0286075Y0260923D01*
X0286075Y0262743D01*
X0285378Y0264425D01*
X0284091Y0265712D01*
X0282410Y0266408D01*
X0280590Y0266408D01*
X0278909Y0265712D01*
X0277622Y0264425D01*
X0277584Y0264333D01*
X0236003Y0264333D01*
X0235084Y0263953D01*
X0234381Y0263249D01*
X0229381Y0258249D01*
X0229000Y0257331D01*
X0229000Y0142869D01*
X0225464Y0139333D01*
X0224720Y0139333D01*
X0224985Y0139698D01*
X0225276Y0140269D01*
X0225474Y0140879D01*
X0225575Y0141513D01*
X0225575Y0141546D01*
X0221787Y0141546D01*
X0221787Y0142121D01*
X0221213Y0142121D01*
X0221213Y0145908D01*
X0221179Y0145908D01*
X0220546Y0145808D01*
X0220070Y0145653D01*
X0220250Y0146087D01*
X0220250Y0147399D01*
X0220590Y0147259D01*
X0222410Y0147259D01*
X0224091Y0147955D01*
X0225378Y0149242D01*
X0226075Y0150923D01*
X0226075Y0152743D01*
X0225378Y0154425D01*
X0224091Y0155712D01*
X0222410Y0156408D01*
X0220590Y0156408D01*
X0218909Y0155712D01*
X0217622Y0154425D01*
X0216925Y0152743D01*
X0216925Y0150923D01*
X0217066Y0150583D01*
X0215754Y0150583D01*
X0214376Y0150012D01*
X0213321Y0148958D01*
X0212750Y0147579D01*
X0212750Y0146833D01*
X0206003Y0146833D01*
X0205084Y0146453D01*
X0204381Y0145749D01*
X0204214Y0145583D01*
X0203254Y0145583D01*
X0201876Y0145012D01*
X0200821Y0143958D01*
X0200250Y0142579D01*
X0200250Y0141087D01*
X0200821Y0139709D01*
X0201876Y0138654D01*
X0203254Y0138083D01*
X0204746Y0138083D01*
X0206124Y0138654D01*
X0207179Y0139709D01*
X0207750Y0141087D01*
X0207750Y0141833D01*
X0214497Y0141833D01*
X0215416Y0142214D01*
X0216286Y0143083D01*
X0217246Y0143083D01*
X0217680Y0143263D01*
X0217526Y0142788D01*
X0217425Y0142154D01*
X0217425Y0142121D01*
X0221213Y0142121D01*
X0221213Y0141546D01*
X0217425Y0141546D01*
X0217425Y0141513D01*
X0217526Y0140879D01*
X0217724Y0140269D01*
X0218015Y0139698D01*
X0218280Y0139333D01*
X0208503Y0139333D01*
X0207584Y0138953D01*
X0206881Y0138249D01*
X0204214Y0135583D01*
X0203254Y0135583D01*
X0201876Y0135012D01*
X0200821Y0133958D01*
X0200250Y0132579D01*
X0200250Y0131087D01*
X0200821Y0129709D01*
X0201876Y0128654D01*
X0203002Y0128188D01*
X0202750Y0127579D01*
X0202750Y0126087D01*
X0203321Y0124709D01*
X0204376Y0123654D01*
X0205754Y0123083D01*
X0207246Y0123083D01*
X0208624Y0123654D01*
X0209303Y0124333D01*
X0226997Y0124333D01*
X0227916Y0124714D01*
X0228619Y0125417D01*
X0238619Y0135417D01*
X0239000Y0136336D01*
X0238709Y0135634D02*
X0278831Y0135634D01*
X0278909Y0135712D02*
X0277622Y0134425D01*
X0276925Y0132743D01*
X0276925Y0130923D01*
X0277622Y0129242D01*
X0278909Y0127955D01*
X0280590Y0127259D01*
X0282410Y0127259D01*
X0284091Y0127955D01*
X0285378Y0129242D01*
X0286075Y0130923D01*
X0286075Y0132743D01*
X0285378Y0134425D01*
X0284091Y0135712D01*
X0282410Y0136408D01*
X0280590Y0136408D01*
X0278909Y0135712D01*
X0277832Y0134635D02*
X0237838Y0134635D01*
X0236839Y0133637D02*
X0277295Y0133637D01*
X0276925Y0132638D02*
X0235841Y0132638D01*
X0234842Y0131640D02*
X0276925Y0131640D01*
X0277042Y0130641D02*
X0233843Y0130641D01*
X0232845Y0129643D02*
X0277456Y0129643D01*
X0278219Y0128644D02*
X0231846Y0128644D01*
X0230848Y0127646D02*
X0279655Y0127646D01*
X0283345Y0127646D02*
X0317627Y0127646D01*
X0318253Y0126647D02*
X0229849Y0126647D01*
X0228851Y0125649D02*
X0317254Y0125649D01*
X0316497Y0124650D02*
X0227762Y0124650D01*
X0226500Y0126833D02*
X0206500Y0126833D01*
X0202750Y0126647D02*
X0194489Y0126647D01*
X0195014Y0125649D02*
X0202932Y0125649D01*
X0203380Y0124650D02*
X0195250Y0124650D01*
X0195250Y0123652D02*
X0204382Y0123652D01*
X0208618Y0123652D02*
X0316084Y0123652D01*
X0315800Y0122653D02*
X0194863Y0122653D01*
X0194500Y0121655D02*
X0315800Y0121655D01*
X0315818Y0120656D02*
X0194500Y0120656D01*
X0194500Y0119658D02*
X0316232Y0119658D01*
X0316645Y0118659D02*
X0194500Y0118659D01*
X0194915Y0117661D02*
X0317612Y0117661D01*
X0319090Y0116662D02*
X0195914Y0116662D01*
X0196912Y0115664D02*
X0317976Y0115664D01*
X0317130Y0114665D02*
X0197911Y0114665D01*
X0198909Y0113667D02*
X0316628Y0113667D01*
X0316651Y0128644D02*
X0284781Y0128644D01*
X0285544Y0129643D02*
X0316238Y0129643D01*
X0315824Y0130641D02*
X0285958Y0130641D01*
X0286075Y0131640D02*
X0315800Y0131640D01*
X0315800Y0132638D02*
X0286075Y0132638D01*
X0285705Y0133637D02*
X0316077Y0133637D01*
X0316491Y0134635D02*
X0285168Y0134635D01*
X0284169Y0135634D02*
X0317239Y0135634D01*
X0344000Y0137631D02*
X0283309Y0137631D01*
X0284091Y0137955D02*
X0282410Y0137259D01*
X0280590Y0137259D01*
X0278909Y0137955D01*
X0277622Y0139242D01*
X0276925Y0140923D01*
X0276925Y0142743D01*
X0277622Y0144425D01*
X0278909Y0145712D01*
X0280590Y0146408D01*
X0282410Y0146408D01*
X0284091Y0145712D01*
X0285378Y0144425D01*
X0286075Y0142743D01*
X0286075Y0140923D01*
X0285378Y0139242D01*
X0284091Y0137955D01*
X0284766Y0138629D02*
X0344000Y0138629D01*
X0344000Y0139628D02*
X0285538Y0139628D01*
X0285952Y0140626D02*
X0344000Y0140626D01*
X0344000Y0141625D02*
X0286075Y0141625D01*
X0286075Y0142623D02*
X0344000Y0142623D01*
X0344000Y0143622D02*
X0285711Y0143622D01*
X0285183Y0144620D02*
X0344000Y0144620D01*
X0344000Y0145619D02*
X0284184Y0145619D01*
X0283273Y0147616D02*
X0344000Y0147616D01*
X0344000Y0148614D02*
X0284751Y0148614D01*
X0285378Y0149242D02*
X0284091Y0147955D01*
X0282410Y0147259D01*
X0280590Y0147259D01*
X0278909Y0147955D01*
X0277622Y0149242D01*
X0276925Y0150923D01*
X0276925Y0152743D01*
X0277622Y0154425D01*
X0278909Y0155712D01*
X0280590Y0156408D01*
X0282410Y0156408D01*
X0284091Y0155712D01*
X0285378Y0154425D01*
X0286075Y0152743D01*
X0286075Y0150923D01*
X0285378Y0149242D01*
X0285532Y0149613D02*
X0344000Y0149613D01*
X0344000Y0150612D02*
X0285946Y0150612D01*
X0286075Y0151610D02*
X0344000Y0151610D01*
X0344000Y0152609D02*
X0286075Y0152609D01*
X0285717Y0153607D02*
X0344000Y0153607D01*
X0344000Y0154606D02*
X0285198Y0154606D01*
X0284199Y0155604D02*
X0344000Y0155604D01*
X0344000Y0156603D02*
X0239000Y0156603D01*
X0239000Y0157601D02*
X0344000Y0157601D01*
X0344000Y0158600D02*
X0283982Y0158600D01*
X0284155Y0158725D02*
X0284608Y0159179D01*
X0284985Y0159698D01*
X0285276Y0160269D01*
X0285474Y0160879D01*
X0285575Y0161513D01*
X0285575Y0161546D01*
X0281787Y0161546D01*
X0281787Y0157759D01*
X0281821Y0157759D01*
X0282454Y0157859D01*
X0283064Y0158057D01*
X0283636Y0158348D01*
X0284155Y0158725D01*
X0284913Y0159598D02*
X0344000Y0159598D01*
X0344000Y0160597D02*
X0285383Y0160597D01*
X0285575Y0162121D02*
X0285575Y0162154D01*
X0285474Y0162788D01*
X0285276Y0163398D01*
X0284985Y0163969D01*
X0284608Y0164488D01*
X0284155Y0164941D01*
X0283636Y0165318D01*
X0283064Y0165610D01*
X0282454Y0165808D01*
X0281821Y0165908D01*
X0281787Y0165908D01*
X0281787Y0162121D01*
X0281213Y0162121D01*
X0281213Y0165908D01*
X0281179Y0165908D01*
X0280546Y0165808D01*
X0279936Y0165610D01*
X0279364Y0165318D01*
X0278845Y0164941D01*
X0278392Y0164488D01*
X0278015Y0163969D01*
X0277724Y0163398D01*
X0277526Y0162788D01*
X0277425Y0162154D01*
X0277425Y0162121D01*
X0281213Y0162121D01*
X0281213Y0161546D01*
X0281787Y0161546D01*
X0281787Y0162121D01*
X0285575Y0162121D01*
X0285505Y0162594D02*
X0344000Y0162594D01*
X0344000Y0163592D02*
X0285177Y0163592D01*
X0284505Y0164591D02*
X0344000Y0164591D01*
X0344000Y0165589D02*
X0283104Y0165589D01*
X0281787Y0165589D02*
X0281213Y0165589D01*
X0281213Y0164591D02*
X0281787Y0164591D01*
X0281787Y0163592D02*
X0281213Y0163592D01*
X0281213Y0162594D02*
X0281787Y0162594D01*
X0281787Y0161595D02*
X0344000Y0161595D01*
X0344000Y0166588D02*
X0239000Y0166588D01*
X0239000Y0167586D02*
X0279799Y0167586D01*
X0280590Y0167259D02*
X0282410Y0167259D01*
X0284091Y0167955D01*
X0285378Y0169242D01*
X0286075Y0170923D01*
X0286075Y0172743D01*
X0285378Y0174425D01*
X0284091Y0175712D01*
X0282410Y0176408D01*
X0280590Y0176408D01*
X0278909Y0175712D01*
X0277622Y0174425D01*
X0276925Y0172743D01*
X0276925Y0170923D01*
X0277622Y0169242D01*
X0278909Y0167955D01*
X0280590Y0167259D01*
X0279896Y0165589D02*
X0239000Y0165589D01*
X0239000Y0164591D02*
X0278495Y0164591D01*
X0277823Y0163592D02*
X0239000Y0163592D01*
X0239000Y0162594D02*
X0277495Y0162594D01*
X0277425Y0161546D02*
X0277425Y0161513D01*
X0277526Y0160879D01*
X0277724Y0160269D01*
X0278015Y0159698D01*
X0278392Y0159179D01*
X0278845Y0158725D01*
X0279364Y0158348D01*
X0279936Y0158057D01*
X0280546Y0157859D01*
X0281179Y0157759D01*
X0281213Y0157759D01*
X0281213Y0161546D01*
X0277425Y0161546D01*
X0277617Y0160597D02*
X0239000Y0160597D01*
X0239000Y0161595D02*
X0281213Y0161595D01*
X0281213Y0160597D02*
X0281787Y0160597D01*
X0281787Y0159598D02*
X0281213Y0159598D01*
X0281213Y0158600D02*
X0281787Y0158600D01*
X0279018Y0158600D02*
X0239000Y0158600D01*
X0239000Y0159598D02*
X0278087Y0159598D01*
X0278801Y0155604D02*
X0239000Y0155604D01*
X0239000Y0154606D02*
X0277802Y0154606D01*
X0277283Y0153607D02*
X0239000Y0153607D01*
X0239000Y0152609D02*
X0276925Y0152609D01*
X0276925Y0151610D02*
X0239000Y0151610D01*
X0239000Y0150612D02*
X0277054Y0150612D01*
X0277468Y0149613D02*
X0239000Y0149613D01*
X0239000Y0148614D02*
X0278249Y0148614D01*
X0279727Y0147616D02*
X0239000Y0147616D01*
X0239000Y0146617D02*
X0344000Y0146617D01*
X0344000Y0167586D02*
X0337698Y0167586D01*
X0337533Y0167532D02*
X0338193Y0167747D01*
X0338811Y0168062D01*
X0339373Y0168470D01*
X0339863Y0168961D01*
X0340271Y0169522D01*
X0340586Y0170141D01*
X0340801Y0170801D01*
X0340892Y0171379D01*
X0336955Y0171379D01*
X0336955Y0172288D01*
X0340892Y0172288D01*
X0340801Y0172866D01*
X0340586Y0173526D01*
X0340271Y0174144D01*
X0339863Y0174706D01*
X0339373Y0175197D01*
X0338811Y0175605D01*
X0338193Y0175920D01*
X0337533Y0176134D01*
X0336955Y0176226D01*
X0336955Y0172288D01*
X0336045Y0172288D01*
X0336045Y0171379D01*
X0332108Y0171379D01*
X0332199Y0170801D01*
X0332414Y0170141D01*
X0332729Y0169522D01*
X0333137Y0168961D01*
X0333627Y0168470D01*
X0334189Y0168062D01*
X0334807Y0167747D01*
X0335467Y0167532D01*
X0336045Y0167441D01*
X0336045Y0171379D01*
X0336955Y0171379D01*
X0336955Y0167441D01*
X0337533Y0167532D01*
X0336955Y0167586D02*
X0336045Y0167586D01*
X0335302Y0167586D02*
X0309076Y0167586D01*
X0309281Y0167671D02*
X0310662Y0169052D01*
X0311409Y0170857D01*
X0311409Y0172810D01*
X0310662Y0174614D01*
X0309281Y0175995D01*
X0307477Y0176743D01*
X0305523Y0176743D01*
X0303719Y0175995D01*
X0302338Y0174614D01*
X0301591Y0172810D01*
X0301591Y0170857D01*
X0302338Y0169052D01*
X0303719Y0167671D01*
X0305523Y0166924D01*
X0307477Y0166924D01*
X0309281Y0167671D01*
X0310194Y0168585D02*
X0333513Y0168585D01*
X0332698Y0169583D02*
X0310882Y0169583D01*
X0311296Y0170582D02*
X0332270Y0170582D01*
X0332108Y0172288D02*
X0336045Y0172288D01*
X0336045Y0176226D01*
X0335467Y0176134D01*
X0334807Y0175920D01*
X0334189Y0175605D01*
X0333627Y0175197D01*
X0333137Y0174706D01*
X0332729Y0174144D01*
X0332414Y0173526D01*
X0332199Y0172866D01*
X0332108Y0172288D01*
X0332154Y0172579D02*
X0311409Y0172579D01*
X0311409Y0171580D02*
X0336045Y0171580D01*
X0336955Y0171580D02*
X0344000Y0171580D01*
X0344000Y0170582D02*
X0340730Y0170582D01*
X0340302Y0169583D02*
X0344000Y0169583D01*
X0344000Y0168585D02*
X0339487Y0168585D01*
X0336955Y0168585D02*
X0336045Y0168585D01*
X0336045Y0169583D02*
X0336955Y0169583D01*
X0336955Y0170582D02*
X0336045Y0170582D01*
X0336045Y0172579D02*
X0336955Y0172579D01*
X0336955Y0173577D02*
X0336045Y0173577D01*
X0336045Y0174576D02*
X0336955Y0174576D01*
X0336955Y0175574D02*
X0336045Y0175574D01*
X0336045Y0177441D02*
X0336045Y0181379D01*
X0332108Y0181379D01*
X0332199Y0180801D01*
X0332414Y0180141D01*
X0332729Y0179522D01*
X0333137Y0178961D01*
X0333627Y0178470D01*
X0334189Y0178062D01*
X0334807Y0177747D01*
X0335467Y0177532D01*
X0336045Y0177441D01*
X0336045Y0177571D02*
X0336955Y0177571D01*
X0336955Y0177441D02*
X0337533Y0177532D01*
X0338193Y0177747D01*
X0338811Y0178062D01*
X0339373Y0178470D01*
X0339863Y0178961D01*
X0340271Y0179522D01*
X0340586Y0180141D01*
X0340801Y0180801D01*
X0340892Y0181379D01*
X0336955Y0181379D01*
X0336955Y0182288D01*
X0340892Y0182288D01*
X0340801Y0182866D01*
X0340586Y0183526D01*
X0340271Y0184144D01*
X0339863Y0184706D01*
X0339373Y0185197D01*
X0338811Y0185605D01*
X0338193Y0185920D01*
X0337533Y0186134D01*
X0336955Y0186226D01*
X0336955Y0182288D01*
X0336045Y0182288D01*
X0336045Y0181379D01*
X0336955Y0181379D01*
X0336955Y0177441D01*
X0337652Y0177571D02*
X0344000Y0177571D01*
X0344000Y0176573D02*
X0307887Y0176573D01*
X0307477Y0176924D02*
X0309281Y0177671D01*
X0310662Y0179052D01*
X0311409Y0180857D01*
X0311409Y0182810D01*
X0310662Y0184614D01*
X0309281Y0185995D01*
X0307477Y0186743D01*
X0305523Y0186743D01*
X0303719Y0185995D01*
X0302338Y0184614D01*
X0301591Y0182810D01*
X0301591Y0180857D01*
X0302338Y0179052D01*
X0303719Y0177671D01*
X0305523Y0176924D01*
X0307477Y0176924D01*
X0309040Y0177571D02*
X0335348Y0177571D01*
X0336045Y0178570D02*
X0336955Y0178570D01*
X0336955Y0179568D02*
X0336045Y0179568D01*
X0336045Y0180567D02*
X0336955Y0180567D01*
X0336955Y0181565D02*
X0344000Y0181565D01*
X0344000Y0180567D02*
X0340725Y0180567D01*
X0340295Y0179568D02*
X0344000Y0179568D01*
X0344000Y0178570D02*
X0339472Y0178570D01*
X0338853Y0175574D02*
X0344000Y0175574D01*
X0344000Y0174576D02*
X0339958Y0174576D01*
X0340560Y0173577D02*
X0344000Y0173577D01*
X0344000Y0172579D02*
X0340846Y0172579D01*
X0334147Y0175574D02*
X0309702Y0175574D01*
X0310678Y0174576D02*
X0333042Y0174576D01*
X0332440Y0173577D02*
X0311092Y0173577D01*
X0310180Y0178570D02*
X0333528Y0178570D01*
X0332705Y0179568D02*
X0310876Y0179568D01*
X0311289Y0180567D02*
X0332275Y0180567D01*
X0332108Y0182288D02*
X0336045Y0182288D01*
X0336045Y0186226D01*
X0335467Y0186134D01*
X0334807Y0185920D01*
X0334189Y0185605D01*
X0333627Y0185197D01*
X0333137Y0184706D01*
X0332729Y0184144D01*
X0332414Y0183526D01*
X0332199Y0182866D01*
X0332108Y0182288D01*
X0332151Y0182564D02*
X0311409Y0182564D01*
X0311409Y0181565D02*
X0336045Y0181565D01*
X0336045Y0182564D02*
X0336955Y0182564D01*
X0336955Y0183562D02*
X0336045Y0183562D01*
X0336045Y0184561D02*
X0336955Y0184561D01*
X0336955Y0185559D02*
X0336045Y0185559D01*
X0336045Y0187441D02*
X0336045Y0191379D01*
X0332108Y0191379D01*
X0332199Y0190801D01*
X0332414Y0190141D01*
X0332729Y0189522D01*
X0333137Y0188961D01*
X0333627Y0188470D01*
X0334189Y0188062D01*
X0334807Y0187747D01*
X0335467Y0187532D01*
X0336045Y0187441D01*
X0336045Y0187556D02*
X0336955Y0187556D01*
X0336955Y0187441D02*
X0337533Y0187532D01*
X0338193Y0187747D01*
X0338811Y0188062D01*
X0339373Y0188470D01*
X0339863Y0188961D01*
X0340271Y0189522D01*
X0340586Y0190141D01*
X0340801Y0190801D01*
X0340892Y0191379D01*
X0336955Y0191379D01*
X0336955Y0192288D01*
X0340892Y0192288D01*
X0340801Y0192866D01*
X0340586Y0193526D01*
X0340271Y0194144D01*
X0339863Y0194706D01*
X0339373Y0195197D01*
X0338811Y0195605D01*
X0338193Y0195920D01*
X0337533Y0196134D01*
X0336955Y0196226D01*
X0336955Y0192288D01*
X0336045Y0192288D01*
X0336045Y0191379D01*
X0336955Y0191379D01*
X0336955Y0187441D01*
X0337606Y0187556D02*
X0344000Y0187556D01*
X0344000Y0186558D02*
X0307923Y0186558D01*
X0307477Y0186924D02*
X0309281Y0187671D01*
X0310662Y0189052D01*
X0311409Y0190857D01*
X0311409Y0192810D01*
X0310662Y0194614D01*
X0309281Y0195995D01*
X0307477Y0196743D01*
X0305523Y0196743D01*
X0303719Y0195995D01*
X0302338Y0194614D01*
X0301591Y0192810D01*
X0301591Y0190857D01*
X0302338Y0189052D01*
X0303719Y0187671D01*
X0305523Y0186924D01*
X0307477Y0186924D01*
X0309004Y0187556D02*
X0335394Y0187556D01*
X0336045Y0188555D02*
X0336955Y0188555D01*
X0336955Y0189553D02*
X0336045Y0189553D01*
X0336045Y0190552D02*
X0336955Y0190552D01*
X0336955Y0191550D02*
X0344000Y0191550D01*
X0344000Y0190552D02*
X0340720Y0190552D01*
X0340287Y0189553D02*
X0344000Y0189553D01*
X0344000Y0188555D02*
X0339458Y0188555D01*
X0338873Y0185559D02*
X0344000Y0185559D01*
X0344000Y0184561D02*
X0339969Y0184561D01*
X0340568Y0183562D02*
X0344000Y0183562D01*
X0344000Y0182564D02*
X0340849Y0182564D01*
X0334127Y0185559D02*
X0309717Y0185559D01*
X0310684Y0184561D02*
X0333031Y0184561D01*
X0332432Y0183562D02*
X0311098Y0183562D01*
X0310165Y0188555D02*
X0333542Y0188555D01*
X0332713Y0189553D02*
X0310870Y0189553D01*
X0311283Y0190552D02*
X0332280Y0190552D01*
X0332108Y0192288D02*
X0336045Y0192288D01*
X0336045Y0196226D01*
X0335467Y0196134D01*
X0334807Y0195920D01*
X0334189Y0195605D01*
X0333627Y0195197D01*
X0333137Y0194706D01*
X0332729Y0194144D01*
X0332414Y0193526D01*
X0332199Y0192866D01*
X0332108Y0192288D01*
X0332149Y0192549D02*
X0311409Y0192549D01*
X0311409Y0191550D02*
X0336045Y0191550D01*
X0336045Y0192549D02*
X0336955Y0192549D01*
X0336955Y0193548D02*
X0336045Y0193548D01*
X0336045Y0194546D02*
X0336955Y0194546D01*
X0336955Y0195545D02*
X0336045Y0195545D01*
X0336045Y0197441D02*
X0336045Y0201379D01*
X0332108Y0201379D01*
X0332199Y0200801D01*
X0332414Y0200141D01*
X0332729Y0199522D01*
X0333137Y0198961D01*
X0333627Y0198470D01*
X0334189Y0198062D01*
X0334807Y0197747D01*
X0335467Y0197532D01*
X0336045Y0197441D01*
X0336045Y0197542D02*
X0336955Y0197542D01*
X0336955Y0197441D02*
X0337533Y0197532D01*
X0338193Y0197747D01*
X0338811Y0198062D01*
X0339373Y0198470D01*
X0339863Y0198961D01*
X0340271Y0199522D01*
X0340586Y0200141D01*
X0340801Y0200801D01*
X0340892Y0201379D01*
X0336955Y0201379D01*
X0336955Y0202288D01*
X0340892Y0202288D01*
X0340801Y0202866D01*
X0340586Y0203526D01*
X0340271Y0204144D01*
X0339863Y0204706D01*
X0339373Y0205197D01*
X0338811Y0205605D01*
X0338193Y0205920D01*
X0337533Y0206134D01*
X0336955Y0206226D01*
X0336955Y0202288D01*
X0336045Y0202288D01*
X0336045Y0201379D01*
X0336955Y0201379D01*
X0336955Y0197441D01*
X0337561Y0197542D02*
X0344000Y0197542D01*
X0344000Y0198540D02*
X0339443Y0198540D01*
X0340280Y0199539D02*
X0344000Y0199539D01*
X0344000Y0200537D02*
X0340715Y0200537D01*
X0340853Y0202534D02*
X0344000Y0202534D01*
X0344000Y0201536D02*
X0336955Y0201536D01*
X0336045Y0201536D02*
X0311409Y0201536D01*
X0311409Y0200857D02*
X0310662Y0199052D01*
X0309281Y0197671D01*
X0307477Y0196924D01*
X0305523Y0196924D01*
X0303719Y0197671D01*
X0302338Y0199052D01*
X0301591Y0200857D01*
X0301591Y0202810D01*
X0302338Y0204614D01*
X0303719Y0205995D01*
X0305523Y0206743D01*
X0307477Y0206743D01*
X0309281Y0205995D01*
X0310662Y0204614D01*
X0311409Y0202810D01*
X0311409Y0200857D01*
X0311277Y0200537D02*
X0332285Y0200537D01*
X0332720Y0199539D02*
X0310863Y0199539D01*
X0310150Y0198540D02*
X0333557Y0198540D01*
X0335439Y0197542D02*
X0308968Y0197542D01*
X0307959Y0196543D02*
X0344000Y0196543D01*
X0344000Y0195545D02*
X0338894Y0195545D01*
X0339979Y0194546D02*
X0344000Y0194546D01*
X0344000Y0193548D02*
X0340575Y0193548D01*
X0340851Y0192549D02*
X0344000Y0192549D01*
X0336955Y0198540D02*
X0336045Y0198540D01*
X0336045Y0199539D02*
X0336955Y0199539D01*
X0336955Y0200537D02*
X0336045Y0200537D01*
X0336045Y0202288D02*
X0332108Y0202288D01*
X0332199Y0202866D01*
X0332414Y0203526D01*
X0332729Y0204144D01*
X0333137Y0204706D01*
X0333627Y0205197D01*
X0334189Y0205605D01*
X0334807Y0205920D01*
X0335467Y0206134D01*
X0336045Y0206226D01*
X0336045Y0202288D01*
X0336045Y0202534D02*
X0336955Y0202534D01*
X0336955Y0203533D02*
X0336045Y0203533D01*
X0336045Y0204531D02*
X0336955Y0204531D01*
X0336955Y0205530D02*
X0336045Y0205530D01*
X0336045Y0207441D02*
X0336045Y0211379D01*
X0332108Y0211379D01*
X0332199Y0210801D01*
X0332414Y0210141D01*
X0332729Y0209522D01*
X0333137Y0208961D01*
X0333627Y0208470D01*
X0334189Y0208062D01*
X0334807Y0207747D01*
X0335467Y0207532D01*
X0336045Y0207441D01*
X0336045Y0207527D02*
X0336955Y0207527D01*
X0336955Y0207441D02*
X0337533Y0207532D01*
X0338193Y0207747D01*
X0338811Y0208062D01*
X0339373Y0208470D01*
X0339863Y0208961D01*
X0340271Y0209522D01*
X0340586Y0210141D01*
X0340801Y0210801D01*
X0340892Y0211379D01*
X0336955Y0211379D01*
X0336955Y0212288D01*
X0340892Y0212288D01*
X0340801Y0212866D01*
X0340586Y0213526D01*
X0340271Y0214144D01*
X0339863Y0214706D01*
X0339373Y0215197D01*
X0338811Y0215605D01*
X0338193Y0215920D01*
X0337533Y0216134D01*
X0336955Y0216226D01*
X0336955Y0212288D01*
X0336045Y0212288D01*
X0336045Y0211379D01*
X0336955Y0211379D01*
X0336955Y0207441D01*
X0337496Y0207527D02*
X0344000Y0207527D01*
X0344000Y0208525D02*
X0339428Y0208525D01*
X0340272Y0209524D02*
X0344000Y0209524D01*
X0344000Y0210522D02*
X0340710Y0210522D01*
X0340856Y0212519D02*
X0344000Y0212519D01*
X0344000Y0211521D02*
X0336955Y0211521D01*
X0336045Y0211521D02*
X0311409Y0211521D01*
X0311409Y0210857D02*
X0311409Y0212810D01*
X0310662Y0214614D01*
X0309281Y0215995D01*
X0307477Y0216743D01*
X0305523Y0216743D01*
X0303719Y0215995D01*
X0302338Y0214614D01*
X0301591Y0212810D01*
X0301591Y0210857D01*
X0302338Y0209052D01*
X0303719Y0207671D01*
X0305523Y0206924D01*
X0307477Y0206924D01*
X0309281Y0207671D01*
X0310662Y0209052D01*
X0311409Y0210857D01*
X0311271Y0210522D02*
X0332290Y0210522D01*
X0332728Y0209524D02*
X0310857Y0209524D01*
X0310135Y0208525D02*
X0333572Y0208525D01*
X0335504Y0207527D02*
X0308932Y0207527D01*
X0307995Y0206528D02*
X0344000Y0206528D01*
X0344000Y0205530D02*
X0338914Y0205530D01*
X0339990Y0204531D02*
X0344000Y0204531D01*
X0344000Y0203533D02*
X0340583Y0203533D01*
X0334086Y0205530D02*
X0309747Y0205530D01*
X0310696Y0204531D02*
X0333010Y0204531D01*
X0332417Y0203533D02*
X0311110Y0203533D01*
X0311409Y0202534D02*
X0332147Y0202534D01*
X0336045Y0208525D02*
X0336955Y0208525D01*
X0336955Y0209524D02*
X0336045Y0209524D01*
X0336045Y0210522D02*
X0336955Y0210522D01*
X0336045Y0212288D02*
X0332108Y0212288D01*
X0332199Y0212866D01*
X0332414Y0213526D01*
X0332729Y0214144D01*
X0333137Y0214706D01*
X0333627Y0215197D01*
X0334189Y0215605D01*
X0334807Y0215920D01*
X0335467Y0216134D01*
X0336045Y0216226D01*
X0336045Y0212288D01*
X0336045Y0212519D02*
X0336955Y0212519D01*
X0336955Y0213518D02*
X0336045Y0213518D01*
X0336045Y0214516D02*
X0336955Y0214516D01*
X0336955Y0215515D02*
X0336045Y0215515D01*
X0336045Y0217441D02*
X0336045Y0221379D01*
X0332108Y0221379D01*
X0332199Y0220801D01*
X0332414Y0220141D01*
X0332729Y0219522D01*
X0333137Y0218961D01*
X0333627Y0218470D01*
X0334189Y0218062D01*
X0334807Y0217747D01*
X0335467Y0217532D01*
X0336045Y0217441D01*
X0336045Y0217512D02*
X0336955Y0217512D01*
X0336955Y0217441D02*
X0337533Y0217532D01*
X0338193Y0217747D01*
X0338811Y0218062D01*
X0339373Y0218470D01*
X0339863Y0218961D01*
X0340271Y0219522D01*
X0340586Y0220141D01*
X0340801Y0220801D01*
X0340892Y0221379D01*
X0336955Y0221379D01*
X0336955Y0222288D01*
X0340892Y0222288D01*
X0340801Y0222866D01*
X0340586Y0223526D01*
X0340271Y0224144D01*
X0339863Y0224706D01*
X0339373Y0225197D01*
X0338811Y0225605D01*
X0338193Y0225920D01*
X0337533Y0226134D01*
X0336955Y0226226D01*
X0336955Y0222288D01*
X0336045Y0222288D01*
X0336045Y0221379D01*
X0336955Y0221379D01*
X0336955Y0217441D01*
X0337402Y0217512D02*
X0344000Y0217512D01*
X0344000Y0218510D02*
X0339413Y0218510D01*
X0340261Y0219509D02*
X0344000Y0219509D01*
X0344000Y0220507D02*
X0340705Y0220507D01*
X0340858Y0222504D02*
X0344000Y0222504D01*
X0344000Y0221506D02*
X0336955Y0221506D01*
X0336045Y0221506D02*
X0311409Y0221506D01*
X0311409Y0220857D02*
X0310662Y0219052D01*
X0309281Y0217671D01*
X0307477Y0216924D01*
X0305523Y0216924D01*
X0303719Y0217671D01*
X0302338Y0219052D01*
X0301591Y0220857D01*
X0301591Y0222810D01*
X0302338Y0224614D01*
X0303719Y0225995D01*
X0305523Y0226743D01*
X0307477Y0226743D01*
X0309281Y0225995D01*
X0310662Y0224614D01*
X0311409Y0222810D01*
X0311409Y0220857D01*
X0311265Y0220507D02*
X0332294Y0220507D01*
X0332738Y0219509D02*
X0310851Y0219509D01*
X0310120Y0218510D02*
X0333587Y0218510D01*
X0335598Y0217512D02*
X0308896Y0217512D01*
X0308031Y0216513D02*
X0344000Y0216513D01*
X0344000Y0215515D02*
X0338935Y0215515D01*
X0340001Y0214516D02*
X0344000Y0214516D01*
X0344000Y0213518D02*
X0340589Y0213518D01*
X0336955Y0218510D02*
X0336045Y0218510D01*
X0336045Y0219509D02*
X0336955Y0219509D01*
X0336955Y0220507D02*
X0336045Y0220507D01*
X0336045Y0222288D02*
X0332108Y0222288D01*
X0332199Y0222866D01*
X0332414Y0223526D01*
X0332729Y0224144D01*
X0333137Y0224706D01*
X0333627Y0225197D01*
X0334189Y0225605D01*
X0334807Y0225920D01*
X0335467Y0226134D01*
X0336045Y0226226D01*
X0336045Y0222288D01*
X0336045Y0222504D02*
X0336955Y0222504D01*
X0336955Y0223503D02*
X0336045Y0223503D01*
X0336045Y0224501D02*
X0336955Y0224501D01*
X0336955Y0225500D02*
X0336045Y0225500D01*
X0336045Y0227441D02*
X0336045Y0231379D01*
X0332108Y0231379D01*
X0332199Y0230801D01*
X0332414Y0230141D01*
X0332729Y0229522D01*
X0333137Y0228961D01*
X0333627Y0228470D01*
X0334189Y0228062D01*
X0334807Y0227747D01*
X0335467Y0227532D01*
X0336045Y0227441D01*
X0336045Y0227497D02*
X0336955Y0227497D01*
X0336955Y0227441D02*
X0337533Y0227532D01*
X0338193Y0227747D01*
X0338811Y0228062D01*
X0339373Y0228470D01*
X0339863Y0228961D01*
X0340271Y0229522D01*
X0340586Y0230141D01*
X0340801Y0230801D01*
X0340892Y0231379D01*
X0336955Y0231379D01*
X0336955Y0232288D01*
X0340892Y0232288D01*
X0340801Y0232866D01*
X0340586Y0233526D01*
X0340271Y0234144D01*
X0339863Y0234706D01*
X0339373Y0235197D01*
X0338811Y0235605D01*
X0338193Y0235920D01*
X0337533Y0236134D01*
X0336955Y0236226D01*
X0336955Y0232288D01*
X0336045Y0232288D01*
X0336045Y0231379D01*
X0336955Y0231379D01*
X0336955Y0227441D01*
X0337308Y0227497D02*
X0344000Y0227497D01*
X0344000Y0228495D02*
X0339398Y0228495D01*
X0340251Y0229494D02*
X0344000Y0229494D01*
X0344000Y0230492D02*
X0340701Y0230492D01*
X0340860Y0232489D02*
X0344000Y0232489D01*
X0344000Y0231491D02*
X0336955Y0231491D01*
X0336045Y0231491D02*
X0311409Y0231491D01*
X0311409Y0230857D02*
X0310662Y0229052D01*
X0309281Y0227671D01*
X0307477Y0226924D01*
X0305523Y0226924D01*
X0303719Y0227671D01*
X0302338Y0229052D01*
X0301591Y0230857D01*
X0301591Y0232810D01*
X0302338Y0234614D01*
X0303719Y0235995D01*
X0305523Y0236743D01*
X0307477Y0236743D01*
X0309281Y0235995D01*
X0310662Y0234614D01*
X0311409Y0232810D01*
X0311409Y0230857D01*
X0311259Y0230492D02*
X0332299Y0230492D01*
X0332749Y0229494D02*
X0310845Y0229494D01*
X0310105Y0228495D02*
X0333602Y0228495D01*
X0335692Y0227497D02*
X0308860Y0227497D01*
X0308067Y0226498D02*
X0344000Y0226498D01*
X0344000Y0225500D02*
X0338955Y0225500D01*
X0340012Y0224501D02*
X0344000Y0224501D01*
X0344000Y0223503D02*
X0340594Y0223503D01*
X0336955Y0228495D02*
X0336045Y0228495D01*
X0336045Y0229494D02*
X0336955Y0229494D01*
X0336955Y0230492D02*
X0336045Y0230492D01*
X0336045Y0232288D02*
X0332108Y0232288D01*
X0332199Y0232866D01*
X0332414Y0233526D01*
X0332729Y0234144D01*
X0333137Y0234706D01*
X0333627Y0235197D01*
X0334189Y0235605D01*
X0334807Y0235920D01*
X0335467Y0236134D01*
X0336045Y0236226D01*
X0336045Y0232288D01*
X0336045Y0232489D02*
X0336955Y0232489D01*
X0336955Y0233488D02*
X0336045Y0233488D01*
X0336045Y0234486D02*
X0336955Y0234486D01*
X0336955Y0235485D02*
X0336045Y0235485D01*
X0336045Y0237441D02*
X0336045Y0241379D01*
X0332108Y0241379D01*
X0332199Y0240801D01*
X0332414Y0240141D01*
X0332729Y0239522D01*
X0333137Y0238961D01*
X0333627Y0238470D01*
X0334189Y0238062D01*
X0334807Y0237747D01*
X0335467Y0237532D01*
X0336045Y0237441D01*
X0336045Y0237482D02*
X0336955Y0237482D01*
X0336955Y0237441D02*
X0337533Y0237532D01*
X0338193Y0237747D01*
X0338811Y0238062D01*
X0339373Y0238470D01*
X0339863Y0238961D01*
X0340271Y0239522D01*
X0340586Y0240141D01*
X0340801Y0240801D01*
X0340892Y0241379D01*
X0336955Y0241379D01*
X0336955Y0242288D01*
X0340892Y0242288D01*
X0340801Y0242866D01*
X0340586Y0243526D01*
X0340271Y0244144D01*
X0339863Y0244706D01*
X0339373Y0245197D01*
X0338811Y0245605D01*
X0338193Y0245920D01*
X0337533Y0246134D01*
X0336955Y0246226D01*
X0336955Y0242288D01*
X0336045Y0242288D01*
X0336045Y0241379D01*
X0336955Y0241379D01*
X0336955Y0237441D01*
X0337214Y0237482D02*
X0344000Y0237482D01*
X0344000Y0236483D02*
X0308102Y0236483D01*
X0307477Y0236924D02*
X0309281Y0237671D01*
X0310662Y0239052D01*
X0311409Y0240857D01*
X0311409Y0242810D01*
X0310662Y0244614D01*
X0309281Y0245995D01*
X0307477Y0246743D01*
X0305523Y0246743D01*
X0303719Y0245995D01*
X0302338Y0244614D01*
X0301591Y0242810D01*
X0301591Y0240857D01*
X0302338Y0239052D01*
X0303719Y0237671D01*
X0305523Y0236924D01*
X0307477Y0236924D01*
X0308824Y0237482D02*
X0335786Y0237482D01*
X0336045Y0238481D02*
X0336955Y0238481D01*
X0336955Y0239479D02*
X0336045Y0239479D01*
X0336045Y0240478D02*
X0336955Y0240478D01*
X0336955Y0241476D02*
X0344000Y0241476D01*
X0344000Y0240478D02*
X0340696Y0240478D01*
X0340240Y0239479D02*
X0344000Y0239479D01*
X0344000Y0238481D02*
X0339383Y0238481D01*
X0338976Y0235485D02*
X0344000Y0235485D01*
X0344000Y0234486D02*
X0340023Y0234486D01*
X0340599Y0233488D02*
X0344000Y0233488D01*
X0344000Y0242475D02*
X0340863Y0242475D01*
X0340604Y0243473D02*
X0344000Y0243473D01*
X0344000Y0244472D02*
X0340034Y0244472D01*
X0338996Y0245470D02*
X0344000Y0245470D01*
X0344000Y0246469D02*
X0308138Y0246469D01*
X0309806Y0245470D02*
X0334004Y0245470D01*
X0334189Y0245605D02*
X0333627Y0245197D01*
X0333137Y0244706D01*
X0332729Y0244144D01*
X0332414Y0243526D01*
X0332199Y0242866D01*
X0332108Y0242288D01*
X0336045Y0242288D01*
X0336045Y0246226D01*
X0335467Y0246134D01*
X0334807Y0245920D01*
X0334189Y0245605D01*
X0332966Y0244472D02*
X0310721Y0244472D01*
X0311135Y0243473D02*
X0332396Y0243473D01*
X0332137Y0242475D02*
X0311409Y0242475D01*
X0311409Y0241476D02*
X0336045Y0241476D01*
X0336045Y0242475D02*
X0336955Y0242475D01*
X0336955Y0243473D02*
X0336045Y0243473D01*
X0336045Y0244472D02*
X0336955Y0244472D01*
X0336955Y0245470D02*
X0336045Y0245470D01*
X0332304Y0240478D02*
X0311252Y0240478D01*
X0310839Y0239479D02*
X0332760Y0239479D01*
X0333617Y0238481D02*
X0310090Y0238481D01*
X0309791Y0235485D02*
X0334024Y0235485D01*
X0332977Y0234486D02*
X0310715Y0234486D01*
X0311129Y0233488D02*
X0332401Y0233488D01*
X0332140Y0232489D02*
X0311409Y0232489D01*
X0304898Y0236483D02*
X0239686Y0236483D01*
X0239000Y0235485D02*
X0265517Y0235485D01*
X0263850Y0234486D02*
X0239000Y0234486D01*
X0239000Y0233488D02*
X0263126Y0233488D01*
X0262750Y0232489D02*
X0239000Y0232489D01*
X0239000Y0231491D02*
X0262750Y0231491D01*
X0262996Y0230492D02*
X0239000Y0230492D01*
X0239000Y0229494D02*
X0263536Y0229494D01*
X0264000Y0228495D02*
X0239000Y0228495D01*
X0239000Y0227497D02*
X0264000Y0227497D01*
X0264000Y0226498D02*
X0239000Y0226498D01*
X0239000Y0225500D02*
X0264000Y0225500D01*
X0264000Y0224501D02*
X0239000Y0224501D01*
X0239000Y0223503D02*
X0264000Y0223503D01*
X0264000Y0222504D02*
X0239000Y0222504D01*
X0239000Y0221506D02*
X0264000Y0221506D01*
X0264000Y0220507D02*
X0239000Y0220507D01*
X0239000Y0219509D02*
X0264000Y0219509D01*
X0264000Y0218510D02*
X0239000Y0218510D01*
X0239000Y0217512D02*
X0264000Y0217512D01*
X0264000Y0216513D02*
X0239000Y0216513D01*
X0239000Y0215515D02*
X0264000Y0215515D01*
X0264000Y0214516D02*
X0239000Y0214516D01*
X0239000Y0213518D02*
X0264000Y0213518D01*
X0264000Y0212519D02*
X0239000Y0212519D01*
X0239000Y0211521D02*
X0264000Y0211521D01*
X0264000Y0210522D02*
X0239000Y0210522D01*
X0239000Y0209524D02*
X0264000Y0209524D01*
X0264000Y0208525D02*
X0239000Y0208525D01*
X0239000Y0207527D02*
X0264000Y0207527D01*
X0264000Y0206528D02*
X0239000Y0206528D01*
X0239000Y0205530D02*
X0240624Y0205530D01*
X0242376Y0205530D02*
X0264000Y0205530D01*
X0264000Y0204531D02*
X0244105Y0204531D01*
X0244855Y0203533D02*
X0264000Y0203533D01*
X0264000Y0202534D02*
X0245250Y0202534D01*
X0245333Y0201536D02*
X0264000Y0201536D01*
X0264000Y0200537D02*
X0246332Y0200537D01*
X0247330Y0199539D02*
X0264000Y0199539D01*
X0264000Y0198540D02*
X0248329Y0198540D01*
X0248913Y0197542D02*
X0264000Y0197542D01*
X0264000Y0196543D02*
X0249000Y0196543D01*
X0249000Y0195545D02*
X0264000Y0195545D01*
X0264000Y0194546D02*
X0249000Y0194546D01*
X0249000Y0193548D02*
X0264000Y0193548D01*
X0264000Y0192549D02*
X0249000Y0192549D01*
X0249000Y0191550D02*
X0264000Y0191550D01*
X0264000Y0190552D02*
X0249000Y0190552D01*
X0249000Y0189553D02*
X0264000Y0189553D01*
X0264000Y0188555D02*
X0249000Y0188555D01*
X0249000Y0187556D02*
X0264000Y0187556D01*
X0264000Y0186558D02*
X0249000Y0186558D01*
X0249000Y0185559D02*
X0264000Y0185559D01*
X0264000Y0184561D02*
X0249000Y0184561D01*
X0249000Y0183562D02*
X0264000Y0183562D01*
X0264000Y0182564D02*
X0249000Y0182564D01*
X0249000Y0181565D02*
X0264000Y0181565D01*
X0264000Y0180567D02*
X0249000Y0180567D01*
X0249068Y0179568D02*
X0264000Y0179568D01*
X0264000Y0178570D02*
X0249840Y0178570D01*
X0250250Y0177571D02*
X0263702Y0177571D01*
X0262704Y0176573D02*
X0250250Y0176573D01*
X0250037Y0175574D02*
X0261705Y0175574D01*
X0260707Y0174576D02*
X0249546Y0174576D01*
X0246500Y0176833D02*
X0246500Y0196833D01*
X0241500Y0201833D01*
X0234000Y0201536D02*
X0234000Y0201536D01*
X0234000Y0202534D02*
X0234000Y0202534D01*
X0234000Y0203533D02*
X0234000Y0203533D01*
X0234000Y0204531D02*
X0234000Y0204531D01*
X0234000Y0205530D02*
X0234000Y0205530D01*
X0234000Y0206528D02*
X0234000Y0206528D01*
X0234000Y0207527D02*
X0234000Y0207527D01*
X0234000Y0208525D02*
X0234000Y0208525D01*
X0234000Y0209524D02*
X0234000Y0209524D01*
X0234000Y0210522D02*
X0234000Y0210522D01*
X0234000Y0211521D02*
X0234000Y0211521D01*
X0234000Y0212519D02*
X0234000Y0212519D01*
X0234000Y0213518D02*
X0234000Y0213518D01*
X0234000Y0214516D02*
X0234000Y0214516D01*
X0234000Y0215515D02*
X0234000Y0215515D01*
X0234000Y0216513D02*
X0234000Y0216513D01*
X0234000Y0217512D02*
X0234000Y0217512D01*
X0234000Y0218510D02*
X0234000Y0218510D01*
X0234000Y0219509D02*
X0234000Y0219509D01*
X0234000Y0220507D02*
X0234000Y0220507D01*
X0234000Y0221506D02*
X0234000Y0221506D01*
X0234000Y0222504D02*
X0234000Y0222504D01*
X0234000Y0223503D02*
X0234000Y0223503D01*
X0234000Y0224501D02*
X0234000Y0224501D01*
X0234000Y0225500D02*
X0234000Y0225500D01*
X0234000Y0226498D02*
X0234000Y0226498D01*
X0234000Y0227497D02*
X0234000Y0227497D01*
X0234000Y0228495D02*
X0234000Y0228495D01*
X0234000Y0229494D02*
X0234000Y0229494D01*
X0234000Y0230492D02*
X0234000Y0230492D01*
X0234000Y0231491D02*
X0234000Y0231491D01*
X0234000Y0232489D02*
X0234000Y0232489D01*
X0234000Y0233488D02*
X0234000Y0233488D01*
X0234000Y0234486D02*
X0234000Y0234486D01*
X0234000Y0235485D02*
X0234000Y0235485D01*
X0234000Y0236483D02*
X0234000Y0236483D01*
X0234000Y0237482D02*
X0234063Y0237482D01*
X0234000Y0238481D02*
X0234612Y0238481D01*
X0234000Y0239479D02*
X0235610Y0239479D01*
X0236609Y0240478D02*
X0234000Y0240478D01*
X0234000Y0241476D02*
X0237607Y0241476D01*
X0238606Y0242475D02*
X0234000Y0242475D01*
X0234000Y0243473D02*
X0239604Y0243473D01*
X0241500Y0241833D02*
X0236500Y0236833D01*
X0236500Y0136833D01*
X0226500Y0126833D01*
X0225774Y0129643D02*
X0225544Y0129643D01*
X0225958Y0130641D02*
X0226772Y0130641D01*
X0226075Y0131640D02*
X0227771Y0131640D01*
X0228769Y0132638D02*
X0226075Y0132638D01*
X0225705Y0133637D02*
X0229768Y0133637D01*
X0230766Y0134635D02*
X0227726Y0134635D01*
X0228836Y0135634D02*
X0231765Y0135634D01*
X0232763Y0136632D02*
X0229835Y0136632D01*
X0230833Y0137631D02*
X0233762Y0137631D01*
X0234000Y0138629D02*
X0231832Y0138629D01*
X0232830Y0139628D02*
X0234000Y0139628D01*
X0234000Y0140626D02*
X0233706Y0140626D01*
X0234000Y0141625D02*
X0234000Y0141625D01*
X0234000Y0142623D02*
X0234000Y0142623D01*
X0234000Y0143622D02*
X0234000Y0143622D01*
X0234000Y0144620D02*
X0234000Y0144620D01*
X0234000Y0145619D02*
X0234000Y0145619D01*
X0234000Y0146617D02*
X0234000Y0146617D01*
X0234000Y0147616D02*
X0234000Y0147616D01*
X0234000Y0148614D02*
X0234000Y0148614D01*
X0234000Y0149613D02*
X0234000Y0149613D01*
X0234000Y0150612D02*
X0234000Y0150612D01*
X0234000Y0151610D02*
X0234000Y0151610D01*
X0234000Y0152609D02*
X0234000Y0152609D01*
X0234000Y0153607D02*
X0234000Y0153607D01*
X0234000Y0154606D02*
X0234000Y0154606D01*
X0234000Y0155604D02*
X0234000Y0155604D01*
X0234000Y0156603D02*
X0234000Y0156603D01*
X0234000Y0157601D02*
X0234000Y0157601D01*
X0234000Y0158600D02*
X0234000Y0158600D01*
X0234000Y0159598D02*
X0234000Y0159598D01*
X0234000Y0160597D02*
X0234000Y0160597D01*
X0234000Y0161595D02*
X0234000Y0161595D01*
X0234000Y0162594D02*
X0234000Y0162594D01*
X0234000Y0163592D02*
X0234000Y0163592D01*
X0234000Y0164591D02*
X0234000Y0164591D01*
X0234000Y0165589D02*
X0234000Y0165589D01*
X0234000Y0166588D02*
X0234000Y0166588D01*
X0234000Y0167586D02*
X0234000Y0167586D01*
X0234000Y0168585D02*
X0234000Y0168585D01*
X0234000Y0169583D02*
X0234000Y0169583D01*
X0234000Y0170582D02*
X0234000Y0170582D01*
X0234000Y0171580D02*
X0234000Y0171580D01*
X0234000Y0172579D02*
X0234000Y0172579D01*
X0234000Y0173577D02*
X0234000Y0173577D01*
X0234000Y0174576D02*
X0234000Y0174576D01*
X0234000Y0175574D02*
X0234000Y0175574D01*
X0234000Y0176573D02*
X0234000Y0176573D01*
X0234000Y0177571D02*
X0234000Y0177571D01*
X0234000Y0178570D02*
X0234000Y0178570D01*
X0234000Y0179568D02*
X0234000Y0179568D01*
X0234000Y0180567D02*
X0234000Y0180567D01*
X0234000Y0181565D02*
X0234000Y0181565D01*
X0234000Y0182564D02*
X0234000Y0182564D01*
X0234000Y0183562D02*
X0234000Y0183562D01*
X0234000Y0184561D02*
X0234000Y0184561D01*
X0234000Y0185559D02*
X0234000Y0185559D01*
X0234000Y0186558D02*
X0234000Y0186558D01*
X0234000Y0187556D02*
X0234000Y0187556D01*
X0234000Y0188555D02*
X0234000Y0188555D01*
X0234000Y0189553D02*
X0234000Y0189553D01*
X0234000Y0190552D02*
X0234000Y0190552D01*
X0234000Y0191550D02*
X0234000Y0191550D01*
X0234000Y0192549D02*
X0234000Y0192549D01*
X0234000Y0193548D02*
X0234000Y0193548D01*
X0234000Y0194546D02*
X0234000Y0194546D01*
X0234000Y0195545D02*
X0234000Y0195545D01*
X0234000Y0196543D02*
X0234000Y0196543D01*
X0234000Y0197542D02*
X0234000Y0197542D01*
X0234000Y0198540D02*
X0234000Y0198540D01*
X0234000Y0199539D02*
X0234000Y0199539D01*
X0234000Y0200537D02*
X0234000Y0200537D01*
X0229000Y0200537D02*
X0225915Y0200537D01*
X0226075Y0200923D02*
X0225378Y0199242D01*
X0224091Y0197955D01*
X0222410Y0197259D01*
X0220590Y0197259D01*
X0218909Y0197955D01*
X0217622Y0199242D01*
X0216925Y0200923D01*
X0216925Y0202743D01*
X0217622Y0204425D01*
X0218909Y0205712D01*
X0220590Y0206408D01*
X0222410Y0206408D01*
X0224091Y0205712D01*
X0225378Y0204425D01*
X0226075Y0202743D01*
X0226075Y0200923D01*
X0226075Y0201536D02*
X0229000Y0201536D01*
X0229000Y0202534D02*
X0226075Y0202534D01*
X0225748Y0203533D02*
X0229000Y0203533D01*
X0229000Y0204531D02*
X0225272Y0204531D01*
X0224273Y0205530D02*
X0229000Y0205530D01*
X0229000Y0206528D02*
X0209608Y0206528D01*
X0209679Y0206458D02*
X0209000Y0207137D01*
X0209000Y0218083D01*
X0209746Y0218083D01*
X0211124Y0218654D01*
X0212179Y0219709D01*
X0212750Y0221087D01*
X0212750Y0222579D01*
X0212179Y0223958D01*
X0211124Y0225012D01*
X0209746Y0225583D01*
X0208254Y0225583D01*
X0206876Y0225012D01*
X0205821Y0223958D01*
X0205250Y0222579D01*
X0205250Y0221619D01*
X0204381Y0220749D01*
X0204000Y0219831D01*
X0204000Y0207137D01*
X0203321Y0206458D01*
X0202750Y0205079D01*
X0202750Y0203587D01*
X0203321Y0202209D01*
X0204376Y0201154D01*
X0205754Y0200583D01*
X0207246Y0200583D01*
X0208624Y0201154D01*
X0209679Y0202209D01*
X0210250Y0203587D01*
X0210250Y0205079D01*
X0209679Y0206458D01*
X0210063Y0205530D02*
X0218727Y0205530D01*
X0217728Y0204531D02*
X0210250Y0204531D01*
X0210227Y0203533D02*
X0217252Y0203533D01*
X0216925Y0202534D02*
X0209814Y0202534D01*
X0209006Y0201536D02*
X0216925Y0201536D01*
X0217085Y0200537D02*
X0201500Y0200537D01*
X0201500Y0199539D02*
X0217499Y0199539D01*
X0218324Y0198540D02*
X0201500Y0198540D01*
X0201827Y0197542D02*
X0219907Y0197542D01*
X0220590Y0196408D02*
X0218909Y0195712D01*
X0217622Y0194425D01*
X0216925Y0192743D01*
X0216925Y0190923D01*
X0217622Y0189242D01*
X0218909Y0187955D01*
X0220590Y0187259D01*
X0222410Y0187259D01*
X0224091Y0187955D01*
X0225378Y0189242D01*
X0226075Y0190923D01*
X0226075Y0192743D01*
X0225378Y0194425D01*
X0224091Y0195712D01*
X0222410Y0196408D01*
X0220590Y0196408D01*
X0218741Y0195545D02*
X0203824Y0195545D01*
X0202826Y0196543D02*
X0229000Y0196543D01*
X0229000Y0195545D02*
X0224259Y0195545D01*
X0225257Y0194546D02*
X0229000Y0194546D01*
X0229000Y0193548D02*
X0225742Y0193548D01*
X0226075Y0192549D02*
X0229000Y0192549D01*
X0229000Y0191550D02*
X0226075Y0191550D01*
X0225921Y0190552D02*
X0229000Y0190552D01*
X0229000Y0189553D02*
X0225507Y0189553D01*
X0224691Y0188555D02*
X0229000Y0188555D01*
X0229000Y0187556D02*
X0223129Y0187556D01*
X0222410Y0186408D02*
X0224091Y0185712D01*
X0225378Y0184425D01*
X0226075Y0182743D01*
X0226075Y0180923D01*
X0225378Y0179242D01*
X0224091Y0177955D01*
X0222410Y0177259D01*
X0220590Y0177259D01*
X0218909Y0177955D01*
X0217622Y0179242D01*
X0216925Y0180923D01*
X0216925Y0182743D01*
X0217622Y0184425D01*
X0218909Y0185712D01*
X0220590Y0186408D01*
X0222410Y0186408D01*
X0224244Y0185559D02*
X0229000Y0185559D01*
X0229000Y0184561D02*
X0225242Y0184561D01*
X0225736Y0183562D02*
X0229000Y0183562D01*
X0229000Y0182564D02*
X0226075Y0182564D01*
X0226075Y0181565D02*
X0229000Y0181565D01*
X0229000Y0180567D02*
X0225927Y0180567D01*
X0225514Y0179568D02*
X0229000Y0179568D01*
X0229000Y0178570D02*
X0224706Y0178570D01*
X0223165Y0177571D02*
X0229000Y0177571D01*
X0229000Y0176573D02*
X0191003Y0176573D01*
X0190005Y0177571D02*
X0199622Y0177571D01*
X0199715Y0177524D02*
X0200411Y0177298D01*
X0201134Y0177183D01*
X0201200Y0177183D01*
X0201200Y0181533D01*
X0201800Y0181533D01*
X0201800Y0177183D01*
X0201866Y0177183D01*
X0202589Y0177298D01*
X0203285Y0177524D01*
X0203937Y0177856D01*
X0204529Y0178287D01*
X0205047Y0178804D01*
X0205477Y0179396D01*
X0205809Y0180048D01*
X0206035Y0180744D01*
X0206150Y0181467D01*
X0206150Y0181533D01*
X0201800Y0181533D01*
X0201800Y0182133D01*
X0206150Y0182133D01*
X0206150Y0182199D01*
X0206035Y0182922D01*
X0205809Y0183618D01*
X0205477Y0184270D01*
X0205047Y0184863D01*
X0204529Y0185380D01*
X0203937Y0185810D01*
X0203285Y0186143D01*
X0202589Y0186369D01*
X0201866Y0186483D01*
X0201800Y0186483D01*
X0201800Y0182133D01*
X0201200Y0182133D01*
X0201200Y0181533D01*
X0196850Y0181533D01*
X0196850Y0181467D01*
X0196964Y0180744D01*
X0197191Y0180048D01*
X0197523Y0179396D01*
X0197953Y0178804D01*
X0198471Y0178287D01*
X0199063Y0177856D01*
X0199715Y0177524D01*
X0201200Y0177571D02*
X0201800Y0177571D01*
X0201800Y0178570D02*
X0201200Y0178570D01*
X0201200Y0179568D02*
X0201800Y0179568D01*
X0201800Y0180567D02*
X0201200Y0180567D01*
X0201200Y0181565D02*
X0186650Y0181565D01*
X0186650Y0182564D02*
X0196908Y0182564D01*
X0196964Y0182922D02*
X0196850Y0182199D01*
X0196850Y0182133D01*
X0201200Y0182133D01*
X0201200Y0186483D01*
X0201134Y0186483D01*
X0200411Y0186369D01*
X0199715Y0186143D01*
X0199063Y0185810D01*
X0198471Y0185380D01*
X0197953Y0184863D01*
X0197523Y0184270D01*
X0197191Y0183618D01*
X0196964Y0182922D01*
X0197173Y0183562D02*
X0186358Y0183562D01*
X0185945Y0184561D02*
X0197734Y0184561D01*
X0198717Y0185559D02*
X0185057Y0185559D01*
X0185467Y0186558D02*
X0203972Y0186558D01*
X0204283Y0185559D02*
X0218756Y0185559D01*
X0217758Y0184561D02*
X0205266Y0184561D01*
X0205827Y0183562D02*
X0217264Y0183562D01*
X0216925Y0182564D02*
X0206092Y0182564D01*
X0205978Y0180567D02*
X0217073Y0180567D01*
X0216925Y0181565D02*
X0201800Y0181565D01*
X0201800Y0182564D02*
X0201200Y0182564D01*
X0201200Y0183562D02*
X0201800Y0183562D01*
X0201800Y0184561D02*
X0201200Y0184561D01*
X0201200Y0185559D02*
X0201800Y0185559D01*
X0203177Y0187556D02*
X0186466Y0187556D01*
X0187464Y0188555D02*
X0202763Y0188555D01*
X0202744Y0189553D02*
X0188463Y0189553D01*
X0189461Y0190552D02*
X0201746Y0190552D01*
X0200747Y0191550D02*
X0190460Y0191550D01*
X0191458Y0192549D02*
X0199749Y0192549D01*
X0198750Y0193548D02*
X0192457Y0193548D01*
X0193455Y0194546D02*
X0197752Y0194546D01*
X0197584Y0194714D02*
X0197584Y0194714D01*
X0196828Y0195545D02*
X0194454Y0195545D01*
X0195452Y0196543D02*
X0196500Y0196543D01*
X0196500Y0197542D02*
X0196451Y0197542D01*
X0199000Y0196833D02*
X0206500Y0189333D01*
X0209028Y0186558D02*
X0229000Y0186558D01*
X0219871Y0187556D02*
X0209823Y0187556D01*
X0210237Y0188555D02*
X0218309Y0188555D01*
X0217493Y0189553D02*
X0210250Y0189553D01*
X0210054Y0190552D02*
X0217079Y0190552D01*
X0216925Y0191550D02*
X0209586Y0191550D01*
X0208536Y0192549D02*
X0216925Y0192549D01*
X0217258Y0193548D02*
X0205821Y0193548D01*
X0204823Y0194546D02*
X0217743Y0194546D01*
X0223093Y0197542D02*
X0229000Y0197542D01*
X0229000Y0198540D02*
X0224676Y0198540D01*
X0225501Y0199539D02*
X0229000Y0199539D01*
X0229000Y0207527D02*
X0223057Y0207527D01*
X0222410Y0207259D02*
X0224091Y0207955D01*
X0225378Y0209242D01*
X0226075Y0210923D01*
X0226075Y0212743D01*
X0225378Y0214425D01*
X0224091Y0215712D01*
X0222410Y0216408D01*
X0220590Y0216408D01*
X0218909Y0215712D01*
X0217622Y0214425D01*
X0216925Y0212743D01*
X0216925Y0210923D01*
X0217622Y0209242D01*
X0218909Y0207955D01*
X0220590Y0207259D01*
X0222410Y0207259D01*
X0219943Y0207527D02*
X0209000Y0207527D01*
X0209000Y0208525D02*
X0218338Y0208525D01*
X0217505Y0209524D02*
X0209000Y0209524D01*
X0209000Y0210522D02*
X0217091Y0210522D01*
X0216925Y0211521D02*
X0209000Y0211521D01*
X0209000Y0212519D02*
X0216925Y0212519D01*
X0217246Y0213518D02*
X0209000Y0213518D01*
X0209000Y0214516D02*
X0217713Y0214516D01*
X0218712Y0215515D02*
X0209000Y0215515D01*
X0209000Y0216513D02*
X0229000Y0216513D01*
X0229000Y0215515D02*
X0224288Y0215515D01*
X0225287Y0214516D02*
X0229000Y0214516D01*
X0229000Y0213518D02*
X0225754Y0213518D01*
X0226075Y0212519D02*
X0229000Y0212519D01*
X0229000Y0211521D02*
X0226075Y0211521D01*
X0225909Y0210522D02*
X0229000Y0210522D01*
X0229000Y0209524D02*
X0225495Y0209524D01*
X0224662Y0208525D02*
X0229000Y0208525D01*
X0229000Y0217512D02*
X0223021Y0217512D01*
X0222410Y0217259D02*
X0224091Y0217955D01*
X0225378Y0219242D01*
X0226075Y0220923D01*
X0226075Y0222743D01*
X0225378Y0224425D01*
X0224091Y0225712D01*
X0222410Y0226408D01*
X0220590Y0226408D01*
X0218909Y0225712D01*
X0217622Y0224425D01*
X0216925Y0222743D01*
X0216925Y0220923D01*
X0217622Y0219242D01*
X0218909Y0217955D01*
X0220590Y0217259D01*
X0222410Y0217259D01*
X0219979Y0217512D02*
X0209000Y0217512D01*
X0210777Y0218510D02*
X0218353Y0218510D01*
X0217511Y0219509D02*
X0211979Y0219509D01*
X0212510Y0220507D02*
X0217098Y0220507D01*
X0216925Y0221506D02*
X0212750Y0221506D01*
X0212750Y0222504D02*
X0216925Y0222504D01*
X0217240Y0223503D02*
X0212367Y0223503D01*
X0211635Y0224501D02*
X0217698Y0224501D01*
X0218697Y0225500D02*
X0209947Y0225500D01*
X0208053Y0225500D02*
X0201500Y0225500D01*
X0201500Y0226498D02*
X0229000Y0226498D01*
X0229000Y0225500D02*
X0224303Y0225500D01*
X0225302Y0224501D02*
X0229000Y0224501D01*
X0229000Y0223503D02*
X0225760Y0223503D01*
X0226075Y0222504D02*
X0229000Y0222504D01*
X0229000Y0221506D02*
X0226075Y0221506D01*
X0225902Y0220507D02*
X0229000Y0220507D01*
X0229000Y0219509D02*
X0225489Y0219509D01*
X0224647Y0218510D02*
X0229000Y0218510D01*
X0229000Y0227497D02*
X0222985Y0227497D01*
X0224632Y0228495D02*
X0229000Y0228495D01*
X0229000Y0229494D02*
X0225483Y0229494D01*
X0225896Y0230492D02*
X0229000Y0230492D01*
X0229000Y0231491D02*
X0226075Y0231491D01*
X0226075Y0232489D02*
X0229000Y0232489D01*
X0229000Y0233488D02*
X0225766Y0233488D01*
X0225317Y0234486D02*
X0229000Y0234486D01*
X0229000Y0235485D02*
X0224318Y0235485D01*
X0222949Y0237482D02*
X0229000Y0237482D01*
X0229000Y0236483D02*
X0219686Y0236483D01*
X0217234Y0233488D02*
X0216690Y0233488D01*
X0216925Y0232489D02*
X0215692Y0232489D01*
X0214693Y0231491D02*
X0216925Y0231491D01*
X0217104Y0230492D02*
X0213695Y0230492D01*
X0212385Y0229494D02*
X0217517Y0229494D01*
X0218368Y0228495D02*
X0205741Y0228495D01*
X0202259Y0228495D02*
X0201500Y0228495D01*
X0201500Y0227497D02*
X0220015Y0227497D01*
X0211500Y0231833D02*
X0221500Y0241833D01*
X0217227Y0243473D02*
X0200423Y0243473D01*
X0200866Y0243916D02*
X0201650Y0245809D01*
X0201650Y0247858D01*
X0200866Y0249751D01*
X0199417Y0251199D01*
X0197524Y0251983D01*
X0195476Y0251983D01*
X0193583Y0251199D01*
X0192134Y0249751D01*
X0191350Y0247858D01*
X0191350Y0245809D01*
X0192134Y0243916D01*
X0193583Y0242467D01*
X0195476Y0241683D01*
X0197524Y0241683D01*
X0199417Y0242467D01*
X0200866Y0243916D01*
X0201096Y0244472D02*
X0217669Y0244472D01*
X0218667Y0245470D02*
X0201510Y0245470D01*
X0201650Y0246469D02*
X0229000Y0246469D01*
X0229000Y0247467D02*
X0222914Y0247467D01*
X0222410Y0247259D02*
X0224091Y0247955D01*
X0225378Y0249242D01*
X0226075Y0250923D01*
X0226075Y0252743D01*
X0225378Y0254425D01*
X0224091Y0255712D01*
X0222410Y0256408D01*
X0220590Y0256408D01*
X0218909Y0255712D01*
X0217622Y0254425D01*
X0216925Y0252743D01*
X0216925Y0250923D01*
X0217622Y0249242D01*
X0218909Y0247955D01*
X0220590Y0247259D01*
X0222410Y0247259D01*
X0220086Y0247467D02*
X0201650Y0247467D01*
X0201398Y0248466D02*
X0218398Y0248466D01*
X0217530Y0249464D02*
X0200985Y0249464D01*
X0200154Y0250463D02*
X0217116Y0250463D01*
X0216925Y0251461D02*
X0198785Y0251461D01*
X0194215Y0251461D02*
X0177006Y0251461D01*
X0176866Y0251483D02*
X0176800Y0251483D01*
X0176800Y0247133D01*
X0181150Y0247133D01*
X0181150Y0247199D01*
X0181035Y0247922D01*
X0180809Y0248618D01*
X0180477Y0249270D01*
X0180047Y0249863D01*
X0179529Y0250380D01*
X0178937Y0250810D01*
X0178285Y0251143D01*
X0177589Y0251369D01*
X0176866Y0251483D01*
X0176800Y0251461D02*
X0176200Y0251461D01*
X0176200Y0251483D02*
X0176134Y0251483D01*
X0175411Y0251369D01*
X0174715Y0251143D01*
X0174063Y0250810D01*
X0173471Y0250380D01*
X0172953Y0249863D01*
X0172523Y0249270D01*
X0172191Y0248618D01*
X0171964Y0247922D01*
X0171850Y0247199D01*
X0171850Y0247133D01*
X0176200Y0247133D01*
X0176200Y0246533D01*
X0176800Y0246533D01*
X0176800Y0242183D01*
X0176866Y0242183D01*
X0177589Y0242298D01*
X0178285Y0242524D01*
X0178937Y0242856D01*
X0179529Y0243287D01*
X0180047Y0243804D01*
X0180477Y0244396D01*
X0180809Y0245048D01*
X0181035Y0245744D01*
X0181150Y0246467D01*
X0181150Y0246533D01*
X0176800Y0246533D01*
X0176800Y0247133D01*
X0176200Y0247133D01*
X0176200Y0251483D01*
X0175994Y0251461D02*
X0073286Y0251461D01*
X0072288Y0252460D02*
X0216925Y0252460D01*
X0217221Y0253458D02*
X0004000Y0253458D01*
X0004000Y0252460D02*
X0015712Y0252460D01*
X0014714Y0251461D02*
X0004000Y0251461D01*
X0004000Y0250463D02*
X0013715Y0250463D01*
X0012717Y0249464D02*
X0004000Y0249464D01*
X0004000Y0248466D02*
X0011718Y0248466D01*
X0011086Y0247833D02*
X0011086Y0247833D01*
X0010720Y0247467D02*
X0004000Y0247467D01*
X0004000Y0246469D02*
X0010500Y0246469D01*
X0010500Y0245470D02*
X0004000Y0245470D01*
X0004000Y0244472D02*
X0010500Y0244472D01*
X0010500Y0243473D02*
X0004000Y0243473D01*
X0004000Y0242475D02*
X0010500Y0242475D01*
X0010500Y0241476D02*
X0004000Y0241476D01*
X0004000Y0240478D02*
X0010500Y0240478D01*
X0010500Y0239479D02*
X0004000Y0239479D01*
X0004000Y0238481D02*
X0010500Y0238481D01*
X0010500Y0237482D02*
X0004000Y0237482D01*
X0004000Y0236483D02*
X0010500Y0236483D01*
X0010500Y0235485D02*
X0004000Y0235485D01*
X0004000Y0234486D02*
X0010500Y0234486D01*
X0010500Y0233488D02*
X0004000Y0233488D01*
X0004000Y0232489D02*
X0010500Y0232489D01*
X0010500Y0231491D02*
X0004000Y0231491D01*
X0004000Y0230492D02*
X0010500Y0230492D01*
X0010500Y0229494D02*
X0004000Y0229494D01*
X0004000Y0228495D02*
X0010500Y0228495D01*
X0010500Y0227497D02*
X0004000Y0227497D01*
X0004000Y0226498D02*
X0010500Y0226498D01*
X0010500Y0225500D02*
X0004000Y0225500D01*
X0004000Y0224501D02*
X0010500Y0224501D01*
X0010500Y0223503D02*
X0004000Y0223503D01*
X0004000Y0222504D02*
X0010500Y0222504D01*
X0010500Y0221506D02*
X0004000Y0221506D01*
X0004000Y0220507D02*
X0010500Y0220507D01*
X0010500Y0219509D02*
X0004000Y0219509D01*
X0004000Y0218510D02*
X0010500Y0218510D01*
X0010500Y0217512D02*
X0004000Y0217512D01*
X0004000Y0216513D02*
X0010500Y0216513D01*
X0010500Y0215515D02*
X0004000Y0215515D01*
X0004000Y0214516D02*
X0010500Y0214516D01*
X0010500Y0213518D02*
X0004000Y0213518D01*
X0004000Y0212519D02*
X0010500Y0212519D01*
X0010500Y0211521D02*
X0004000Y0211521D01*
X0004000Y0210522D02*
X0010500Y0210522D01*
X0010500Y0209524D02*
X0004000Y0209524D01*
X0004000Y0208525D02*
X0010500Y0208525D01*
X0010500Y0207527D02*
X0004000Y0207527D01*
X0004000Y0206528D02*
X0010500Y0206528D01*
X0010500Y0205530D02*
X0004000Y0205530D01*
X0004000Y0204531D02*
X0010500Y0204531D01*
X0010500Y0203533D02*
X0004000Y0203533D01*
X0004000Y0202534D02*
X0010500Y0202534D01*
X0010500Y0201536D02*
X0004000Y0201536D01*
X0004000Y0200537D02*
X0010500Y0200537D01*
X0010500Y0199539D02*
X0004000Y0199539D01*
X0004000Y0198540D02*
X0010500Y0198540D01*
X0010500Y0197542D02*
X0004000Y0197542D01*
X0004000Y0196543D02*
X0010500Y0196543D01*
X0010500Y0195545D02*
X0004000Y0195545D01*
X0004000Y0194546D02*
X0010500Y0194546D01*
X0010500Y0193548D02*
X0004000Y0193548D01*
X0004000Y0192549D02*
X0010500Y0192549D01*
X0010500Y0191550D02*
X0004000Y0191550D01*
X0004000Y0190552D02*
X0010500Y0190552D01*
X0010500Y0189553D02*
X0004000Y0189553D01*
X0004000Y0188555D02*
X0010500Y0188555D01*
X0010500Y0187556D02*
X0004000Y0187556D01*
X0004000Y0186558D02*
X0010500Y0186558D01*
X0010500Y0185559D02*
X0004000Y0185559D01*
X0004000Y0184561D02*
X0010500Y0184561D01*
X0010500Y0183562D02*
X0004000Y0183562D01*
X0004000Y0182564D02*
X0010500Y0182564D01*
X0010500Y0181565D02*
X0004000Y0181565D01*
X0004000Y0180567D02*
X0010500Y0180567D01*
X0010500Y0179568D02*
X0004000Y0179568D01*
X0004000Y0178570D02*
X0010500Y0178570D01*
X0010500Y0177571D02*
X0004000Y0177571D01*
X0004000Y0176573D02*
X0010500Y0176573D01*
X0010500Y0175574D02*
X0004000Y0175574D01*
X0004000Y0174576D02*
X0010500Y0174576D01*
X0010500Y0173577D02*
X0004000Y0173577D01*
X0004000Y0172579D02*
X0010500Y0172579D01*
X0010500Y0171580D02*
X0004000Y0171580D01*
X0004000Y0170582D02*
X0010500Y0170582D01*
X0010500Y0169583D02*
X0004000Y0169583D01*
X0004000Y0168585D02*
X0010500Y0168585D01*
X0010500Y0167586D02*
X0004000Y0167586D01*
X0004000Y0166588D02*
X0010500Y0166588D01*
X0010500Y0165589D02*
X0004000Y0165589D01*
X0004000Y0164591D02*
X0010500Y0164591D01*
X0010500Y0163592D02*
X0004000Y0163592D01*
X0004000Y0162594D02*
X0010500Y0162594D01*
X0010500Y0161595D02*
X0004000Y0161595D01*
X0004000Y0160597D02*
X0010500Y0160597D01*
X0010500Y0159598D02*
X0004000Y0159598D01*
X0004000Y0158600D02*
X0010500Y0158600D01*
X0010500Y0157601D02*
X0004000Y0157601D01*
X0004000Y0156603D02*
X0010500Y0156603D01*
X0010500Y0155604D02*
X0004000Y0155604D01*
X0004000Y0154606D02*
X0010500Y0154606D01*
X0010500Y0153607D02*
X0004000Y0153607D01*
X0004000Y0152609D02*
X0010500Y0152609D01*
X0010500Y0151610D02*
X0004000Y0151610D01*
X0004000Y0150612D02*
X0010500Y0150612D01*
X0010500Y0149613D02*
X0004000Y0149613D01*
X0004000Y0148614D02*
X0010500Y0148614D01*
X0010500Y0147616D02*
X0004000Y0147616D01*
X0004000Y0146617D02*
X0010500Y0146617D01*
X0010500Y0145619D02*
X0004000Y0145619D01*
X0004000Y0144620D02*
X0010500Y0144620D01*
X0010500Y0143622D02*
X0004000Y0143622D01*
X0004000Y0142623D02*
X0010500Y0142623D01*
X0010500Y0141625D02*
X0004000Y0141625D01*
X0004000Y0140626D02*
X0010500Y0140626D01*
X0010500Y0139628D02*
X0004000Y0139628D01*
X0004000Y0138629D02*
X0010500Y0138629D01*
X0010500Y0137631D02*
X0004000Y0137631D01*
X0004000Y0136632D02*
X0010500Y0136632D01*
X0010500Y0135634D02*
X0004000Y0135634D01*
X0004000Y0134635D02*
X0010500Y0134635D01*
X0010500Y0133637D02*
X0004000Y0133637D01*
X0004000Y0132638D02*
X0010500Y0132638D01*
X0010500Y0131640D02*
X0004000Y0131640D01*
X0004000Y0130641D02*
X0010500Y0130641D01*
X0010500Y0129643D02*
X0004000Y0129643D01*
X0004000Y0128644D02*
X0010500Y0128644D01*
X0010500Y0127646D02*
X0004000Y0127646D01*
X0004000Y0126647D02*
X0010500Y0126647D01*
X0010500Y0125649D02*
X0004000Y0125649D01*
X0004000Y0124650D02*
X0010500Y0124650D01*
X0010500Y0123652D02*
X0004000Y0123652D01*
X0004000Y0122653D02*
X0010500Y0122653D01*
X0010500Y0121655D02*
X0004000Y0121655D01*
X0004000Y0120656D02*
X0010500Y0120656D01*
X0010500Y0119658D02*
X0004000Y0119658D01*
X0004000Y0118659D02*
X0010500Y0118659D01*
X0010500Y0117661D02*
X0004000Y0117661D01*
X0004000Y0116662D02*
X0010500Y0116662D01*
X0010500Y0115664D02*
X0004000Y0115664D01*
X0004000Y0114665D02*
X0010500Y0114665D01*
X0010500Y0113667D02*
X0004000Y0113667D01*
X0004000Y0112668D02*
X0010500Y0112668D01*
X0010500Y0111670D02*
X0004000Y0111670D01*
X0004000Y0110671D02*
X0010500Y0110671D01*
X0010500Y0109673D02*
X0004000Y0109673D01*
X0004000Y0108674D02*
X0010500Y0108674D01*
X0010500Y0107676D02*
X0004000Y0107676D01*
X0004000Y0106677D02*
X0010500Y0106677D01*
X0010500Y0105679D02*
X0004000Y0105679D01*
X0004000Y0104680D02*
X0010500Y0104680D01*
X0010500Y0103681D02*
X0004000Y0103681D01*
X0004000Y0102683D02*
X0010500Y0102683D01*
X0010500Y0101684D02*
X0004000Y0101684D01*
X0004000Y0100686D02*
X0010500Y0100686D01*
X0010500Y0099687D02*
X0004000Y0099687D01*
X0004000Y0098689D02*
X0010500Y0098689D01*
X0010500Y0097690D02*
X0004000Y0097690D01*
X0004000Y0096692D02*
X0010500Y0096692D01*
X0010500Y0095693D02*
X0004000Y0095693D01*
X0004000Y0094695D02*
X0010500Y0094695D01*
X0010500Y0093696D02*
X0004000Y0093696D01*
X0004000Y0092698D02*
X0010500Y0092698D01*
X0010500Y0091699D02*
X0004000Y0091699D01*
X0004000Y0090701D02*
X0010500Y0090701D01*
X0010500Y0089702D02*
X0004000Y0089702D01*
X0004000Y0088704D02*
X0010500Y0088704D01*
X0010500Y0087705D02*
X0004000Y0087705D01*
X0004000Y0086707D02*
X0010500Y0086707D01*
X0011211Y0085708D02*
X0004000Y0085708D01*
X0004000Y0084710D02*
X0011522Y0084710D01*
X0011108Y0083711D02*
X0004000Y0083711D01*
X0004000Y0082713D02*
X0010800Y0082713D01*
X0010800Y0081714D02*
X0004000Y0081714D01*
X0004000Y0080716D02*
X0010800Y0080716D01*
X0011207Y0079717D02*
X0004000Y0079717D01*
X0004000Y0078719D02*
X0011620Y0078719D01*
X0012552Y0077720D02*
X0004000Y0077720D01*
X0004000Y0076722D02*
X0013407Y0076722D01*
X0012329Y0075723D02*
X0004000Y0075723D01*
X0004000Y0074725D02*
X0011528Y0074725D01*
X0011114Y0073726D02*
X0004000Y0073726D01*
X0004000Y0072728D02*
X0010800Y0072728D01*
X0010800Y0071729D02*
X0004000Y0071729D01*
X0004000Y0070731D02*
X0010800Y0070731D01*
X0011201Y0069732D02*
X0004000Y0069732D01*
X0004000Y0068734D02*
X0011614Y0068734D01*
X0012537Y0067735D02*
X0004000Y0067735D01*
X0004000Y0066737D02*
X0013443Y0066737D01*
X0012344Y0065738D02*
X0004000Y0065738D01*
X0004000Y0064740D02*
X0011534Y0064740D01*
X0011121Y0063741D02*
X0004000Y0063741D01*
X0004000Y0062743D02*
X0010800Y0062743D01*
X0010800Y0061744D02*
X0004000Y0061744D01*
X0004000Y0060745D02*
X0010800Y0060745D01*
X0011195Y0059747D02*
X0004000Y0059747D01*
X0004000Y0058748D02*
X0011608Y0058748D01*
X0012522Y0057750D02*
X0004000Y0057750D01*
X0004000Y0056751D02*
X0013874Y0056751D01*
X0013066Y0055753D02*
X0004000Y0055753D01*
X0004000Y0054754D02*
X0012195Y0054754D01*
X0011657Y0053756D02*
X0004000Y0053756D01*
X0004000Y0052757D02*
X0011382Y0052757D01*
X0011314Y0051333D02*
X0011428Y0050616D01*
X0011681Y0049837D01*
X0012053Y0049108D01*
X0012534Y0048446D01*
X0013112Y0047867D01*
X0013775Y0047386D01*
X0014504Y0047014D01*
X0015282Y0046761D01*
X0016000Y0046648D01*
X0016000Y0051333D01*
X0011314Y0051333D01*
X0011405Y0050760D02*
X0004000Y0050760D01*
X0004000Y0049762D02*
X0011719Y0049762D01*
X0012303Y0048763D02*
X0004000Y0048763D01*
X0004000Y0047765D02*
X0013253Y0047765D01*
X0015267Y0046766D02*
X0004000Y0046766D01*
X0004000Y0045768D02*
X0183000Y0045768D01*
X0183000Y0046766D02*
X0027733Y0046766D01*
X0027000Y0046766D02*
X0026000Y0046766D01*
X0025267Y0046766D02*
X0017733Y0046766D01*
X0017000Y0046766D02*
X0016000Y0046766D01*
X0016000Y0047765D02*
X0017000Y0047765D01*
X0017000Y0048763D02*
X0016000Y0048763D01*
X0016000Y0049762D02*
X0017000Y0049762D01*
X0017000Y0050760D02*
X0016000Y0050760D01*
X0016000Y0051759D02*
X0004000Y0051759D01*
X0004000Y0044769D02*
X0183000Y0044769D01*
X0183000Y0043771D02*
X0004000Y0043771D01*
X0004000Y0042772D02*
X0183000Y0042772D01*
X0183000Y0041774D02*
X0004000Y0041774D01*
X0004000Y0040775D02*
X0183000Y0040775D01*
X0183000Y0039777D02*
X0004000Y0039777D01*
X0004000Y0038778D02*
X0183000Y0038778D01*
X0183000Y0037780D02*
X0004000Y0037780D01*
X0004000Y0036781D02*
X0183000Y0036781D01*
X0183000Y0035783D02*
X0004000Y0035783D01*
X0004000Y0034784D02*
X0183000Y0034784D01*
X0183000Y0033786D02*
X0004548Y0033786D01*
X0005546Y0032787D02*
X0183000Y0032787D01*
X0183000Y0031789D02*
X0087994Y0031789D01*
X0106200Y0024799D02*
X0106800Y0024799D01*
X0106800Y0023801D02*
X0106200Y0023801D01*
X0106200Y0022802D02*
X0106800Y0022802D01*
X0111056Y0027795D02*
X0184124Y0027795D01*
X0183126Y0028793D02*
X0110720Y0028793D01*
X0110098Y0029792D02*
X0183000Y0029792D01*
X0183000Y0030790D02*
X0108965Y0030790D01*
X0148159Y0026796D02*
X0185123Y0026796D01*
X0186122Y0025798D02*
X0149882Y0025798D01*
X0150875Y0024799D02*
X0187120Y0024799D01*
X0188119Y0023801D02*
X0151289Y0023801D01*
X0183000Y0047765D02*
X0029747Y0047765D01*
X0030697Y0048763D02*
X0183000Y0048763D01*
X0183000Y0049762D02*
X0031281Y0049762D01*
X0031595Y0050760D02*
X0183000Y0050760D01*
X0183000Y0051759D02*
X0027000Y0051759D01*
X0027000Y0050760D02*
X0026000Y0050760D01*
X0026000Y0051333D02*
X0021314Y0051333D01*
X0017000Y0051333D01*
X0017000Y0052333D01*
X0026000Y0052333D01*
X0026000Y0051333D01*
X0026000Y0051759D02*
X0017000Y0051759D01*
X0020697Y0048763D02*
X0022303Y0048763D01*
X0021719Y0049762D02*
X0021281Y0049762D01*
X0019747Y0047765D02*
X0023253Y0047765D01*
X0026000Y0047765D02*
X0027000Y0047765D01*
X0027000Y0048763D02*
X0026000Y0048763D01*
X0026000Y0049762D02*
X0027000Y0049762D01*
X0031618Y0052757D02*
X0183000Y0052757D01*
X0183000Y0053756D02*
X0031343Y0053756D01*
X0030805Y0054754D02*
X0183000Y0054754D01*
X0183000Y0055753D02*
X0029934Y0055753D01*
X0029126Y0056751D02*
X0183000Y0056751D01*
X0183000Y0057750D02*
X0030478Y0057750D01*
X0031392Y0058748D02*
X0183000Y0058748D01*
X0183000Y0059747D02*
X0031805Y0059747D01*
X0032200Y0060745D02*
X0183000Y0060745D01*
X0183000Y0061744D02*
X0032200Y0061744D01*
X0032200Y0062743D02*
X0183000Y0062743D01*
X0183000Y0063741D02*
X0031879Y0063741D01*
X0031466Y0064740D02*
X0183000Y0064740D01*
X0183991Y0065738D02*
X0030656Y0065738D01*
X0029557Y0066737D02*
X0054432Y0066737D01*
X0055406Y0066333D02*
X0057594Y0066333D01*
X0059615Y0067171D01*
X0061163Y0068718D01*
X0061500Y0069532D01*
X0061837Y0068718D01*
X0063384Y0067171D01*
X0065406Y0066333D01*
X0067594Y0066333D01*
X0069615Y0067171D01*
X0071163Y0068718D01*
X0071500Y0069532D01*
X0071837Y0068718D01*
X0073384Y0067171D01*
X0075406Y0066333D01*
X0077594Y0066333D01*
X0079615Y0067171D01*
X0081163Y0068718D01*
X0081500Y0069532D01*
X0081837Y0068718D01*
X0083384Y0067171D01*
X0085406Y0066333D01*
X0087594Y0066333D01*
X0089615Y0067171D01*
X0091163Y0068718D01*
X0091775Y0070196D01*
X0091866Y0069914D01*
X0092224Y0069213D01*
X0092686Y0068576D01*
X0093243Y0068020D01*
X0093879Y0067557D01*
X0094581Y0067200D01*
X0095329Y0066956D01*
X0096000Y0066850D01*
X0096000Y0071333D01*
X0097000Y0071333D01*
X0097000Y0066850D01*
X0097671Y0066956D01*
X0098419Y0067200D01*
X0099121Y0067557D01*
X0099757Y0068020D01*
X0100314Y0068576D01*
X0100776Y0069213D01*
X0101134Y0069914D01*
X0101377Y0070662D01*
X0101483Y0071333D01*
X0097000Y0071333D01*
X0097000Y0072333D01*
X0101483Y0072333D01*
X0101377Y0073004D01*
X0101134Y0073753D01*
X0100776Y0074454D01*
X0100314Y0075091D01*
X0099757Y0075647D01*
X0099121Y0076110D01*
X0098419Y0076467D01*
X0097671Y0076710D01*
X0097000Y0076816D01*
X0097000Y0072333D01*
X0096000Y0072333D01*
X0096000Y0076816D01*
X0095329Y0076710D01*
X0094581Y0076467D01*
X0093879Y0076110D01*
X0093243Y0075647D01*
X0092686Y0075091D01*
X0092224Y0074454D01*
X0091866Y0073753D01*
X0091775Y0073471D01*
X0091163Y0074949D01*
X0089615Y0076496D01*
X0087594Y0077333D01*
X0085406Y0077333D01*
X0083384Y0076496D01*
X0081837Y0074949D01*
X0081500Y0074134D01*
X0081163Y0074949D01*
X0079615Y0076496D01*
X0077594Y0077333D01*
X0075406Y0077333D01*
X0073384Y0076496D01*
X0071837Y0074949D01*
X0071500Y0074134D01*
X0071163Y0074949D01*
X0069615Y0076496D01*
X0067594Y0077333D01*
X0065406Y0077333D01*
X0063384Y0076496D01*
X0061837Y0074949D01*
X0061500Y0074134D01*
X0061163Y0074949D01*
X0059615Y0076496D01*
X0057594Y0077333D01*
X0055406Y0077333D01*
X0053384Y0076496D01*
X0051837Y0074949D01*
X0051000Y0072927D01*
X0051000Y0070739D01*
X0051837Y0068718D01*
X0053384Y0067171D01*
X0055406Y0066333D01*
X0052820Y0067735D02*
X0030463Y0067735D01*
X0031386Y0068734D02*
X0051831Y0068734D01*
X0051417Y0069732D02*
X0031799Y0069732D01*
X0032200Y0070731D02*
X0051004Y0070731D01*
X0051000Y0071729D02*
X0032200Y0071729D01*
X0032200Y0072728D02*
X0051000Y0072728D01*
X0051331Y0073726D02*
X0031886Y0073726D01*
X0031472Y0074725D02*
X0051744Y0074725D01*
X0052612Y0075723D02*
X0030671Y0075723D01*
X0029593Y0076722D02*
X0053929Y0076722D01*
X0059071Y0076722D02*
X0063929Y0076722D01*
X0062612Y0075723D02*
X0060388Y0075723D01*
X0061256Y0074725D02*
X0061744Y0074725D01*
X0061831Y0068734D02*
X0061169Y0068734D01*
X0060180Y0067735D02*
X0062820Y0067735D01*
X0064432Y0066737D02*
X0058568Y0066737D01*
X0068568Y0066737D02*
X0074432Y0066737D01*
X0072820Y0067735D02*
X0070180Y0067735D01*
X0071169Y0068734D02*
X0071831Y0068734D01*
X0071744Y0074725D02*
X0071256Y0074725D01*
X0070388Y0075723D02*
X0072612Y0075723D01*
X0073929Y0076722D02*
X0069071Y0076722D01*
X0072795Y0081714D02*
X0206200Y0081714D01*
X0206200Y0081533D02*
X0201850Y0081533D01*
X0201850Y0081467D01*
X0201964Y0080744D01*
X0202191Y0080048D01*
X0202523Y0079396D01*
X0202953Y0078804D01*
X0203471Y0078287D01*
X0204063Y0077856D01*
X0204715Y0077524D01*
X0205411Y0077298D01*
X0206134Y0077183D01*
X0206200Y0077183D01*
X0206200Y0081533D01*
X0206800Y0081714D02*
X0231200Y0081714D01*
X0231200Y0081533D02*
X0226850Y0081533D01*
X0226850Y0081467D01*
X0226964Y0080744D01*
X0227191Y0080048D01*
X0227523Y0079396D01*
X0227953Y0078804D01*
X0228471Y0078287D01*
X0229063Y0077856D01*
X0229715Y0077524D01*
X0230411Y0077298D01*
X0231134Y0077183D01*
X0231200Y0077183D01*
X0231200Y0081533D01*
X0231800Y0081533D01*
X0231800Y0077183D01*
X0231866Y0077183D01*
X0232589Y0077298D01*
X0233285Y0077524D01*
X0233937Y0077856D01*
X0234529Y0078287D01*
X0235047Y0078804D01*
X0235477Y0079396D01*
X0235809Y0080048D01*
X0236035Y0080744D01*
X0236150Y0081467D01*
X0236150Y0081533D01*
X0231800Y0081533D01*
X0231800Y0082133D01*
X0236150Y0082133D01*
X0236150Y0082199D01*
X0236035Y0082922D01*
X0235809Y0083618D01*
X0235477Y0084270D01*
X0235047Y0084863D01*
X0234529Y0085380D01*
X0233937Y0085810D01*
X0233285Y0086143D01*
X0232589Y0086369D01*
X0231866Y0086483D01*
X0231800Y0086483D01*
X0231800Y0082133D01*
X0231200Y0082133D01*
X0231200Y0081533D01*
X0231200Y0082133D02*
X0226850Y0082133D01*
X0226850Y0082199D01*
X0226964Y0082922D01*
X0227191Y0083618D01*
X0227523Y0084270D01*
X0227953Y0084863D01*
X0228471Y0085380D01*
X0229063Y0085810D01*
X0229715Y0086143D01*
X0230411Y0086369D01*
X0231134Y0086483D01*
X0231200Y0086483D01*
X0231200Y0082133D01*
X0231200Y0082713D02*
X0231800Y0082713D01*
X0231800Y0083711D02*
X0231200Y0083711D01*
X0231200Y0084710D02*
X0231800Y0084710D01*
X0231800Y0085708D02*
X0231200Y0085708D01*
X0228922Y0085708D02*
X0209078Y0085708D01*
X0210158Y0084710D02*
X0227842Y0084710D01*
X0227238Y0083711D02*
X0210762Y0083711D01*
X0211069Y0082713D02*
X0226931Y0082713D01*
X0226974Y0080716D02*
X0211026Y0080716D01*
X0210641Y0079717D02*
X0227359Y0079717D01*
X0228039Y0078719D02*
X0209961Y0078719D01*
X0208670Y0077720D02*
X0229330Y0077720D01*
X0231200Y0077720D02*
X0231800Y0077720D01*
X0231800Y0078719D02*
X0231200Y0078719D01*
X0231200Y0079717D02*
X0231800Y0079717D01*
X0231800Y0080716D02*
X0231200Y0080716D01*
X0231800Y0081714D02*
X0261200Y0081714D01*
X0261200Y0081533D02*
X0256850Y0081533D01*
X0256850Y0081467D01*
X0256964Y0080744D01*
X0257191Y0080048D01*
X0257523Y0079396D01*
X0257953Y0078804D01*
X0258471Y0078287D01*
X0259063Y0077856D01*
X0259715Y0077524D01*
X0260411Y0077298D01*
X0261134Y0077183D01*
X0261200Y0077183D01*
X0261200Y0081533D01*
X0261800Y0081533D01*
X0261800Y0082133D01*
X0266150Y0082133D01*
X0266150Y0082199D01*
X0266035Y0082922D01*
X0265809Y0083618D01*
X0265477Y0084270D01*
X0265047Y0084863D01*
X0264529Y0085380D01*
X0263937Y0085810D01*
X0263285Y0086143D01*
X0262589Y0086369D01*
X0261866Y0086483D01*
X0261800Y0086483D01*
X0261800Y0082133D01*
X0261200Y0082133D01*
X0261200Y0081533D01*
X0261200Y0082133D02*
X0256850Y0082133D01*
X0256850Y0082199D01*
X0256964Y0082922D01*
X0257191Y0083618D01*
X0257523Y0084270D01*
X0257953Y0084863D01*
X0258471Y0085380D01*
X0259063Y0085810D01*
X0259715Y0086143D01*
X0260411Y0086369D01*
X0261134Y0086483D01*
X0261200Y0086483D01*
X0261200Y0082133D01*
X0261200Y0082713D02*
X0261800Y0082713D01*
X0261800Y0083711D02*
X0261200Y0083711D01*
X0261200Y0084710D02*
X0261800Y0084710D01*
X0261800Y0085708D02*
X0261200Y0085708D01*
X0258922Y0085708D02*
X0234078Y0085708D01*
X0235158Y0084710D02*
X0257842Y0084710D01*
X0257238Y0083711D02*
X0235762Y0083711D01*
X0236069Y0082713D02*
X0256931Y0082713D01*
X0256974Y0080716D02*
X0236026Y0080716D01*
X0235641Y0079717D02*
X0257359Y0079717D01*
X0258039Y0078719D02*
X0234961Y0078719D01*
X0233670Y0077720D02*
X0259330Y0077720D01*
X0261200Y0077720D02*
X0261800Y0077720D01*
X0261800Y0078719D02*
X0261200Y0078719D01*
X0261200Y0079717D02*
X0261800Y0079717D01*
X0261800Y0080716D02*
X0261200Y0080716D01*
X0261800Y0081714D02*
X0344000Y0081714D01*
X0344000Y0080716D02*
X0266026Y0080716D01*
X0266069Y0082713D02*
X0344000Y0082713D01*
X0344000Y0083711D02*
X0265762Y0083711D01*
X0265158Y0084710D02*
X0344000Y0084710D01*
X0344000Y0085708D02*
X0264078Y0085708D01*
X0273114Y0087705D02*
X0273886Y0087705D01*
X0273886Y0088704D02*
X0273114Y0088704D01*
X0273114Y0089702D02*
X0273886Y0089702D01*
X0273886Y0090701D02*
X0273114Y0090701D01*
X0258360Y0097690D02*
X0234640Y0097690D01*
X0235639Y0098689D02*
X0257361Y0098689D01*
X0256815Y0099687D02*
X0236185Y0099687D01*
X0236599Y0100686D02*
X0256401Y0100686D01*
X0256350Y0101684D02*
X0236650Y0101684D01*
X0236650Y0102683D02*
X0256350Y0102683D01*
X0256691Y0103681D02*
X0236309Y0103681D01*
X0235895Y0104680D02*
X0257105Y0104680D01*
X0258062Y0105679D02*
X0234938Y0105679D01*
X0233264Y0106677D02*
X0259736Y0106677D01*
X0229736Y0106677D02*
X0208264Y0106677D01*
X0209938Y0105679D02*
X0228062Y0105679D01*
X0227105Y0104680D02*
X0210895Y0104680D01*
X0211309Y0103681D02*
X0226691Y0103681D01*
X0226350Y0102683D02*
X0211650Y0102683D01*
X0211650Y0101684D02*
X0226350Y0101684D01*
X0226401Y0100686D02*
X0211599Y0100686D01*
X0211185Y0099687D02*
X0226815Y0099687D01*
X0227361Y0098689D02*
X0210639Y0098689D01*
X0209640Y0097690D02*
X0228360Y0097690D01*
X0206800Y0085708D02*
X0206200Y0085708D01*
X0206200Y0084710D02*
X0206800Y0084710D01*
X0206800Y0083711D02*
X0206200Y0083711D01*
X0206200Y0082713D02*
X0206800Y0082713D01*
X0206800Y0080716D02*
X0206200Y0080716D01*
X0206200Y0079717D02*
X0206800Y0079717D01*
X0206800Y0078719D02*
X0206200Y0078719D01*
X0206200Y0077720D02*
X0206800Y0077720D01*
X0204330Y0077720D02*
X0030448Y0077720D01*
X0031380Y0078719D02*
X0203039Y0078719D01*
X0202359Y0079717D02*
X0031793Y0079717D01*
X0032200Y0080716D02*
X0201974Y0080716D01*
X0202842Y0084710D02*
X0159679Y0084710D01*
X0160093Y0085708D02*
X0203922Y0085708D01*
X0189334Y0093696D02*
X0167287Y0093696D01*
X0161826Y0088704D02*
X0159784Y0088704D01*
X0153929Y0076722D02*
X0149071Y0076722D01*
X0150388Y0075723D02*
X0152612Y0075723D01*
X0151744Y0074725D02*
X0151256Y0074725D01*
X0151169Y0068734D02*
X0151831Y0068734D01*
X0152820Y0067735D02*
X0150180Y0067735D01*
X0148568Y0066737D02*
X0154432Y0066737D01*
X0144432Y0066737D02*
X0138568Y0066737D01*
X0140180Y0067735D02*
X0142820Y0067735D01*
X0141831Y0068734D02*
X0141169Y0068734D01*
X0141256Y0074725D02*
X0141744Y0074725D01*
X0142612Y0075723D02*
X0140388Y0075723D01*
X0139071Y0076722D02*
X0143929Y0076722D01*
X0133929Y0076722D02*
X0127598Y0076722D01*
X0127000Y0076722D02*
X0126000Y0076722D01*
X0126000Y0076816D02*
X0125329Y0076710D01*
X0124581Y0076467D01*
X0123879Y0076110D01*
X0123243Y0075647D01*
X0122686Y0075091D01*
X0122224Y0074454D01*
X0121866Y0073753D01*
X0121623Y0073004D01*
X0121517Y0072333D01*
X0126000Y0072333D01*
X0126000Y0076816D01*
X0125402Y0076722D02*
X0117598Y0076722D01*
X0117671Y0076710D02*
X0117000Y0076816D01*
X0117000Y0072333D01*
X0121483Y0072333D01*
X0121377Y0073004D01*
X0121134Y0073753D01*
X0120776Y0074454D01*
X0120314Y0075091D01*
X0119757Y0075647D01*
X0119121Y0076110D01*
X0118419Y0076467D01*
X0117671Y0076710D01*
X0117000Y0076722D02*
X0116000Y0076722D01*
X0116000Y0076816D02*
X0115329Y0076710D01*
X0114581Y0076467D01*
X0113879Y0076110D01*
X0113243Y0075647D01*
X0112686Y0075091D01*
X0112224Y0074454D01*
X0111866Y0073753D01*
X0111623Y0073004D01*
X0111517Y0072333D01*
X0116000Y0072333D01*
X0116000Y0071333D01*
X0117000Y0071333D01*
X0117000Y0066850D01*
X0117671Y0066956D01*
X0118419Y0067200D01*
X0119121Y0067557D01*
X0119757Y0068020D01*
X0120314Y0068576D01*
X0120776Y0069213D01*
X0121134Y0069914D01*
X0121377Y0070662D01*
X0121483Y0071333D01*
X0117000Y0071333D01*
X0117000Y0072333D01*
X0116000Y0072333D01*
X0116000Y0076816D01*
X0115402Y0076722D02*
X0107598Y0076722D01*
X0107671Y0076710D02*
X0107000Y0076816D01*
X0107000Y0072333D01*
X0111483Y0072333D01*
X0111377Y0073004D01*
X0111134Y0073753D01*
X0110776Y0074454D01*
X0110314Y0075091D01*
X0109757Y0075647D01*
X0109121Y0076110D01*
X0108419Y0076467D01*
X0107671Y0076710D01*
X0107000Y0076722D02*
X0106000Y0076722D01*
X0106000Y0076816D02*
X0105329Y0076710D01*
X0104581Y0076467D01*
X0103879Y0076110D01*
X0103243Y0075647D01*
X0102686Y0075091D01*
X0102224Y0074454D01*
X0101866Y0073753D01*
X0101623Y0073004D01*
X0101517Y0072333D01*
X0106000Y0072333D01*
X0106000Y0071333D01*
X0107000Y0071333D01*
X0107000Y0066850D01*
X0107671Y0066956D01*
X0108419Y0067200D01*
X0109121Y0067557D01*
X0109757Y0068020D01*
X0110314Y0068576D01*
X0110776Y0069213D01*
X0111134Y0069914D01*
X0111377Y0070662D01*
X0111483Y0071333D01*
X0107000Y0071333D01*
X0107000Y0072333D01*
X0106000Y0072333D01*
X0106000Y0076816D01*
X0105402Y0076722D02*
X0097598Y0076722D01*
X0097000Y0076722D02*
X0096000Y0076722D01*
X0095402Y0076722D02*
X0089071Y0076722D01*
X0090388Y0075723D02*
X0093347Y0075723D01*
X0092420Y0074725D02*
X0091256Y0074725D01*
X0091669Y0073726D02*
X0091858Y0073726D01*
X0096000Y0073726D02*
X0097000Y0073726D01*
X0097000Y0072728D02*
X0096000Y0072728D01*
X0097000Y0071729D02*
X0106000Y0071729D01*
X0106000Y0071333D02*
X0101517Y0071333D01*
X0101623Y0070662D01*
X0101866Y0069914D01*
X0102224Y0069213D01*
X0102686Y0068576D01*
X0103243Y0068020D01*
X0103879Y0067557D01*
X0104581Y0067200D01*
X0105329Y0066956D01*
X0106000Y0066850D01*
X0106000Y0071333D01*
X0106000Y0070731D02*
X0107000Y0070731D01*
X0107000Y0071729D02*
X0116000Y0071729D01*
X0116000Y0071333D02*
X0111517Y0071333D01*
X0111623Y0070662D01*
X0111866Y0069914D01*
X0112224Y0069213D01*
X0112686Y0068576D01*
X0113243Y0068020D01*
X0113879Y0067557D01*
X0114581Y0067200D01*
X0115329Y0066956D01*
X0116000Y0066850D01*
X0116000Y0071333D01*
X0116000Y0070731D02*
X0117000Y0070731D01*
X0117000Y0071729D02*
X0126000Y0071729D01*
X0126000Y0071333D02*
X0121517Y0071333D01*
X0121623Y0070662D01*
X0121866Y0069914D01*
X0122224Y0069213D01*
X0122686Y0068576D01*
X0123243Y0068020D01*
X0123879Y0067557D01*
X0124581Y0067200D01*
X0125329Y0066956D01*
X0126000Y0066850D01*
X0126000Y0071333D01*
X0126000Y0070731D02*
X0127000Y0070731D01*
X0127000Y0069732D02*
X0126000Y0069732D01*
X0126000Y0068734D02*
X0127000Y0068734D01*
X0127000Y0067735D02*
X0126000Y0067735D01*
X0123634Y0067735D02*
X0119366Y0067735D01*
X0120428Y0068734D02*
X0122572Y0068734D01*
X0121959Y0069732D02*
X0121041Y0069732D01*
X0121388Y0070731D02*
X0121612Y0070731D01*
X0121579Y0072728D02*
X0121421Y0072728D01*
X0121142Y0073726D02*
X0121858Y0073726D01*
X0122420Y0074725D02*
X0120580Y0074725D01*
X0119653Y0075723D02*
X0123347Y0075723D01*
X0126000Y0075723D02*
X0127000Y0075723D01*
X0127000Y0074725D02*
X0126000Y0074725D01*
X0126000Y0073726D02*
X0127000Y0073726D01*
X0127000Y0072728D02*
X0126000Y0072728D01*
X0129653Y0075723D02*
X0132612Y0075723D01*
X0131744Y0074725D02*
X0130580Y0074725D01*
X0131142Y0073726D02*
X0131331Y0073726D01*
X0131417Y0069732D02*
X0131041Y0069732D01*
X0130428Y0068734D02*
X0131831Y0068734D01*
X0132820Y0067735D02*
X0129366Y0067735D01*
X0134432Y0066737D02*
X0088568Y0066737D01*
X0090180Y0067735D02*
X0093634Y0067735D01*
X0092572Y0068734D02*
X0091169Y0068734D01*
X0091583Y0069732D02*
X0091959Y0069732D01*
X0096000Y0069732D02*
X0097000Y0069732D01*
X0097000Y0068734D02*
X0096000Y0068734D01*
X0096000Y0067735D02*
X0097000Y0067735D01*
X0099366Y0067735D02*
X0103634Y0067735D01*
X0102572Y0068734D02*
X0100428Y0068734D01*
X0101041Y0069732D02*
X0101959Y0069732D01*
X0101612Y0070731D02*
X0101388Y0070731D01*
X0101421Y0072728D02*
X0101579Y0072728D01*
X0101858Y0073726D02*
X0101142Y0073726D01*
X0100580Y0074725D02*
X0102420Y0074725D01*
X0103347Y0075723D02*
X0099653Y0075723D01*
X0097000Y0075723D02*
X0096000Y0075723D01*
X0096000Y0074725D02*
X0097000Y0074725D01*
X0097000Y0070731D02*
X0096000Y0070731D01*
X0106000Y0069732D02*
X0107000Y0069732D01*
X0107000Y0068734D02*
X0106000Y0068734D01*
X0106000Y0067735D02*
X0107000Y0067735D01*
X0109366Y0067735D02*
X0113634Y0067735D01*
X0112572Y0068734D02*
X0110428Y0068734D01*
X0111041Y0069732D02*
X0111959Y0069732D01*
X0111612Y0070731D02*
X0111388Y0070731D01*
X0111421Y0072728D02*
X0111579Y0072728D01*
X0111858Y0073726D02*
X0111142Y0073726D01*
X0110580Y0074725D02*
X0112420Y0074725D01*
X0113347Y0075723D02*
X0109653Y0075723D01*
X0107000Y0075723D02*
X0106000Y0075723D01*
X0106000Y0074725D02*
X0107000Y0074725D01*
X0107000Y0073726D02*
X0106000Y0073726D01*
X0106000Y0072728D02*
X0107000Y0072728D01*
X0116000Y0072728D02*
X0117000Y0072728D01*
X0117000Y0073726D02*
X0116000Y0073726D01*
X0116000Y0074725D02*
X0117000Y0074725D01*
X0117000Y0075723D02*
X0116000Y0075723D01*
X0116000Y0069732D02*
X0117000Y0069732D01*
X0117000Y0068734D02*
X0116000Y0068734D01*
X0116000Y0067735D02*
X0117000Y0067735D01*
X0084432Y0066737D02*
X0078568Y0066737D01*
X0080180Y0067735D02*
X0082820Y0067735D01*
X0081831Y0068734D02*
X0081169Y0068734D01*
X0081256Y0074725D02*
X0081744Y0074725D01*
X0082612Y0075723D02*
X0080388Y0075723D01*
X0079071Y0076722D02*
X0083929Y0076722D01*
X0074000Y0106833D02*
X0149000Y0106833D01*
X0151500Y0111833D02*
X0156500Y0106833D01*
X0158964Y0109673D02*
X0194418Y0109673D01*
X0193420Y0110671D02*
X0156198Y0110671D01*
X0155199Y0111670D02*
X0192421Y0111670D01*
X0191423Y0112668D02*
X0154201Y0112668D01*
X0154363Y0113667D02*
X0153202Y0113667D01*
X0153365Y0114665D02*
X0152135Y0114665D01*
X0152574Y0115664D02*
X0152926Y0115664D01*
X0152750Y0116087D02*
X0152750Y0117048D01*
X0152750Y0117048D01*
X0152750Y0116087D01*
X0152750Y0116662D02*
X0152750Y0116662D01*
X0149000Y0116833D02*
X0074000Y0116833D01*
X0069000Y0121833D01*
X0069000Y0116833D02*
X0074000Y0111833D01*
X0096500Y0111833D01*
X0096500Y0121833D02*
X0074000Y0121833D01*
X0069000Y0126833D01*
X0046500Y0126833D01*
X0041500Y0121833D01*
X0026500Y0121833D01*
X0026500Y0111833D02*
X0041500Y0111833D01*
X0046500Y0116833D01*
X0069000Y0116833D01*
X0069000Y0111833D02*
X0074000Y0106833D01*
X0074000Y0126833D02*
X0151500Y0126833D01*
X0156500Y0121833D01*
X0184000Y0121833D01*
X0187750Y0121655D02*
X0188500Y0121655D01*
X0188500Y0120656D02*
X0187571Y0120656D01*
X0187128Y0119658D02*
X0188500Y0119658D01*
X0188500Y0118659D02*
X0186129Y0118659D01*
X0188500Y0117661D02*
X0160216Y0117661D01*
X0160250Y0116662D02*
X0188500Y0116662D01*
X0188737Y0115664D02*
X0160074Y0115664D01*
X0159635Y0114665D02*
X0189426Y0114665D01*
X0190424Y0113667D02*
X0158637Y0113667D01*
X0156500Y0116833D02*
X0151500Y0121833D01*
X0124000Y0121833D01*
X0124000Y0111833D02*
X0151500Y0111833D01*
X0159797Y0108674D02*
X0195417Y0108674D01*
X0196415Y0107676D02*
X0160210Y0107676D01*
X0160250Y0106677D02*
X0197414Y0106677D01*
X0198412Y0105679D02*
X0160081Y0105679D01*
X0159650Y0104680D02*
X0186543Y0104680D01*
X0181871Y0118659D02*
X0159803Y0118659D01*
X0159620Y0124650D02*
X0181514Y0124650D01*
X0183096Y0125649D02*
X0160068Y0125649D01*
X0160250Y0126647D02*
X0181383Y0126647D01*
X0180640Y0127646D02*
X0160222Y0127646D01*
X0159809Y0128644D02*
X0180250Y0128644D01*
X0181500Y0131833D02*
X0156500Y0131833D01*
X0151500Y0136833D01*
X0074000Y0136833D01*
X0069000Y0141833D01*
X0069000Y0136833D02*
X0074000Y0131833D01*
X0096500Y0131833D01*
X0096500Y0141833D02*
X0074000Y0141833D01*
X0069000Y0146833D01*
X0046500Y0146833D01*
X0041500Y0141833D01*
X0026500Y0141833D01*
X0026500Y0151833D02*
X0041500Y0151833D01*
X0046500Y0156833D01*
X0069000Y0156833D01*
X0074000Y0151833D01*
X0096500Y0151833D01*
X0096500Y0161833D02*
X0074000Y0161833D01*
X0069000Y0166833D01*
X0046500Y0166833D01*
X0041500Y0161833D01*
X0026500Y0161833D01*
X0026500Y0171833D02*
X0041500Y0171833D01*
X0046500Y0176833D01*
X0069000Y0176833D01*
X0074000Y0171833D01*
X0096500Y0171833D01*
X0096500Y0181833D02*
X0074000Y0181833D01*
X0069000Y0186833D01*
X0046500Y0186833D01*
X0041500Y0181833D01*
X0026500Y0181833D01*
X0026500Y0191833D02*
X0041500Y0191833D01*
X0046500Y0196833D01*
X0069000Y0196833D01*
X0074000Y0191833D01*
X0096500Y0191833D01*
X0096500Y0201833D02*
X0074000Y0201833D01*
X0069000Y0206833D01*
X0046500Y0206833D01*
X0041500Y0201833D01*
X0026500Y0201833D01*
X0026500Y0211833D02*
X0041500Y0211833D01*
X0046500Y0216833D01*
X0069000Y0216833D01*
X0074000Y0211833D01*
X0096500Y0211833D01*
X0096500Y0221833D02*
X0074000Y0221833D01*
X0069000Y0226833D01*
X0046500Y0226833D01*
X0041500Y0221833D01*
X0026500Y0221833D01*
X0026500Y0231833D02*
X0041500Y0231833D01*
X0046500Y0236833D01*
X0069000Y0236833D01*
X0074000Y0231833D01*
X0096500Y0231833D01*
X0099449Y0239479D02*
X0121051Y0239479D01*
X0120503Y0240478D02*
X0099997Y0240478D01*
X0100250Y0241476D02*
X0120250Y0241476D01*
X0120250Y0242475D02*
X0100250Y0242475D01*
X0099880Y0243473D02*
X0120620Y0243473D01*
X0121335Y0244472D02*
X0099165Y0244472D01*
X0097519Y0245470D02*
X0122981Y0245470D01*
X0125100Y0246469D02*
X0077500Y0246469D01*
X0077500Y0245470D02*
X0095481Y0245470D01*
X0093835Y0244472D02*
X0077500Y0244472D01*
X0077280Y0247467D02*
X0126098Y0247467D01*
X0127097Y0248466D02*
X0076282Y0248466D01*
X0075283Y0249464D02*
X0172664Y0249464D01*
X0172141Y0248466D02*
X0155903Y0248466D01*
X0156902Y0247467D02*
X0171892Y0247467D01*
X0171850Y0246533D02*
X0171850Y0246467D01*
X0171964Y0245744D01*
X0172191Y0245048D01*
X0172523Y0244396D01*
X0172953Y0243804D01*
X0173471Y0243287D01*
X0174063Y0242856D01*
X0174715Y0242524D01*
X0175411Y0242298D01*
X0176134Y0242183D01*
X0176200Y0242183D01*
X0176200Y0246533D01*
X0171850Y0246533D01*
X0171850Y0246469D02*
X0157900Y0246469D01*
X0158735Y0245470D02*
X0172054Y0245470D01*
X0172485Y0244472D02*
X0159000Y0244472D01*
X0159000Y0243473D02*
X0173284Y0243473D01*
X0174867Y0242475D02*
X0159000Y0242475D01*
X0159000Y0241476D02*
X0216925Y0241476D01*
X0216925Y0242475D02*
X0199424Y0242475D01*
X0197501Y0240478D02*
X0216609Y0240478D01*
X0215610Y0239479D02*
X0199158Y0239479D01*
X0199877Y0238481D02*
X0214612Y0238481D01*
X0213613Y0237482D02*
X0200250Y0237482D01*
X0200385Y0236483D02*
X0212615Y0236483D01*
X0211616Y0235485D02*
X0204983Y0235485D01*
X0206650Y0234486D02*
X0210618Y0234486D01*
X0211500Y0231833D02*
X0204000Y0231833D01*
X0203017Y0235485D02*
X0201229Y0235485D01*
X0199000Y0234333D02*
X0199000Y0196833D01*
X0201500Y0201536D02*
X0203994Y0201536D01*
X0203186Y0202534D02*
X0201500Y0202534D01*
X0201500Y0203533D02*
X0202773Y0203533D01*
X0202750Y0204531D02*
X0201500Y0204531D01*
X0201500Y0205530D02*
X0202937Y0205530D01*
X0203392Y0206528D02*
X0201500Y0206528D01*
X0201500Y0207527D02*
X0204000Y0207527D01*
X0204000Y0208525D02*
X0201500Y0208525D01*
X0201500Y0209524D02*
X0204000Y0209524D01*
X0204000Y0210522D02*
X0201500Y0210522D01*
X0201500Y0211521D02*
X0204000Y0211521D01*
X0204000Y0212519D02*
X0201500Y0212519D01*
X0201500Y0213518D02*
X0204000Y0213518D01*
X0204000Y0214516D02*
X0201500Y0214516D01*
X0201500Y0215515D02*
X0204000Y0215515D01*
X0204000Y0216513D02*
X0201500Y0216513D01*
X0201500Y0217512D02*
X0204000Y0217512D01*
X0204000Y0218510D02*
X0201500Y0218510D01*
X0201500Y0219509D02*
X0204000Y0219509D01*
X0204280Y0220507D02*
X0201500Y0220507D01*
X0201500Y0221506D02*
X0205137Y0221506D01*
X0205250Y0222504D02*
X0201500Y0222504D01*
X0201500Y0223503D02*
X0205633Y0223503D01*
X0206365Y0224501D02*
X0201500Y0224501D01*
X0196500Y0224501D02*
X0191635Y0224501D01*
X0192367Y0223503D02*
X0196500Y0223503D01*
X0196500Y0222504D02*
X0192750Y0222504D01*
X0193570Y0221506D02*
X0196500Y0221506D01*
X0196500Y0220507D02*
X0194569Y0220507D01*
X0195567Y0219509D02*
X0196500Y0219509D01*
X0196500Y0225500D02*
X0189947Y0225500D01*
X0188053Y0225500D02*
X0160007Y0225500D01*
X0160250Y0226498D02*
X0196500Y0226498D01*
X0196500Y0227497D02*
X0160250Y0227497D01*
X0159871Y0228495D02*
X0196500Y0228495D01*
X0196500Y0229494D02*
X0159143Y0229494D01*
X0159000Y0230492D02*
X0196500Y0230492D01*
X0196500Y0231491D02*
X0159000Y0231491D01*
X0158934Y0232489D02*
X0196500Y0232489D01*
X0194777Y0233488D02*
X0158381Y0233488D01*
X0159456Y0234486D02*
X0193544Y0234486D01*
X0193000Y0235485D02*
X0160000Y0235485D01*
X0160250Y0236483D02*
X0192750Y0236483D01*
X0192750Y0237482D02*
X0160250Y0237482D01*
X0159877Y0238481D02*
X0193123Y0238481D01*
X0193842Y0239479D02*
X0159158Y0239479D01*
X0159000Y0240478D02*
X0195499Y0240478D01*
X0193576Y0242475D02*
X0178133Y0242475D01*
X0176800Y0242475D02*
X0176200Y0242475D01*
X0176200Y0243473D02*
X0176800Y0243473D01*
X0176800Y0244472D02*
X0176200Y0244472D01*
X0176200Y0245470D02*
X0176800Y0245470D01*
X0176800Y0246469D02*
X0176200Y0246469D01*
X0176200Y0247467D02*
X0176800Y0247467D01*
X0176800Y0248466D02*
X0176200Y0248466D01*
X0176200Y0249464D02*
X0176800Y0249464D01*
X0176800Y0250463D02*
X0176200Y0250463D01*
X0173584Y0250463D02*
X0074285Y0250463D01*
X0069000Y0246833D02*
X0074000Y0241833D01*
X0096500Y0241833D01*
X0074000Y0236833D02*
X0069000Y0241833D01*
X0069000Y0246833D02*
X0046500Y0246833D01*
X0041500Y0241833D01*
X0026500Y0241833D01*
X0004000Y0254457D02*
X0217654Y0254457D01*
X0218652Y0255455D02*
X0004000Y0255455D01*
X0004000Y0256454D02*
X0229000Y0256454D01*
X0229000Y0255455D02*
X0224348Y0255455D01*
X0225346Y0254457D02*
X0229000Y0254457D01*
X0229000Y0253458D02*
X0225779Y0253458D01*
X0226075Y0252460D02*
X0229000Y0252460D01*
X0229000Y0251461D02*
X0226075Y0251461D01*
X0225884Y0250463D02*
X0229000Y0250463D01*
X0229000Y0249464D02*
X0225470Y0249464D01*
X0224602Y0248466D02*
X0229000Y0248466D01*
X0229000Y0245470D02*
X0224333Y0245470D01*
X0225331Y0244472D02*
X0229000Y0244472D01*
X0229000Y0243473D02*
X0225773Y0243473D01*
X0226075Y0242475D02*
X0229000Y0242475D01*
X0229000Y0241476D02*
X0226075Y0241476D01*
X0225890Y0240478D02*
X0229000Y0240478D01*
X0229000Y0239479D02*
X0225477Y0239479D01*
X0224617Y0238481D02*
X0229000Y0238481D01*
X0234000Y0244472D02*
X0277669Y0244472D01*
X0278667Y0245470D02*
X0234000Y0245470D01*
X0234000Y0246469D02*
X0304862Y0246469D01*
X0303194Y0245470D02*
X0284333Y0245470D01*
X0285331Y0244472D02*
X0302279Y0244472D01*
X0301865Y0243473D02*
X0285773Y0243473D01*
X0286075Y0242475D02*
X0301591Y0242475D01*
X0301591Y0241476D02*
X0286075Y0241476D01*
X0285890Y0240478D02*
X0301748Y0240478D01*
X0302161Y0239479D02*
X0285477Y0239479D01*
X0284617Y0238481D02*
X0302910Y0238481D01*
X0304176Y0237482D02*
X0282949Y0237482D01*
X0282410Y0236408D02*
X0280590Y0236408D01*
X0278909Y0235712D01*
X0277622Y0234425D01*
X0276925Y0232743D01*
X0276925Y0230923D01*
X0277622Y0229242D01*
X0278909Y0227955D01*
X0280590Y0227259D01*
X0282410Y0227259D01*
X0284091Y0227955D01*
X0285378Y0229242D01*
X0286075Y0230923D01*
X0286075Y0232743D01*
X0285378Y0234425D01*
X0284091Y0235712D01*
X0282410Y0236408D01*
X0284318Y0235485D02*
X0303209Y0235485D01*
X0302285Y0234486D02*
X0285317Y0234486D01*
X0285766Y0233488D02*
X0301871Y0233488D01*
X0301591Y0232489D02*
X0286075Y0232489D01*
X0286075Y0231491D02*
X0301591Y0231491D01*
X0301741Y0230492D02*
X0285896Y0230492D01*
X0285483Y0229494D02*
X0302155Y0229494D01*
X0302895Y0228495D02*
X0284632Y0228495D01*
X0282985Y0227497D02*
X0304140Y0227497D01*
X0304933Y0226498D02*
X0269000Y0226498D01*
X0269000Y0225500D02*
X0278697Y0225500D01*
X0278909Y0225712D02*
X0277622Y0224425D01*
X0276925Y0222743D01*
X0276925Y0220923D01*
X0277622Y0219242D01*
X0278909Y0217955D01*
X0280590Y0217259D01*
X0282410Y0217259D01*
X0284091Y0217955D01*
X0285378Y0219242D01*
X0286075Y0220923D01*
X0286075Y0222743D01*
X0285378Y0224425D01*
X0284091Y0225712D01*
X0282410Y0226408D01*
X0280590Y0226408D01*
X0278909Y0225712D01*
X0277698Y0224501D02*
X0269000Y0224501D01*
X0269000Y0223503D02*
X0277240Y0223503D01*
X0276925Y0222504D02*
X0269000Y0222504D01*
X0269000Y0221506D02*
X0276925Y0221506D01*
X0277098Y0220507D02*
X0269000Y0220507D01*
X0269000Y0219509D02*
X0277511Y0219509D01*
X0278353Y0218510D02*
X0269000Y0218510D01*
X0269000Y0217512D02*
X0279979Y0217512D01*
X0280590Y0216408D02*
X0278909Y0215712D01*
X0277622Y0214425D01*
X0276925Y0212743D01*
X0276925Y0210923D01*
X0277622Y0209242D01*
X0278909Y0207955D01*
X0280590Y0207259D01*
X0282410Y0207259D01*
X0284091Y0207955D01*
X0285378Y0209242D01*
X0286075Y0210923D01*
X0286075Y0212743D01*
X0285378Y0214425D01*
X0284091Y0215712D01*
X0282410Y0216408D01*
X0280590Y0216408D01*
X0278712Y0215515D02*
X0269000Y0215515D01*
X0269000Y0216513D02*
X0304969Y0216513D01*
X0304104Y0217512D02*
X0283021Y0217512D01*
X0284647Y0218510D02*
X0302880Y0218510D01*
X0302149Y0219509D02*
X0285489Y0219509D01*
X0285902Y0220507D02*
X0301735Y0220507D01*
X0301591Y0221506D02*
X0286075Y0221506D01*
X0286075Y0222504D02*
X0301591Y0222504D01*
X0301878Y0223503D02*
X0285760Y0223503D01*
X0285302Y0224501D02*
X0302291Y0224501D01*
X0303224Y0225500D02*
X0284303Y0225500D01*
X0280015Y0227497D02*
X0269000Y0227497D01*
X0269000Y0228495D02*
X0278368Y0228495D01*
X0277517Y0229494D02*
X0269464Y0229494D01*
X0270004Y0230492D02*
X0277104Y0230492D01*
X0276925Y0231491D02*
X0270250Y0231491D01*
X0270250Y0232489D02*
X0276925Y0232489D01*
X0277234Y0233488D02*
X0269874Y0233488D01*
X0269150Y0234486D02*
X0277683Y0234486D01*
X0278682Y0235485D02*
X0267483Y0235485D01*
X0266500Y0231833D02*
X0266500Y0176833D01*
X0261500Y0171833D01*
X0241500Y0171833D01*
X0243456Y0168585D02*
X0278279Y0168585D01*
X0277480Y0169583D02*
X0262601Y0169583D01*
X0263784Y0170582D02*
X0277067Y0170582D01*
X0276925Y0171580D02*
X0264782Y0171580D01*
X0265781Y0172579D02*
X0276925Y0172579D01*
X0277271Y0173577D02*
X0266779Y0173577D01*
X0267778Y0174576D02*
X0277773Y0174576D01*
X0278771Y0175574D02*
X0268684Y0175574D01*
X0269000Y0176573D02*
X0305113Y0176573D01*
X0303960Y0177571D02*
X0283165Y0177571D01*
X0282410Y0177259D02*
X0284091Y0177955D01*
X0285378Y0179242D01*
X0286075Y0180923D01*
X0286075Y0182743D01*
X0285378Y0184425D01*
X0284091Y0185712D01*
X0282410Y0186408D01*
X0280590Y0186408D01*
X0278909Y0185712D01*
X0277622Y0184425D01*
X0276925Y0182743D01*
X0276925Y0180923D01*
X0277622Y0179242D01*
X0278909Y0177955D01*
X0280590Y0177259D01*
X0282410Y0177259D01*
X0284229Y0175574D02*
X0303298Y0175574D01*
X0302322Y0174576D02*
X0285227Y0174576D01*
X0285729Y0173577D02*
X0301908Y0173577D01*
X0301591Y0172579D02*
X0286075Y0172579D01*
X0286075Y0171580D02*
X0301591Y0171580D01*
X0301704Y0170582D02*
X0285933Y0170582D01*
X0285520Y0169583D02*
X0302118Y0169583D01*
X0302806Y0168585D02*
X0284721Y0168585D01*
X0283201Y0167586D02*
X0303924Y0167586D01*
X0302820Y0178570D02*
X0284706Y0178570D01*
X0285514Y0179568D02*
X0302124Y0179568D01*
X0301711Y0180567D02*
X0285927Y0180567D01*
X0286075Y0181565D02*
X0301591Y0181565D01*
X0301591Y0182564D02*
X0286075Y0182564D01*
X0285736Y0183562D02*
X0301902Y0183562D01*
X0302316Y0184561D02*
X0285242Y0184561D01*
X0284244Y0185559D02*
X0303283Y0185559D01*
X0305077Y0186558D02*
X0269000Y0186558D01*
X0269000Y0187556D02*
X0279871Y0187556D01*
X0280590Y0187259D02*
X0282410Y0187259D01*
X0284091Y0187955D01*
X0285378Y0189242D01*
X0286075Y0190923D01*
X0286075Y0192743D01*
X0285378Y0194425D01*
X0284091Y0195712D01*
X0282410Y0196408D01*
X0280590Y0196408D01*
X0278909Y0195712D01*
X0277622Y0194425D01*
X0276925Y0192743D01*
X0276925Y0190923D01*
X0277622Y0189242D01*
X0278909Y0187955D01*
X0280590Y0187259D01*
X0278756Y0185559D02*
X0269000Y0185559D01*
X0269000Y0184561D02*
X0277758Y0184561D01*
X0277264Y0183562D02*
X0269000Y0183562D01*
X0269000Y0182564D02*
X0276925Y0182564D01*
X0276925Y0181565D02*
X0269000Y0181565D01*
X0269000Y0180567D02*
X0277073Y0180567D01*
X0277486Y0179568D02*
X0269000Y0179568D01*
X0269000Y0178570D02*
X0278294Y0178570D01*
X0279835Y0177571D02*
X0269000Y0177571D01*
X0269000Y0188555D02*
X0278309Y0188555D01*
X0277493Y0189553D02*
X0269000Y0189553D01*
X0269000Y0190552D02*
X0277079Y0190552D01*
X0276925Y0191550D02*
X0269000Y0191550D01*
X0269000Y0192549D02*
X0276925Y0192549D01*
X0277258Y0193548D02*
X0269000Y0193548D01*
X0269000Y0194546D02*
X0277743Y0194546D01*
X0278741Y0195545D02*
X0269000Y0195545D01*
X0269000Y0196543D02*
X0305041Y0196543D01*
X0304032Y0197542D02*
X0283093Y0197542D01*
X0282410Y0197259D02*
X0284091Y0197955D01*
X0285378Y0199242D01*
X0286075Y0200923D01*
X0286075Y0202743D01*
X0285378Y0204425D01*
X0284091Y0205712D01*
X0282410Y0206408D01*
X0280590Y0206408D01*
X0278909Y0205712D01*
X0277622Y0204425D01*
X0276925Y0202743D01*
X0276925Y0200923D01*
X0277622Y0199242D01*
X0278909Y0197955D01*
X0280590Y0197259D01*
X0282410Y0197259D01*
X0279907Y0197542D02*
X0269000Y0197542D01*
X0269000Y0198540D02*
X0278324Y0198540D01*
X0277499Y0199539D02*
X0269000Y0199539D01*
X0269000Y0200537D02*
X0277085Y0200537D01*
X0276925Y0201536D02*
X0269000Y0201536D01*
X0269000Y0202534D02*
X0276925Y0202534D01*
X0277252Y0203533D02*
X0269000Y0203533D01*
X0269000Y0204531D02*
X0277728Y0204531D01*
X0278727Y0205530D02*
X0269000Y0205530D01*
X0269000Y0206528D02*
X0305005Y0206528D01*
X0304068Y0207527D02*
X0283057Y0207527D01*
X0284662Y0208525D02*
X0302865Y0208525D01*
X0302143Y0209524D02*
X0285495Y0209524D01*
X0285909Y0210522D02*
X0301729Y0210522D01*
X0301591Y0211521D02*
X0286075Y0211521D01*
X0286075Y0212519D02*
X0301591Y0212519D01*
X0301884Y0213518D02*
X0285754Y0213518D01*
X0285287Y0214516D02*
X0302297Y0214516D01*
X0303238Y0215515D02*
X0284288Y0215515D01*
X0277713Y0214516D02*
X0269000Y0214516D01*
X0269000Y0213518D02*
X0277246Y0213518D01*
X0276925Y0212519D02*
X0269000Y0212519D01*
X0269000Y0211521D02*
X0276925Y0211521D01*
X0277091Y0210522D02*
X0269000Y0210522D01*
X0269000Y0209524D02*
X0277505Y0209524D01*
X0278338Y0208525D02*
X0269000Y0208525D01*
X0269000Y0207527D02*
X0279943Y0207527D01*
X0284273Y0205530D02*
X0303253Y0205530D01*
X0302304Y0204531D02*
X0285272Y0204531D01*
X0285748Y0203533D02*
X0301890Y0203533D01*
X0301591Y0202534D02*
X0286075Y0202534D01*
X0286075Y0201536D02*
X0301591Y0201536D01*
X0301723Y0200537D02*
X0285915Y0200537D01*
X0285501Y0199539D02*
X0302137Y0199539D01*
X0302850Y0198540D02*
X0284676Y0198540D01*
X0284259Y0195545D02*
X0303268Y0195545D01*
X0302310Y0194546D02*
X0285257Y0194546D01*
X0285742Y0193548D02*
X0301896Y0193548D01*
X0301591Y0192549D02*
X0286075Y0192549D01*
X0286075Y0191550D02*
X0301591Y0191550D01*
X0301717Y0190552D02*
X0285921Y0190552D01*
X0285507Y0189553D02*
X0302130Y0189553D01*
X0302835Y0188555D02*
X0284691Y0188555D01*
X0283129Y0187556D02*
X0303996Y0187556D01*
X0311104Y0193548D02*
X0332425Y0193548D01*
X0333021Y0194546D02*
X0310690Y0194546D01*
X0309732Y0195545D02*
X0334106Y0195545D01*
X0332144Y0212519D02*
X0311409Y0212519D01*
X0311116Y0213518D02*
X0332411Y0213518D01*
X0332999Y0214516D02*
X0310703Y0214516D01*
X0309762Y0215515D02*
X0334065Y0215515D01*
X0332142Y0222504D02*
X0311409Y0222504D01*
X0311122Y0223503D02*
X0332406Y0223503D01*
X0332988Y0224501D02*
X0310709Y0224501D01*
X0309776Y0225500D02*
X0334045Y0225500D01*
X0344000Y0247467D02*
X0282914Y0247467D01*
X0282410Y0247259D02*
X0284091Y0247955D01*
X0285378Y0249242D01*
X0286075Y0250923D01*
X0286075Y0252743D01*
X0285378Y0254425D01*
X0284091Y0255712D01*
X0282410Y0256408D01*
X0280590Y0256408D01*
X0278909Y0255712D01*
X0277622Y0254425D01*
X0276925Y0252743D01*
X0276925Y0250923D01*
X0277622Y0249242D01*
X0278909Y0247955D01*
X0280590Y0247259D01*
X0282410Y0247259D01*
X0280086Y0247467D02*
X0234000Y0247467D01*
X0234000Y0248466D02*
X0278398Y0248466D01*
X0277530Y0249464D02*
X0234000Y0249464D01*
X0234000Y0250463D02*
X0277116Y0250463D01*
X0276925Y0251461D02*
X0234000Y0251461D01*
X0234000Y0252460D02*
X0276925Y0252460D01*
X0277221Y0253458D02*
X0234000Y0253458D01*
X0234000Y0254457D02*
X0277654Y0254457D01*
X0278652Y0255455D02*
X0234000Y0255455D01*
X0234656Y0256454D02*
X0344000Y0256454D01*
X0344000Y0257452D02*
X0282878Y0257452D01*
X0284587Y0258451D02*
X0344000Y0258451D01*
X0343884Y0259449D02*
X0285464Y0259449D01*
X0285878Y0260448D02*
X0342886Y0260448D01*
X0341887Y0261446D02*
X0286075Y0261446D01*
X0286075Y0262445D02*
X0325889Y0262445D01*
X0324890Y0263443D02*
X0285785Y0263443D01*
X0285361Y0264442D02*
X0323892Y0264442D01*
X0322893Y0265440D02*
X0284363Y0265440D01*
X0282842Y0267437D02*
X0320896Y0267437D01*
X0321895Y0266439D02*
X0026105Y0266439D01*
X0025107Y0265440D02*
X0218637Y0265440D01*
X0218909Y0265712D02*
X0217622Y0264425D01*
X0216925Y0262743D01*
X0216925Y0260923D01*
X0217622Y0259242D01*
X0218909Y0257955D01*
X0220590Y0257259D01*
X0222410Y0257259D01*
X0224091Y0257955D01*
X0225378Y0259242D01*
X0226075Y0260923D01*
X0226075Y0262743D01*
X0225378Y0264425D01*
X0224091Y0265712D01*
X0222410Y0266408D01*
X0220590Y0266408D01*
X0218909Y0265712D01*
X0217639Y0264442D02*
X0024108Y0264442D01*
X0023110Y0263443D02*
X0217215Y0263443D01*
X0216925Y0262445D02*
X0022111Y0262445D01*
X0027104Y0267437D02*
X0220158Y0267437D01*
X0220590Y0267259D02*
X0222410Y0267259D01*
X0224091Y0267955D01*
X0225378Y0269242D01*
X0226075Y0270923D01*
X0226075Y0272743D01*
X0225378Y0274425D01*
X0224091Y0275712D01*
X0222410Y0276408D01*
X0220590Y0276408D01*
X0218909Y0275712D01*
X0217622Y0274425D01*
X0216925Y0272743D01*
X0216925Y0270923D01*
X0217622Y0269242D01*
X0218909Y0267955D01*
X0220590Y0267259D01*
X0222842Y0267437D02*
X0280158Y0267437D01*
X0280590Y0267259D02*
X0282410Y0267259D01*
X0284091Y0267955D01*
X0285378Y0269242D01*
X0286075Y0270923D01*
X0286075Y0272743D01*
X0285378Y0274425D01*
X0284091Y0275712D01*
X0282410Y0276408D01*
X0280590Y0276408D01*
X0278909Y0275712D01*
X0277622Y0274425D01*
X0276925Y0272743D01*
X0276925Y0270923D01*
X0277622Y0269242D01*
X0278909Y0267955D01*
X0280590Y0267259D01*
X0278428Y0268436D02*
X0224572Y0268436D01*
X0225458Y0269434D02*
X0277542Y0269434D01*
X0277128Y0270433D02*
X0225872Y0270433D01*
X0226075Y0271431D02*
X0276925Y0271431D01*
X0276925Y0272430D02*
X0226075Y0272430D01*
X0225791Y0273428D02*
X0277209Y0273428D01*
X0277624Y0274427D02*
X0225376Y0274427D01*
X0224378Y0275425D02*
X0278622Y0275425D01*
X0284378Y0275425D02*
X0316500Y0275425D01*
X0316500Y0274427D02*
X0285376Y0274427D01*
X0285791Y0273428D02*
X0316500Y0273428D01*
X0316500Y0272430D02*
X0286075Y0272430D01*
X0286075Y0271431D02*
X0316902Y0271431D01*
X0317900Y0270433D02*
X0285872Y0270433D01*
X0285458Y0269434D02*
X0318899Y0269434D01*
X0319897Y0268436D02*
X0284572Y0268436D01*
X0278637Y0265440D02*
X0224363Y0265440D01*
X0225361Y0264442D02*
X0277639Y0264442D01*
X0281500Y0261833D02*
X0236500Y0261833D01*
X0231500Y0256833D01*
X0231500Y0141833D01*
X0226500Y0136833D01*
X0209000Y0136833D01*
X0204000Y0131833D01*
X0200250Y0131640D02*
X0186997Y0131640D01*
X0187517Y0130641D02*
X0200435Y0130641D01*
X0200887Y0129643D02*
X0187750Y0129643D01*
X0187750Y0128644D02*
X0201900Y0128644D01*
X0202778Y0127646D02*
X0193302Y0127646D01*
X0189698Y0127646D02*
X0187360Y0127646D01*
X0186617Y0126647D02*
X0188511Y0126647D01*
X0187986Y0125649D02*
X0184904Y0125649D01*
X0186486Y0124650D02*
X0187750Y0124650D01*
X0187750Y0123652D02*
X0187306Y0123652D01*
X0187719Y0122653D02*
X0188137Y0122653D01*
X0184000Y0129333D02*
X0181500Y0131833D01*
X0183232Y0133637D02*
X0200688Y0133637D01*
X0200274Y0132638D02*
X0185820Y0132638D01*
X0201499Y0134635D02*
X0159605Y0134635D01*
X0160062Y0135634D02*
X0204265Y0135634D01*
X0205263Y0136632D02*
X0160250Y0136632D01*
X0160229Y0137631D02*
X0206262Y0137631D01*
X0206064Y0138629D02*
X0207261Y0138629D01*
X0207098Y0139628D02*
X0218066Y0139628D01*
X0217608Y0140626D02*
X0207559Y0140626D01*
X0207750Y0141625D02*
X0221213Y0141625D01*
X0221787Y0141625D02*
X0227756Y0141625D01*
X0228755Y0142623D02*
X0225500Y0142623D01*
X0225474Y0142788D02*
X0225276Y0143398D01*
X0224985Y0143969D01*
X0224608Y0144488D01*
X0224155Y0144941D01*
X0223636Y0145318D01*
X0223064Y0145610D01*
X0222454Y0145808D01*
X0221821Y0145908D01*
X0221787Y0145908D01*
X0221787Y0142121D01*
X0225575Y0142121D01*
X0225575Y0142154D01*
X0225474Y0142788D01*
X0225162Y0143622D02*
X0229000Y0143622D01*
X0229000Y0144620D02*
X0224476Y0144620D01*
X0223035Y0145619D02*
X0229000Y0145619D01*
X0229000Y0146617D02*
X0220250Y0146617D01*
X0221213Y0145619D02*
X0221787Y0145619D01*
X0221787Y0144620D02*
X0221213Y0144620D01*
X0221213Y0143622D02*
X0221787Y0143622D01*
X0221787Y0142623D02*
X0221213Y0142623D01*
X0217500Y0142623D02*
X0215826Y0142623D01*
X0214000Y0144333D02*
X0216500Y0146833D01*
X0214000Y0144333D02*
X0206500Y0144333D01*
X0204000Y0141833D01*
X0201484Y0144620D02*
X0159590Y0144620D01*
X0160056Y0145619D02*
X0204250Y0145619D01*
X0205482Y0146617D02*
X0160250Y0146617D01*
X0160235Y0147616D02*
X0179534Y0147616D01*
X0179715Y0147524D02*
X0180411Y0147298D01*
X0181134Y0147183D01*
X0181200Y0147183D01*
X0181200Y0151533D01*
X0181800Y0151533D01*
X0181800Y0147183D01*
X0181866Y0147183D01*
X0182589Y0147298D01*
X0183285Y0147524D01*
X0183937Y0147856D01*
X0184529Y0148287D01*
X0185047Y0148804D01*
X0185477Y0149396D01*
X0185809Y0150048D01*
X0186035Y0150744D01*
X0186150Y0151467D01*
X0186150Y0151533D01*
X0181800Y0151533D01*
X0181800Y0152133D01*
X0186150Y0152133D01*
X0186150Y0152199D01*
X0186035Y0152922D01*
X0185809Y0153618D01*
X0185477Y0154270D01*
X0185047Y0154863D01*
X0184529Y0155380D01*
X0183937Y0155810D01*
X0183285Y0156143D01*
X0182589Y0156369D01*
X0181866Y0156483D01*
X0181800Y0156483D01*
X0181800Y0152133D01*
X0181200Y0152133D01*
X0181200Y0151533D01*
X0176850Y0151533D01*
X0176850Y0151467D01*
X0176964Y0150744D01*
X0177191Y0150048D01*
X0177523Y0149396D01*
X0177953Y0148804D01*
X0178471Y0148287D01*
X0179063Y0147856D01*
X0179715Y0147524D01*
X0181200Y0147616D02*
X0181800Y0147616D01*
X0181800Y0148614D02*
X0181200Y0148614D01*
X0181200Y0149613D02*
X0181800Y0149613D01*
X0181800Y0150612D02*
X0181200Y0150612D01*
X0181200Y0151610D02*
X0159000Y0151610D01*
X0159000Y0150612D02*
X0177008Y0150612D01*
X0177412Y0149613D02*
X0159024Y0149613D01*
X0159821Y0148614D02*
X0178143Y0148614D01*
X0176850Y0152133D02*
X0181200Y0152133D01*
X0181200Y0156483D01*
X0181134Y0156483D01*
X0180411Y0156369D01*
X0179715Y0156143D01*
X0179063Y0155810D01*
X0178471Y0155380D01*
X0177953Y0154863D01*
X0177523Y0154270D01*
X0177191Y0153618D01*
X0176964Y0152922D01*
X0176850Y0152199D01*
X0176850Y0152133D01*
X0176915Y0152609D02*
X0158885Y0152609D01*
X0158510Y0153607D02*
X0177187Y0153607D01*
X0177766Y0154606D02*
X0159576Y0154606D01*
X0160050Y0155604D02*
X0178779Y0155604D01*
X0181200Y0155604D02*
X0181800Y0155604D01*
X0181800Y0154606D02*
X0181200Y0154606D01*
X0181200Y0153607D02*
X0181800Y0153607D01*
X0181800Y0152609D02*
X0181200Y0152609D01*
X0181800Y0151610D02*
X0196350Y0151610D01*
X0196350Y0150809D02*
X0197134Y0148916D01*
X0198583Y0147467D01*
X0200476Y0146683D01*
X0202524Y0146683D01*
X0204417Y0147467D01*
X0205866Y0148916D01*
X0206650Y0150809D01*
X0206650Y0152858D01*
X0205866Y0154751D01*
X0204417Y0156199D01*
X0202524Y0156983D01*
X0200476Y0156983D01*
X0198583Y0156199D01*
X0197134Y0154751D01*
X0196350Y0152858D01*
X0196350Y0150809D01*
X0196432Y0150612D02*
X0185992Y0150612D01*
X0185587Y0149613D02*
X0196845Y0149613D01*
X0197436Y0148614D02*
X0184857Y0148614D01*
X0183465Y0147616D02*
X0198434Y0147616D01*
X0204566Y0147616D02*
X0212765Y0147616D01*
X0213179Y0148614D02*
X0205564Y0148614D01*
X0206155Y0149613D02*
X0213976Y0149613D01*
X0217054Y0150612D02*
X0206568Y0150612D01*
X0206650Y0151610D02*
X0216925Y0151610D01*
X0216925Y0152609D02*
X0206650Y0152609D01*
X0206340Y0153607D02*
X0217283Y0153607D01*
X0217802Y0154606D02*
X0205926Y0154606D01*
X0205012Y0155604D02*
X0218801Y0155604D01*
X0219763Y0157601D02*
X0160241Y0157601D01*
X0160250Y0156603D02*
X0199556Y0156603D01*
X0197988Y0155604D02*
X0184221Y0155604D01*
X0185234Y0154606D02*
X0197074Y0154606D01*
X0196660Y0153607D02*
X0185813Y0153607D01*
X0186085Y0152609D02*
X0196350Y0152609D01*
X0199493Y0159598D02*
X0159038Y0159598D01*
X0159000Y0160597D02*
X0198494Y0160597D01*
X0197496Y0161595D02*
X0159000Y0161595D01*
X0158891Y0162594D02*
X0196497Y0162594D01*
X0195499Y0163592D02*
X0158474Y0163592D01*
X0156500Y0161833D02*
X0156500Y0156833D01*
X0159827Y0158600D02*
X0218264Y0158600D01*
X0223237Y0157601D02*
X0229000Y0157601D01*
X0229000Y0156603D02*
X0203444Y0156603D01*
X0201987Y0165589D02*
X0218786Y0165589D01*
X0219799Y0167586D02*
X0199990Y0167586D01*
X0200988Y0166588D02*
X0229000Y0166588D01*
X0229000Y0167586D02*
X0223201Y0167586D01*
X0222410Y0167259D02*
X0224091Y0167955D01*
X0225378Y0169242D01*
X0226075Y0170923D01*
X0226075Y0172743D01*
X0225378Y0174425D01*
X0224091Y0175712D01*
X0222410Y0176408D01*
X0220590Y0176408D01*
X0218909Y0175712D01*
X0217622Y0174425D01*
X0216925Y0172743D01*
X0216925Y0170923D01*
X0217622Y0169242D01*
X0218909Y0167955D01*
X0220590Y0167259D01*
X0222410Y0167259D01*
X0224214Y0165589D02*
X0229000Y0165589D01*
X0229000Y0164591D02*
X0225212Y0164591D01*
X0225723Y0163592D02*
X0229000Y0163592D01*
X0229000Y0162594D02*
X0226075Y0162594D01*
X0226075Y0161595D02*
X0229000Y0161595D01*
X0229000Y0160597D02*
X0225939Y0160597D01*
X0225526Y0159598D02*
X0229000Y0159598D01*
X0229000Y0158600D02*
X0224736Y0158600D01*
X0224199Y0155604D02*
X0229000Y0155604D01*
X0229000Y0154606D02*
X0225198Y0154606D01*
X0225717Y0153607D02*
X0229000Y0153607D01*
X0229000Y0152609D02*
X0226075Y0152609D01*
X0226075Y0151610D02*
X0229000Y0151610D01*
X0229000Y0150612D02*
X0225946Y0150612D01*
X0225532Y0149613D02*
X0229000Y0149613D01*
X0229000Y0148614D02*
X0224751Y0148614D01*
X0223273Y0147616D02*
X0229000Y0147616D01*
X0226758Y0140626D02*
X0225392Y0140626D01*
X0225759Y0139628D02*
X0224934Y0139628D01*
X0239000Y0139628D02*
X0277462Y0139628D01*
X0277048Y0140626D02*
X0239000Y0140626D01*
X0239000Y0141625D02*
X0276925Y0141625D01*
X0276925Y0142623D02*
X0239000Y0142623D01*
X0239000Y0143622D02*
X0277289Y0143622D01*
X0277817Y0144620D02*
X0239000Y0144620D01*
X0239000Y0145619D02*
X0278816Y0145619D01*
X0278234Y0138629D02*
X0239000Y0138629D01*
X0239000Y0137631D02*
X0279691Y0137631D01*
X0239544Y0168585D02*
X0239000Y0168585D01*
X0229000Y0168585D02*
X0224721Y0168585D01*
X0225520Y0169583D02*
X0229000Y0169583D01*
X0229000Y0170582D02*
X0225933Y0170582D01*
X0226075Y0171580D02*
X0229000Y0171580D01*
X0229000Y0172579D02*
X0226075Y0172579D01*
X0225729Y0173577D02*
X0229000Y0173577D01*
X0229000Y0174576D02*
X0225227Y0174576D01*
X0224229Y0175574D02*
X0229000Y0175574D01*
X0219835Y0177571D02*
X0203378Y0177571D01*
X0204813Y0178570D02*
X0218294Y0178570D01*
X0217486Y0179568D02*
X0205565Y0179568D01*
X0198187Y0178570D02*
X0189006Y0178570D01*
X0188008Y0179568D02*
X0197435Y0179568D01*
X0197022Y0180567D02*
X0187009Y0180567D01*
X0182518Y0176573D02*
X0169775Y0176573D01*
X0169000Y0175574D02*
X0183516Y0175574D01*
X0184515Y0174576D02*
X0169000Y0174576D01*
X0169000Y0173577D02*
X0185513Y0173577D01*
X0186512Y0172579D02*
X0169000Y0172579D01*
X0169000Y0171580D02*
X0187510Y0171580D01*
X0188509Y0170582D02*
X0168688Y0170582D01*
X0167785Y0169583D02*
X0189507Y0169583D01*
X0190506Y0168585D02*
X0166787Y0168585D01*
X0165788Y0167586D02*
X0191504Y0167586D01*
X0192503Y0166588D02*
X0164790Y0166588D01*
X0163791Y0165589D02*
X0193501Y0165589D01*
X0194500Y0164591D02*
X0162619Y0164591D01*
X0161500Y0166833D02*
X0156500Y0166833D01*
X0151500Y0166833D02*
X0156500Y0161833D01*
X0151500Y0161833D02*
X0146500Y0161833D01*
X0141500Y0156833D01*
X0074000Y0156833D01*
X0069000Y0161833D01*
X0074000Y0166833D02*
X0069000Y0171833D01*
X0074000Y0166833D02*
X0141500Y0166833D01*
X0146500Y0171833D01*
X0151500Y0171833D01*
X0159000Y0171833D01*
X0161500Y0174333D01*
X0161500Y0176833D01*
X0184000Y0199333D01*
X0184000Y0204333D01*
X0180250Y0204531D02*
X0159501Y0204531D01*
X0160019Y0205530D02*
X0180437Y0205530D01*
X0180892Y0206528D02*
X0160250Y0206528D01*
X0160250Y0207527D02*
X0181910Y0207527D01*
X0183506Y0209524D02*
X0159113Y0209524D01*
X0159000Y0210522D02*
X0182984Y0210522D01*
X0182750Y0211521D02*
X0159000Y0211521D01*
X0158922Y0212519D02*
X0182750Y0212519D01*
X0183139Y0213518D02*
X0158351Y0213518D01*
X0159486Y0214516D02*
X0183880Y0214516D01*
X0185589Y0215515D02*
X0160013Y0215515D01*
X0160250Y0216513D02*
X0190077Y0216513D01*
X0191000Y0215515D02*
X0187411Y0215515D01*
X0189120Y0214516D02*
X0191000Y0214516D01*
X0191000Y0213518D02*
X0189861Y0213518D01*
X0190250Y0212519D02*
X0191000Y0212519D01*
X0191000Y0211521D02*
X0190348Y0211521D01*
X0190416Y0211453D02*
X0190416Y0211453D01*
X0189000Y0209333D02*
X0189000Y0199333D01*
X0166500Y0176833D01*
X0166500Y0171833D01*
X0161500Y0166833D01*
X0151500Y0166833D02*
X0146500Y0166833D01*
X0141500Y0161833D01*
X0124000Y0161833D01*
X0124000Y0171833D02*
X0141500Y0171833D01*
X0146500Y0176833D01*
X0151500Y0176833D01*
X0156500Y0176833D02*
X0156500Y0181833D01*
X0151500Y0186833D01*
X0146500Y0186833D01*
X0141500Y0181833D01*
X0124000Y0181833D01*
X0124000Y0191833D02*
X0141500Y0191833D01*
X0146500Y0196833D01*
X0151500Y0196833D01*
X0156500Y0191833D01*
X0156500Y0186833D01*
X0159083Y0189553D02*
X0170685Y0189553D01*
X0169686Y0188555D02*
X0159846Y0188555D01*
X0160250Y0187556D02*
X0168688Y0187556D01*
X0167689Y0186558D02*
X0160250Y0186558D01*
X0160031Y0185559D02*
X0166691Y0185559D01*
X0165692Y0184561D02*
X0159531Y0184561D01*
X0158402Y0183562D02*
X0164694Y0183562D01*
X0163695Y0182564D02*
X0158903Y0182564D01*
X0159000Y0181565D02*
X0162697Y0181565D01*
X0161698Y0180567D02*
X0159000Y0180567D01*
X0159068Y0179568D02*
X0160699Y0179568D01*
X0151500Y0181833D02*
X0146500Y0181833D01*
X0141500Y0176833D01*
X0074000Y0176833D01*
X0069000Y0181833D01*
X0074000Y0186833D02*
X0069000Y0191833D01*
X0074000Y0186833D02*
X0141500Y0186833D01*
X0146500Y0191833D01*
X0151500Y0191833D01*
X0156500Y0196833D02*
X0156500Y0201833D01*
X0151500Y0206833D01*
X0146500Y0206833D01*
X0141500Y0201833D01*
X0124000Y0201833D01*
X0124000Y0211833D02*
X0141500Y0211833D01*
X0146500Y0216833D01*
X0151500Y0216833D01*
X0156500Y0211833D01*
X0156500Y0206833D01*
X0159858Y0208525D02*
X0184687Y0208525D01*
X0186090Y0207527D02*
X0186500Y0207527D01*
X0189000Y0209333D02*
X0186500Y0211833D01*
X0189079Y0217512D02*
X0160250Y0217512D01*
X0159864Y0218510D02*
X0187223Y0218510D01*
X0186021Y0219509D02*
X0159128Y0219509D01*
X0159000Y0220507D02*
X0185490Y0220507D01*
X0185250Y0221506D02*
X0159000Y0221506D01*
X0158928Y0222504D02*
X0185250Y0222504D01*
X0185633Y0223503D02*
X0158366Y0223503D01*
X0159471Y0224501D02*
X0186365Y0224501D01*
X0196500Y0236833D02*
X0199000Y0234333D01*
X0192577Y0243473D02*
X0179716Y0243473D01*
X0180515Y0244472D02*
X0191904Y0244472D01*
X0191490Y0245470D02*
X0180946Y0245470D01*
X0181150Y0246469D02*
X0191350Y0246469D01*
X0191350Y0247467D02*
X0181108Y0247467D01*
X0180859Y0248466D02*
X0191602Y0248466D01*
X0192015Y0249464D02*
X0180336Y0249464D01*
X0179416Y0250463D02*
X0192846Y0250463D01*
X0217122Y0260448D02*
X0005114Y0260448D01*
X0004116Y0259449D02*
X0217536Y0259449D01*
X0218413Y0258451D02*
X0004000Y0258451D01*
X0004000Y0257452D02*
X0220122Y0257452D01*
X0222878Y0257452D02*
X0229050Y0257452D01*
X0229582Y0258451D02*
X0224587Y0258451D01*
X0225464Y0259449D02*
X0230580Y0259449D01*
X0231579Y0260448D02*
X0225878Y0260448D01*
X0226075Y0261446D02*
X0232577Y0261446D01*
X0233576Y0262445D02*
X0226075Y0262445D01*
X0225785Y0263443D02*
X0234574Y0263443D01*
X0236653Y0258451D02*
X0278413Y0258451D01*
X0280122Y0257452D02*
X0235654Y0257452D01*
X0241500Y0241833D02*
X0281500Y0241833D01*
X0278383Y0238481D02*
X0241683Y0238481D01*
X0240684Y0237482D02*
X0280050Y0237482D01*
X0284602Y0248466D02*
X0344000Y0248466D01*
X0344000Y0249464D02*
X0285470Y0249464D01*
X0285884Y0250463D02*
X0344000Y0250463D01*
X0344000Y0251461D02*
X0286075Y0251461D01*
X0286075Y0252460D02*
X0344000Y0252460D01*
X0344000Y0253458D02*
X0285779Y0253458D01*
X0285346Y0254457D02*
X0344000Y0254457D01*
X0344000Y0255455D02*
X0284348Y0255455D01*
X0316500Y0276424D02*
X0031500Y0276424D01*
X0031500Y0277422D02*
X0316500Y0277422D01*
X0316500Y0278421D02*
X0031500Y0278421D01*
X0031500Y0279419D02*
X0316500Y0279419D01*
X0316500Y0280418D02*
X0031500Y0280418D01*
X0031500Y0281416D02*
X0316500Y0281416D01*
X0316500Y0282415D02*
X0031500Y0282415D01*
X0031500Y0283414D02*
X0316500Y0283414D01*
X0316500Y0284412D02*
X0031500Y0284412D01*
X0031500Y0285411D02*
X0316500Y0285411D01*
X0316500Y0286409D02*
X0031500Y0286409D01*
X0032074Y0287408D02*
X0315926Y0287408D01*
X0314927Y0288406D02*
X0033073Y0288406D01*
X0031500Y0275425D02*
X0218622Y0275425D01*
X0217624Y0274427D02*
X0031500Y0274427D01*
X0031500Y0273428D02*
X0217209Y0273428D01*
X0216925Y0272430D02*
X0031500Y0272430D01*
X0031098Y0271431D02*
X0216925Y0271431D01*
X0217128Y0270433D02*
X0030100Y0270433D01*
X0029101Y0269434D02*
X0217542Y0269434D01*
X0218428Y0268436D02*
X0028103Y0268436D01*
X0006113Y0261446D02*
X0216925Y0261446D01*
X0209000Y0221833D02*
X0206500Y0219333D01*
X0206500Y0204333D01*
X0181494Y0201536D02*
X0159000Y0201536D01*
X0159000Y0200537D02*
X0181500Y0200537D01*
X0180670Y0199539D02*
X0159098Y0199539D01*
X0159852Y0198540D02*
X0179671Y0198540D01*
X0178673Y0197542D02*
X0160250Y0197542D01*
X0160250Y0196543D02*
X0177674Y0196543D01*
X0176676Y0195545D02*
X0160025Y0195545D01*
X0159516Y0194546D02*
X0175677Y0194546D01*
X0174679Y0193548D02*
X0158367Y0193548D01*
X0158910Y0192549D02*
X0173680Y0192549D01*
X0172682Y0191550D02*
X0159000Y0191550D01*
X0159000Y0190552D02*
X0171683Y0190552D01*
X0175766Y0182564D02*
X0176350Y0182564D01*
X0176350Y0181565D02*
X0174768Y0181565D01*
X0173769Y0180567D02*
X0176450Y0180567D01*
X0176864Y0179568D02*
X0172771Y0179568D01*
X0171772Y0178570D02*
X0177480Y0178570D01*
X0178479Y0177571D02*
X0170774Y0177571D01*
X0192002Y0175574D02*
X0218771Y0175574D01*
X0217773Y0174576D02*
X0193000Y0174576D01*
X0193999Y0173577D02*
X0217271Y0173577D01*
X0216925Y0172579D02*
X0194997Y0172579D01*
X0195996Y0171580D02*
X0216925Y0171580D01*
X0217067Y0170582D02*
X0196994Y0170582D01*
X0197993Y0169583D02*
X0217480Y0169583D01*
X0218279Y0168585D02*
X0198991Y0168585D01*
X0200682Y0143622D02*
X0158546Y0143622D01*
X0158879Y0142623D02*
X0200268Y0142623D01*
X0200250Y0141625D02*
X0159000Y0141625D01*
X0159000Y0140626D02*
X0200441Y0140626D01*
X0200902Y0139628D02*
X0159009Y0139628D01*
X0159815Y0138629D02*
X0201936Y0138629D01*
X0156500Y0136833D02*
X0156500Y0141833D01*
X0151500Y0146833D01*
X0146500Y0146833D01*
X0141500Y0141833D01*
X0124000Y0141833D01*
X0124000Y0151833D02*
X0141500Y0151833D01*
X0146500Y0156833D01*
X0151500Y0156833D01*
X0156500Y0151833D01*
X0156500Y0146833D01*
X0151500Y0151833D02*
X0146500Y0151833D01*
X0141500Y0146833D01*
X0074000Y0146833D01*
X0069000Y0151833D01*
X0069000Y0136833D02*
X0046500Y0136833D01*
X0041500Y0131833D01*
X0026500Y0131833D01*
X0069000Y0131833D02*
X0074000Y0126833D01*
X0124000Y0131833D02*
X0151500Y0131833D01*
X0156500Y0126833D01*
X0141500Y0196833D02*
X0074000Y0196833D01*
X0069000Y0201833D01*
X0074000Y0206833D02*
X0069000Y0211833D01*
X0074000Y0206833D02*
X0141500Y0206833D01*
X0146500Y0211833D01*
X0151500Y0211833D01*
X0156500Y0216833D02*
X0156500Y0221833D01*
X0151500Y0226833D01*
X0146500Y0226833D01*
X0141500Y0221833D01*
X0124000Y0221833D01*
X0124000Y0231833D02*
X0141500Y0231833D01*
X0146500Y0236833D01*
X0151500Y0236833D01*
X0156500Y0231833D01*
X0156500Y0226833D01*
X0151500Y0221833D02*
X0146500Y0221833D01*
X0141500Y0216833D01*
X0074000Y0216833D01*
X0069000Y0221833D01*
X0074000Y0226833D02*
X0069000Y0231833D01*
X0074000Y0226833D02*
X0141500Y0226833D01*
X0146500Y0231833D01*
X0151500Y0231833D01*
X0156500Y0236833D02*
X0156500Y0244333D01*
X0154000Y0246833D01*
X0129000Y0246833D01*
X0124000Y0241833D01*
X0136500Y0236833D02*
X0141500Y0241833D01*
X0151500Y0241833D01*
X0136500Y0236833D02*
X0074000Y0236833D01*
X0141500Y0196833D02*
X0146500Y0201833D01*
X0151500Y0201833D01*
X0158336Y0203533D02*
X0180273Y0203533D01*
X0180686Y0202534D02*
X0158916Y0202534D01*
X0324018Y0086707D02*
X0328982Y0086707D01*
X0327567Y0087705D02*
X0325433Y0087705D01*
X0326373Y0088704D02*
X0326627Y0088704D01*
X0334018Y0086707D02*
X0344000Y0086707D01*
X0344000Y0087705D02*
X0335433Y0087705D01*
X0336373Y0088704D02*
X0344000Y0088704D01*
X0344000Y0089702D02*
X0336787Y0089702D01*
X0337200Y0090701D02*
X0344000Y0090701D01*
X0344000Y0091699D02*
X0337200Y0091699D01*
X0337200Y0092698D02*
X0344000Y0092698D01*
X0344000Y0093696D02*
X0336898Y0093696D01*
X0336484Y0094695D02*
X0344000Y0094695D01*
X0344000Y0095693D02*
X0335701Y0095693D01*
X0334665Y0096692D02*
X0344000Y0096692D01*
X0344000Y0097690D02*
X0335418Y0097690D01*
X0336367Y0098689D02*
X0344000Y0098689D01*
X0344000Y0099687D02*
X0336781Y0099687D01*
X0337194Y0100686D02*
X0344000Y0100686D01*
X0344000Y0101684D02*
X0337200Y0101684D01*
X0337200Y0102683D02*
X0344000Y0102683D01*
X0344000Y0103681D02*
X0336904Y0103681D01*
X0336491Y0104680D02*
X0344000Y0104680D01*
X0344000Y0105679D02*
X0335716Y0105679D01*
X0334701Y0106677D02*
X0344000Y0106677D01*
X0344000Y0107676D02*
X0334624Y0107676D01*
X0335632Y0108674D02*
X0344000Y0108674D01*
X0344000Y0109673D02*
X0336235Y0109673D01*
X0336581Y0110671D02*
X0344000Y0110671D01*
D18*
X0311500Y0076833D03*
X0216500Y0146833D03*
X0204000Y0141833D03*
X0204000Y0131833D03*
X0206500Y0126833D03*
X0209000Y0119333D03*
X0191500Y0124333D03*
X0184000Y0121833D03*
X0184000Y0129333D03*
X0156500Y0126833D03*
X0156500Y0136833D03*
X0156500Y0146833D03*
X0151500Y0151833D03*
X0156500Y0156833D03*
X0151500Y0161833D03*
X0156500Y0166833D03*
X0151500Y0171833D03*
X0151500Y0176833D03*
X0156500Y0176833D03*
X0151500Y0181833D03*
X0156500Y0186833D03*
X0151500Y0191833D03*
X0156500Y0196833D03*
X0151500Y0201833D03*
X0156500Y0206833D03*
X0151500Y0211833D03*
X0156500Y0216833D03*
X0151500Y0221833D03*
X0156500Y0226833D03*
X0151500Y0231833D03*
X0156500Y0236833D03*
X0151500Y0241833D03*
X0124000Y0241833D03*
X0124000Y0231833D03*
X0124000Y0221833D03*
X0124000Y0211833D03*
X0124000Y0201833D03*
X0124000Y0191833D03*
X0124000Y0181833D03*
X0124000Y0171833D03*
X0124000Y0161833D03*
X0124000Y0151833D03*
X0124000Y0141833D03*
X0124000Y0131833D03*
X0124000Y0121833D03*
X0124000Y0111833D03*
X0124000Y0101833D03*
X0124000Y0091833D03*
X0149000Y0106833D03*
X0156500Y0106833D03*
X0156500Y0116833D03*
X0149000Y0116833D03*
X0164000Y0091833D03*
X0156500Y0086833D03*
X0189000Y0101833D03*
X0191500Y0096833D03*
X0241500Y0171833D03*
X0246500Y0176833D03*
X0241500Y0201833D03*
X0211500Y0214333D03*
X0209000Y0221833D03*
X0204000Y0231833D03*
X0196500Y0236833D03*
X0189000Y0221833D03*
X0186500Y0211833D03*
X0184000Y0204333D03*
X0206500Y0204333D03*
X0206500Y0189333D03*
X0266500Y0231833D03*
X0096500Y0231833D03*
X0096500Y0241833D03*
X0096500Y0221833D03*
X0096500Y0211833D03*
X0096500Y0201833D03*
X0096500Y0191833D03*
X0096500Y0181833D03*
X0096500Y0171833D03*
X0096500Y0161833D03*
X0096500Y0151833D03*
X0096500Y0141833D03*
X0096500Y0131833D03*
X0096500Y0121833D03*
X0096500Y0111833D03*
X0096500Y0101833D03*
X0096500Y0091833D03*
X0069000Y0091833D03*
X0069000Y0101833D03*
X0069000Y0111833D03*
X0069000Y0121833D03*
X0069000Y0131833D03*
X0069000Y0141833D03*
X0069000Y0151833D03*
X0069000Y0161833D03*
X0069000Y0171833D03*
X0069000Y0181833D03*
X0069000Y0191833D03*
X0069000Y0201833D03*
X0069000Y0211833D03*
X0069000Y0221833D03*
X0069000Y0231833D03*
X0069000Y0241833D03*
D19*
X0181500Y0186833D02*
X0181500Y0181833D01*
X0201500Y0161833D01*
X0221500Y0161833D01*
X0209000Y0181833D02*
X0201500Y0181833D01*
X0209000Y0181833D02*
X0214000Y0186833D01*
X0214000Y0211833D01*
X0211500Y0214333D01*
X0194000Y0216833D02*
X0189000Y0221833D01*
X0194000Y0216833D02*
X0194000Y0199333D01*
X0181500Y0186833D01*
X0191500Y0124333D02*
X0191500Y0116833D01*
X0206500Y0101833D01*
M02*
