G75*
%MOIN*%
%OFA0B0*%
%FSLAX25Y25*%
%IPPOS*%
%LPD*%
%AMOC8*
5,1,8,0,0,1.08239X$1,22.5*
%
%ADD10C,0.00000*%
%ADD11C,0.01000*%
D10*
X0009000Y0016833D02*
X0009002Y0017017D01*
X0009009Y0017201D01*
X0009020Y0017385D01*
X0009036Y0017568D01*
X0009056Y0017751D01*
X0009081Y0017933D01*
X0009110Y0018115D01*
X0009144Y0018296D01*
X0009182Y0018476D01*
X0009225Y0018655D01*
X0009272Y0018833D01*
X0009323Y0019010D01*
X0009379Y0019186D01*
X0009438Y0019360D01*
X0009503Y0019532D01*
X0009571Y0019703D01*
X0009643Y0019872D01*
X0009720Y0020040D01*
X0009801Y0020205D01*
X0009886Y0020368D01*
X0009974Y0020530D01*
X0010067Y0020689D01*
X0010164Y0020845D01*
X0010264Y0021000D01*
X0010368Y0021152D01*
X0010476Y0021301D01*
X0010587Y0021447D01*
X0010702Y0021591D01*
X0010821Y0021732D01*
X0010943Y0021870D01*
X0011068Y0022005D01*
X0011197Y0022136D01*
X0011328Y0022265D01*
X0011463Y0022390D01*
X0011601Y0022512D01*
X0011742Y0022631D01*
X0011886Y0022746D01*
X0012032Y0022857D01*
X0012181Y0022965D01*
X0012333Y0023069D01*
X0012488Y0023169D01*
X0012644Y0023266D01*
X0012803Y0023359D01*
X0012965Y0023447D01*
X0013128Y0023532D01*
X0013293Y0023613D01*
X0013461Y0023690D01*
X0013630Y0023762D01*
X0013801Y0023830D01*
X0013973Y0023895D01*
X0014147Y0023954D01*
X0014323Y0024010D01*
X0014500Y0024061D01*
X0014678Y0024108D01*
X0014857Y0024151D01*
X0015037Y0024189D01*
X0015218Y0024223D01*
X0015400Y0024252D01*
X0015582Y0024277D01*
X0015765Y0024297D01*
X0015948Y0024313D01*
X0016132Y0024324D01*
X0016316Y0024331D01*
X0016500Y0024333D01*
X0016684Y0024331D01*
X0016868Y0024324D01*
X0017052Y0024313D01*
X0017235Y0024297D01*
X0017418Y0024277D01*
X0017600Y0024252D01*
X0017782Y0024223D01*
X0017963Y0024189D01*
X0018143Y0024151D01*
X0018322Y0024108D01*
X0018500Y0024061D01*
X0018677Y0024010D01*
X0018853Y0023954D01*
X0019027Y0023895D01*
X0019199Y0023830D01*
X0019370Y0023762D01*
X0019539Y0023690D01*
X0019707Y0023613D01*
X0019872Y0023532D01*
X0020035Y0023447D01*
X0020197Y0023359D01*
X0020356Y0023266D01*
X0020512Y0023169D01*
X0020667Y0023069D01*
X0020819Y0022965D01*
X0020968Y0022857D01*
X0021114Y0022746D01*
X0021258Y0022631D01*
X0021399Y0022512D01*
X0021537Y0022390D01*
X0021672Y0022265D01*
X0021803Y0022136D01*
X0021932Y0022005D01*
X0022057Y0021870D01*
X0022179Y0021732D01*
X0022298Y0021591D01*
X0022413Y0021447D01*
X0022524Y0021301D01*
X0022632Y0021152D01*
X0022736Y0021000D01*
X0022836Y0020845D01*
X0022933Y0020689D01*
X0023026Y0020530D01*
X0023114Y0020368D01*
X0023199Y0020205D01*
X0023280Y0020040D01*
X0023357Y0019872D01*
X0023429Y0019703D01*
X0023497Y0019532D01*
X0023562Y0019360D01*
X0023621Y0019186D01*
X0023677Y0019010D01*
X0023728Y0018833D01*
X0023775Y0018655D01*
X0023818Y0018476D01*
X0023856Y0018296D01*
X0023890Y0018115D01*
X0023919Y0017933D01*
X0023944Y0017751D01*
X0023964Y0017568D01*
X0023980Y0017385D01*
X0023991Y0017201D01*
X0023998Y0017017D01*
X0024000Y0016833D01*
X0023998Y0016649D01*
X0023991Y0016465D01*
X0023980Y0016281D01*
X0023964Y0016098D01*
X0023944Y0015915D01*
X0023919Y0015733D01*
X0023890Y0015551D01*
X0023856Y0015370D01*
X0023818Y0015190D01*
X0023775Y0015011D01*
X0023728Y0014833D01*
X0023677Y0014656D01*
X0023621Y0014480D01*
X0023562Y0014306D01*
X0023497Y0014134D01*
X0023429Y0013963D01*
X0023357Y0013794D01*
X0023280Y0013626D01*
X0023199Y0013461D01*
X0023114Y0013298D01*
X0023026Y0013136D01*
X0022933Y0012977D01*
X0022836Y0012821D01*
X0022736Y0012666D01*
X0022632Y0012514D01*
X0022524Y0012365D01*
X0022413Y0012219D01*
X0022298Y0012075D01*
X0022179Y0011934D01*
X0022057Y0011796D01*
X0021932Y0011661D01*
X0021803Y0011530D01*
X0021672Y0011401D01*
X0021537Y0011276D01*
X0021399Y0011154D01*
X0021258Y0011035D01*
X0021114Y0010920D01*
X0020968Y0010809D01*
X0020819Y0010701D01*
X0020667Y0010597D01*
X0020512Y0010497D01*
X0020356Y0010400D01*
X0020197Y0010307D01*
X0020035Y0010219D01*
X0019872Y0010134D01*
X0019707Y0010053D01*
X0019539Y0009976D01*
X0019370Y0009904D01*
X0019199Y0009836D01*
X0019027Y0009771D01*
X0018853Y0009712D01*
X0018677Y0009656D01*
X0018500Y0009605D01*
X0018322Y0009558D01*
X0018143Y0009515D01*
X0017963Y0009477D01*
X0017782Y0009443D01*
X0017600Y0009414D01*
X0017418Y0009389D01*
X0017235Y0009369D01*
X0017052Y0009353D01*
X0016868Y0009342D01*
X0016684Y0009335D01*
X0016500Y0009333D01*
X0016316Y0009335D01*
X0016132Y0009342D01*
X0015948Y0009353D01*
X0015765Y0009369D01*
X0015582Y0009389D01*
X0015400Y0009414D01*
X0015218Y0009443D01*
X0015037Y0009477D01*
X0014857Y0009515D01*
X0014678Y0009558D01*
X0014500Y0009605D01*
X0014323Y0009656D01*
X0014147Y0009712D01*
X0013973Y0009771D01*
X0013801Y0009836D01*
X0013630Y0009904D01*
X0013461Y0009976D01*
X0013293Y0010053D01*
X0013128Y0010134D01*
X0012965Y0010219D01*
X0012803Y0010307D01*
X0012644Y0010400D01*
X0012488Y0010497D01*
X0012333Y0010597D01*
X0012181Y0010701D01*
X0012032Y0010809D01*
X0011886Y0010920D01*
X0011742Y0011035D01*
X0011601Y0011154D01*
X0011463Y0011276D01*
X0011328Y0011401D01*
X0011197Y0011530D01*
X0011068Y0011661D01*
X0010943Y0011796D01*
X0010821Y0011934D01*
X0010702Y0012075D01*
X0010587Y0012219D01*
X0010476Y0012365D01*
X0010368Y0012514D01*
X0010264Y0012666D01*
X0010164Y0012821D01*
X0010067Y0012977D01*
X0009974Y0013136D01*
X0009886Y0013298D01*
X0009801Y0013461D01*
X0009720Y0013626D01*
X0009643Y0013794D01*
X0009571Y0013963D01*
X0009503Y0014134D01*
X0009438Y0014306D01*
X0009379Y0014480D01*
X0009323Y0014656D01*
X0009272Y0014833D01*
X0009225Y0015011D01*
X0009182Y0015190D01*
X0009144Y0015370D01*
X0009110Y0015551D01*
X0009081Y0015733D01*
X0009056Y0015915D01*
X0009036Y0016098D01*
X0009020Y0016281D01*
X0009009Y0016465D01*
X0009002Y0016649D01*
X0009000Y0016833D01*
X0009000Y0276833D02*
X0009002Y0277017D01*
X0009009Y0277201D01*
X0009020Y0277385D01*
X0009036Y0277568D01*
X0009056Y0277751D01*
X0009081Y0277933D01*
X0009110Y0278115D01*
X0009144Y0278296D01*
X0009182Y0278476D01*
X0009225Y0278655D01*
X0009272Y0278833D01*
X0009323Y0279010D01*
X0009379Y0279186D01*
X0009438Y0279360D01*
X0009503Y0279532D01*
X0009571Y0279703D01*
X0009643Y0279872D01*
X0009720Y0280040D01*
X0009801Y0280205D01*
X0009886Y0280368D01*
X0009974Y0280530D01*
X0010067Y0280689D01*
X0010164Y0280845D01*
X0010264Y0281000D01*
X0010368Y0281152D01*
X0010476Y0281301D01*
X0010587Y0281447D01*
X0010702Y0281591D01*
X0010821Y0281732D01*
X0010943Y0281870D01*
X0011068Y0282005D01*
X0011197Y0282136D01*
X0011328Y0282265D01*
X0011463Y0282390D01*
X0011601Y0282512D01*
X0011742Y0282631D01*
X0011886Y0282746D01*
X0012032Y0282857D01*
X0012181Y0282965D01*
X0012333Y0283069D01*
X0012488Y0283169D01*
X0012644Y0283266D01*
X0012803Y0283359D01*
X0012965Y0283447D01*
X0013128Y0283532D01*
X0013293Y0283613D01*
X0013461Y0283690D01*
X0013630Y0283762D01*
X0013801Y0283830D01*
X0013973Y0283895D01*
X0014147Y0283954D01*
X0014323Y0284010D01*
X0014500Y0284061D01*
X0014678Y0284108D01*
X0014857Y0284151D01*
X0015037Y0284189D01*
X0015218Y0284223D01*
X0015400Y0284252D01*
X0015582Y0284277D01*
X0015765Y0284297D01*
X0015948Y0284313D01*
X0016132Y0284324D01*
X0016316Y0284331D01*
X0016500Y0284333D01*
X0016684Y0284331D01*
X0016868Y0284324D01*
X0017052Y0284313D01*
X0017235Y0284297D01*
X0017418Y0284277D01*
X0017600Y0284252D01*
X0017782Y0284223D01*
X0017963Y0284189D01*
X0018143Y0284151D01*
X0018322Y0284108D01*
X0018500Y0284061D01*
X0018677Y0284010D01*
X0018853Y0283954D01*
X0019027Y0283895D01*
X0019199Y0283830D01*
X0019370Y0283762D01*
X0019539Y0283690D01*
X0019707Y0283613D01*
X0019872Y0283532D01*
X0020035Y0283447D01*
X0020197Y0283359D01*
X0020356Y0283266D01*
X0020512Y0283169D01*
X0020667Y0283069D01*
X0020819Y0282965D01*
X0020968Y0282857D01*
X0021114Y0282746D01*
X0021258Y0282631D01*
X0021399Y0282512D01*
X0021537Y0282390D01*
X0021672Y0282265D01*
X0021803Y0282136D01*
X0021932Y0282005D01*
X0022057Y0281870D01*
X0022179Y0281732D01*
X0022298Y0281591D01*
X0022413Y0281447D01*
X0022524Y0281301D01*
X0022632Y0281152D01*
X0022736Y0281000D01*
X0022836Y0280845D01*
X0022933Y0280689D01*
X0023026Y0280530D01*
X0023114Y0280368D01*
X0023199Y0280205D01*
X0023280Y0280040D01*
X0023357Y0279872D01*
X0023429Y0279703D01*
X0023497Y0279532D01*
X0023562Y0279360D01*
X0023621Y0279186D01*
X0023677Y0279010D01*
X0023728Y0278833D01*
X0023775Y0278655D01*
X0023818Y0278476D01*
X0023856Y0278296D01*
X0023890Y0278115D01*
X0023919Y0277933D01*
X0023944Y0277751D01*
X0023964Y0277568D01*
X0023980Y0277385D01*
X0023991Y0277201D01*
X0023998Y0277017D01*
X0024000Y0276833D01*
X0023998Y0276649D01*
X0023991Y0276465D01*
X0023980Y0276281D01*
X0023964Y0276098D01*
X0023944Y0275915D01*
X0023919Y0275733D01*
X0023890Y0275551D01*
X0023856Y0275370D01*
X0023818Y0275190D01*
X0023775Y0275011D01*
X0023728Y0274833D01*
X0023677Y0274656D01*
X0023621Y0274480D01*
X0023562Y0274306D01*
X0023497Y0274134D01*
X0023429Y0273963D01*
X0023357Y0273794D01*
X0023280Y0273626D01*
X0023199Y0273461D01*
X0023114Y0273298D01*
X0023026Y0273136D01*
X0022933Y0272977D01*
X0022836Y0272821D01*
X0022736Y0272666D01*
X0022632Y0272514D01*
X0022524Y0272365D01*
X0022413Y0272219D01*
X0022298Y0272075D01*
X0022179Y0271934D01*
X0022057Y0271796D01*
X0021932Y0271661D01*
X0021803Y0271530D01*
X0021672Y0271401D01*
X0021537Y0271276D01*
X0021399Y0271154D01*
X0021258Y0271035D01*
X0021114Y0270920D01*
X0020968Y0270809D01*
X0020819Y0270701D01*
X0020667Y0270597D01*
X0020512Y0270497D01*
X0020356Y0270400D01*
X0020197Y0270307D01*
X0020035Y0270219D01*
X0019872Y0270134D01*
X0019707Y0270053D01*
X0019539Y0269976D01*
X0019370Y0269904D01*
X0019199Y0269836D01*
X0019027Y0269771D01*
X0018853Y0269712D01*
X0018677Y0269656D01*
X0018500Y0269605D01*
X0018322Y0269558D01*
X0018143Y0269515D01*
X0017963Y0269477D01*
X0017782Y0269443D01*
X0017600Y0269414D01*
X0017418Y0269389D01*
X0017235Y0269369D01*
X0017052Y0269353D01*
X0016868Y0269342D01*
X0016684Y0269335D01*
X0016500Y0269333D01*
X0016316Y0269335D01*
X0016132Y0269342D01*
X0015948Y0269353D01*
X0015765Y0269369D01*
X0015582Y0269389D01*
X0015400Y0269414D01*
X0015218Y0269443D01*
X0015037Y0269477D01*
X0014857Y0269515D01*
X0014678Y0269558D01*
X0014500Y0269605D01*
X0014323Y0269656D01*
X0014147Y0269712D01*
X0013973Y0269771D01*
X0013801Y0269836D01*
X0013630Y0269904D01*
X0013461Y0269976D01*
X0013293Y0270053D01*
X0013128Y0270134D01*
X0012965Y0270219D01*
X0012803Y0270307D01*
X0012644Y0270400D01*
X0012488Y0270497D01*
X0012333Y0270597D01*
X0012181Y0270701D01*
X0012032Y0270809D01*
X0011886Y0270920D01*
X0011742Y0271035D01*
X0011601Y0271154D01*
X0011463Y0271276D01*
X0011328Y0271401D01*
X0011197Y0271530D01*
X0011068Y0271661D01*
X0010943Y0271796D01*
X0010821Y0271934D01*
X0010702Y0272075D01*
X0010587Y0272219D01*
X0010476Y0272365D01*
X0010368Y0272514D01*
X0010264Y0272666D01*
X0010164Y0272821D01*
X0010067Y0272977D01*
X0009974Y0273136D01*
X0009886Y0273298D01*
X0009801Y0273461D01*
X0009720Y0273626D01*
X0009643Y0273794D01*
X0009571Y0273963D01*
X0009503Y0274134D01*
X0009438Y0274306D01*
X0009379Y0274480D01*
X0009323Y0274656D01*
X0009272Y0274833D01*
X0009225Y0275011D01*
X0009182Y0275190D01*
X0009144Y0275370D01*
X0009110Y0275551D01*
X0009081Y0275733D01*
X0009056Y0275915D01*
X0009036Y0276098D01*
X0009020Y0276281D01*
X0009009Y0276465D01*
X0009002Y0276649D01*
X0009000Y0276833D01*
X0324000Y0276833D02*
X0324002Y0277017D01*
X0324009Y0277201D01*
X0324020Y0277385D01*
X0324036Y0277568D01*
X0324056Y0277751D01*
X0324081Y0277933D01*
X0324110Y0278115D01*
X0324144Y0278296D01*
X0324182Y0278476D01*
X0324225Y0278655D01*
X0324272Y0278833D01*
X0324323Y0279010D01*
X0324379Y0279186D01*
X0324438Y0279360D01*
X0324503Y0279532D01*
X0324571Y0279703D01*
X0324643Y0279872D01*
X0324720Y0280040D01*
X0324801Y0280205D01*
X0324886Y0280368D01*
X0324974Y0280530D01*
X0325067Y0280689D01*
X0325164Y0280845D01*
X0325264Y0281000D01*
X0325368Y0281152D01*
X0325476Y0281301D01*
X0325587Y0281447D01*
X0325702Y0281591D01*
X0325821Y0281732D01*
X0325943Y0281870D01*
X0326068Y0282005D01*
X0326197Y0282136D01*
X0326328Y0282265D01*
X0326463Y0282390D01*
X0326601Y0282512D01*
X0326742Y0282631D01*
X0326886Y0282746D01*
X0327032Y0282857D01*
X0327181Y0282965D01*
X0327333Y0283069D01*
X0327488Y0283169D01*
X0327644Y0283266D01*
X0327803Y0283359D01*
X0327965Y0283447D01*
X0328128Y0283532D01*
X0328293Y0283613D01*
X0328461Y0283690D01*
X0328630Y0283762D01*
X0328801Y0283830D01*
X0328973Y0283895D01*
X0329147Y0283954D01*
X0329323Y0284010D01*
X0329500Y0284061D01*
X0329678Y0284108D01*
X0329857Y0284151D01*
X0330037Y0284189D01*
X0330218Y0284223D01*
X0330400Y0284252D01*
X0330582Y0284277D01*
X0330765Y0284297D01*
X0330948Y0284313D01*
X0331132Y0284324D01*
X0331316Y0284331D01*
X0331500Y0284333D01*
X0331684Y0284331D01*
X0331868Y0284324D01*
X0332052Y0284313D01*
X0332235Y0284297D01*
X0332418Y0284277D01*
X0332600Y0284252D01*
X0332782Y0284223D01*
X0332963Y0284189D01*
X0333143Y0284151D01*
X0333322Y0284108D01*
X0333500Y0284061D01*
X0333677Y0284010D01*
X0333853Y0283954D01*
X0334027Y0283895D01*
X0334199Y0283830D01*
X0334370Y0283762D01*
X0334539Y0283690D01*
X0334707Y0283613D01*
X0334872Y0283532D01*
X0335035Y0283447D01*
X0335197Y0283359D01*
X0335356Y0283266D01*
X0335512Y0283169D01*
X0335667Y0283069D01*
X0335819Y0282965D01*
X0335968Y0282857D01*
X0336114Y0282746D01*
X0336258Y0282631D01*
X0336399Y0282512D01*
X0336537Y0282390D01*
X0336672Y0282265D01*
X0336803Y0282136D01*
X0336932Y0282005D01*
X0337057Y0281870D01*
X0337179Y0281732D01*
X0337298Y0281591D01*
X0337413Y0281447D01*
X0337524Y0281301D01*
X0337632Y0281152D01*
X0337736Y0281000D01*
X0337836Y0280845D01*
X0337933Y0280689D01*
X0338026Y0280530D01*
X0338114Y0280368D01*
X0338199Y0280205D01*
X0338280Y0280040D01*
X0338357Y0279872D01*
X0338429Y0279703D01*
X0338497Y0279532D01*
X0338562Y0279360D01*
X0338621Y0279186D01*
X0338677Y0279010D01*
X0338728Y0278833D01*
X0338775Y0278655D01*
X0338818Y0278476D01*
X0338856Y0278296D01*
X0338890Y0278115D01*
X0338919Y0277933D01*
X0338944Y0277751D01*
X0338964Y0277568D01*
X0338980Y0277385D01*
X0338991Y0277201D01*
X0338998Y0277017D01*
X0339000Y0276833D01*
X0338998Y0276649D01*
X0338991Y0276465D01*
X0338980Y0276281D01*
X0338964Y0276098D01*
X0338944Y0275915D01*
X0338919Y0275733D01*
X0338890Y0275551D01*
X0338856Y0275370D01*
X0338818Y0275190D01*
X0338775Y0275011D01*
X0338728Y0274833D01*
X0338677Y0274656D01*
X0338621Y0274480D01*
X0338562Y0274306D01*
X0338497Y0274134D01*
X0338429Y0273963D01*
X0338357Y0273794D01*
X0338280Y0273626D01*
X0338199Y0273461D01*
X0338114Y0273298D01*
X0338026Y0273136D01*
X0337933Y0272977D01*
X0337836Y0272821D01*
X0337736Y0272666D01*
X0337632Y0272514D01*
X0337524Y0272365D01*
X0337413Y0272219D01*
X0337298Y0272075D01*
X0337179Y0271934D01*
X0337057Y0271796D01*
X0336932Y0271661D01*
X0336803Y0271530D01*
X0336672Y0271401D01*
X0336537Y0271276D01*
X0336399Y0271154D01*
X0336258Y0271035D01*
X0336114Y0270920D01*
X0335968Y0270809D01*
X0335819Y0270701D01*
X0335667Y0270597D01*
X0335512Y0270497D01*
X0335356Y0270400D01*
X0335197Y0270307D01*
X0335035Y0270219D01*
X0334872Y0270134D01*
X0334707Y0270053D01*
X0334539Y0269976D01*
X0334370Y0269904D01*
X0334199Y0269836D01*
X0334027Y0269771D01*
X0333853Y0269712D01*
X0333677Y0269656D01*
X0333500Y0269605D01*
X0333322Y0269558D01*
X0333143Y0269515D01*
X0332963Y0269477D01*
X0332782Y0269443D01*
X0332600Y0269414D01*
X0332418Y0269389D01*
X0332235Y0269369D01*
X0332052Y0269353D01*
X0331868Y0269342D01*
X0331684Y0269335D01*
X0331500Y0269333D01*
X0331316Y0269335D01*
X0331132Y0269342D01*
X0330948Y0269353D01*
X0330765Y0269369D01*
X0330582Y0269389D01*
X0330400Y0269414D01*
X0330218Y0269443D01*
X0330037Y0269477D01*
X0329857Y0269515D01*
X0329678Y0269558D01*
X0329500Y0269605D01*
X0329323Y0269656D01*
X0329147Y0269712D01*
X0328973Y0269771D01*
X0328801Y0269836D01*
X0328630Y0269904D01*
X0328461Y0269976D01*
X0328293Y0270053D01*
X0328128Y0270134D01*
X0327965Y0270219D01*
X0327803Y0270307D01*
X0327644Y0270400D01*
X0327488Y0270497D01*
X0327333Y0270597D01*
X0327181Y0270701D01*
X0327032Y0270809D01*
X0326886Y0270920D01*
X0326742Y0271035D01*
X0326601Y0271154D01*
X0326463Y0271276D01*
X0326328Y0271401D01*
X0326197Y0271530D01*
X0326068Y0271661D01*
X0325943Y0271796D01*
X0325821Y0271934D01*
X0325702Y0272075D01*
X0325587Y0272219D01*
X0325476Y0272365D01*
X0325368Y0272514D01*
X0325264Y0272666D01*
X0325164Y0272821D01*
X0325067Y0272977D01*
X0324974Y0273136D01*
X0324886Y0273298D01*
X0324801Y0273461D01*
X0324720Y0273626D01*
X0324643Y0273794D01*
X0324571Y0273963D01*
X0324503Y0274134D01*
X0324438Y0274306D01*
X0324379Y0274480D01*
X0324323Y0274656D01*
X0324272Y0274833D01*
X0324225Y0275011D01*
X0324182Y0275190D01*
X0324144Y0275370D01*
X0324110Y0275551D01*
X0324081Y0275733D01*
X0324056Y0275915D01*
X0324036Y0276098D01*
X0324020Y0276281D01*
X0324009Y0276465D01*
X0324002Y0276649D01*
X0324000Y0276833D01*
X0324000Y0016833D02*
X0324002Y0017017D01*
X0324009Y0017201D01*
X0324020Y0017385D01*
X0324036Y0017568D01*
X0324056Y0017751D01*
X0324081Y0017933D01*
X0324110Y0018115D01*
X0324144Y0018296D01*
X0324182Y0018476D01*
X0324225Y0018655D01*
X0324272Y0018833D01*
X0324323Y0019010D01*
X0324379Y0019186D01*
X0324438Y0019360D01*
X0324503Y0019532D01*
X0324571Y0019703D01*
X0324643Y0019872D01*
X0324720Y0020040D01*
X0324801Y0020205D01*
X0324886Y0020368D01*
X0324974Y0020530D01*
X0325067Y0020689D01*
X0325164Y0020845D01*
X0325264Y0021000D01*
X0325368Y0021152D01*
X0325476Y0021301D01*
X0325587Y0021447D01*
X0325702Y0021591D01*
X0325821Y0021732D01*
X0325943Y0021870D01*
X0326068Y0022005D01*
X0326197Y0022136D01*
X0326328Y0022265D01*
X0326463Y0022390D01*
X0326601Y0022512D01*
X0326742Y0022631D01*
X0326886Y0022746D01*
X0327032Y0022857D01*
X0327181Y0022965D01*
X0327333Y0023069D01*
X0327488Y0023169D01*
X0327644Y0023266D01*
X0327803Y0023359D01*
X0327965Y0023447D01*
X0328128Y0023532D01*
X0328293Y0023613D01*
X0328461Y0023690D01*
X0328630Y0023762D01*
X0328801Y0023830D01*
X0328973Y0023895D01*
X0329147Y0023954D01*
X0329323Y0024010D01*
X0329500Y0024061D01*
X0329678Y0024108D01*
X0329857Y0024151D01*
X0330037Y0024189D01*
X0330218Y0024223D01*
X0330400Y0024252D01*
X0330582Y0024277D01*
X0330765Y0024297D01*
X0330948Y0024313D01*
X0331132Y0024324D01*
X0331316Y0024331D01*
X0331500Y0024333D01*
X0331684Y0024331D01*
X0331868Y0024324D01*
X0332052Y0024313D01*
X0332235Y0024297D01*
X0332418Y0024277D01*
X0332600Y0024252D01*
X0332782Y0024223D01*
X0332963Y0024189D01*
X0333143Y0024151D01*
X0333322Y0024108D01*
X0333500Y0024061D01*
X0333677Y0024010D01*
X0333853Y0023954D01*
X0334027Y0023895D01*
X0334199Y0023830D01*
X0334370Y0023762D01*
X0334539Y0023690D01*
X0334707Y0023613D01*
X0334872Y0023532D01*
X0335035Y0023447D01*
X0335197Y0023359D01*
X0335356Y0023266D01*
X0335512Y0023169D01*
X0335667Y0023069D01*
X0335819Y0022965D01*
X0335968Y0022857D01*
X0336114Y0022746D01*
X0336258Y0022631D01*
X0336399Y0022512D01*
X0336537Y0022390D01*
X0336672Y0022265D01*
X0336803Y0022136D01*
X0336932Y0022005D01*
X0337057Y0021870D01*
X0337179Y0021732D01*
X0337298Y0021591D01*
X0337413Y0021447D01*
X0337524Y0021301D01*
X0337632Y0021152D01*
X0337736Y0021000D01*
X0337836Y0020845D01*
X0337933Y0020689D01*
X0338026Y0020530D01*
X0338114Y0020368D01*
X0338199Y0020205D01*
X0338280Y0020040D01*
X0338357Y0019872D01*
X0338429Y0019703D01*
X0338497Y0019532D01*
X0338562Y0019360D01*
X0338621Y0019186D01*
X0338677Y0019010D01*
X0338728Y0018833D01*
X0338775Y0018655D01*
X0338818Y0018476D01*
X0338856Y0018296D01*
X0338890Y0018115D01*
X0338919Y0017933D01*
X0338944Y0017751D01*
X0338964Y0017568D01*
X0338980Y0017385D01*
X0338991Y0017201D01*
X0338998Y0017017D01*
X0339000Y0016833D01*
X0338998Y0016649D01*
X0338991Y0016465D01*
X0338980Y0016281D01*
X0338964Y0016098D01*
X0338944Y0015915D01*
X0338919Y0015733D01*
X0338890Y0015551D01*
X0338856Y0015370D01*
X0338818Y0015190D01*
X0338775Y0015011D01*
X0338728Y0014833D01*
X0338677Y0014656D01*
X0338621Y0014480D01*
X0338562Y0014306D01*
X0338497Y0014134D01*
X0338429Y0013963D01*
X0338357Y0013794D01*
X0338280Y0013626D01*
X0338199Y0013461D01*
X0338114Y0013298D01*
X0338026Y0013136D01*
X0337933Y0012977D01*
X0337836Y0012821D01*
X0337736Y0012666D01*
X0337632Y0012514D01*
X0337524Y0012365D01*
X0337413Y0012219D01*
X0337298Y0012075D01*
X0337179Y0011934D01*
X0337057Y0011796D01*
X0336932Y0011661D01*
X0336803Y0011530D01*
X0336672Y0011401D01*
X0336537Y0011276D01*
X0336399Y0011154D01*
X0336258Y0011035D01*
X0336114Y0010920D01*
X0335968Y0010809D01*
X0335819Y0010701D01*
X0335667Y0010597D01*
X0335512Y0010497D01*
X0335356Y0010400D01*
X0335197Y0010307D01*
X0335035Y0010219D01*
X0334872Y0010134D01*
X0334707Y0010053D01*
X0334539Y0009976D01*
X0334370Y0009904D01*
X0334199Y0009836D01*
X0334027Y0009771D01*
X0333853Y0009712D01*
X0333677Y0009656D01*
X0333500Y0009605D01*
X0333322Y0009558D01*
X0333143Y0009515D01*
X0332963Y0009477D01*
X0332782Y0009443D01*
X0332600Y0009414D01*
X0332418Y0009389D01*
X0332235Y0009369D01*
X0332052Y0009353D01*
X0331868Y0009342D01*
X0331684Y0009335D01*
X0331500Y0009333D01*
X0331316Y0009335D01*
X0331132Y0009342D01*
X0330948Y0009353D01*
X0330765Y0009369D01*
X0330582Y0009389D01*
X0330400Y0009414D01*
X0330218Y0009443D01*
X0330037Y0009477D01*
X0329857Y0009515D01*
X0329678Y0009558D01*
X0329500Y0009605D01*
X0329323Y0009656D01*
X0329147Y0009712D01*
X0328973Y0009771D01*
X0328801Y0009836D01*
X0328630Y0009904D01*
X0328461Y0009976D01*
X0328293Y0010053D01*
X0328128Y0010134D01*
X0327965Y0010219D01*
X0327803Y0010307D01*
X0327644Y0010400D01*
X0327488Y0010497D01*
X0327333Y0010597D01*
X0327181Y0010701D01*
X0327032Y0010809D01*
X0326886Y0010920D01*
X0326742Y0011035D01*
X0326601Y0011154D01*
X0326463Y0011276D01*
X0326328Y0011401D01*
X0326197Y0011530D01*
X0326068Y0011661D01*
X0325943Y0011796D01*
X0325821Y0011934D01*
X0325702Y0012075D01*
X0325587Y0012219D01*
X0325476Y0012365D01*
X0325368Y0012514D01*
X0325264Y0012666D01*
X0325164Y0012821D01*
X0325067Y0012977D01*
X0324974Y0013136D01*
X0324886Y0013298D01*
X0324801Y0013461D01*
X0324720Y0013626D01*
X0324643Y0013794D01*
X0324571Y0013963D01*
X0324503Y0014134D01*
X0324438Y0014306D01*
X0324379Y0014480D01*
X0324323Y0014656D01*
X0324272Y0014833D01*
X0324225Y0015011D01*
X0324182Y0015190D01*
X0324144Y0015370D01*
X0324110Y0015551D01*
X0324081Y0015733D01*
X0324056Y0015915D01*
X0324036Y0016098D01*
X0324020Y0016281D01*
X0324009Y0016465D01*
X0324002Y0016649D01*
X0324000Y0016833D01*
D11*
X0346500Y0001833D02*
X0001500Y0001833D01*
X0001500Y0291833D01*
X0346500Y0291833D01*
X0346500Y0001833D01*
M02*
